G04 #@! TF.GenerationSoftware,KiCad,Pcbnew,5.1.0-rc2-unknown-036be7d~80~ubuntu16.04.1*
G04 #@! TF.CreationDate,2022-06-21T13:21:02+03:00*
G04 #@! TF.ProjectId,RT1010Py_Rev.C,52543130-3130-4507-995f-5265762e432e,C*
G04 #@! TF.SameCoordinates,Original*
G04 #@! TF.FileFunction,Copper,L3,Inr*
G04 #@! TF.FilePolarity,Positive*
%FSLAX46Y46*%
G04 Gerber Fmt 4.6, Leading zero omitted, Abs format (unit mm)*
G04 Created by KiCad (PCBNEW 5.1.0-rc2-unknown-036be7d~80~ubuntu16.04.1) date 2022-06-21 13:21:02*
%MOMM*%
%LPD*%
G04 APERTURE LIST*
%ADD10C,0.190500*%
%ADD11C,1.778000*%
%ADD12R,1.778000X1.778000*%
%ADD13O,1.200000X1.800000*%
%ADD14C,0.700000*%
%ADD15C,1.000000*%
%ADD16C,0.600000*%
%ADD17C,1.016000*%
%ADD18C,0.254000*%
G04 APERTURE END LIST*
D10*
X140843000Y-113247714D02*
X141314714Y-113247714D01*
X141060714Y-113538000D01*
X141169571Y-113538000D01*
X141242142Y-113574285D01*
X141278428Y-113610571D01*
X141314714Y-113683142D01*
X141314714Y-113864571D01*
X141278428Y-113937142D01*
X141242142Y-113973428D01*
X141169571Y-114009714D01*
X140951857Y-114009714D01*
X140879285Y-113973428D01*
X140843000Y-113937142D01*
D11*
X139700000Y-71120000D03*
X139700000Y-68580000D03*
X139700000Y-66040000D03*
D12*
X139700000Y-63500000D03*
D11*
X139700000Y-73660000D03*
X139700000Y-76200000D03*
X139700000Y-81280000D03*
X139700000Y-78740000D03*
X139700000Y-83820000D03*
X139700000Y-86360000D03*
X139700000Y-91440000D03*
X139700000Y-88900000D03*
X139700000Y-93980000D03*
X139700000Y-96520000D03*
X139700000Y-101600000D03*
X139700000Y-99060000D03*
X139700000Y-109220000D03*
X139700000Y-111760000D03*
X139700000Y-106680000D03*
X139700000Y-104140000D03*
X162560000Y-71120000D03*
X162560000Y-68580000D03*
X162560000Y-66040000D03*
D12*
X162560000Y-63500000D03*
D11*
X162560000Y-73660000D03*
X162560000Y-76200000D03*
X162560000Y-81280000D03*
X162560000Y-78740000D03*
X162560000Y-83820000D03*
X162560000Y-86360000D03*
X162560000Y-91440000D03*
X162560000Y-88900000D03*
X162560000Y-93980000D03*
X162560000Y-96520000D03*
X162560000Y-101600000D03*
X162560000Y-99060000D03*
X162560000Y-109220000D03*
X162560000Y-111760000D03*
X162560000Y-106680000D03*
X162560000Y-104140000D03*
D13*
X147530000Y-64266000D03*
X147530000Y-67736000D03*
X154730000Y-67736000D03*
X154730000Y-64266000D03*
D14*
X144018000Y-109728000D03*
D15*
X149479000Y-72136000D03*
D14*
X155067000Y-107442000D03*
D15*
X144272000Y-67310000D03*
X147828000Y-76454000D03*
D16*
X160782000Y-84455000D03*
D14*
X156083000Y-87503000D03*
D15*
X148971000Y-68326000D03*
X150241000Y-65913000D03*
X160020000Y-67564000D03*
X158877000Y-67564000D03*
D16*
X146431000Y-62865000D03*
X156210000Y-62103000D03*
D15*
X157353000Y-97409000D03*
X157734000Y-91694000D03*
D16*
X143002000Y-75184000D03*
X143103600Y-88138000D03*
X143103600Y-89027000D03*
D14*
X145542000Y-91313000D03*
X144526000Y-91313000D03*
X152654000Y-94107000D03*
X151511000Y-94107000D03*
D15*
X147193000Y-84074000D03*
D16*
X148463000Y-93980000D03*
X147574000Y-93980000D03*
X150749000Y-84328000D03*
X154305000Y-86995000D03*
D15*
X141732000Y-98933000D03*
D14*
X145669000Y-98552000D03*
D15*
X154940000Y-102235000D03*
D16*
X160782000Y-109601000D03*
X157099000Y-113411000D03*
D14*
X154051000Y-107442000D03*
X149733000Y-111760000D03*
X158623000Y-105156000D03*
D16*
X146050000Y-113284000D03*
D14*
X146939000Y-108585000D03*
D16*
X162560000Y-113411000D03*
D14*
X144018000Y-107315000D03*
D16*
X159258000Y-81153000D03*
X150749000Y-76454000D03*
D14*
X157988000Y-110490000D03*
X145161000Y-101981000D03*
X148717000Y-104140000D03*
X154559000Y-103886000D03*
D16*
X139192000Y-61722000D03*
D14*
X159105600Y-77698600D03*
D16*
X160782000Y-85471000D03*
X154051000Y-83820000D03*
D15*
X146177000Y-86995000D03*
D14*
X147320000Y-81280000D03*
D15*
X143192500Y-98742500D03*
X157734000Y-62865000D03*
X156845000Y-73152000D03*
X154686000Y-84963000D03*
D16*
X154178000Y-89916000D03*
X149352000Y-90805000D03*
X156464000Y-91821000D03*
X151257000Y-90805000D03*
D15*
X156337000Y-70358000D03*
X142240000Y-65024000D03*
X148082000Y-72009000D03*
X156337000Y-71755000D03*
X148717000Y-89662000D03*
D16*
X147447000Y-86741000D03*
X142113000Y-102997000D03*
X146558000Y-93853000D03*
X142748000Y-80137000D03*
X143510000Y-79375000D03*
X150622000Y-80518000D03*
X151257000Y-98806000D03*
X153670000Y-80899000D03*
X154432000Y-81661000D03*
X155067000Y-80772000D03*
X156210000Y-80645000D03*
X160528000Y-86741000D03*
X160528000Y-87630000D03*
X152781000Y-111887000D03*
X148386800Y-111963200D03*
X154813000Y-108458000D03*
X150749000Y-107442000D03*
X150495000Y-110109000D03*
X152781000Y-110744000D03*
D15*
X152019000Y-65913000D03*
D16*
X156083000Y-85090000D03*
X158242000Y-101092000D03*
X153797000Y-111887000D03*
X153289000Y-106680000D03*
X156845000Y-79756000D03*
X147320000Y-90170000D03*
X154940000Y-90805000D03*
X158623000Y-98552000D03*
X152273000Y-69088000D03*
X153162000Y-86606100D03*
X151384000Y-69088000D03*
X153162000Y-87383900D03*
X156591000Y-100203000D03*
X141859000Y-79629000D03*
X149860000Y-81153000D03*
X150114000Y-98806000D03*
X149098000Y-100965000D03*
X149098000Y-102616000D03*
X145669000Y-78486000D03*
X140970000Y-65024000D03*
D15*
X143764000Y-77216000D03*
D14*
X156972000Y-77724000D03*
X156083000Y-86233000D03*
D15*
X146685000Y-89027000D03*
D14*
X145923000Y-83947000D03*
D15*
X158242000Y-96266000D03*
D16*
X143256000Y-104267000D03*
D14*
X152654000Y-101473000D03*
X147320000Y-106553000D03*
X151511000Y-111760000D03*
D17*
X143129000Y-98679000D02*
X143192500Y-98742500D01*
X146177000Y-86995000D02*
X146177000Y-87503000D01*
X145288000Y-88392000D02*
X145288000Y-89001600D01*
X143129000Y-91160600D02*
X143129000Y-98679000D01*
X146177000Y-87503000D02*
X145288000Y-88392000D01*
X145288000Y-89001600D02*
X143129000Y-91160600D01*
X146177000Y-86233000D02*
X146177000Y-86995000D01*
X147320000Y-81280000D02*
X146812000Y-81280000D01*
X146812000Y-81280000D02*
X144653000Y-83439000D01*
X144653000Y-83439000D02*
X144653000Y-84709000D01*
X144653000Y-84709000D02*
X146177000Y-86233000D01*
X157607000Y-72390000D02*
X157607000Y-62992000D01*
X157607000Y-62992000D02*
X157734000Y-62865000D01*
X156845000Y-73152000D02*
X157607000Y-72390000D01*
X158038800Y-81610200D02*
X154686000Y-84963000D01*
X158038800Y-76758800D02*
X158038800Y-81610200D01*
X156845000Y-75565000D02*
X158038800Y-76758800D01*
X156845000Y-73152000D02*
X156845000Y-75565000D01*
X156210000Y-70231000D02*
X156337000Y-70358000D01*
X156210000Y-66802000D02*
X156210000Y-70231000D01*
X155448000Y-66040000D02*
X156210000Y-66802000D01*
X154305000Y-66040000D02*
X155448000Y-66040000D01*
X139700000Y-63500000D02*
X144399000Y-63500000D01*
X144399000Y-63500000D02*
X146939000Y-66040000D01*
X146939000Y-66040000D02*
X147955000Y-66040000D01*
X152908000Y-64643000D02*
X154305000Y-66040000D01*
X149352000Y-64643000D02*
X152908000Y-64643000D01*
X147955000Y-66040000D02*
X149352000Y-64643000D01*
X143891000Y-65024000D02*
X142240000Y-65024000D01*
X145923000Y-67056000D02*
X143891000Y-65024000D01*
X145923000Y-69850000D02*
X145923000Y-67056000D01*
X148082000Y-72009000D02*
X145923000Y-69850000D01*
X148082000Y-71628000D02*
X148082000Y-72009000D01*
X156337000Y-71755000D02*
X155702000Y-71755000D01*
X155702000Y-71755000D02*
X154432000Y-70485000D01*
X154432000Y-70485000D02*
X149225000Y-70485000D01*
X149225000Y-70485000D02*
X148082000Y-71628000D01*
X139700000Y-111760000D02*
X140462000Y-110998000D01*
D18*
X140919200Y-99390200D02*
X140919200Y-98348800D01*
X140919200Y-98348800D02*
X142240000Y-97028000D01*
X145669000Y-80899000D02*
X145669000Y-78486000D01*
X141097000Y-99568000D02*
X140919200Y-99390200D01*
X141097000Y-110363000D02*
X141097000Y-99568000D01*
X144399000Y-88646000D02*
X144399000Y-85979000D01*
X140462000Y-110998000D02*
X141097000Y-110363000D01*
X142240000Y-97028000D02*
X142240000Y-90805000D01*
X143637000Y-85217000D02*
X143637000Y-82931000D01*
X142240000Y-90805000D02*
X144399000Y-88646000D01*
X143637000Y-82931000D02*
X145669000Y-80899000D01*
X144399000Y-85979000D02*
X143637000Y-85217000D01*
X140970000Y-65024000D02*
X140970000Y-72390000D01*
D17*
X151892000Y-74803000D02*
X151892000Y-84582000D01*
X150749000Y-73660000D02*
X151892000Y-74803000D01*
X139700000Y-73660000D02*
X150749000Y-73660000D01*
D18*
G36*
X147070150Y-62444571D02*
G01*
X147086052Y-62463948D01*
X147105429Y-62479850D01*
X147163404Y-62527429D01*
X147181520Y-62537112D01*
X147251657Y-62574601D01*
X147347415Y-62603649D01*
X147422053Y-62611000D01*
X147422055Y-62611000D01*
X147446999Y-62613457D01*
X147471943Y-62611000D01*
X154788056Y-62611000D01*
X154813000Y-62613457D01*
X154837944Y-62611000D01*
X154837947Y-62611000D01*
X154912585Y-62603649D01*
X155008343Y-62574601D01*
X155096595Y-62527429D01*
X155173948Y-62463948D01*
X155189855Y-62444565D01*
X155529000Y-62105420D01*
X155529000Y-62170073D01*
X155555171Y-62301640D01*
X155606506Y-62425574D01*
X155681033Y-62537112D01*
X155775888Y-62631967D01*
X155887426Y-62706494D01*
X156011360Y-62757829D01*
X156142927Y-62784000D01*
X156277073Y-62784000D01*
X156408640Y-62757829D01*
X156532574Y-62706494D01*
X156644112Y-62631967D01*
X156738967Y-62537112D01*
X156813494Y-62425574D01*
X156864829Y-62301640D01*
X156891000Y-62170073D01*
X156891000Y-62035927D01*
X156864829Y-61904360D01*
X156813494Y-61780426D01*
X156738967Y-61668888D01*
X156644112Y-61574033D01*
X156532574Y-61499506D01*
X156456512Y-61468000D01*
X163322000Y-61468000D01*
X163322000Y-62228157D01*
X161671000Y-62228157D01*
X161596311Y-62235513D01*
X161524492Y-62257299D01*
X161458304Y-62292678D01*
X161400289Y-62340289D01*
X161352678Y-62398304D01*
X161317299Y-62464492D01*
X161295513Y-62536311D01*
X161288157Y-62611000D01*
X161288157Y-64389000D01*
X161295513Y-64463689D01*
X161317299Y-64535508D01*
X161352678Y-64601696D01*
X161400289Y-64659711D01*
X161458304Y-64707322D01*
X161524492Y-64742701D01*
X161596311Y-64764487D01*
X161671000Y-64771843D01*
X162425651Y-64771843D01*
X162189555Y-64818805D01*
X161958429Y-64914541D01*
X161750422Y-65053527D01*
X161573527Y-65230422D01*
X161434541Y-65438429D01*
X161338805Y-65669555D01*
X161290000Y-65914916D01*
X161290000Y-66165084D01*
X161338805Y-66410445D01*
X161434541Y-66641571D01*
X161573527Y-66849578D01*
X161750422Y-67026473D01*
X161958429Y-67165459D01*
X162189555Y-67261195D01*
X162434916Y-67310000D01*
X162189555Y-67358805D01*
X161958429Y-67454541D01*
X161750422Y-67593527D01*
X161573527Y-67770422D01*
X161434541Y-67978429D01*
X161338805Y-68209555D01*
X161290000Y-68454916D01*
X161290000Y-68705084D01*
X161338805Y-68950445D01*
X161434541Y-69181571D01*
X161573527Y-69389578D01*
X161750422Y-69566473D01*
X161958429Y-69705459D01*
X162189555Y-69801195D01*
X162434916Y-69850000D01*
X162189555Y-69898805D01*
X161958429Y-69994541D01*
X161750422Y-70133527D01*
X161573527Y-70310422D01*
X161434541Y-70518429D01*
X161338805Y-70749555D01*
X161290000Y-70994916D01*
X161290000Y-71245084D01*
X161338805Y-71490445D01*
X161434541Y-71721571D01*
X161573527Y-71929578D01*
X161750422Y-72106473D01*
X161958429Y-72245459D01*
X162189555Y-72341195D01*
X162434916Y-72390000D01*
X162189555Y-72438805D01*
X161958429Y-72534541D01*
X161750422Y-72673527D01*
X161573527Y-72850422D01*
X161434541Y-73058429D01*
X161338805Y-73289555D01*
X161290000Y-73534916D01*
X161290000Y-73785084D01*
X161338805Y-74030445D01*
X161434541Y-74261571D01*
X161573527Y-74469578D01*
X161750422Y-74646473D01*
X161958429Y-74785459D01*
X162189555Y-74881195D01*
X162434916Y-74930000D01*
X162189555Y-74978805D01*
X161958429Y-75074541D01*
X161750422Y-75213527D01*
X161573527Y-75390422D01*
X161434541Y-75598429D01*
X161338805Y-75829555D01*
X161290000Y-76074916D01*
X161290000Y-76325084D01*
X161338805Y-76570445D01*
X161434541Y-76801571D01*
X161573527Y-77009578D01*
X161750422Y-77186473D01*
X161958429Y-77325459D01*
X162189555Y-77421195D01*
X162434916Y-77470000D01*
X162189555Y-77518805D01*
X161958429Y-77614541D01*
X161750422Y-77753527D01*
X161573527Y-77930422D01*
X161434541Y-78138429D01*
X161338805Y-78369555D01*
X161290000Y-78614916D01*
X161290000Y-78865084D01*
X161338805Y-79110445D01*
X161434541Y-79341571D01*
X161573527Y-79549578D01*
X161750422Y-79726473D01*
X161958429Y-79865459D01*
X162189555Y-79961195D01*
X162434916Y-80010000D01*
X162189555Y-80058805D01*
X161958429Y-80154541D01*
X161750422Y-80293527D01*
X161573527Y-80470422D01*
X161434541Y-80678429D01*
X161338805Y-80909555D01*
X161290000Y-81154916D01*
X161290000Y-81405084D01*
X161338805Y-81650445D01*
X161434541Y-81881571D01*
X161573527Y-82089578D01*
X161750422Y-82266473D01*
X161958429Y-82405459D01*
X162189555Y-82501195D01*
X162434916Y-82550000D01*
X162189555Y-82598805D01*
X161958429Y-82694541D01*
X161750422Y-82833527D01*
X161573527Y-83010422D01*
X161434541Y-83218429D01*
X161338805Y-83449555D01*
X161290000Y-83694916D01*
X161290000Y-83945084D01*
X161303616Y-84013537D01*
X161216112Y-83926033D01*
X161104574Y-83851506D01*
X160980640Y-83800171D01*
X160849073Y-83774000D01*
X160714927Y-83774000D01*
X160583360Y-83800171D01*
X160459426Y-83851506D01*
X160347888Y-83926033D01*
X160253033Y-84020888D01*
X160178506Y-84132426D01*
X160127171Y-84256360D01*
X160101000Y-84387927D01*
X160101000Y-84522073D01*
X160127171Y-84653640D01*
X160178506Y-84777574D01*
X160253033Y-84889112D01*
X160326921Y-84963000D01*
X160253033Y-85036888D01*
X160178506Y-85148426D01*
X160127171Y-85272360D01*
X160101000Y-85403927D01*
X160101000Y-85538073D01*
X160127171Y-85669640D01*
X160178506Y-85793574D01*
X160253033Y-85905112D01*
X160347888Y-85999967D01*
X160443055Y-86063555D01*
X160329360Y-86086171D01*
X160205426Y-86137506D01*
X160093888Y-86212033D01*
X159999033Y-86306888D01*
X159924506Y-86418426D01*
X159873171Y-86542360D01*
X159847000Y-86673927D01*
X159847000Y-86808073D01*
X159873171Y-86939640D01*
X159924506Y-87063574D01*
X159999033Y-87175112D01*
X160009421Y-87185500D01*
X159999033Y-87195888D01*
X159924506Y-87307426D01*
X159873171Y-87431360D01*
X159847000Y-87562927D01*
X159847000Y-87697073D01*
X159873171Y-87828640D01*
X159924506Y-87952574D01*
X159999033Y-88064112D01*
X160093888Y-88158967D01*
X160205426Y-88233494D01*
X160329360Y-88284829D01*
X160460927Y-88311000D01*
X160595073Y-88311000D01*
X160726640Y-88284829D01*
X160850574Y-88233494D01*
X160962112Y-88158967D01*
X161056967Y-88064112D01*
X161131494Y-87952574D01*
X161182829Y-87828640D01*
X161209000Y-87697073D01*
X161209000Y-87562927D01*
X161182829Y-87431360D01*
X161131494Y-87307426D01*
X161056967Y-87195888D01*
X161046579Y-87185500D01*
X161056967Y-87175112D01*
X161131494Y-87063574D01*
X161182829Y-86939640D01*
X161209000Y-86808073D01*
X161209000Y-86673927D01*
X161182829Y-86542360D01*
X161131494Y-86418426D01*
X161056967Y-86306888D01*
X160962112Y-86212033D01*
X160866945Y-86148445D01*
X160980640Y-86125829D01*
X161104574Y-86074494D01*
X161216112Y-85999967D01*
X161310967Y-85905112D01*
X161385494Y-85793574D01*
X161436829Y-85669640D01*
X161463000Y-85538073D01*
X161463000Y-85403927D01*
X161436829Y-85272360D01*
X161385494Y-85148426D01*
X161310967Y-85036888D01*
X161237079Y-84963000D01*
X161310967Y-84889112D01*
X161385494Y-84777574D01*
X161436829Y-84653640D01*
X161463000Y-84522073D01*
X161463000Y-84464163D01*
X161573527Y-84629578D01*
X161750422Y-84806473D01*
X161958429Y-84945459D01*
X162189555Y-85041195D01*
X162434916Y-85090000D01*
X162189555Y-85138805D01*
X161958429Y-85234541D01*
X161750422Y-85373527D01*
X161573527Y-85550422D01*
X161434541Y-85758429D01*
X161338805Y-85989555D01*
X161290000Y-86234916D01*
X161290000Y-86485084D01*
X161338805Y-86730445D01*
X161434541Y-86961571D01*
X161573527Y-87169578D01*
X161750422Y-87346473D01*
X161958429Y-87485459D01*
X162189555Y-87581195D01*
X162434916Y-87630000D01*
X162189555Y-87678805D01*
X161958429Y-87774541D01*
X161750422Y-87913527D01*
X161573527Y-88090422D01*
X161434541Y-88298429D01*
X161338805Y-88529555D01*
X161290000Y-88774916D01*
X161290000Y-89025084D01*
X161338805Y-89270445D01*
X161434541Y-89501571D01*
X161573527Y-89709578D01*
X161750422Y-89886473D01*
X161958429Y-90025459D01*
X162189555Y-90121195D01*
X162434916Y-90170000D01*
X162189555Y-90218805D01*
X161958429Y-90314541D01*
X161750422Y-90453527D01*
X161573527Y-90630422D01*
X161434541Y-90838429D01*
X161338805Y-91069555D01*
X161290000Y-91314916D01*
X161290000Y-91565084D01*
X161338805Y-91810445D01*
X161434541Y-92041571D01*
X161573527Y-92249578D01*
X161750422Y-92426473D01*
X161958429Y-92565459D01*
X162189555Y-92661195D01*
X162434916Y-92710000D01*
X162189555Y-92758805D01*
X161958429Y-92854541D01*
X161750422Y-92993527D01*
X161573527Y-93170422D01*
X161434541Y-93378429D01*
X161338805Y-93609555D01*
X161290000Y-93854916D01*
X161290000Y-94105084D01*
X161338805Y-94350445D01*
X161434541Y-94581571D01*
X161573527Y-94789578D01*
X161750422Y-94966473D01*
X161958429Y-95105459D01*
X162189555Y-95201195D01*
X162434916Y-95250000D01*
X162189555Y-95298805D01*
X161958429Y-95394541D01*
X161750422Y-95533527D01*
X161573527Y-95710422D01*
X161434541Y-95918429D01*
X161338805Y-96149555D01*
X161290000Y-96394916D01*
X161290000Y-96645084D01*
X161338805Y-96890445D01*
X161434541Y-97121571D01*
X161573527Y-97329578D01*
X161750422Y-97506473D01*
X161958429Y-97645459D01*
X162189555Y-97741195D01*
X162434916Y-97790000D01*
X162189555Y-97838805D01*
X161958429Y-97934541D01*
X161750422Y-98073527D01*
X161573527Y-98250422D01*
X161434541Y-98458429D01*
X161338805Y-98689555D01*
X161290000Y-98934916D01*
X161290000Y-99185084D01*
X161338805Y-99430445D01*
X161434541Y-99661571D01*
X161573527Y-99869578D01*
X161750422Y-100046473D01*
X161958429Y-100185459D01*
X162189555Y-100281195D01*
X162434916Y-100330000D01*
X162189555Y-100378805D01*
X161958429Y-100474541D01*
X161750422Y-100613527D01*
X161573527Y-100790422D01*
X161434541Y-100998429D01*
X161338805Y-101229555D01*
X161290000Y-101474916D01*
X161290000Y-101725084D01*
X161338805Y-101970445D01*
X161434541Y-102201571D01*
X161573527Y-102409578D01*
X161750422Y-102586473D01*
X161958429Y-102725459D01*
X162189555Y-102821195D01*
X162434916Y-102870000D01*
X162189555Y-102918805D01*
X161958429Y-103014541D01*
X161750422Y-103153527D01*
X161573527Y-103330422D01*
X161434541Y-103538429D01*
X161338805Y-103769555D01*
X161290000Y-104014916D01*
X161290000Y-104265084D01*
X161338805Y-104510445D01*
X161434541Y-104741571D01*
X161573527Y-104949578D01*
X161750422Y-105126473D01*
X161958429Y-105265459D01*
X162189555Y-105361195D01*
X162434916Y-105410000D01*
X162189555Y-105458805D01*
X161958429Y-105554541D01*
X161750422Y-105693527D01*
X161573527Y-105870422D01*
X161434541Y-106078429D01*
X161338805Y-106309555D01*
X161290000Y-106554916D01*
X161290000Y-106805084D01*
X161338805Y-107050445D01*
X161434541Y-107281571D01*
X161573527Y-107489578D01*
X161750422Y-107666473D01*
X161958429Y-107805459D01*
X162189555Y-107901195D01*
X162434916Y-107950000D01*
X162189555Y-107998805D01*
X161958429Y-108094541D01*
X161750422Y-108233527D01*
X161573527Y-108410422D01*
X161434541Y-108618429D01*
X161338805Y-108849555D01*
X161290000Y-109094916D01*
X161290000Y-109145921D01*
X161216112Y-109072033D01*
X161104574Y-108997506D01*
X160980640Y-108946171D01*
X160849073Y-108920000D01*
X160714927Y-108920000D01*
X160583360Y-108946171D01*
X160459426Y-108997506D01*
X160347888Y-109072033D01*
X160253033Y-109166888D01*
X160178506Y-109278426D01*
X160127171Y-109402360D01*
X160101000Y-109533927D01*
X160101000Y-109668073D01*
X160127171Y-109799640D01*
X160178506Y-109923574D01*
X160253033Y-110035112D01*
X160347888Y-110129967D01*
X160459426Y-110204494D01*
X160583360Y-110255829D01*
X160714927Y-110282000D01*
X160849073Y-110282000D01*
X160980640Y-110255829D01*
X161104574Y-110204494D01*
X161216112Y-110129967D01*
X161310967Y-110035112D01*
X161385494Y-109923574D01*
X161431143Y-109813367D01*
X161434541Y-109821571D01*
X161573527Y-110029578D01*
X161750422Y-110206473D01*
X161958429Y-110345459D01*
X162189555Y-110441195D01*
X162434916Y-110490000D01*
X162189555Y-110538805D01*
X161958429Y-110634541D01*
X161750422Y-110773527D01*
X161573527Y-110950422D01*
X161434541Y-111158429D01*
X161338805Y-111389555D01*
X161290000Y-111634916D01*
X161290000Y-111885084D01*
X161338805Y-112130445D01*
X161434541Y-112361571D01*
X161573527Y-112569578D01*
X161750422Y-112746473D01*
X161958429Y-112885459D01*
X162074418Y-112933503D01*
X162031033Y-112976888D01*
X161956506Y-113088426D01*
X161905171Y-113212360D01*
X161879000Y-113343927D01*
X161879000Y-113478073D01*
X161905171Y-113609640D01*
X161956506Y-113733574D01*
X161995545Y-113792000D01*
X157663455Y-113792000D01*
X157702494Y-113733574D01*
X157753829Y-113609640D01*
X157780000Y-113478073D01*
X157780000Y-113343927D01*
X157753829Y-113212360D01*
X157702494Y-113088426D01*
X157627967Y-112976888D01*
X157533112Y-112882033D01*
X157421574Y-112807506D01*
X157297640Y-112756171D01*
X157166073Y-112730000D01*
X157031927Y-112730000D01*
X156900360Y-112756171D01*
X156776426Y-112807506D01*
X156664888Y-112882033D01*
X156570033Y-112976888D01*
X156495506Y-113088426D01*
X156444171Y-113212360D01*
X156418000Y-113343927D01*
X156418000Y-113478073D01*
X156444171Y-113609640D01*
X156495506Y-113733574D01*
X156534545Y-113792000D01*
X146505079Y-113792000D01*
X146578967Y-113718112D01*
X146653494Y-113606574D01*
X146704829Y-113482640D01*
X146731000Y-113351073D01*
X146731000Y-113216927D01*
X146704829Y-113085360D01*
X146653494Y-112961426D01*
X146578967Y-112849888D01*
X146484112Y-112755033D01*
X146372574Y-112680506D01*
X146248640Y-112629171D01*
X146117073Y-112603000D01*
X145982927Y-112603000D01*
X145851360Y-112629171D01*
X145727426Y-112680506D01*
X145615888Y-112755033D01*
X145521033Y-112849888D01*
X145446506Y-112961426D01*
X145395171Y-113085360D01*
X145369000Y-113216927D01*
X145369000Y-113351073D01*
X145395171Y-113482640D01*
X145446506Y-113606574D01*
X145521033Y-113718112D01*
X145594921Y-113792000D01*
X142925800Y-113792000D01*
X142925800Y-112852200D01*
X142923360Y-112827424D01*
X142916133Y-112803599D01*
X142904397Y-112781643D01*
X142888603Y-112762397D01*
X142869357Y-112746603D01*
X142847401Y-112734867D01*
X142823576Y-112727640D01*
X142798800Y-112725200D01*
X141936107Y-112725200D01*
X141936107Y-112687735D01*
X140568316Y-112687735D01*
X140686473Y-112569578D01*
X140825459Y-112361571D01*
X140921195Y-112130445D01*
X140967803Y-111896127D01*
X147705800Y-111896127D01*
X147705800Y-112030273D01*
X147731971Y-112161840D01*
X147783306Y-112285774D01*
X147857833Y-112397312D01*
X147952688Y-112492167D01*
X148064226Y-112566694D01*
X148188160Y-112618029D01*
X148319727Y-112644200D01*
X148453873Y-112644200D01*
X148585440Y-112618029D01*
X148709374Y-112566694D01*
X148820912Y-112492167D01*
X148915767Y-112397312D01*
X148990294Y-112285774D01*
X149041629Y-112161840D01*
X149063233Y-112053234D01*
X149085196Y-112106258D01*
X149165195Y-112225985D01*
X149267015Y-112327805D01*
X149386742Y-112407804D01*
X149519775Y-112462908D01*
X149661003Y-112491000D01*
X149804997Y-112491000D01*
X149946225Y-112462908D01*
X150079258Y-112407804D01*
X150198985Y-112327805D01*
X150300805Y-112225985D01*
X150380804Y-112106258D01*
X150435908Y-111973225D01*
X150464000Y-111831997D01*
X150464000Y-111688003D01*
X150435908Y-111546775D01*
X150380804Y-111413742D01*
X150300805Y-111294015D01*
X150198985Y-111192195D01*
X150079258Y-111112196D01*
X149946225Y-111057092D01*
X149804997Y-111029000D01*
X149661003Y-111029000D01*
X149519775Y-111057092D01*
X149386742Y-111112196D01*
X149267015Y-111192195D01*
X149165195Y-111294015D01*
X149085196Y-111413742D01*
X149030092Y-111546775D01*
X149004569Y-111675089D01*
X148990294Y-111640626D01*
X148915767Y-111529088D01*
X148820912Y-111434233D01*
X148709374Y-111359706D01*
X148585440Y-111308371D01*
X148453873Y-111282200D01*
X148319727Y-111282200D01*
X148188160Y-111308371D01*
X148064226Y-111359706D01*
X147952688Y-111434233D01*
X147857833Y-111529088D01*
X147783306Y-111640626D01*
X147731971Y-111764560D01*
X147705800Y-111896127D01*
X140967803Y-111896127D01*
X140970000Y-111885084D01*
X140970000Y-111747236D01*
X141121495Y-111595741D01*
X141204752Y-111494292D01*
X141287302Y-111339852D01*
X141338136Y-111172275D01*
X141355300Y-110998000D01*
X141339621Y-110838799D01*
X141438565Y-110739855D01*
X141457948Y-110723948D01*
X141521429Y-110646595D01*
X141568601Y-110558343D01*
X141597649Y-110462585D01*
X141605000Y-110387947D01*
X141605000Y-110387944D01*
X141607457Y-110363000D01*
X141605000Y-110338056D01*
X141605000Y-109656003D01*
X143287000Y-109656003D01*
X143287000Y-109799997D01*
X143315092Y-109941225D01*
X143370196Y-110074258D01*
X143450195Y-110193985D01*
X143552015Y-110295805D01*
X143671742Y-110375804D01*
X143804775Y-110430908D01*
X143946003Y-110459000D01*
X144089997Y-110459000D01*
X144231225Y-110430908D01*
X144364258Y-110375804D01*
X144483985Y-110295805D01*
X144585805Y-110193985D01*
X144665804Y-110074258D01*
X144679195Y-110041927D01*
X149814000Y-110041927D01*
X149814000Y-110176073D01*
X149840171Y-110307640D01*
X149891506Y-110431574D01*
X149966033Y-110543112D01*
X150060888Y-110637967D01*
X150172426Y-110712494D01*
X150296360Y-110763829D01*
X150427927Y-110790000D01*
X150562073Y-110790000D01*
X150693640Y-110763829D01*
X150817574Y-110712494D01*
X150870803Y-110676927D01*
X152100000Y-110676927D01*
X152100000Y-110811073D01*
X152126171Y-110942640D01*
X152177506Y-111066574D01*
X152252033Y-111178112D01*
X152346888Y-111272967D01*
X152410543Y-111315500D01*
X152346888Y-111358033D01*
X152252033Y-111452888D01*
X152177506Y-111564426D01*
X152126171Y-111688360D01*
X152100000Y-111819927D01*
X152100000Y-111954073D01*
X152126171Y-112085640D01*
X152177506Y-112209574D01*
X152252033Y-112321112D01*
X152346888Y-112415967D01*
X152458426Y-112490494D01*
X152582360Y-112541829D01*
X152713927Y-112568000D01*
X152848073Y-112568000D01*
X152979640Y-112541829D01*
X153103574Y-112490494D01*
X153215112Y-112415967D01*
X153289000Y-112342079D01*
X153362888Y-112415967D01*
X153474426Y-112490494D01*
X153598360Y-112541829D01*
X153729927Y-112568000D01*
X153864073Y-112568000D01*
X153995640Y-112541829D01*
X154119574Y-112490494D01*
X154231112Y-112415967D01*
X154325967Y-112321112D01*
X154400494Y-112209574D01*
X154451829Y-112085640D01*
X154478000Y-111954073D01*
X154478000Y-111819927D01*
X154451829Y-111688360D01*
X154400494Y-111564426D01*
X154325967Y-111452888D01*
X154231112Y-111358033D01*
X154119574Y-111283506D01*
X153995640Y-111232171D01*
X153864073Y-111206000D01*
X153729927Y-111206000D01*
X153598360Y-111232171D01*
X153474426Y-111283506D01*
X153362888Y-111358033D01*
X153289000Y-111431921D01*
X153215112Y-111358033D01*
X153151457Y-111315500D01*
X153215112Y-111272967D01*
X153309967Y-111178112D01*
X153384494Y-111066574D01*
X153435829Y-110942640D01*
X153462000Y-110811073D01*
X153462000Y-110676927D01*
X153435829Y-110545360D01*
X153384494Y-110421426D01*
X153382207Y-110418003D01*
X157257000Y-110418003D01*
X157257000Y-110561997D01*
X157285092Y-110703225D01*
X157340196Y-110836258D01*
X157420195Y-110955985D01*
X157522015Y-111057805D01*
X157641742Y-111137804D01*
X157774775Y-111192908D01*
X157916003Y-111221000D01*
X158059997Y-111221000D01*
X158201225Y-111192908D01*
X158334258Y-111137804D01*
X158453985Y-111057805D01*
X158555805Y-110955985D01*
X158635804Y-110836258D01*
X158690908Y-110703225D01*
X158719000Y-110561997D01*
X158719000Y-110418003D01*
X158690908Y-110276775D01*
X158635804Y-110143742D01*
X158555805Y-110024015D01*
X158453985Y-109922195D01*
X158334258Y-109842196D01*
X158201225Y-109787092D01*
X158059997Y-109759000D01*
X157916003Y-109759000D01*
X157774775Y-109787092D01*
X157641742Y-109842196D01*
X157522015Y-109922195D01*
X157420195Y-110024015D01*
X157340196Y-110143742D01*
X157285092Y-110276775D01*
X157257000Y-110418003D01*
X153382207Y-110418003D01*
X153309967Y-110309888D01*
X153215112Y-110215033D01*
X153103574Y-110140506D01*
X152979640Y-110089171D01*
X152848073Y-110063000D01*
X152713927Y-110063000D01*
X152582360Y-110089171D01*
X152458426Y-110140506D01*
X152346888Y-110215033D01*
X152252033Y-110309888D01*
X152177506Y-110421426D01*
X152126171Y-110545360D01*
X152100000Y-110676927D01*
X150870803Y-110676927D01*
X150929112Y-110637967D01*
X151023967Y-110543112D01*
X151098494Y-110431574D01*
X151149829Y-110307640D01*
X151176000Y-110176073D01*
X151176000Y-110041927D01*
X151149829Y-109910360D01*
X151098494Y-109786426D01*
X151023967Y-109674888D01*
X150929112Y-109580033D01*
X150817574Y-109505506D01*
X150693640Y-109454171D01*
X150562073Y-109428000D01*
X150427927Y-109428000D01*
X150296360Y-109454171D01*
X150172426Y-109505506D01*
X150060888Y-109580033D01*
X149966033Y-109674888D01*
X149891506Y-109786426D01*
X149840171Y-109910360D01*
X149814000Y-110041927D01*
X144679195Y-110041927D01*
X144720908Y-109941225D01*
X144749000Y-109799997D01*
X144749000Y-109656003D01*
X144720908Y-109514775D01*
X144665804Y-109381742D01*
X144585805Y-109262015D01*
X144483985Y-109160195D01*
X144364258Y-109080196D01*
X144231225Y-109025092D01*
X144089997Y-108997000D01*
X143946003Y-108997000D01*
X143804775Y-109025092D01*
X143671742Y-109080196D01*
X143552015Y-109160195D01*
X143450195Y-109262015D01*
X143370196Y-109381742D01*
X143315092Y-109514775D01*
X143287000Y-109656003D01*
X141605000Y-109656003D01*
X141605000Y-108513003D01*
X146208000Y-108513003D01*
X146208000Y-108656997D01*
X146236092Y-108798225D01*
X146291196Y-108931258D01*
X146371195Y-109050985D01*
X146473015Y-109152805D01*
X146592742Y-109232804D01*
X146725775Y-109287908D01*
X146867003Y-109316000D01*
X147010997Y-109316000D01*
X147152225Y-109287908D01*
X147285258Y-109232804D01*
X147404985Y-109152805D01*
X147506805Y-109050985D01*
X147586804Y-108931258D01*
X147641908Y-108798225D01*
X147670000Y-108656997D01*
X147670000Y-108513003D01*
X147641908Y-108371775D01*
X147586804Y-108238742D01*
X147506805Y-108119015D01*
X147404985Y-108017195D01*
X147285258Y-107937196D01*
X147152225Y-107882092D01*
X147010997Y-107854000D01*
X146867003Y-107854000D01*
X146725775Y-107882092D01*
X146592742Y-107937196D01*
X146473015Y-108017195D01*
X146371195Y-108119015D01*
X146291196Y-108238742D01*
X146236092Y-108371775D01*
X146208000Y-108513003D01*
X141605000Y-108513003D01*
X141605000Y-107243003D01*
X143287000Y-107243003D01*
X143287000Y-107386997D01*
X143315092Y-107528225D01*
X143370196Y-107661258D01*
X143450195Y-107780985D01*
X143552015Y-107882805D01*
X143671742Y-107962804D01*
X143804775Y-108017908D01*
X143946003Y-108046000D01*
X144089997Y-108046000D01*
X144231225Y-108017908D01*
X144364258Y-107962804D01*
X144483985Y-107882805D01*
X144585805Y-107780985D01*
X144665804Y-107661258D01*
X144720908Y-107528225D01*
X144749000Y-107386997D01*
X144749000Y-107374927D01*
X150068000Y-107374927D01*
X150068000Y-107509073D01*
X150094171Y-107640640D01*
X150145506Y-107764574D01*
X150220033Y-107876112D01*
X150314888Y-107970967D01*
X150426426Y-108045494D01*
X150550360Y-108096829D01*
X150681927Y-108123000D01*
X150816073Y-108123000D01*
X150947640Y-108096829D01*
X151071574Y-108045494D01*
X151183112Y-107970967D01*
X151277967Y-107876112D01*
X151352494Y-107764574D01*
X151403829Y-107640640D01*
X151430000Y-107509073D01*
X151430000Y-107374927D01*
X151403829Y-107243360D01*
X151352494Y-107119426D01*
X151277967Y-107007888D01*
X151183112Y-106913033D01*
X151071574Y-106838506D01*
X150947640Y-106787171D01*
X150816073Y-106761000D01*
X150681927Y-106761000D01*
X150550360Y-106787171D01*
X150426426Y-106838506D01*
X150314888Y-106913033D01*
X150220033Y-107007888D01*
X150145506Y-107119426D01*
X150094171Y-107243360D01*
X150068000Y-107374927D01*
X144749000Y-107374927D01*
X144749000Y-107243003D01*
X144720908Y-107101775D01*
X144665804Y-106968742D01*
X144585805Y-106849015D01*
X144483985Y-106747195D01*
X144364258Y-106667196D01*
X144233241Y-106612927D01*
X152608000Y-106612927D01*
X152608000Y-106747073D01*
X152634171Y-106878640D01*
X152685506Y-107002574D01*
X152760033Y-107114112D01*
X152854888Y-107208967D01*
X152966426Y-107283494D01*
X153090360Y-107334829D01*
X153221927Y-107361000D01*
X153321791Y-107361000D01*
X153320000Y-107370003D01*
X153320000Y-107513997D01*
X153348092Y-107655225D01*
X153403196Y-107788258D01*
X153483195Y-107907985D01*
X153585015Y-108009805D01*
X153704742Y-108089804D01*
X153837775Y-108144908D01*
X153979003Y-108173000D01*
X154122997Y-108173000D01*
X154200313Y-108157621D01*
X154158171Y-108259360D01*
X154132000Y-108390927D01*
X154132000Y-108525073D01*
X154158171Y-108656640D01*
X154209506Y-108780574D01*
X154284033Y-108892112D01*
X154378888Y-108986967D01*
X154490426Y-109061494D01*
X154614360Y-109112829D01*
X154745927Y-109139000D01*
X154880073Y-109139000D01*
X155011640Y-109112829D01*
X155135574Y-109061494D01*
X155247112Y-108986967D01*
X155341967Y-108892112D01*
X155416494Y-108780574D01*
X155467829Y-108656640D01*
X155494000Y-108525073D01*
X155494000Y-108390927D01*
X155467829Y-108259360D01*
X155416494Y-108135426D01*
X155391917Y-108098644D01*
X155413258Y-108089804D01*
X155532985Y-108009805D01*
X155634805Y-107907985D01*
X155714804Y-107788258D01*
X155769908Y-107655225D01*
X155798000Y-107513997D01*
X155798000Y-107370003D01*
X155769908Y-107228775D01*
X155714804Y-107095742D01*
X155634805Y-106976015D01*
X155532985Y-106874195D01*
X155413258Y-106794196D01*
X155280225Y-106739092D01*
X155138997Y-106711000D01*
X154995003Y-106711000D01*
X154853775Y-106739092D01*
X154720742Y-106794196D01*
X154601015Y-106874195D01*
X154559000Y-106916210D01*
X154516985Y-106874195D01*
X154397258Y-106794196D01*
X154264225Y-106739092D01*
X154122997Y-106711000D01*
X153979003Y-106711000D01*
X153970000Y-106712791D01*
X153970000Y-106612927D01*
X153943829Y-106481360D01*
X153892494Y-106357426D01*
X153817967Y-106245888D01*
X153723112Y-106151033D01*
X153611574Y-106076506D01*
X153487640Y-106025171D01*
X153356073Y-105999000D01*
X153221927Y-105999000D01*
X153090360Y-106025171D01*
X152966426Y-106076506D01*
X152854888Y-106151033D01*
X152760033Y-106245888D01*
X152685506Y-106357426D01*
X152634171Y-106481360D01*
X152608000Y-106612927D01*
X144233241Y-106612927D01*
X144231225Y-106612092D01*
X144089997Y-106584000D01*
X143946003Y-106584000D01*
X143804775Y-106612092D01*
X143671742Y-106667196D01*
X143552015Y-106747195D01*
X143450195Y-106849015D01*
X143370196Y-106968742D01*
X143315092Y-107101775D01*
X143287000Y-107243003D01*
X141605000Y-107243003D01*
X141605000Y-105084003D01*
X157892000Y-105084003D01*
X157892000Y-105227997D01*
X157920092Y-105369225D01*
X157975196Y-105502258D01*
X158055195Y-105621985D01*
X158157015Y-105723805D01*
X158276742Y-105803804D01*
X158409775Y-105858908D01*
X158551003Y-105887000D01*
X158694997Y-105887000D01*
X158836225Y-105858908D01*
X158969258Y-105803804D01*
X159088985Y-105723805D01*
X159190805Y-105621985D01*
X159270804Y-105502258D01*
X159325908Y-105369225D01*
X159354000Y-105227997D01*
X159354000Y-105084003D01*
X159325908Y-104942775D01*
X159270804Y-104809742D01*
X159190805Y-104690015D01*
X159088985Y-104588195D01*
X158969258Y-104508196D01*
X158836225Y-104453092D01*
X158694997Y-104425000D01*
X158551003Y-104425000D01*
X158409775Y-104453092D01*
X158276742Y-104508196D01*
X158157015Y-104588195D01*
X158055195Y-104690015D01*
X157975196Y-104809742D01*
X157920092Y-104942775D01*
X157892000Y-105084003D01*
X141605000Y-105084003D01*
X141605000Y-104068003D01*
X147986000Y-104068003D01*
X147986000Y-104211997D01*
X148014092Y-104353225D01*
X148069196Y-104486258D01*
X148149195Y-104605985D01*
X148251015Y-104707805D01*
X148370742Y-104787804D01*
X148503775Y-104842908D01*
X148645003Y-104871000D01*
X148788997Y-104871000D01*
X148930225Y-104842908D01*
X149063258Y-104787804D01*
X149182985Y-104707805D01*
X149284805Y-104605985D01*
X149364804Y-104486258D01*
X149419908Y-104353225D01*
X149448000Y-104211997D01*
X149448000Y-104068003D01*
X149419908Y-103926775D01*
X149373197Y-103814003D01*
X153828000Y-103814003D01*
X153828000Y-103957997D01*
X153856092Y-104099225D01*
X153911196Y-104232258D01*
X153991195Y-104351985D01*
X154093015Y-104453805D01*
X154212742Y-104533804D01*
X154345775Y-104588908D01*
X154487003Y-104617000D01*
X154630997Y-104617000D01*
X154772225Y-104588908D01*
X154905258Y-104533804D01*
X155024985Y-104453805D01*
X155126805Y-104351985D01*
X155206804Y-104232258D01*
X155261908Y-104099225D01*
X155290000Y-103957997D01*
X155290000Y-103814003D01*
X155261908Y-103672775D01*
X155206804Y-103539742D01*
X155126805Y-103420015D01*
X155024985Y-103318195D01*
X154905258Y-103238196D01*
X154772225Y-103183092D01*
X154630997Y-103155000D01*
X154487003Y-103155000D01*
X154345775Y-103183092D01*
X154212742Y-103238196D01*
X154093015Y-103318195D01*
X153991195Y-103420015D01*
X153911196Y-103539742D01*
X153856092Y-103672775D01*
X153828000Y-103814003D01*
X149373197Y-103814003D01*
X149364804Y-103793742D01*
X149284805Y-103674015D01*
X149182985Y-103572195D01*
X149063258Y-103492196D01*
X148930225Y-103437092D01*
X148788997Y-103409000D01*
X148645003Y-103409000D01*
X148503775Y-103437092D01*
X148370742Y-103492196D01*
X148251015Y-103572195D01*
X148149195Y-103674015D01*
X148069196Y-103793742D01*
X148014092Y-103926775D01*
X147986000Y-104068003D01*
X141605000Y-104068003D01*
X141605000Y-103452079D01*
X141678888Y-103525967D01*
X141790426Y-103600494D01*
X141914360Y-103651829D01*
X142045927Y-103678000D01*
X142180073Y-103678000D01*
X142311640Y-103651829D01*
X142435574Y-103600494D01*
X142547112Y-103525967D01*
X142641967Y-103431112D01*
X142716494Y-103319574D01*
X142767829Y-103195640D01*
X142794000Y-103064073D01*
X142794000Y-102929927D01*
X142767829Y-102798360D01*
X142716494Y-102674426D01*
X142641967Y-102562888D01*
X142547112Y-102468033D01*
X142435574Y-102393506D01*
X142311640Y-102342171D01*
X142180073Y-102316000D01*
X142045927Y-102316000D01*
X141914360Y-102342171D01*
X141790426Y-102393506D01*
X141678888Y-102468033D01*
X141605000Y-102541921D01*
X141605000Y-101909003D01*
X144430000Y-101909003D01*
X144430000Y-102052997D01*
X144458092Y-102194225D01*
X144513196Y-102327258D01*
X144593195Y-102446985D01*
X144695015Y-102548805D01*
X144814742Y-102628804D01*
X144947775Y-102683908D01*
X145089003Y-102712000D01*
X145232997Y-102712000D01*
X145374225Y-102683908D01*
X145507258Y-102628804D01*
X145626802Y-102548927D01*
X148417000Y-102548927D01*
X148417000Y-102683073D01*
X148443171Y-102814640D01*
X148494506Y-102938574D01*
X148569033Y-103050112D01*
X148663888Y-103144967D01*
X148775426Y-103219494D01*
X148899360Y-103270829D01*
X149030927Y-103297000D01*
X149165073Y-103297000D01*
X149296640Y-103270829D01*
X149420574Y-103219494D01*
X149532112Y-103144967D01*
X149626967Y-103050112D01*
X149701494Y-102938574D01*
X149752829Y-102814640D01*
X149779000Y-102683073D01*
X149779000Y-102548927D01*
X149752829Y-102417360D01*
X149701494Y-102293426D01*
X149626967Y-102181888D01*
X149593308Y-102148229D01*
X154059000Y-102148229D01*
X154059000Y-102321771D01*
X154092856Y-102491978D01*
X154159268Y-102652310D01*
X154255682Y-102796605D01*
X154378395Y-102919318D01*
X154522690Y-103015732D01*
X154683022Y-103082144D01*
X154853229Y-103116000D01*
X155026771Y-103116000D01*
X155196978Y-103082144D01*
X155357310Y-103015732D01*
X155501605Y-102919318D01*
X155624318Y-102796605D01*
X155720732Y-102652310D01*
X155787144Y-102491978D01*
X155821000Y-102321771D01*
X155821000Y-102148229D01*
X155787144Y-101978022D01*
X155720732Y-101817690D01*
X155624318Y-101673395D01*
X155501605Y-101550682D01*
X155357310Y-101454268D01*
X155196978Y-101387856D01*
X155026771Y-101354000D01*
X154853229Y-101354000D01*
X154683022Y-101387856D01*
X154522690Y-101454268D01*
X154378395Y-101550682D01*
X154255682Y-101673395D01*
X154159268Y-101817690D01*
X154092856Y-101978022D01*
X154059000Y-102148229D01*
X149593308Y-102148229D01*
X149532112Y-102087033D01*
X149420574Y-102012506D01*
X149296640Y-101961171D01*
X149165073Y-101935000D01*
X149030927Y-101935000D01*
X148899360Y-101961171D01*
X148775426Y-102012506D01*
X148663888Y-102087033D01*
X148569033Y-102181888D01*
X148494506Y-102293426D01*
X148443171Y-102417360D01*
X148417000Y-102548927D01*
X145626802Y-102548927D01*
X145626985Y-102548805D01*
X145728805Y-102446985D01*
X145808804Y-102327258D01*
X145863908Y-102194225D01*
X145892000Y-102052997D01*
X145892000Y-101909003D01*
X145863908Y-101767775D01*
X145808804Y-101634742D01*
X145728805Y-101515015D01*
X145626985Y-101413195D01*
X145507258Y-101333196D01*
X145374225Y-101278092D01*
X145232997Y-101250000D01*
X145089003Y-101250000D01*
X144947775Y-101278092D01*
X144814742Y-101333196D01*
X144695015Y-101413195D01*
X144593195Y-101515015D01*
X144513196Y-101634742D01*
X144458092Y-101767775D01*
X144430000Y-101909003D01*
X141605000Y-101909003D01*
X141605000Y-100897927D01*
X148417000Y-100897927D01*
X148417000Y-101032073D01*
X148443171Y-101163640D01*
X148494506Y-101287574D01*
X148569033Y-101399112D01*
X148663888Y-101493967D01*
X148775426Y-101568494D01*
X148899360Y-101619829D01*
X149030927Y-101646000D01*
X149165073Y-101646000D01*
X149296640Y-101619829D01*
X149420574Y-101568494D01*
X149532112Y-101493967D01*
X149626967Y-101399112D01*
X149701494Y-101287574D01*
X149752829Y-101163640D01*
X149779000Y-101032073D01*
X149779000Y-101024927D01*
X157561000Y-101024927D01*
X157561000Y-101159073D01*
X157587171Y-101290640D01*
X157638506Y-101414574D01*
X157713033Y-101526112D01*
X157807888Y-101620967D01*
X157919426Y-101695494D01*
X158043360Y-101746829D01*
X158174927Y-101773000D01*
X158309073Y-101773000D01*
X158440640Y-101746829D01*
X158564574Y-101695494D01*
X158676112Y-101620967D01*
X158770967Y-101526112D01*
X158845494Y-101414574D01*
X158896829Y-101290640D01*
X158923000Y-101159073D01*
X158923000Y-101024927D01*
X158896829Y-100893360D01*
X158845494Y-100769426D01*
X158770967Y-100657888D01*
X158676112Y-100563033D01*
X158564574Y-100488506D01*
X158440640Y-100437171D01*
X158309073Y-100411000D01*
X158174927Y-100411000D01*
X158043360Y-100437171D01*
X157919426Y-100488506D01*
X157807888Y-100563033D01*
X157713033Y-100657888D01*
X157638506Y-100769426D01*
X157587171Y-100893360D01*
X157561000Y-101024927D01*
X149779000Y-101024927D01*
X149779000Y-100897927D01*
X149752829Y-100766360D01*
X149701494Y-100642426D01*
X149626967Y-100530888D01*
X149532112Y-100436033D01*
X149420574Y-100361506D01*
X149296640Y-100310171D01*
X149165073Y-100284000D01*
X149030927Y-100284000D01*
X148899360Y-100310171D01*
X148775426Y-100361506D01*
X148663888Y-100436033D01*
X148569033Y-100530888D01*
X148494506Y-100642426D01*
X148443171Y-100766360D01*
X148417000Y-100897927D01*
X141605000Y-100897927D01*
X141605000Y-100135927D01*
X155910000Y-100135927D01*
X155910000Y-100270073D01*
X155936171Y-100401640D01*
X155987506Y-100525574D01*
X156062033Y-100637112D01*
X156156888Y-100731967D01*
X156268426Y-100806494D01*
X156392360Y-100857829D01*
X156523927Y-100884000D01*
X156658073Y-100884000D01*
X156789640Y-100857829D01*
X156913574Y-100806494D01*
X157025112Y-100731967D01*
X157119967Y-100637112D01*
X157194494Y-100525574D01*
X157245829Y-100401640D01*
X157272000Y-100270073D01*
X157272000Y-100135927D01*
X157245829Y-100004360D01*
X157194494Y-99880426D01*
X157119967Y-99768888D01*
X157025112Y-99674033D01*
X156913574Y-99599506D01*
X156789640Y-99548171D01*
X156658073Y-99522000D01*
X156523927Y-99522000D01*
X156392360Y-99548171D01*
X156268426Y-99599506D01*
X156156888Y-99674033D01*
X156062033Y-99768888D01*
X155987506Y-99880426D01*
X155936171Y-100004360D01*
X155910000Y-100135927D01*
X141605000Y-100135927D01*
X141605000Y-99805998D01*
X141645229Y-99814000D01*
X141818771Y-99814000D01*
X141988978Y-99780144D01*
X142149310Y-99713732D01*
X142293605Y-99617318D01*
X142416318Y-99494605D01*
X142512732Y-99350310D01*
X142521085Y-99330144D01*
X142531259Y-99338494D01*
X142594760Y-99401995D01*
X142696209Y-99485252D01*
X142850649Y-99567802D01*
X143018226Y-99618636D01*
X143192500Y-99635801D01*
X143366775Y-99618636D01*
X143534352Y-99567802D01*
X143688791Y-99485252D01*
X143824159Y-99374159D01*
X143935252Y-99238791D01*
X144017802Y-99084352D01*
X144068636Y-98916775D01*
X144085801Y-98742500D01*
X144068636Y-98568226D01*
X144041874Y-98480003D01*
X144938000Y-98480003D01*
X144938000Y-98623997D01*
X144966092Y-98765225D01*
X145021196Y-98898258D01*
X145101195Y-99017985D01*
X145203015Y-99119805D01*
X145322742Y-99199804D01*
X145455775Y-99254908D01*
X145597003Y-99283000D01*
X145740997Y-99283000D01*
X145882225Y-99254908D01*
X146015258Y-99199804D01*
X146134985Y-99119805D01*
X146236805Y-99017985D01*
X146316804Y-98898258D01*
X146371908Y-98765225D01*
X146377138Y-98738927D01*
X149433000Y-98738927D01*
X149433000Y-98873073D01*
X149459171Y-99004640D01*
X149510506Y-99128574D01*
X149585033Y-99240112D01*
X149679888Y-99334967D01*
X149791426Y-99409494D01*
X149915360Y-99460829D01*
X150046927Y-99487000D01*
X150181073Y-99487000D01*
X150312640Y-99460829D01*
X150436574Y-99409494D01*
X150548112Y-99334967D01*
X150642967Y-99240112D01*
X150685500Y-99176457D01*
X150728033Y-99240112D01*
X150822888Y-99334967D01*
X150934426Y-99409494D01*
X151058360Y-99460829D01*
X151189927Y-99487000D01*
X151324073Y-99487000D01*
X151455640Y-99460829D01*
X151579574Y-99409494D01*
X151691112Y-99334967D01*
X151785967Y-99240112D01*
X151860494Y-99128574D01*
X151911829Y-99004640D01*
X151938000Y-98873073D01*
X151938000Y-98738927D01*
X151911829Y-98607360D01*
X151861116Y-98484927D01*
X157942000Y-98484927D01*
X157942000Y-98619073D01*
X157968171Y-98750640D01*
X158019506Y-98874574D01*
X158094033Y-98986112D01*
X158188888Y-99080967D01*
X158300426Y-99155494D01*
X158424360Y-99206829D01*
X158555927Y-99233000D01*
X158690073Y-99233000D01*
X158821640Y-99206829D01*
X158945574Y-99155494D01*
X159057112Y-99080967D01*
X159151967Y-98986112D01*
X159226494Y-98874574D01*
X159277829Y-98750640D01*
X159304000Y-98619073D01*
X159304000Y-98484927D01*
X159277829Y-98353360D01*
X159226494Y-98229426D01*
X159151967Y-98117888D01*
X159057112Y-98023033D01*
X158945574Y-97948506D01*
X158821640Y-97897171D01*
X158690073Y-97871000D01*
X158555927Y-97871000D01*
X158424360Y-97897171D01*
X158300426Y-97948506D01*
X158188888Y-98023033D01*
X158094033Y-98117888D01*
X158019506Y-98229426D01*
X157968171Y-98353360D01*
X157942000Y-98484927D01*
X151861116Y-98484927D01*
X151860494Y-98483426D01*
X151785967Y-98371888D01*
X151691112Y-98277033D01*
X151579574Y-98202506D01*
X151455640Y-98151171D01*
X151324073Y-98125000D01*
X151189927Y-98125000D01*
X151058360Y-98151171D01*
X150934426Y-98202506D01*
X150822888Y-98277033D01*
X150728033Y-98371888D01*
X150685500Y-98435543D01*
X150642967Y-98371888D01*
X150548112Y-98277033D01*
X150436574Y-98202506D01*
X150312640Y-98151171D01*
X150181073Y-98125000D01*
X150046927Y-98125000D01*
X149915360Y-98151171D01*
X149791426Y-98202506D01*
X149679888Y-98277033D01*
X149585033Y-98371888D01*
X149510506Y-98483426D01*
X149459171Y-98607360D01*
X149433000Y-98738927D01*
X146377138Y-98738927D01*
X146400000Y-98623997D01*
X146400000Y-98480003D01*
X146371908Y-98338775D01*
X146316804Y-98205742D01*
X146236805Y-98086015D01*
X146134985Y-97984195D01*
X146015258Y-97904196D01*
X145882225Y-97849092D01*
X145740997Y-97821000D01*
X145597003Y-97821000D01*
X145455775Y-97849092D01*
X145322742Y-97904196D01*
X145203015Y-97984195D01*
X145101195Y-98086015D01*
X145021196Y-98205742D01*
X144966092Y-98338775D01*
X144938000Y-98480003D01*
X144041874Y-98480003D01*
X144018000Y-98401302D01*
X144018000Y-97322229D01*
X156472000Y-97322229D01*
X156472000Y-97495771D01*
X156505856Y-97665978D01*
X156572268Y-97826310D01*
X156668682Y-97970605D01*
X156791395Y-98093318D01*
X156935690Y-98189732D01*
X157096022Y-98256144D01*
X157266229Y-98290000D01*
X157439771Y-98290000D01*
X157609978Y-98256144D01*
X157770310Y-98189732D01*
X157914605Y-98093318D01*
X158037318Y-97970605D01*
X158133732Y-97826310D01*
X158200144Y-97665978D01*
X158234000Y-97495771D01*
X158234000Y-97322229D01*
X158200144Y-97152022D01*
X158133732Y-96991690D01*
X158037318Y-96847395D01*
X157914605Y-96724682D01*
X157770310Y-96628268D01*
X157609978Y-96561856D01*
X157439771Y-96528000D01*
X157266229Y-96528000D01*
X157096022Y-96561856D01*
X156935690Y-96628268D01*
X156791395Y-96724682D01*
X156668682Y-96847395D01*
X156572268Y-96991690D01*
X156505856Y-97152022D01*
X156472000Y-97322229D01*
X144018000Y-97322229D01*
X144018000Y-93785927D01*
X145877000Y-93785927D01*
X145877000Y-93920073D01*
X145903171Y-94051640D01*
X145954506Y-94175574D01*
X146029033Y-94287112D01*
X146123888Y-94381967D01*
X146235426Y-94456494D01*
X146359360Y-94507829D01*
X146490927Y-94534000D01*
X146625073Y-94534000D01*
X146756640Y-94507829D01*
X146880574Y-94456494D01*
X146992112Y-94381967D01*
X147010960Y-94363119D01*
X147045033Y-94414112D01*
X147139888Y-94508967D01*
X147251426Y-94583494D01*
X147375360Y-94634829D01*
X147506927Y-94661000D01*
X147641073Y-94661000D01*
X147772640Y-94634829D01*
X147896574Y-94583494D01*
X148008112Y-94508967D01*
X148018500Y-94498579D01*
X148028888Y-94508967D01*
X148140426Y-94583494D01*
X148264360Y-94634829D01*
X148395927Y-94661000D01*
X148530073Y-94661000D01*
X148661640Y-94634829D01*
X148785574Y-94583494D01*
X148897112Y-94508967D01*
X148991967Y-94414112D01*
X149066494Y-94302574D01*
X149117829Y-94178640D01*
X149144000Y-94047073D01*
X149144000Y-94035003D01*
X150780000Y-94035003D01*
X150780000Y-94178997D01*
X150808092Y-94320225D01*
X150863196Y-94453258D01*
X150943195Y-94572985D01*
X151045015Y-94674805D01*
X151164742Y-94754804D01*
X151297775Y-94809908D01*
X151439003Y-94838000D01*
X151582997Y-94838000D01*
X151724225Y-94809908D01*
X151857258Y-94754804D01*
X151976985Y-94674805D01*
X152078805Y-94572985D01*
X152082500Y-94567455D01*
X152086195Y-94572985D01*
X152188015Y-94674805D01*
X152307742Y-94754804D01*
X152440775Y-94809908D01*
X152582003Y-94838000D01*
X152725997Y-94838000D01*
X152867225Y-94809908D01*
X153000258Y-94754804D01*
X153119985Y-94674805D01*
X153221805Y-94572985D01*
X153301804Y-94453258D01*
X153356908Y-94320225D01*
X153385000Y-94178997D01*
X153385000Y-94035003D01*
X153356908Y-93893775D01*
X153301804Y-93760742D01*
X153221805Y-93641015D01*
X153119985Y-93539195D01*
X153000258Y-93459196D01*
X152867225Y-93404092D01*
X152725997Y-93376000D01*
X152582003Y-93376000D01*
X152440775Y-93404092D01*
X152307742Y-93459196D01*
X152188015Y-93539195D01*
X152086195Y-93641015D01*
X152082500Y-93646545D01*
X152078805Y-93641015D01*
X151976985Y-93539195D01*
X151857258Y-93459196D01*
X151724225Y-93404092D01*
X151582997Y-93376000D01*
X151439003Y-93376000D01*
X151297775Y-93404092D01*
X151164742Y-93459196D01*
X151045015Y-93539195D01*
X150943195Y-93641015D01*
X150863196Y-93760742D01*
X150808092Y-93893775D01*
X150780000Y-94035003D01*
X149144000Y-94035003D01*
X149144000Y-93912927D01*
X149117829Y-93781360D01*
X149066494Y-93657426D01*
X148991967Y-93545888D01*
X148897112Y-93451033D01*
X148785574Y-93376506D01*
X148661640Y-93325171D01*
X148530073Y-93299000D01*
X148395927Y-93299000D01*
X148264360Y-93325171D01*
X148140426Y-93376506D01*
X148028888Y-93451033D01*
X148018500Y-93461421D01*
X148008112Y-93451033D01*
X147896574Y-93376506D01*
X147772640Y-93325171D01*
X147641073Y-93299000D01*
X147506927Y-93299000D01*
X147375360Y-93325171D01*
X147251426Y-93376506D01*
X147139888Y-93451033D01*
X147121040Y-93469881D01*
X147086967Y-93418888D01*
X146992112Y-93324033D01*
X146880574Y-93249506D01*
X146756640Y-93198171D01*
X146625073Y-93172000D01*
X146490927Y-93172000D01*
X146359360Y-93198171D01*
X146235426Y-93249506D01*
X146123888Y-93324033D01*
X146029033Y-93418888D01*
X145954506Y-93530426D01*
X145903171Y-93654360D01*
X145877000Y-93785927D01*
X144018000Y-93785927D01*
X144018000Y-91838790D01*
X144060015Y-91880805D01*
X144179742Y-91960804D01*
X144312775Y-92015908D01*
X144454003Y-92044000D01*
X144597997Y-92044000D01*
X144739225Y-92015908D01*
X144872258Y-91960804D01*
X144991985Y-91880805D01*
X145034000Y-91838790D01*
X145076015Y-91880805D01*
X145195742Y-91960804D01*
X145328775Y-92015908D01*
X145470003Y-92044000D01*
X145613997Y-92044000D01*
X145755225Y-92015908D01*
X145888258Y-91960804D01*
X146007985Y-91880805D01*
X146109805Y-91778985D01*
X146126548Y-91753927D01*
X155783000Y-91753927D01*
X155783000Y-91888073D01*
X155809171Y-92019640D01*
X155860506Y-92143574D01*
X155935033Y-92255112D01*
X156029888Y-92349967D01*
X156141426Y-92424494D01*
X156265360Y-92475829D01*
X156396927Y-92502000D01*
X156531073Y-92502000D01*
X156662640Y-92475829D01*
X156786574Y-92424494D01*
X156898112Y-92349967D01*
X156992967Y-92255112D01*
X157021160Y-92212918D01*
X157049682Y-92255605D01*
X157172395Y-92378318D01*
X157316690Y-92474732D01*
X157477022Y-92541144D01*
X157647229Y-92575000D01*
X157820771Y-92575000D01*
X157990978Y-92541144D01*
X158151310Y-92474732D01*
X158295605Y-92378318D01*
X158418318Y-92255605D01*
X158514732Y-92111310D01*
X158581144Y-91950978D01*
X158615000Y-91780771D01*
X158615000Y-91607229D01*
X158581144Y-91437022D01*
X158514732Y-91276690D01*
X158418318Y-91132395D01*
X158295605Y-91009682D01*
X158151310Y-90913268D01*
X157990978Y-90846856D01*
X157820771Y-90813000D01*
X157647229Y-90813000D01*
X157477022Y-90846856D01*
X157316690Y-90913268D01*
X157172395Y-91009682D01*
X157049682Y-91132395D01*
X156953268Y-91276690D01*
X156932619Y-91326540D01*
X156898112Y-91292033D01*
X156786574Y-91217506D01*
X156662640Y-91166171D01*
X156531073Y-91140000D01*
X156396927Y-91140000D01*
X156265360Y-91166171D01*
X156141426Y-91217506D01*
X156029888Y-91292033D01*
X155935033Y-91386888D01*
X155860506Y-91498426D01*
X155809171Y-91622360D01*
X155783000Y-91753927D01*
X146126548Y-91753927D01*
X146189804Y-91659258D01*
X146244908Y-91526225D01*
X146273000Y-91384997D01*
X146273000Y-91241003D01*
X146244908Y-91099775D01*
X146189804Y-90966742D01*
X146109805Y-90847015D01*
X146007985Y-90745195D01*
X145888258Y-90665196D01*
X145755225Y-90610092D01*
X145613997Y-90582000D01*
X145470003Y-90582000D01*
X145328775Y-90610092D01*
X145195742Y-90665196D01*
X145076015Y-90745195D01*
X145034000Y-90787210D01*
X144991985Y-90745195D01*
X144877882Y-90668954D01*
X145443909Y-90102927D01*
X146639000Y-90102927D01*
X146639000Y-90237073D01*
X146665171Y-90368640D01*
X146716506Y-90492574D01*
X146791033Y-90604112D01*
X146885888Y-90698967D01*
X146997426Y-90773494D01*
X147121360Y-90824829D01*
X147252927Y-90851000D01*
X147387073Y-90851000D01*
X147518640Y-90824829D01*
X147642574Y-90773494D01*
X147754112Y-90698967D01*
X147848967Y-90604112D01*
X147923494Y-90492574D01*
X147974829Y-90368640D01*
X148001000Y-90237073D01*
X148001000Y-90176189D01*
X148032682Y-90223605D01*
X148155395Y-90346318D01*
X148299690Y-90442732D01*
X148460022Y-90509144D01*
X148630229Y-90543000D01*
X148723415Y-90543000D01*
X148697171Y-90606360D01*
X148671000Y-90737927D01*
X148671000Y-90872073D01*
X148697171Y-91003640D01*
X148748506Y-91127574D01*
X148823033Y-91239112D01*
X148917888Y-91333967D01*
X149029426Y-91408494D01*
X149153360Y-91459829D01*
X149284927Y-91486000D01*
X149419073Y-91486000D01*
X149550640Y-91459829D01*
X149674574Y-91408494D01*
X149786112Y-91333967D01*
X149880967Y-91239112D01*
X149955494Y-91127574D01*
X150006829Y-91003640D01*
X150033000Y-90872073D01*
X150033000Y-90737927D01*
X150576000Y-90737927D01*
X150576000Y-90872073D01*
X150602171Y-91003640D01*
X150653506Y-91127574D01*
X150728033Y-91239112D01*
X150822888Y-91333967D01*
X150934426Y-91408494D01*
X151058360Y-91459829D01*
X151189927Y-91486000D01*
X151324073Y-91486000D01*
X151455640Y-91459829D01*
X151579574Y-91408494D01*
X151691112Y-91333967D01*
X151785967Y-91239112D01*
X151860494Y-91127574D01*
X151911829Y-91003640D01*
X151938000Y-90872073D01*
X151938000Y-90737927D01*
X151911829Y-90606360D01*
X151860494Y-90482426D01*
X151785967Y-90370888D01*
X151691112Y-90276033D01*
X151579574Y-90201506D01*
X151455640Y-90150171D01*
X151324073Y-90124000D01*
X151189927Y-90124000D01*
X151058360Y-90150171D01*
X150934426Y-90201506D01*
X150822888Y-90276033D01*
X150728033Y-90370888D01*
X150653506Y-90482426D01*
X150602171Y-90606360D01*
X150576000Y-90737927D01*
X150033000Y-90737927D01*
X150006829Y-90606360D01*
X149955494Y-90482426D01*
X149880967Y-90370888D01*
X149786112Y-90276033D01*
X149674574Y-90201506D01*
X149550640Y-90150171D01*
X149462146Y-90132568D01*
X149497732Y-90079310D01*
X149564144Y-89918978D01*
X149578077Y-89848927D01*
X153497000Y-89848927D01*
X153497000Y-89983073D01*
X153523171Y-90114640D01*
X153574506Y-90238574D01*
X153649033Y-90350112D01*
X153743888Y-90444967D01*
X153855426Y-90519494D01*
X153979360Y-90570829D01*
X154110927Y-90597000D01*
X154245073Y-90597000D01*
X154292997Y-90587467D01*
X154285171Y-90606360D01*
X154259000Y-90737927D01*
X154259000Y-90872073D01*
X154285171Y-91003640D01*
X154336506Y-91127574D01*
X154411033Y-91239112D01*
X154505888Y-91333967D01*
X154617426Y-91408494D01*
X154741360Y-91459829D01*
X154872927Y-91486000D01*
X155007073Y-91486000D01*
X155138640Y-91459829D01*
X155262574Y-91408494D01*
X155374112Y-91333967D01*
X155468967Y-91239112D01*
X155543494Y-91127574D01*
X155594829Y-91003640D01*
X155621000Y-90872073D01*
X155621000Y-90737927D01*
X155594829Y-90606360D01*
X155543494Y-90482426D01*
X155468967Y-90370888D01*
X155374112Y-90276033D01*
X155262574Y-90201506D01*
X155138640Y-90150171D01*
X155007073Y-90124000D01*
X154872927Y-90124000D01*
X154825003Y-90133533D01*
X154832829Y-90114640D01*
X154859000Y-89983073D01*
X154859000Y-89848927D01*
X154832829Y-89717360D01*
X154781494Y-89593426D01*
X154706967Y-89481888D01*
X154612112Y-89387033D01*
X154500574Y-89312506D01*
X154376640Y-89261171D01*
X154245073Y-89235000D01*
X154110927Y-89235000D01*
X153979360Y-89261171D01*
X153855426Y-89312506D01*
X153743888Y-89387033D01*
X153649033Y-89481888D01*
X153574506Y-89593426D01*
X153523171Y-89717360D01*
X153497000Y-89848927D01*
X149578077Y-89848927D01*
X149598000Y-89748771D01*
X149598000Y-89575229D01*
X149564144Y-89405022D01*
X149497732Y-89244690D01*
X149401318Y-89100395D01*
X149278605Y-88977682D01*
X149134310Y-88881268D01*
X148973978Y-88814856D01*
X148803771Y-88781000D01*
X148630229Y-88781000D01*
X148460022Y-88814856D01*
X148299690Y-88881268D01*
X148155395Y-88977682D01*
X148032682Y-89100395D01*
X147936268Y-89244690D01*
X147869856Y-89405022D01*
X147836000Y-89575229D01*
X147836000Y-89722921D01*
X147754112Y-89641033D01*
X147642574Y-89566506D01*
X147518640Y-89515171D01*
X147387073Y-89489000D01*
X147252927Y-89489000D01*
X147121360Y-89515171D01*
X146997426Y-89566506D01*
X146885888Y-89641033D01*
X146791033Y-89735888D01*
X146716506Y-89847426D01*
X146665171Y-89971360D01*
X146639000Y-90102927D01*
X145443909Y-90102927D01*
X145885742Y-89661094D01*
X145919659Y-89633259D01*
X146030753Y-89497891D01*
X146113303Y-89343451D01*
X146149040Y-89225640D01*
X146164136Y-89175876D01*
X146168186Y-89134752D01*
X146177000Y-89045267D01*
X146177000Y-89045261D01*
X146181300Y-89001601D01*
X146177000Y-88957941D01*
X146177000Y-88760235D01*
X146774741Y-88162495D01*
X146808659Y-88134659D01*
X146844964Y-88090422D01*
X146919752Y-87999292D01*
X146944724Y-87952574D01*
X147002303Y-87844851D01*
X147041321Y-87716225D01*
X147053136Y-87677275D01*
X147060895Y-87598494D01*
X147066000Y-87546667D01*
X147066000Y-87546660D01*
X147070300Y-87503000D01*
X147066000Y-87459340D01*
X147066000Y-87305455D01*
X147124426Y-87344494D01*
X147248360Y-87395829D01*
X147379927Y-87422000D01*
X147514073Y-87422000D01*
X147645640Y-87395829D01*
X147769574Y-87344494D01*
X147881112Y-87269967D01*
X147975967Y-87175112D01*
X148050494Y-87063574D01*
X148101829Y-86939640D01*
X148128000Y-86808073D01*
X148128000Y-86673927D01*
X148101829Y-86542360D01*
X148100449Y-86539027D01*
X152481000Y-86539027D01*
X152481000Y-86673173D01*
X152507171Y-86804740D01*
X152558506Y-86928674D01*
X152602823Y-86995000D01*
X152558506Y-87061326D01*
X152507171Y-87185260D01*
X152481000Y-87316827D01*
X152481000Y-87450973D01*
X152507171Y-87582540D01*
X152558506Y-87706474D01*
X152633033Y-87818012D01*
X152727888Y-87912867D01*
X152839426Y-87987394D01*
X152963360Y-88038729D01*
X153094927Y-88064900D01*
X153229073Y-88064900D01*
X153360640Y-88038729D01*
X153484574Y-87987394D01*
X153596112Y-87912867D01*
X153690967Y-87818012D01*
X153765494Y-87706474D01*
X153816829Y-87582540D01*
X153835516Y-87488595D01*
X153870888Y-87523967D01*
X153982426Y-87598494D01*
X154106360Y-87649829D01*
X154237927Y-87676000D01*
X154372073Y-87676000D01*
X154503640Y-87649829D01*
X154627574Y-87598494D01*
X154739112Y-87523967D01*
X154832076Y-87431003D01*
X155352000Y-87431003D01*
X155352000Y-87574997D01*
X155380092Y-87716225D01*
X155435196Y-87849258D01*
X155515195Y-87968985D01*
X155617015Y-88070805D01*
X155736742Y-88150804D01*
X155869775Y-88205908D01*
X156011003Y-88234000D01*
X156154997Y-88234000D01*
X156296225Y-88205908D01*
X156429258Y-88150804D01*
X156548985Y-88070805D01*
X156650805Y-87968985D01*
X156730804Y-87849258D01*
X156785908Y-87716225D01*
X156814000Y-87574997D01*
X156814000Y-87431003D01*
X156785908Y-87289775D01*
X156730804Y-87156742D01*
X156650805Y-87037015D01*
X156548985Y-86935195D01*
X156429258Y-86855196D01*
X156296225Y-86800092D01*
X156154997Y-86772000D01*
X156011003Y-86772000D01*
X155869775Y-86800092D01*
X155736742Y-86855196D01*
X155617015Y-86935195D01*
X155515195Y-87037015D01*
X155435196Y-87156742D01*
X155380092Y-87289775D01*
X155352000Y-87431003D01*
X154832076Y-87431003D01*
X154833967Y-87429112D01*
X154908494Y-87317574D01*
X154959829Y-87193640D01*
X154986000Y-87062073D01*
X154986000Y-86927927D01*
X154959829Y-86796360D01*
X154908494Y-86672426D01*
X154833967Y-86560888D01*
X154739112Y-86466033D01*
X154627574Y-86391506D01*
X154503640Y-86340171D01*
X154372073Y-86314000D01*
X154237927Y-86314000D01*
X154106360Y-86340171D01*
X153982426Y-86391506D01*
X153870888Y-86466033D01*
X153835516Y-86501405D01*
X153816829Y-86407460D01*
X153765494Y-86283526D01*
X153690967Y-86171988D01*
X153596112Y-86077133D01*
X153484574Y-86002606D01*
X153360640Y-85951271D01*
X153229073Y-85925100D01*
X153094927Y-85925100D01*
X152963360Y-85951271D01*
X152839426Y-86002606D01*
X152727888Y-86077133D01*
X152633033Y-86171988D01*
X152558506Y-86283526D01*
X152507171Y-86407460D01*
X152481000Y-86539027D01*
X148100449Y-86539027D01*
X148050494Y-86418426D01*
X147975967Y-86306888D01*
X147881112Y-86212033D01*
X147769574Y-86137506D01*
X147645640Y-86086171D01*
X147514073Y-86060000D01*
X147379927Y-86060000D01*
X147248360Y-86086171D01*
X147124426Y-86137506D01*
X147064818Y-86177334D01*
X147054689Y-86074494D01*
X147053136Y-86058724D01*
X147012602Y-85925100D01*
X147002303Y-85891149D01*
X146919753Y-85736709D01*
X146808659Y-85601341D01*
X146774743Y-85573507D01*
X145542000Y-84340765D01*
X145542000Y-83987229D01*
X146312000Y-83987229D01*
X146312000Y-84160771D01*
X146345856Y-84330978D01*
X146412268Y-84491310D01*
X146508682Y-84635605D01*
X146631395Y-84758318D01*
X146775690Y-84854732D01*
X146936022Y-84921144D01*
X147106229Y-84955000D01*
X147279771Y-84955000D01*
X147449978Y-84921144D01*
X147610310Y-84854732D01*
X147754605Y-84758318D01*
X147877318Y-84635605D01*
X147973732Y-84491310D01*
X148040144Y-84330978D01*
X148054077Y-84260927D01*
X150068000Y-84260927D01*
X150068000Y-84395073D01*
X150094171Y-84526640D01*
X150145506Y-84650574D01*
X150220033Y-84762112D01*
X150314888Y-84856967D01*
X150426426Y-84931494D01*
X150550360Y-84982829D01*
X150681927Y-85009000D01*
X150816073Y-85009000D01*
X150947640Y-84982829D01*
X151071574Y-84931494D01*
X151183112Y-84856967D01*
X151277967Y-84762112D01*
X151352494Y-84650574D01*
X151403829Y-84526640D01*
X151430000Y-84395073D01*
X151430000Y-84260927D01*
X151403829Y-84129360D01*
X151352494Y-84005426D01*
X151277967Y-83893888D01*
X151183112Y-83799033D01*
X151071574Y-83724506D01*
X150947640Y-83673171D01*
X150816073Y-83647000D01*
X150681927Y-83647000D01*
X150550360Y-83673171D01*
X150426426Y-83724506D01*
X150314888Y-83799033D01*
X150220033Y-83893888D01*
X150145506Y-84005426D01*
X150094171Y-84129360D01*
X150068000Y-84260927D01*
X148054077Y-84260927D01*
X148074000Y-84160771D01*
X148074000Y-83987229D01*
X148040144Y-83817022D01*
X147973732Y-83656690D01*
X147877318Y-83512395D01*
X147754605Y-83389682D01*
X147610310Y-83293268D01*
X147449978Y-83226856D01*
X147279771Y-83193000D01*
X147106229Y-83193000D01*
X146936022Y-83226856D01*
X146775690Y-83293268D01*
X146631395Y-83389682D01*
X146508682Y-83512395D01*
X146412268Y-83656690D01*
X146345856Y-83817022D01*
X146312000Y-83987229D01*
X145542000Y-83987229D01*
X145542000Y-83807235D01*
X147180236Y-82169000D01*
X147363667Y-82169000D01*
X147494274Y-82156136D01*
X147661851Y-82105303D01*
X147816291Y-82022753D01*
X147951659Y-81911659D01*
X148062753Y-81776291D01*
X148145303Y-81621851D01*
X148196136Y-81454274D01*
X148213301Y-81280000D01*
X148196136Y-81105726D01*
X148190131Y-81085927D01*
X149179000Y-81085927D01*
X149179000Y-81220073D01*
X149205171Y-81351640D01*
X149256506Y-81475574D01*
X149331033Y-81587112D01*
X149425888Y-81681967D01*
X149537426Y-81756494D01*
X149661360Y-81807829D01*
X149792927Y-81834000D01*
X149927073Y-81834000D01*
X150058640Y-81807829D01*
X150182574Y-81756494D01*
X150294112Y-81681967D01*
X150388967Y-81587112D01*
X150463494Y-81475574D01*
X150514829Y-81351640D01*
X150541000Y-81220073D01*
X150541000Y-81196230D01*
X150554927Y-81199000D01*
X150689073Y-81199000D01*
X150820640Y-81172829D01*
X150944574Y-81121494D01*
X151056112Y-81046967D01*
X151150967Y-80952112D01*
X151225494Y-80840574D01*
X151276829Y-80716640D01*
X151303000Y-80585073D01*
X151303000Y-80450927D01*
X151276829Y-80319360D01*
X151225494Y-80195426D01*
X151150967Y-80083888D01*
X151056112Y-79989033D01*
X150944574Y-79914506D01*
X150820640Y-79863171D01*
X150689073Y-79837000D01*
X150554927Y-79837000D01*
X150423360Y-79863171D01*
X150299426Y-79914506D01*
X150187888Y-79989033D01*
X150093033Y-80083888D01*
X150018506Y-80195426D01*
X149967171Y-80319360D01*
X149941000Y-80450927D01*
X149941000Y-80474770D01*
X149927073Y-80472000D01*
X149792927Y-80472000D01*
X149661360Y-80498171D01*
X149537426Y-80549506D01*
X149425888Y-80624033D01*
X149331033Y-80718888D01*
X149256506Y-80830426D01*
X149205171Y-80954360D01*
X149179000Y-81085927D01*
X148190131Y-81085927D01*
X148145303Y-80938149D01*
X148062753Y-80783709D01*
X147951659Y-80648341D01*
X147816291Y-80537247D01*
X147661851Y-80454697D01*
X147494274Y-80403864D01*
X147363667Y-80391000D01*
X146855659Y-80391000D01*
X146811999Y-80386700D01*
X146768339Y-80391000D01*
X146768333Y-80391000D01*
X146670924Y-80400594D01*
X146637724Y-80403864D01*
X146536058Y-80434704D01*
X146470149Y-80454697D01*
X146315709Y-80537247D01*
X146224207Y-80612341D01*
X146220474Y-80615405D01*
X146180341Y-80648341D01*
X146177000Y-80652412D01*
X146177000Y-78941079D01*
X146197967Y-78920112D01*
X146272494Y-78808574D01*
X146323829Y-78684640D01*
X146350000Y-78553073D01*
X146350000Y-78418927D01*
X146323829Y-78287360D01*
X146272494Y-78163426D01*
X146197967Y-78051888D01*
X146103112Y-77957033D01*
X145991574Y-77882506D01*
X145867640Y-77831171D01*
X145736073Y-77805000D01*
X145601927Y-77805000D01*
X145470360Y-77831171D01*
X145346426Y-77882506D01*
X145234888Y-77957033D01*
X145140033Y-78051888D01*
X145065506Y-78163426D01*
X145014171Y-78287360D01*
X144988000Y-78418927D01*
X144988000Y-78553073D01*
X145014171Y-78684640D01*
X145065506Y-78808574D01*
X145140033Y-78920112D01*
X145161001Y-78941080D01*
X145161000Y-80688579D01*
X143295430Y-82554150D01*
X143276053Y-82570052D01*
X143260151Y-82589429D01*
X143260150Y-82589430D01*
X143212571Y-82647405D01*
X143165400Y-82735657D01*
X143136352Y-82831416D01*
X143126543Y-82931000D01*
X143129001Y-82955954D01*
X143129000Y-85192056D01*
X143126543Y-85217000D01*
X143129000Y-85241944D01*
X143129000Y-85241946D01*
X143136351Y-85316584D01*
X143165399Y-85412342D01*
X143212571Y-85500595D01*
X143276052Y-85577948D01*
X143295435Y-85593855D01*
X143891001Y-86189421D01*
X143891000Y-88435579D01*
X143673072Y-88653508D01*
X143632567Y-88592888D01*
X143622179Y-88582500D01*
X143632567Y-88572112D01*
X143707094Y-88460574D01*
X143758429Y-88336640D01*
X143784600Y-88205073D01*
X143784600Y-88070927D01*
X143758429Y-87939360D01*
X143707094Y-87815426D01*
X143632567Y-87703888D01*
X143537712Y-87609033D01*
X143426174Y-87534506D01*
X143302240Y-87483171D01*
X143170673Y-87457000D01*
X143036527Y-87457000D01*
X142904960Y-87483171D01*
X142781026Y-87534506D01*
X142669488Y-87609033D01*
X142574633Y-87703888D01*
X142500106Y-87815426D01*
X142448771Y-87939360D01*
X142422600Y-88070927D01*
X142422600Y-88205073D01*
X142448771Y-88336640D01*
X142500106Y-88460574D01*
X142574633Y-88572112D01*
X142585021Y-88582500D01*
X142574633Y-88592888D01*
X142500106Y-88704426D01*
X142448771Y-88828360D01*
X142422600Y-88959927D01*
X142422600Y-89094073D01*
X142448771Y-89225640D01*
X142500106Y-89349574D01*
X142574633Y-89461112D01*
X142669488Y-89555967D01*
X142730108Y-89596472D01*
X141898430Y-90428150D01*
X141879053Y-90444052D01*
X141863151Y-90463429D01*
X141863150Y-90463430D01*
X141815571Y-90521405D01*
X141789154Y-90570829D01*
X141768400Y-90609657D01*
X141751553Y-90665196D01*
X141739352Y-90705416D01*
X141729543Y-90805000D01*
X141732001Y-90829954D01*
X141732000Y-96817579D01*
X140577630Y-97971950D01*
X140558253Y-97987852D01*
X140542351Y-98007229D01*
X140542350Y-98007230D01*
X140495604Y-98064190D01*
X140301571Y-97934541D01*
X140070445Y-97838805D01*
X139825084Y-97790000D01*
X140070445Y-97741195D01*
X140301571Y-97645459D01*
X140509578Y-97506473D01*
X140686473Y-97329578D01*
X140825459Y-97121571D01*
X140921195Y-96890445D01*
X140970000Y-96645084D01*
X140970000Y-96394916D01*
X140921195Y-96149555D01*
X140825459Y-95918429D01*
X140686473Y-95710422D01*
X140509578Y-95533527D01*
X140301571Y-95394541D01*
X140070445Y-95298805D01*
X139825084Y-95250000D01*
X140070445Y-95201195D01*
X140301571Y-95105459D01*
X140509578Y-94966473D01*
X140686473Y-94789578D01*
X140825459Y-94581571D01*
X140921195Y-94350445D01*
X140970000Y-94105084D01*
X140970000Y-93854916D01*
X140921195Y-93609555D01*
X140825459Y-93378429D01*
X140686473Y-93170422D01*
X140509578Y-92993527D01*
X140301571Y-92854541D01*
X140070445Y-92758805D01*
X139825084Y-92710000D01*
X140070445Y-92661195D01*
X140301571Y-92565459D01*
X140509578Y-92426473D01*
X140686473Y-92249578D01*
X140825459Y-92041571D01*
X140921195Y-91810445D01*
X140970000Y-91565084D01*
X140970000Y-91314916D01*
X140921195Y-91069555D01*
X140825459Y-90838429D01*
X140686473Y-90630422D01*
X140509578Y-90453527D01*
X140301571Y-90314541D01*
X140070445Y-90218805D01*
X139825084Y-90170000D01*
X140070445Y-90121195D01*
X140301571Y-90025459D01*
X140509578Y-89886473D01*
X140686473Y-89709578D01*
X140825459Y-89501571D01*
X140921195Y-89270445D01*
X140970000Y-89025084D01*
X140970000Y-88774916D01*
X140921195Y-88529555D01*
X140825459Y-88298429D01*
X140686473Y-88090422D01*
X140509578Y-87913527D01*
X140301571Y-87774541D01*
X140070445Y-87678805D01*
X139825084Y-87630000D01*
X140070445Y-87581195D01*
X140301571Y-87485459D01*
X140509578Y-87346473D01*
X140686473Y-87169578D01*
X140825459Y-86961571D01*
X140921195Y-86730445D01*
X140970000Y-86485084D01*
X140970000Y-86234916D01*
X140921195Y-85989555D01*
X140825459Y-85758429D01*
X140686473Y-85550422D01*
X140509578Y-85373527D01*
X140301571Y-85234541D01*
X140070445Y-85138805D01*
X139825084Y-85090000D01*
X140070445Y-85041195D01*
X140301571Y-84945459D01*
X140509578Y-84806473D01*
X140686473Y-84629578D01*
X140825459Y-84421571D01*
X140921195Y-84190445D01*
X140970000Y-83945084D01*
X140970000Y-83694916D01*
X140921195Y-83449555D01*
X140825459Y-83218429D01*
X140686473Y-83010422D01*
X140509578Y-82833527D01*
X140301571Y-82694541D01*
X140070445Y-82598805D01*
X139825084Y-82550000D01*
X140070445Y-82501195D01*
X140301571Y-82405459D01*
X140509578Y-82266473D01*
X140686473Y-82089578D01*
X140825459Y-81881571D01*
X140921195Y-81650445D01*
X140970000Y-81405084D01*
X140970000Y-81154916D01*
X140921195Y-80909555D01*
X140825459Y-80678429D01*
X140686473Y-80470422D01*
X140509578Y-80293527D01*
X140301571Y-80154541D01*
X140070445Y-80058805D01*
X139825084Y-80010000D01*
X140070445Y-79961195D01*
X140301571Y-79865459D01*
X140509578Y-79726473D01*
X140674124Y-79561927D01*
X141178000Y-79561927D01*
X141178000Y-79696073D01*
X141204171Y-79827640D01*
X141255506Y-79951574D01*
X141330033Y-80063112D01*
X141424888Y-80157967D01*
X141536426Y-80232494D01*
X141660360Y-80283829D01*
X141791927Y-80310000D01*
X141926073Y-80310000D01*
X142057640Y-80283829D01*
X142080945Y-80274176D01*
X142093171Y-80335640D01*
X142144506Y-80459574D01*
X142219033Y-80571112D01*
X142313888Y-80665967D01*
X142425426Y-80740494D01*
X142549360Y-80791829D01*
X142680927Y-80818000D01*
X142815073Y-80818000D01*
X142946640Y-80791829D01*
X143070574Y-80740494D01*
X143182112Y-80665967D01*
X143276967Y-80571112D01*
X143351494Y-80459574D01*
X143402829Y-80335640D01*
X143429000Y-80204073D01*
X143429000Y-80069927D01*
X143425542Y-80052542D01*
X143442927Y-80056000D01*
X143577073Y-80056000D01*
X143708640Y-80029829D01*
X143832574Y-79978494D01*
X143944112Y-79903967D01*
X144038967Y-79809112D01*
X144113494Y-79697574D01*
X144164829Y-79573640D01*
X144191000Y-79442073D01*
X144191000Y-79307927D01*
X144164829Y-79176360D01*
X144113494Y-79052426D01*
X144038967Y-78940888D01*
X143944112Y-78846033D01*
X143832574Y-78771506D01*
X143708640Y-78720171D01*
X143577073Y-78694000D01*
X143442927Y-78694000D01*
X143311360Y-78720171D01*
X143187426Y-78771506D01*
X143075888Y-78846033D01*
X142981033Y-78940888D01*
X142906506Y-79052426D01*
X142855171Y-79176360D01*
X142829000Y-79307927D01*
X142829000Y-79442073D01*
X142832458Y-79459458D01*
X142815073Y-79456000D01*
X142680927Y-79456000D01*
X142549360Y-79482171D01*
X142526055Y-79491824D01*
X142513829Y-79430360D01*
X142462494Y-79306426D01*
X142387967Y-79194888D01*
X142293112Y-79100033D01*
X142181574Y-79025506D01*
X142057640Y-78974171D01*
X141926073Y-78948000D01*
X141791927Y-78948000D01*
X141660360Y-78974171D01*
X141536426Y-79025506D01*
X141424888Y-79100033D01*
X141330033Y-79194888D01*
X141255506Y-79306426D01*
X141204171Y-79430360D01*
X141178000Y-79561927D01*
X140674124Y-79561927D01*
X140686473Y-79549578D01*
X140825459Y-79341571D01*
X140921195Y-79110445D01*
X140970000Y-78865084D01*
X140970000Y-78614916D01*
X140921195Y-78369555D01*
X140825459Y-78138429D01*
X140686473Y-77930422D01*
X140509578Y-77753527D01*
X140301571Y-77614541D01*
X140070445Y-77518805D01*
X139825084Y-77470000D01*
X140070445Y-77421195D01*
X140301571Y-77325459D01*
X140509578Y-77186473D01*
X140686473Y-77009578D01*
X140825459Y-76801571D01*
X140921195Y-76570445D01*
X140961616Y-76367229D01*
X146947000Y-76367229D01*
X146947000Y-76540771D01*
X146980856Y-76710978D01*
X147047268Y-76871310D01*
X147143682Y-77015605D01*
X147266395Y-77138318D01*
X147410690Y-77234732D01*
X147571022Y-77301144D01*
X147741229Y-77335000D01*
X147914771Y-77335000D01*
X148084978Y-77301144D01*
X148245310Y-77234732D01*
X148389605Y-77138318D01*
X148512318Y-77015605D01*
X148608732Y-76871310D01*
X148675144Y-76710978D01*
X148709000Y-76540771D01*
X148709000Y-76386927D01*
X150068000Y-76386927D01*
X150068000Y-76521073D01*
X150094171Y-76652640D01*
X150145506Y-76776574D01*
X150220033Y-76888112D01*
X150314888Y-76982967D01*
X150426426Y-77057494D01*
X150550360Y-77108829D01*
X150681927Y-77135000D01*
X150816073Y-77135000D01*
X150947640Y-77108829D01*
X151071574Y-77057494D01*
X151183112Y-76982967D01*
X151277967Y-76888112D01*
X151352494Y-76776574D01*
X151403829Y-76652640D01*
X151430000Y-76521073D01*
X151430000Y-76386927D01*
X151403829Y-76255360D01*
X151352494Y-76131426D01*
X151277967Y-76019888D01*
X151183112Y-75925033D01*
X151071574Y-75850506D01*
X150947640Y-75799171D01*
X150816073Y-75773000D01*
X150681927Y-75773000D01*
X150550360Y-75799171D01*
X150426426Y-75850506D01*
X150314888Y-75925033D01*
X150220033Y-76019888D01*
X150145506Y-76131426D01*
X150094171Y-76255360D01*
X150068000Y-76386927D01*
X148709000Y-76386927D01*
X148709000Y-76367229D01*
X148675144Y-76197022D01*
X148608732Y-76036690D01*
X148512318Y-75892395D01*
X148389605Y-75769682D01*
X148245310Y-75673268D01*
X148084978Y-75606856D01*
X147914771Y-75573000D01*
X147741229Y-75573000D01*
X147571022Y-75606856D01*
X147410690Y-75673268D01*
X147266395Y-75769682D01*
X147143682Y-75892395D01*
X147047268Y-76036690D01*
X146980856Y-76197022D01*
X146947000Y-76367229D01*
X140961616Y-76367229D01*
X140970000Y-76325084D01*
X140970000Y-76074916D01*
X140921195Y-75829555D01*
X140825459Y-75598429D01*
X140686473Y-75390422D01*
X140509578Y-75213527D01*
X140365007Y-75116927D01*
X142321000Y-75116927D01*
X142321000Y-75251073D01*
X142347171Y-75382640D01*
X142398506Y-75506574D01*
X142473033Y-75618112D01*
X142567888Y-75712967D01*
X142679426Y-75787494D01*
X142803360Y-75838829D01*
X142934927Y-75865000D01*
X143069073Y-75865000D01*
X143200640Y-75838829D01*
X143324574Y-75787494D01*
X143436112Y-75712967D01*
X143530967Y-75618112D01*
X143605494Y-75506574D01*
X143656829Y-75382640D01*
X143683000Y-75251073D01*
X143683000Y-75116927D01*
X143656829Y-74985360D01*
X143605494Y-74861426D01*
X143530967Y-74749888D01*
X143436112Y-74655033D01*
X143324574Y-74580506D01*
X143200640Y-74529171D01*
X143069073Y-74503000D01*
X142934927Y-74503000D01*
X142803360Y-74529171D01*
X142679426Y-74580506D01*
X142567888Y-74655033D01*
X142473033Y-74749888D01*
X142398506Y-74861426D01*
X142347171Y-74985360D01*
X142321000Y-75116927D01*
X140365007Y-75116927D01*
X140301571Y-75074541D01*
X140287712Y-75068800D01*
X140347359Y-75047816D01*
X140494273Y-74969289D01*
X140576626Y-74716231D01*
X139700000Y-73839605D01*
X139685858Y-73853748D01*
X139506253Y-73674143D01*
X139520395Y-73660000D01*
X139879605Y-73660000D01*
X140756231Y-74536626D01*
X141009289Y-74454273D01*
X141139086Y-74183582D01*
X141213580Y-73892770D01*
X141229908Y-73593012D01*
X141187443Y-73295829D01*
X141087816Y-73012641D01*
X141009289Y-72865727D01*
X140756231Y-72783374D01*
X139879605Y-73660000D01*
X139520395Y-73660000D01*
X139506253Y-73645858D01*
X139685858Y-73466253D01*
X139700000Y-73480395D01*
X140576626Y-72603769D01*
X140494273Y-72350711D01*
X140287192Y-72251415D01*
X140301571Y-72245459D01*
X140509578Y-72106473D01*
X140686473Y-71929578D01*
X140825459Y-71721571D01*
X140921195Y-71490445D01*
X140970000Y-71245084D01*
X140970000Y-70994916D01*
X140921195Y-70749555D01*
X140825459Y-70518429D01*
X140686473Y-70310422D01*
X140509578Y-70133527D01*
X140301571Y-69994541D01*
X140070445Y-69898805D01*
X139825084Y-69850000D01*
X140070445Y-69801195D01*
X140301571Y-69705459D01*
X140509578Y-69566473D01*
X140686473Y-69389578D01*
X140825459Y-69181571D01*
X140921195Y-68950445D01*
X140970000Y-68705084D01*
X140970000Y-68454916D01*
X140921195Y-68209555D01*
X140825459Y-67978429D01*
X140686473Y-67770422D01*
X140509578Y-67593527D01*
X140301571Y-67454541D01*
X140070445Y-67358805D01*
X139825084Y-67310000D01*
X140070445Y-67261195D01*
X140301571Y-67165459D01*
X140509578Y-67026473D01*
X140686473Y-66849578D01*
X140825459Y-66641571D01*
X140921195Y-66410445D01*
X140970000Y-66165084D01*
X140970000Y-65914916D01*
X140921195Y-65669555D01*
X140825459Y-65438429D01*
X140686473Y-65230422D01*
X140509578Y-65053527D01*
X140301571Y-64914541D01*
X140070445Y-64818805D01*
X139834349Y-64771843D01*
X140589000Y-64771843D01*
X140663689Y-64764487D01*
X140735508Y-64742701D01*
X140801696Y-64707322D01*
X140859711Y-64659711D01*
X140907322Y-64601696D01*
X140942701Y-64535508D01*
X140964487Y-64463689D01*
X140971843Y-64389000D01*
X141612412Y-64389000D01*
X141608341Y-64392341D01*
X141497247Y-64527709D01*
X141414697Y-64682149D01*
X141363864Y-64849726D01*
X141346699Y-65024000D01*
X141363864Y-65198274D01*
X141414697Y-65365851D01*
X141497247Y-65520291D01*
X141608341Y-65655659D01*
X141743709Y-65766753D01*
X141898149Y-65849303D01*
X142065726Y-65900136D01*
X142196333Y-65913000D01*
X143522765Y-65913000D01*
X144063064Y-66453300D01*
X144015022Y-66462856D01*
X143854690Y-66529268D01*
X143710395Y-66625682D01*
X143587682Y-66748395D01*
X143491268Y-66892690D01*
X143424856Y-67053022D01*
X143391000Y-67223229D01*
X143391000Y-67396771D01*
X143424856Y-67566978D01*
X143491268Y-67727310D01*
X143587682Y-67871605D01*
X143710395Y-67994318D01*
X143854690Y-68090732D01*
X144015022Y-68157144D01*
X144185229Y-68191000D01*
X144358771Y-68191000D01*
X144528978Y-68157144D01*
X144689310Y-68090732D01*
X144833605Y-67994318D01*
X144956318Y-67871605D01*
X145034001Y-67755344D01*
X145034000Y-69806340D01*
X145029700Y-69850000D01*
X145034000Y-69893660D01*
X145034000Y-69893666D01*
X145046864Y-70024273D01*
X145097697Y-70191850D01*
X145180247Y-70346290D01*
X145291341Y-70481659D01*
X145325264Y-70509499D01*
X147422510Y-72606746D01*
X147450342Y-72640659D01*
X147484254Y-72668490D01*
X147484259Y-72668495D01*
X147557882Y-72728915D01*
X147585710Y-72751753D01*
X147644869Y-72783374D01*
X147740147Y-72834302D01*
X147907724Y-72885136D01*
X147950745Y-72889373D01*
X148082000Y-72902301D01*
X148256274Y-72885136D01*
X148423851Y-72834303D01*
X148578291Y-72751753D01*
X148713659Y-72640659D01*
X148737347Y-72611796D01*
X148794682Y-72697605D01*
X148917395Y-72820318D01*
X149061690Y-72916732D01*
X149222022Y-72983144D01*
X149392229Y-73017000D01*
X149565771Y-73017000D01*
X149735978Y-72983144D01*
X149896310Y-72916732D01*
X150040605Y-72820318D01*
X150163318Y-72697605D01*
X150259732Y-72553310D01*
X150326144Y-72392978D01*
X150360000Y-72222771D01*
X150360000Y-72049229D01*
X150326144Y-71879022D01*
X150259732Y-71718690D01*
X150163318Y-71574395D01*
X150040605Y-71451682D01*
X149924345Y-71374000D01*
X154063765Y-71374000D01*
X155042506Y-72352741D01*
X155070341Y-72386659D01*
X155205709Y-72497753D01*
X155360149Y-72580303D01*
X155426058Y-72600296D01*
X155527724Y-72631136D01*
X155560924Y-72634406D01*
X155658333Y-72644000D01*
X155658339Y-72644000D01*
X155701999Y-72648300D01*
X155745659Y-72644000D01*
X156111857Y-72644000D01*
X156102247Y-72655710D01*
X156019697Y-72810150D01*
X155968864Y-72977727D01*
X155956000Y-73108334D01*
X155956000Y-73108340D01*
X155951700Y-73152000D01*
X155956000Y-73195660D01*
X155956001Y-75521330D01*
X155951700Y-75565000D01*
X155968864Y-75739274D01*
X156019698Y-75906852D01*
X156102248Y-76061291D01*
X156184126Y-76161059D01*
X156213342Y-76196659D01*
X156247259Y-76224494D01*
X157149800Y-77127036D01*
X157149800Y-79145144D01*
X157043640Y-79101171D01*
X156912073Y-79075000D01*
X156777927Y-79075000D01*
X156646360Y-79101171D01*
X156522426Y-79152506D01*
X156410888Y-79227033D01*
X156316033Y-79321888D01*
X156241506Y-79433426D01*
X156190171Y-79557360D01*
X156164000Y-79688927D01*
X156164000Y-79823073D01*
X156190171Y-79954640D01*
X156194048Y-79964000D01*
X156142927Y-79964000D01*
X156011360Y-79990171D01*
X155887426Y-80041506D01*
X155775888Y-80116033D01*
X155681033Y-80210888D01*
X155606506Y-80322426D01*
X155598519Y-80341708D01*
X155595967Y-80337888D01*
X155501112Y-80243033D01*
X155389574Y-80168506D01*
X155265640Y-80117171D01*
X155134073Y-80091000D01*
X154999927Y-80091000D01*
X154868360Y-80117171D01*
X154744426Y-80168506D01*
X154632888Y-80243033D01*
X154538033Y-80337888D01*
X154463506Y-80449426D01*
X154412171Y-80573360D01*
X154386000Y-80704927D01*
X154386000Y-80839073D01*
X154412171Y-80970640D01*
X154416048Y-80980000D01*
X154364927Y-80980000D01*
X154347542Y-80983458D01*
X154351000Y-80966073D01*
X154351000Y-80831927D01*
X154324829Y-80700360D01*
X154273494Y-80576426D01*
X154198967Y-80464888D01*
X154104112Y-80370033D01*
X153992574Y-80295506D01*
X153868640Y-80244171D01*
X153737073Y-80218000D01*
X153602927Y-80218000D01*
X153471360Y-80244171D01*
X153347426Y-80295506D01*
X153235888Y-80370033D01*
X153141033Y-80464888D01*
X153066506Y-80576426D01*
X153015171Y-80700360D01*
X152989000Y-80831927D01*
X152989000Y-80966073D01*
X153015171Y-81097640D01*
X153066506Y-81221574D01*
X153141033Y-81333112D01*
X153235888Y-81427967D01*
X153347426Y-81502494D01*
X153471360Y-81553829D01*
X153602927Y-81580000D01*
X153737073Y-81580000D01*
X153754458Y-81576542D01*
X153751000Y-81593927D01*
X153751000Y-81728073D01*
X153777171Y-81859640D01*
X153828506Y-81983574D01*
X153903033Y-82095112D01*
X153997888Y-82189967D01*
X154109426Y-82264494D01*
X154233360Y-82315829D01*
X154364927Y-82342000D01*
X154499073Y-82342000D01*
X154630640Y-82315829D01*
X154754574Y-82264494D01*
X154866112Y-82189967D01*
X154960967Y-82095112D01*
X155035494Y-81983574D01*
X155086829Y-81859640D01*
X155113000Y-81728073D01*
X155113000Y-81593927D01*
X155086829Y-81462360D01*
X155082952Y-81453000D01*
X155134073Y-81453000D01*
X155265640Y-81426829D01*
X155389574Y-81375494D01*
X155501112Y-81300967D01*
X155595967Y-81206112D01*
X155670494Y-81094574D01*
X155678481Y-81075292D01*
X155681033Y-81079112D01*
X155775888Y-81173967D01*
X155887426Y-81248494D01*
X156011360Y-81299829D01*
X156142927Y-81326000D01*
X156277073Y-81326000D01*
X156408640Y-81299829D01*
X156532574Y-81248494D01*
X156644112Y-81173967D01*
X156738967Y-81079112D01*
X156813494Y-80967574D01*
X156864829Y-80843640D01*
X156891000Y-80712073D01*
X156891000Y-80577927D01*
X156864829Y-80446360D01*
X156860952Y-80437000D01*
X156912073Y-80437000D01*
X157043640Y-80410829D01*
X157149801Y-80366856D01*
X157149801Y-81241964D01*
X154716543Y-83675222D01*
X154705829Y-83621360D01*
X154654494Y-83497426D01*
X154579967Y-83385888D01*
X154485112Y-83291033D01*
X154373574Y-83216506D01*
X154249640Y-83165171D01*
X154118073Y-83139000D01*
X153983927Y-83139000D01*
X153852360Y-83165171D01*
X153728426Y-83216506D01*
X153616888Y-83291033D01*
X153522033Y-83385888D01*
X153447506Y-83497426D01*
X153396171Y-83621360D01*
X153370000Y-83752927D01*
X153370000Y-83887073D01*
X153396171Y-84018640D01*
X153447506Y-84142574D01*
X153522033Y-84254112D01*
X153616888Y-84348967D01*
X153728426Y-84423494D01*
X153852360Y-84474829D01*
X153930590Y-84490390D01*
X153860698Y-84621148D01*
X153809864Y-84788726D01*
X153792700Y-84963000D01*
X153809864Y-85137274D01*
X153860698Y-85304852D01*
X153943248Y-85459291D01*
X154054341Y-85594659D01*
X154189709Y-85705752D01*
X154344148Y-85788302D01*
X154511726Y-85839136D01*
X154686000Y-85856300D01*
X154860274Y-85839136D01*
X155027852Y-85788302D01*
X155182291Y-85705752D01*
X155283740Y-85622495D01*
X155485176Y-85421059D01*
X155554033Y-85524112D01*
X155648888Y-85618967D01*
X155760426Y-85693494D01*
X155884360Y-85744829D01*
X156015927Y-85771000D01*
X156150073Y-85771000D01*
X156281640Y-85744829D01*
X156405574Y-85693494D01*
X156517112Y-85618967D01*
X156611967Y-85524112D01*
X156686494Y-85412574D01*
X156737829Y-85288640D01*
X156764000Y-85157073D01*
X156764000Y-85022927D01*
X156737829Y-84891360D01*
X156686494Y-84767426D01*
X156611967Y-84655888D01*
X156517112Y-84561033D01*
X156414059Y-84492176D01*
X158636536Y-82269699D01*
X158670459Y-82241859D01*
X158781553Y-82106491D01*
X158864103Y-81952051D01*
X158884096Y-81886142D01*
X158914936Y-81784476D01*
X158918787Y-81745376D01*
X158935426Y-81756494D01*
X159059360Y-81807829D01*
X159190927Y-81834000D01*
X159325073Y-81834000D01*
X159456640Y-81807829D01*
X159580574Y-81756494D01*
X159692112Y-81681967D01*
X159786967Y-81587112D01*
X159861494Y-81475574D01*
X159912829Y-81351640D01*
X159939000Y-81220073D01*
X159939000Y-81085927D01*
X159912829Y-80954360D01*
X159861494Y-80830426D01*
X159786967Y-80718888D01*
X159692112Y-80624033D01*
X159580574Y-80549506D01*
X159456640Y-80498171D01*
X159325073Y-80472000D01*
X159190927Y-80472000D01*
X159059360Y-80498171D01*
X158935426Y-80549506D01*
X158927800Y-80554602D01*
X158927800Y-78408554D01*
X159033603Y-78429600D01*
X159177597Y-78429600D01*
X159318825Y-78401508D01*
X159451858Y-78346404D01*
X159571585Y-78266405D01*
X159673405Y-78164585D01*
X159753404Y-78044858D01*
X159808508Y-77911825D01*
X159836600Y-77770597D01*
X159836600Y-77626603D01*
X159808508Y-77485375D01*
X159753404Y-77352342D01*
X159673405Y-77232615D01*
X159571585Y-77130795D01*
X159451858Y-77050796D01*
X159318825Y-76995692D01*
X159177597Y-76967600D01*
X159033603Y-76967600D01*
X158927800Y-76988646D01*
X158927800Y-76802459D01*
X158932100Y-76758799D01*
X158927800Y-76715134D01*
X158927800Y-76715133D01*
X158914936Y-76584526D01*
X158914936Y-76584524D01*
X158864102Y-76416947D01*
X158837527Y-76367229D01*
X158781553Y-76262509D01*
X158706459Y-76171007D01*
X158698295Y-76161059D01*
X158698294Y-76161058D01*
X158670459Y-76127141D01*
X158636543Y-76099307D01*
X157734000Y-75196765D01*
X157734000Y-73520235D01*
X158204742Y-73049493D01*
X158238659Y-73021659D01*
X158349753Y-72886291D01*
X158432303Y-72731851D01*
X158471156Y-72603769D01*
X158483136Y-72564275D01*
X158485947Y-72535732D01*
X158496000Y-72433667D01*
X158496000Y-72433660D01*
X158500300Y-72390000D01*
X158496000Y-72346340D01*
X158496000Y-68359772D01*
X158620022Y-68411144D01*
X158790229Y-68445000D01*
X158963771Y-68445000D01*
X159133978Y-68411144D01*
X159294310Y-68344732D01*
X159438605Y-68248318D01*
X159448500Y-68238423D01*
X159458395Y-68248318D01*
X159602690Y-68344732D01*
X159763022Y-68411144D01*
X159933229Y-68445000D01*
X160106771Y-68445000D01*
X160276978Y-68411144D01*
X160437310Y-68344732D01*
X160581605Y-68248318D01*
X160704318Y-68125605D01*
X160800732Y-67981310D01*
X160867144Y-67820978D01*
X160901000Y-67650771D01*
X160901000Y-67477229D01*
X160867144Y-67307022D01*
X160800732Y-67146690D01*
X160704318Y-67002395D01*
X160581605Y-66879682D01*
X160437310Y-66783268D01*
X160276978Y-66716856D01*
X160106771Y-66683000D01*
X159933229Y-66683000D01*
X159763022Y-66716856D01*
X159602690Y-66783268D01*
X159458395Y-66879682D01*
X159448500Y-66889577D01*
X159438605Y-66879682D01*
X159294310Y-66783268D01*
X159133978Y-66716856D01*
X158963771Y-66683000D01*
X158790229Y-66683000D01*
X158620022Y-66716856D01*
X158496000Y-66768228D01*
X158496000Y-63325279D01*
X158559302Y-63206852D01*
X158610136Y-63039275D01*
X158627300Y-62865001D01*
X158610136Y-62690726D01*
X158559302Y-62523148D01*
X158476751Y-62368709D01*
X158365659Y-62233341D01*
X158230291Y-62122249D01*
X158075852Y-62039698D01*
X157908274Y-61988864D01*
X157733999Y-61971700D01*
X157559725Y-61988864D01*
X157392148Y-62039698D01*
X157237709Y-62122249D01*
X157136260Y-62205505D01*
X157009259Y-62332506D01*
X156975342Y-62360341D01*
X156947507Y-62394258D01*
X156947505Y-62394260D01*
X156864248Y-62495709D01*
X156781698Y-62650148D01*
X156730864Y-62817726D01*
X156713700Y-62992000D01*
X156718001Y-63035670D01*
X156718001Y-66052765D01*
X156107499Y-65442263D01*
X156079659Y-65408341D01*
X155944291Y-65297247D01*
X155789851Y-65214697D01*
X155773573Y-65209759D01*
X155764790Y-65193328D01*
X155717408Y-65135592D01*
X155659672Y-65088210D01*
X155593802Y-65053002D01*
X155583677Y-65049931D01*
X155640711Y-64943229D01*
X155696805Y-64758310D01*
X155711000Y-64614187D01*
X155711000Y-63917814D01*
X155696805Y-63773691D01*
X155640711Y-63588771D01*
X155549618Y-63418349D01*
X155427028Y-63268972D01*
X155277651Y-63146382D01*
X155107229Y-63055289D01*
X154922310Y-62999195D01*
X154730000Y-62980254D01*
X154537691Y-62999195D01*
X154352772Y-63055289D01*
X154182350Y-63146382D01*
X154032973Y-63268972D01*
X153910383Y-63418349D01*
X153819290Y-63588771D01*
X153763195Y-63773690D01*
X153749000Y-63917813D01*
X153749000Y-64226765D01*
X153567499Y-64045264D01*
X153539659Y-64011341D01*
X153404291Y-63900247D01*
X153249851Y-63817697D01*
X153082274Y-63766864D01*
X152951667Y-63754000D01*
X152951660Y-63754000D01*
X152908000Y-63749700D01*
X152864340Y-63754000D01*
X149395659Y-63754000D01*
X149351999Y-63749700D01*
X149308339Y-63754000D01*
X149308333Y-63754000D01*
X149210924Y-63763594D01*
X149177724Y-63766864D01*
X149076058Y-63797704D01*
X149010149Y-63817697D01*
X148855709Y-63900247D01*
X148720341Y-64011341D01*
X148692501Y-64045264D01*
X148511000Y-64226765D01*
X148511000Y-63917814D01*
X148496805Y-63773691D01*
X148440711Y-63588771D01*
X148349618Y-63418349D01*
X148227028Y-63268972D01*
X148077651Y-63146382D01*
X147907229Y-63055289D01*
X147722310Y-62999195D01*
X147530000Y-62980254D01*
X147337691Y-62999195D01*
X147152772Y-63055289D01*
X147071236Y-63098871D01*
X147085829Y-63063640D01*
X147112000Y-62932073D01*
X147112000Y-62797927D01*
X147085829Y-62666360D01*
X147034494Y-62542426D01*
X146959967Y-62430888D01*
X146865112Y-62336033D01*
X146753574Y-62261506D01*
X146629640Y-62210171D01*
X146498073Y-62184000D01*
X146363927Y-62184000D01*
X146232360Y-62210171D01*
X146108426Y-62261506D01*
X145996888Y-62336033D01*
X145902033Y-62430888D01*
X145827506Y-62542426D01*
X145776171Y-62666360D01*
X145750000Y-62797927D01*
X145750000Y-62932073D01*
X145776171Y-63063640D01*
X145827506Y-63187574D01*
X145902033Y-63299112D01*
X145996888Y-63393967D01*
X146108426Y-63468494D01*
X146232360Y-63519829D01*
X146363927Y-63546000D01*
X146498073Y-63546000D01*
X146629640Y-63519829D01*
X146663676Y-63505731D01*
X146619290Y-63588771D01*
X146563195Y-63773690D01*
X146549000Y-63917813D01*
X146549000Y-64392764D01*
X145058499Y-62902264D01*
X145030659Y-62868341D01*
X144895291Y-62757247D01*
X144740851Y-62674697D01*
X144573274Y-62623864D01*
X144442667Y-62611000D01*
X144442660Y-62611000D01*
X144399000Y-62606700D01*
X144355340Y-62611000D01*
X140971843Y-62611000D01*
X140964487Y-62536311D01*
X140942701Y-62464492D01*
X140907322Y-62398304D01*
X140859711Y-62340289D01*
X140801696Y-62292678D01*
X140735508Y-62257299D01*
X140663689Y-62235513D01*
X140589000Y-62228157D01*
X139648922Y-62228157D01*
X139720967Y-62156112D01*
X139795494Y-62044574D01*
X139846829Y-61920640D01*
X139873000Y-61789073D01*
X139873000Y-61654927D01*
X139846829Y-61523360D01*
X139823898Y-61468000D01*
X146093580Y-61468000D01*
X147070150Y-62444571D01*
X147070150Y-62444571D01*
G37*
X147070150Y-62444571D02*
X147086052Y-62463948D01*
X147105429Y-62479850D01*
X147163404Y-62527429D01*
X147181520Y-62537112D01*
X147251657Y-62574601D01*
X147347415Y-62603649D01*
X147422053Y-62611000D01*
X147422055Y-62611000D01*
X147446999Y-62613457D01*
X147471943Y-62611000D01*
X154788056Y-62611000D01*
X154813000Y-62613457D01*
X154837944Y-62611000D01*
X154837947Y-62611000D01*
X154912585Y-62603649D01*
X155008343Y-62574601D01*
X155096595Y-62527429D01*
X155173948Y-62463948D01*
X155189855Y-62444565D01*
X155529000Y-62105420D01*
X155529000Y-62170073D01*
X155555171Y-62301640D01*
X155606506Y-62425574D01*
X155681033Y-62537112D01*
X155775888Y-62631967D01*
X155887426Y-62706494D01*
X156011360Y-62757829D01*
X156142927Y-62784000D01*
X156277073Y-62784000D01*
X156408640Y-62757829D01*
X156532574Y-62706494D01*
X156644112Y-62631967D01*
X156738967Y-62537112D01*
X156813494Y-62425574D01*
X156864829Y-62301640D01*
X156891000Y-62170073D01*
X156891000Y-62035927D01*
X156864829Y-61904360D01*
X156813494Y-61780426D01*
X156738967Y-61668888D01*
X156644112Y-61574033D01*
X156532574Y-61499506D01*
X156456512Y-61468000D01*
X163322000Y-61468000D01*
X163322000Y-62228157D01*
X161671000Y-62228157D01*
X161596311Y-62235513D01*
X161524492Y-62257299D01*
X161458304Y-62292678D01*
X161400289Y-62340289D01*
X161352678Y-62398304D01*
X161317299Y-62464492D01*
X161295513Y-62536311D01*
X161288157Y-62611000D01*
X161288157Y-64389000D01*
X161295513Y-64463689D01*
X161317299Y-64535508D01*
X161352678Y-64601696D01*
X161400289Y-64659711D01*
X161458304Y-64707322D01*
X161524492Y-64742701D01*
X161596311Y-64764487D01*
X161671000Y-64771843D01*
X162425651Y-64771843D01*
X162189555Y-64818805D01*
X161958429Y-64914541D01*
X161750422Y-65053527D01*
X161573527Y-65230422D01*
X161434541Y-65438429D01*
X161338805Y-65669555D01*
X161290000Y-65914916D01*
X161290000Y-66165084D01*
X161338805Y-66410445D01*
X161434541Y-66641571D01*
X161573527Y-66849578D01*
X161750422Y-67026473D01*
X161958429Y-67165459D01*
X162189555Y-67261195D01*
X162434916Y-67310000D01*
X162189555Y-67358805D01*
X161958429Y-67454541D01*
X161750422Y-67593527D01*
X161573527Y-67770422D01*
X161434541Y-67978429D01*
X161338805Y-68209555D01*
X161290000Y-68454916D01*
X161290000Y-68705084D01*
X161338805Y-68950445D01*
X161434541Y-69181571D01*
X161573527Y-69389578D01*
X161750422Y-69566473D01*
X161958429Y-69705459D01*
X162189555Y-69801195D01*
X162434916Y-69850000D01*
X162189555Y-69898805D01*
X161958429Y-69994541D01*
X161750422Y-70133527D01*
X161573527Y-70310422D01*
X161434541Y-70518429D01*
X161338805Y-70749555D01*
X161290000Y-70994916D01*
X161290000Y-71245084D01*
X161338805Y-71490445D01*
X161434541Y-71721571D01*
X161573527Y-71929578D01*
X161750422Y-72106473D01*
X161958429Y-72245459D01*
X162189555Y-72341195D01*
X162434916Y-72390000D01*
X162189555Y-72438805D01*
X161958429Y-72534541D01*
X161750422Y-72673527D01*
X161573527Y-72850422D01*
X161434541Y-73058429D01*
X161338805Y-73289555D01*
X161290000Y-73534916D01*
X161290000Y-73785084D01*
X161338805Y-74030445D01*
X161434541Y-74261571D01*
X161573527Y-74469578D01*
X161750422Y-74646473D01*
X161958429Y-74785459D01*
X162189555Y-74881195D01*
X162434916Y-74930000D01*
X162189555Y-74978805D01*
X161958429Y-75074541D01*
X161750422Y-75213527D01*
X161573527Y-75390422D01*
X161434541Y-75598429D01*
X161338805Y-75829555D01*
X161290000Y-76074916D01*
X161290000Y-76325084D01*
X161338805Y-76570445D01*
X161434541Y-76801571D01*
X161573527Y-77009578D01*
X161750422Y-77186473D01*
X161958429Y-77325459D01*
X162189555Y-77421195D01*
X162434916Y-77470000D01*
X162189555Y-77518805D01*
X161958429Y-77614541D01*
X161750422Y-77753527D01*
X161573527Y-77930422D01*
X161434541Y-78138429D01*
X161338805Y-78369555D01*
X161290000Y-78614916D01*
X161290000Y-78865084D01*
X161338805Y-79110445D01*
X161434541Y-79341571D01*
X161573527Y-79549578D01*
X161750422Y-79726473D01*
X161958429Y-79865459D01*
X162189555Y-79961195D01*
X162434916Y-80010000D01*
X162189555Y-80058805D01*
X161958429Y-80154541D01*
X161750422Y-80293527D01*
X161573527Y-80470422D01*
X161434541Y-80678429D01*
X161338805Y-80909555D01*
X161290000Y-81154916D01*
X161290000Y-81405084D01*
X161338805Y-81650445D01*
X161434541Y-81881571D01*
X161573527Y-82089578D01*
X161750422Y-82266473D01*
X161958429Y-82405459D01*
X162189555Y-82501195D01*
X162434916Y-82550000D01*
X162189555Y-82598805D01*
X161958429Y-82694541D01*
X161750422Y-82833527D01*
X161573527Y-83010422D01*
X161434541Y-83218429D01*
X161338805Y-83449555D01*
X161290000Y-83694916D01*
X161290000Y-83945084D01*
X161303616Y-84013537D01*
X161216112Y-83926033D01*
X161104574Y-83851506D01*
X160980640Y-83800171D01*
X160849073Y-83774000D01*
X160714927Y-83774000D01*
X160583360Y-83800171D01*
X160459426Y-83851506D01*
X160347888Y-83926033D01*
X160253033Y-84020888D01*
X160178506Y-84132426D01*
X160127171Y-84256360D01*
X160101000Y-84387927D01*
X160101000Y-84522073D01*
X160127171Y-84653640D01*
X160178506Y-84777574D01*
X160253033Y-84889112D01*
X160326921Y-84963000D01*
X160253033Y-85036888D01*
X160178506Y-85148426D01*
X160127171Y-85272360D01*
X160101000Y-85403927D01*
X160101000Y-85538073D01*
X160127171Y-85669640D01*
X160178506Y-85793574D01*
X160253033Y-85905112D01*
X160347888Y-85999967D01*
X160443055Y-86063555D01*
X160329360Y-86086171D01*
X160205426Y-86137506D01*
X160093888Y-86212033D01*
X159999033Y-86306888D01*
X159924506Y-86418426D01*
X159873171Y-86542360D01*
X159847000Y-86673927D01*
X159847000Y-86808073D01*
X159873171Y-86939640D01*
X159924506Y-87063574D01*
X159999033Y-87175112D01*
X160009421Y-87185500D01*
X159999033Y-87195888D01*
X159924506Y-87307426D01*
X159873171Y-87431360D01*
X159847000Y-87562927D01*
X159847000Y-87697073D01*
X159873171Y-87828640D01*
X159924506Y-87952574D01*
X159999033Y-88064112D01*
X160093888Y-88158967D01*
X160205426Y-88233494D01*
X160329360Y-88284829D01*
X160460927Y-88311000D01*
X160595073Y-88311000D01*
X160726640Y-88284829D01*
X160850574Y-88233494D01*
X160962112Y-88158967D01*
X161056967Y-88064112D01*
X161131494Y-87952574D01*
X161182829Y-87828640D01*
X161209000Y-87697073D01*
X161209000Y-87562927D01*
X161182829Y-87431360D01*
X161131494Y-87307426D01*
X161056967Y-87195888D01*
X161046579Y-87185500D01*
X161056967Y-87175112D01*
X161131494Y-87063574D01*
X161182829Y-86939640D01*
X161209000Y-86808073D01*
X161209000Y-86673927D01*
X161182829Y-86542360D01*
X161131494Y-86418426D01*
X161056967Y-86306888D01*
X160962112Y-86212033D01*
X160866945Y-86148445D01*
X160980640Y-86125829D01*
X161104574Y-86074494D01*
X161216112Y-85999967D01*
X161310967Y-85905112D01*
X161385494Y-85793574D01*
X161436829Y-85669640D01*
X161463000Y-85538073D01*
X161463000Y-85403927D01*
X161436829Y-85272360D01*
X161385494Y-85148426D01*
X161310967Y-85036888D01*
X161237079Y-84963000D01*
X161310967Y-84889112D01*
X161385494Y-84777574D01*
X161436829Y-84653640D01*
X161463000Y-84522073D01*
X161463000Y-84464163D01*
X161573527Y-84629578D01*
X161750422Y-84806473D01*
X161958429Y-84945459D01*
X162189555Y-85041195D01*
X162434916Y-85090000D01*
X162189555Y-85138805D01*
X161958429Y-85234541D01*
X161750422Y-85373527D01*
X161573527Y-85550422D01*
X161434541Y-85758429D01*
X161338805Y-85989555D01*
X161290000Y-86234916D01*
X161290000Y-86485084D01*
X161338805Y-86730445D01*
X161434541Y-86961571D01*
X161573527Y-87169578D01*
X161750422Y-87346473D01*
X161958429Y-87485459D01*
X162189555Y-87581195D01*
X162434916Y-87630000D01*
X162189555Y-87678805D01*
X161958429Y-87774541D01*
X161750422Y-87913527D01*
X161573527Y-88090422D01*
X161434541Y-88298429D01*
X161338805Y-88529555D01*
X161290000Y-88774916D01*
X161290000Y-89025084D01*
X161338805Y-89270445D01*
X161434541Y-89501571D01*
X161573527Y-89709578D01*
X161750422Y-89886473D01*
X161958429Y-90025459D01*
X162189555Y-90121195D01*
X162434916Y-90170000D01*
X162189555Y-90218805D01*
X161958429Y-90314541D01*
X161750422Y-90453527D01*
X161573527Y-90630422D01*
X161434541Y-90838429D01*
X161338805Y-91069555D01*
X161290000Y-91314916D01*
X161290000Y-91565084D01*
X161338805Y-91810445D01*
X161434541Y-92041571D01*
X161573527Y-92249578D01*
X161750422Y-92426473D01*
X161958429Y-92565459D01*
X162189555Y-92661195D01*
X162434916Y-92710000D01*
X162189555Y-92758805D01*
X161958429Y-92854541D01*
X161750422Y-92993527D01*
X161573527Y-93170422D01*
X161434541Y-93378429D01*
X161338805Y-93609555D01*
X161290000Y-93854916D01*
X161290000Y-94105084D01*
X161338805Y-94350445D01*
X161434541Y-94581571D01*
X161573527Y-94789578D01*
X161750422Y-94966473D01*
X161958429Y-95105459D01*
X162189555Y-95201195D01*
X162434916Y-95250000D01*
X162189555Y-95298805D01*
X161958429Y-95394541D01*
X161750422Y-95533527D01*
X161573527Y-95710422D01*
X161434541Y-95918429D01*
X161338805Y-96149555D01*
X161290000Y-96394916D01*
X161290000Y-96645084D01*
X161338805Y-96890445D01*
X161434541Y-97121571D01*
X161573527Y-97329578D01*
X161750422Y-97506473D01*
X161958429Y-97645459D01*
X162189555Y-97741195D01*
X162434916Y-97790000D01*
X162189555Y-97838805D01*
X161958429Y-97934541D01*
X161750422Y-98073527D01*
X161573527Y-98250422D01*
X161434541Y-98458429D01*
X161338805Y-98689555D01*
X161290000Y-98934916D01*
X161290000Y-99185084D01*
X161338805Y-99430445D01*
X161434541Y-99661571D01*
X161573527Y-99869578D01*
X161750422Y-100046473D01*
X161958429Y-100185459D01*
X162189555Y-100281195D01*
X162434916Y-100330000D01*
X162189555Y-100378805D01*
X161958429Y-100474541D01*
X161750422Y-100613527D01*
X161573527Y-100790422D01*
X161434541Y-100998429D01*
X161338805Y-101229555D01*
X161290000Y-101474916D01*
X161290000Y-101725084D01*
X161338805Y-101970445D01*
X161434541Y-102201571D01*
X161573527Y-102409578D01*
X161750422Y-102586473D01*
X161958429Y-102725459D01*
X162189555Y-102821195D01*
X162434916Y-102870000D01*
X162189555Y-102918805D01*
X161958429Y-103014541D01*
X161750422Y-103153527D01*
X161573527Y-103330422D01*
X161434541Y-103538429D01*
X161338805Y-103769555D01*
X161290000Y-104014916D01*
X161290000Y-104265084D01*
X161338805Y-104510445D01*
X161434541Y-104741571D01*
X161573527Y-104949578D01*
X161750422Y-105126473D01*
X161958429Y-105265459D01*
X162189555Y-105361195D01*
X162434916Y-105410000D01*
X162189555Y-105458805D01*
X161958429Y-105554541D01*
X161750422Y-105693527D01*
X161573527Y-105870422D01*
X161434541Y-106078429D01*
X161338805Y-106309555D01*
X161290000Y-106554916D01*
X161290000Y-106805084D01*
X161338805Y-107050445D01*
X161434541Y-107281571D01*
X161573527Y-107489578D01*
X161750422Y-107666473D01*
X161958429Y-107805459D01*
X162189555Y-107901195D01*
X162434916Y-107950000D01*
X162189555Y-107998805D01*
X161958429Y-108094541D01*
X161750422Y-108233527D01*
X161573527Y-108410422D01*
X161434541Y-108618429D01*
X161338805Y-108849555D01*
X161290000Y-109094916D01*
X161290000Y-109145921D01*
X161216112Y-109072033D01*
X161104574Y-108997506D01*
X160980640Y-108946171D01*
X160849073Y-108920000D01*
X160714927Y-108920000D01*
X160583360Y-108946171D01*
X160459426Y-108997506D01*
X160347888Y-109072033D01*
X160253033Y-109166888D01*
X160178506Y-109278426D01*
X160127171Y-109402360D01*
X160101000Y-109533927D01*
X160101000Y-109668073D01*
X160127171Y-109799640D01*
X160178506Y-109923574D01*
X160253033Y-110035112D01*
X160347888Y-110129967D01*
X160459426Y-110204494D01*
X160583360Y-110255829D01*
X160714927Y-110282000D01*
X160849073Y-110282000D01*
X160980640Y-110255829D01*
X161104574Y-110204494D01*
X161216112Y-110129967D01*
X161310967Y-110035112D01*
X161385494Y-109923574D01*
X161431143Y-109813367D01*
X161434541Y-109821571D01*
X161573527Y-110029578D01*
X161750422Y-110206473D01*
X161958429Y-110345459D01*
X162189555Y-110441195D01*
X162434916Y-110490000D01*
X162189555Y-110538805D01*
X161958429Y-110634541D01*
X161750422Y-110773527D01*
X161573527Y-110950422D01*
X161434541Y-111158429D01*
X161338805Y-111389555D01*
X161290000Y-111634916D01*
X161290000Y-111885084D01*
X161338805Y-112130445D01*
X161434541Y-112361571D01*
X161573527Y-112569578D01*
X161750422Y-112746473D01*
X161958429Y-112885459D01*
X162074418Y-112933503D01*
X162031033Y-112976888D01*
X161956506Y-113088426D01*
X161905171Y-113212360D01*
X161879000Y-113343927D01*
X161879000Y-113478073D01*
X161905171Y-113609640D01*
X161956506Y-113733574D01*
X161995545Y-113792000D01*
X157663455Y-113792000D01*
X157702494Y-113733574D01*
X157753829Y-113609640D01*
X157780000Y-113478073D01*
X157780000Y-113343927D01*
X157753829Y-113212360D01*
X157702494Y-113088426D01*
X157627967Y-112976888D01*
X157533112Y-112882033D01*
X157421574Y-112807506D01*
X157297640Y-112756171D01*
X157166073Y-112730000D01*
X157031927Y-112730000D01*
X156900360Y-112756171D01*
X156776426Y-112807506D01*
X156664888Y-112882033D01*
X156570033Y-112976888D01*
X156495506Y-113088426D01*
X156444171Y-113212360D01*
X156418000Y-113343927D01*
X156418000Y-113478073D01*
X156444171Y-113609640D01*
X156495506Y-113733574D01*
X156534545Y-113792000D01*
X146505079Y-113792000D01*
X146578967Y-113718112D01*
X146653494Y-113606574D01*
X146704829Y-113482640D01*
X146731000Y-113351073D01*
X146731000Y-113216927D01*
X146704829Y-113085360D01*
X146653494Y-112961426D01*
X146578967Y-112849888D01*
X146484112Y-112755033D01*
X146372574Y-112680506D01*
X146248640Y-112629171D01*
X146117073Y-112603000D01*
X145982927Y-112603000D01*
X145851360Y-112629171D01*
X145727426Y-112680506D01*
X145615888Y-112755033D01*
X145521033Y-112849888D01*
X145446506Y-112961426D01*
X145395171Y-113085360D01*
X145369000Y-113216927D01*
X145369000Y-113351073D01*
X145395171Y-113482640D01*
X145446506Y-113606574D01*
X145521033Y-113718112D01*
X145594921Y-113792000D01*
X142925800Y-113792000D01*
X142925800Y-112852200D01*
X142923360Y-112827424D01*
X142916133Y-112803599D01*
X142904397Y-112781643D01*
X142888603Y-112762397D01*
X142869357Y-112746603D01*
X142847401Y-112734867D01*
X142823576Y-112727640D01*
X142798800Y-112725200D01*
X141936107Y-112725200D01*
X141936107Y-112687735D01*
X140568316Y-112687735D01*
X140686473Y-112569578D01*
X140825459Y-112361571D01*
X140921195Y-112130445D01*
X140967803Y-111896127D01*
X147705800Y-111896127D01*
X147705800Y-112030273D01*
X147731971Y-112161840D01*
X147783306Y-112285774D01*
X147857833Y-112397312D01*
X147952688Y-112492167D01*
X148064226Y-112566694D01*
X148188160Y-112618029D01*
X148319727Y-112644200D01*
X148453873Y-112644200D01*
X148585440Y-112618029D01*
X148709374Y-112566694D01*
X148820912Y-112492167D01*
X148915767Y-112397312D01*
X148990294Y-112285774D01*
X149041629Y-112161840D01*
X149063233Y-112053234D01*
X149085196Y-112106258D01*
X149165195Y-112225985D01*
X149267015Y-112327805D01*
X149386742Y-112407804D01*
X149519775Y-112462908D01*
X149661003Y-112491000D01*
X149804997Y-112491000D01*
X149946225Y-112462908D01*
X150079258Y-112407804D01*
X150198985Y-112327805D01*
X150300805Y-112225985D01*
X150380804Y-112106258D01*
X150435908Y-111973225D01*
X150464000Y-111831997D01*
X150464000Y-111688003D01*
X150435908Y-111546775D01*
X150380804Y-111413742D01*
X150300805Y-111294015D01*
X150198985Y-111192195D01*
X150079258Y-111112196D01*
X149946225Y-111057092D01*
X149804997Y-111029000D01*
X149661003Y-111029000D01*
X149519775Y-111057092D01*
X149386742Y-111112196D01*
X149267015Y-111192195D01*
X149165195Y-111294015D01*
X149085196Y-111413742D01*
X149030092Y-111546775D01*
X149004569Y-111675089D01*
X148990294Y-111640626D01*
X148915767Y-111529088D01*
X148820912Y-111434233D01*
X148709374Y-111359706D01*
X148585440Y-111308371D01*
X148453873Y-111282200D01*
X148319727Y-111282200D01*
X148188160Y-111308371D01*
X148064226Y-111359706D01*
X147952688Y-111434233D01*
X147857833Y-111529088D01*
X147783306Y-111640626D01*
X147731971Y-111764560D01*
X147705800Y-111896127D01*
X140967803Y-111896127D01*
X140970000Y-111885084D01*
X140970000Y-111747236D01*
X141121495Y-111595741D01*
X141204752Y-111494292D01*
X141287302Y-111339852D01*
X141338136Y-111172275D01*
X141355300Y-110998000D01*
X141339621Y-110838799D01*
X141438565Y-110739855D01*
X141457948Y-110723948D01*
X141521429Y-110646595D01*
X141568601Y-110558343D01*
X141597649Y-110462585D01*
X141605000Y-110387947D01*
X141605000Y-110387944D01*
X141607457Y-110363000D01*
X141605000Y-110338056D01*
X141605000Y-109656003D01*
X143287000Y-109656003D01*
X143287000Y-109799997D01*
X143315092Y-109941225D01*
X143370196Y-110074258D01*
X143450195Y-110193985D01*
X143552015Y-110295805D01*
X143671742Y-110375804D01*
X143804775Y-110430908D01*
X143946003Y-110459000D01*
X144089997Y-110459000D01*
X144231225Y-110430908D01*
X144364258Y-110375804D01*
X144483985Y-110295805D01*
X144585805Y-110193985D01*
X144665804Y-110074258D01*
X144679195Y-110041927D01*
X149814000Y-110041927D01*
X149814000Y-110176073D01*
X149840171Y-110307640D01*
X149891506Y-110431574D01*
X149966033Y-110543112D01*
X150060888Y-110637967D01*
X150172426Y-110712494D01*
X150296360Y-110763829D01*
X150427927Y-110790000D01*
X150562073Y-110790000D01*
X150693640Y-110763829D01*
X150817574Y-110712494D01*
X150870803Y-110676927D01*
X152100000Y-110676927D01*
X152100000Y-110811073D01*
X152126171Y-110942640D01*
X152177506Y-111066574D01*
X152252033Y-111178112D01*
X152346888Y-111272967D01*
X152410543Y-111315500D01*
X152346888Y-111358033D01*
X152252033Y-111452888D01*
X152177506Y-111564426D01*
X152126171Y-111688360D01*
X152100000Y-111819927D01*
X152100000Y-111954073D01*
X152126171Y-112085640D01*
X152177506Y-112209574D01*
X152252033Y-112321112D01*
X152346888Y-112415967D01*
X152458426Y-112490494D01*
X152582360Y-112541829D01*
X152713927Y-112568000D01*
X152848073Y-112568000D01*
X152979640Y-112541829D01*
X153103574Y-112490494D01*
X153215112Y-112415967D01*
X153289000Y-112342079D01*
X153362888Y-112415967D01*
X153474426Y-112490494D01*
X153598360Y-112541829D01*
X153729927Y-112568000D01*
X153864073Y-112568000D01*
X153995640Y-112541829D01*
X154119574Y-112490494D01*
X154231112Y-112415967D01*
X154325967Y-112321112D01*
X154400494Y-112209574D01*
X154451829Y-112085640D01*
X154478000Y-111954073D01*
X154478000Y-111819927D01*
X154451829Y-111688360D01*
X154400494Y-111564426D01*
X154325967Y-111452888D01*
X154231112Y-111358033D01*
X154119574Y-111283506D01*
X153995640Y-111232171D01*
X153864073Y-111206000D01*
X153729927Y-111206000D01*
X153598360Y-111232171D01*
X153474426Y-111283506D01*
X153362888Y-111358033D01*
X153289000Y-111431921D01*
X153215112Y-111358033D01*
X153151457Y-111315500D01*
X153215112Y-111272967D01*
X153309967Y-111178112D01*
X153384494Y-111066574D01*
X153435829Y-110942640D01*
X153462000Y-110811073D01*
X153462000Y-110676927D01*
X153435829Y-110545360D01*
X153384494Y-110421426D01*
X153382207Y-110418003D01*
X157257000Y-110418003D01*
X157257000Y-110561997D01*
X157285092Y-110703225D01*
X157340196Y-110836258D01*
X157420195Y-110955985D01*
X157522015Y-111057805D01*
X157641742Y-111137804D01*
X157774775Y-111192908D01*
X157916003Y-111221000D01*
X158059997Y-111221000D01*
X158201225Y-111192908D01*
X158334258Y-111137804D01*
X158453985Y-111057805D01*
X158555805Y-110955985D01*
X158635804Y-110836258D01*
X158690908Y-110703225D01*
X158719000Y-110561997D01*
X158719000Y-110418003D01*
X158690908Y-110276775D01*
X158635804Y-110143742D01*
X158555805Y-110024015D01*
X158453985Y-109922195D01*
X158334258Y-109842196D01*
X158201225Y-109787092D01*
X158059997Y-109759000D01*
X157916003Y-109759000D01*
X157774775Y-109787092D01*
X157641742Y-109842196D01*
X157522015Y-109922195D01*
X157420195Y-110024015D01*
X157340196Y-110143742D01*
X157285092Y-110276775D01*
X157257000Y-110418003D01*
X153382207Y-110418003D01*
X153309967Y-110309888D01*
X153215112Y-110215033D01*
X153103574Y-110140506D01*
X152979640Y-110089171D01*
X152848073Y-110063000D01*
X152713927Y-110063000D01*
X152582360Y-110089171D01*
X152458426Y-110140506D01*
X152346888Y-110215033D01*
X152252033Y-110309888D01*
X152177506Y-110421426D01*
X152126171Y-110545360D01*
X152100000Y-110676927D01*
X150870803Y-110676927D01*
X150929112Y-110637967D01*
X151023967Y-110543112D01*
X151098494Y-110431574D01*
X151149829Y-110307640D01*
X151176000Y-110176073D01*
X151176000Y-110041927D01*
X151149829Y-109910360D01*
X151098494Y-109786426D01*
X151023967Y-109674888D01*
X150929112Y-109580033D01*
X150817574Y-109505506D01*
X150693640Y-109454171D01*
X150562073Y-109428000D01*
X150427927Y-109428000D01*
X150296360Y-109454171D01*
X150172426Y-109505506D01*
X150060888Y-109580033D01*
X149966033Y-109674888D01*
X149891506Y-109786426D01*
X149840171Y-109910360D01*
X149814000Y-110041927D01*
X144679195Y-110041927D01*
X144720908Y-109941225D01*
X144749000Y-109799997D01*
X144749000Y-109656003D01*
X144720908Y-109514775D01*
X144665804Y-109381742D01*
X144585805Y-109262015D01*
X144483985Y-109160195D01*
X144364258Y-109080196D01*
X144231225Y-109025092D01*
X144089997Y-108997000D01*
X143946003Y-108997000D01*
X143804775Y-109025092D01*
X143671742Y-109080196D01*
X143552015Y-109160195D01*
X143450195Y-109262015D01*
X143370196Y-109381742D01*
X143315092Y-109514775D01*
X143287000Y-109656003D01*
X141605000Y-109656003D01*
X141605000Y-108513003D01*
X146208000Y-108513003D01*
X146208000Y-108656997D01*
X146236092Y-108798225D01*
X146291196Y-108931258D01*
X146371195Y-109050985D01*
X146473015Y-109152805D01*
X146592742Y-109232804D01*
X146725775Y-109287908D01*
X146867003Y-109316000D01*
X147010997Y-109316000D01*
X147152225Y-109287908D01*
X147285258Y-109232804D01*
X147404985Y-109152805D01*
X147506805Y-109050985D01*
X147586804Y-108931258D01*
X147641908Y-108798225D01*
X147670000Y-108656997D01*
X147670000Y-108513003D01*
X147641908Y-108371775D01*
X147586804Y-108238742D01*
X147506805Y-108119015D01*
X147404985Y-108017195D01*
X147285258Y-107937196D01*
X147152225Y-107882092D01*
X147010997Y-107854000D01*
X146867003Y-107854000D01*
X146725775Y-107882092D01*
X146592742Y-107937196D01*
X146473015Y-108017195D01*
X146371195Y-108119015D01*
X146291196Y-108238742D01*
X146236092Y-108371775D01*
X146208000Y-108513003D01*
X141605000Y-108513003D01*
X141605000Y-107243003D01*
X143287000Y-107243003D01*
X143287000Y-107386997D01*
X143315092Y-107528225D01*
X143370196Y-107661258D01*
X143450195Y-107780985D01*
X143552015Y-107882805D01*
X143671742Y-107962804D01*
X143804775Y-108017908D01*
X143946003Y-108046000D01*
X144089997Y-108046000D01*
X144231225Y-108017908D01*
X144364258Y-107962804D01*
X144483985Y-107882805D01*
X144585805Y-107780985D01*
X144665804Y-107661258D01*
X144720908Y-107528225D01*
X144749000Y-107386997D01*
X144749000Y-107374927D01*
X150068000Y-107374927D01*
X150068000Y-107509073D01*
X150094171Y-107640640D01*
X150145506Y-107764574D01*
X150220033Y-107876112D01*
X150314888Y-107970967D01*
X150426426Y-108045494D01*
X150550360Y-108096829D01*
X150681927Y-108123000D01*
X150816073Y-108123000D01*
X150947640Y-108096829D01*
X151071574Y-108045494D01*
X151183112Y-107970967D01*
X151277967Y-107876112D01*
X151352494Y-107764574D01*
X151403829Y-107640640D01*
X151430000Y-107509073D01*
X151430000Y-107374927D01*
X151403829Y-107243360D01*
X151352494Y-107119426D01*
X151277967Y-107007888D01*
X151183112Y-106913033D01*
X151071574Y-106838506D01*
X150947640Y-106787171D01*
X150816073Y-106761000D01*
X150681927Y-106761000D01*
X150550360Y-106787171D01*
X150426426Y-106838506D01*
X150314888Y-106913033D01*
X150220033Y-107007888D01*
X150145506Y-107119426D01*
X150094171Y-107243360D01*
X150068000Y-107374927D01*
X144749000Y-107374927D01*
X144749000Y-107243003D01*
X144720908Y-107101775D01*
X144665804Y-106968742D01*
X144585805Y-106849015D01*
X144483985Y-106747195D01*
X144364258Y-106667196D01*
X144233241Y-106612927D01*
X152608000Y-106612927D01*
X152608000Y-106747073D01*
X152634171Y-106878640D01*
X152685506Y-107002574D01*
X152760033Y-107114112D01*
X152854888Y-107208967D01*
X152966426Y-107283494D01*
X153090360Y-107334829D01*
X153221927Y-107361000D01*
X153321791Y-107361000D01*
X153320000Y-107370003D01*
X153320000Y-107513997D01*
X153348092Y-107655225D01*
X153403196Y-107788258D01*
X153483195Y-107907985D01*
X153585015Y-108009805D01*
X153704742Y-108089804D01*
X153837775Y-108144908D01*
X153979003Y-108173000D01*
X154122997Y-108173000D01*
X154200313Y-108157621D01*
X154158171Y-108259360D01*
X154132000Y-108390927D01*
X154132000Y-108525073D01*
X154158171Y-108656640D01*
X154209506Y-108780574D01*
X154284033Y-108892112D01*
X154378888Y-108986967D01*
X154490426Y-109061494D01*
X154614360Y-109112829D01*
X154745927Y-109139000D01*
X154880073Y-109139000D01*
X155011640Y-109112829D01*
X155135574Y-109061494D01*
X155247112Y-108986967D01*
X155341967Y-108892112D01*
X155416494Y-108780574D01*
X155467829Y-108656640D01*
X155494000Y-108525073D01*
X155494000Y-108390927D01*
X155467829Y-108259360D01*
X155416494Y-108135426D01*
X155391917Y-108098644D01*
X155413258Y-108089804D01*
X155532985Y-108009805D01*
X155634805Y-107907985D01*
X155714804Y-107788258D01*
X155769908Y-107655225D01*
X155798000Y-107513997D01*
X155798000Y-107370003D01*
X155769908Y-107228775D01*
X155714804Y-107095742D01*
X155634805Y-106976015D01*
X155532985Y-106874195D01*
X155413258Y-106794196D01*
X155280225Y-106739092D01*
X155138997Y-106711000D01*
X154995003Y-106711000D01*
X154853775Y-106739092D01*
X154720742Y-106794196D01*
X154601015Y-106874195D01*
X154559000Y-106916210D01*
X154516985Y-106874195D01*
X154397258Y-106794196D01*
X154264225Y-106739092D01*
X154122997Y-106711000D01*
X153979003Y-106711000D01*
X153970000Y-106712791D01*
X153970000Y-106612927D01*
X153943829Y-106481360D01*
X153892494Y-106357426D01*
X153817967Y-106245888D01*
X153723112Y-106151033D01*
X153611574Y-106076506D01*
X153487640Y-106025171D01*
X153356073Y-105999000D01*
X153221927Y-105999000D01*
X153090360Y-106025171D01*
X152966426Y-106076506D01*
X152854888Y-106151033D01*
X152760033Y-106245888D01*
X152685506Y-106357426D01*
X152634171Y-106481360D01*
X152608000Y-106612927D01*
X144233241Y-106612927D01*
X144231225Y-106612092D01*
X144089997Y-106584000D01*
X143946003Y-106584000D01*
X143804775Y-106612092D01*
X143671742Y-106667196D01*
X143552015Y-106747195D01*
X143450195Y-106849015D01*
X143370196Y-106968742D01*
X143315092Y-107101775D01*
X143287000Y-107243003D01*
X141605000Y-107243003D01*
X141605000Y-105084003D01*
X157892000Y-105084003D01*
X157892000Y-105227997D01*
X157920092Y-105369225D01*
X157975196Y-105502258D01*
X158055195Y-105621985D01*
X158157015Y-105723805D01*
X158276742Y-105803804D01*
X158409775Y-105858908D01*
X158551003Y-105887000D01*
X158694997Y-105887000D01*
X158836225Y-105858908D01*
X158969258Y-105803804D01*
X159088985Y-105723805D01*
X159190805Y-105621985D01*
X159270804Y-105502258D01*
X159325908Y-105369225D01*
X159354000Y-105227997D01*
X159354000Y-105084003D01*
X159325908Y-104942775D01*
X159270804Y-104809742D01*
X159190805Y-104690015D01*
X159088985Y-104588195D01*
X158969258Y-104508196D01*
X158836225Y-104453092D01*
X158694997Y-104425000D01*
X158551003Y-104425000D01*
X158409775Y-104453092D01*
X158276742Y-104508196D01*
X158157015Y-104588195D01*
X158055195Y-104690015D01*
X157975196Y-104809742D01*
X157920092Y-104942775D01*
X157892000Y-105084003D01*
X141605000Y-105084003D01*
X141605000Y-104068003D01*
X147986000Y-104068003D01*
X147986000Y-104211997D01*
X148014092Y-104353225D01*
X148069196Y-104486258D01*
X148149195Y-104605985D01*
X148251015Y-104707805D01*
X148370742Y-104787804D01*
X148503775Y-104842908D01*
X148645003Y-104871000D01*
X148788997Y-104871000D01*
X148930225Y-104842908D01*
X149063258Y-104787804D01*
X149182985Y-104707805D01*
X149284805Y-104605985D01*
X149364804Y-104486258D01*
X149419908Y-104353225D01*
X149448000Y-104211997D01*
X149448000Y-104068003D01*
X149419908Y-103926775D01*
X149373197Y-103814003D01*
X153828000Y-103814003D01*
X153828000Y-103957997D01*
X153856092Y-104099225D01*
X153911196Y-104232258D01*
X153991195Y-104351985D01*
X154093015Y-104453805D01*
X154212742Y-104533804D01*
X154345775Y-104588908D01*
X154487003Y-104617000D01*
X154630997Y-104617000D01*
X154772225Y-104588908D01*
X154905258Y-104533804D01*
X155024985Y-104453805D01*
X155126805Y-104351985D01*
X155206804Y-104232258D01*
X155261908Y-104099225D01*
X155290000Y-103957997D01*
X155290000Y-103814003D01*
X155261908Y-103672775D01*
X155206804Y-103539742D01*
X155126805Y-103420015D01*
X155024985Y-103318195D01*
X154905258Y-103238196D01*
X154772225Y-103183092D01*
X154630997Y-103155000D01*
X154487003Y-103155000D01*
X154345775Y-103183092D01*
X154212742Y-103238196D01*
X154093015Y-103318195D01*
X153991195Y-103420015D01*
X153911196Y-103539742D01*
X153856092Y-103672775D01*
X153828000Y-103814003D01*
X149373197Y-103814003D01*
X149364804Y-103793742D01*
X149284805Y-103674015D01*
X149182985Y-103572195D01*
X149063258Y-103492196D01*
X148930225Y-103437092D01*
X148788997Y-103409000D01*
X148645003Y-103409000D01*
X148503775Y-103437092D01*
X148370742Y-103492196D01*
X148251015Y-103572195D01*
X148149195Y-103674015D01*
X148069196Y-103793742D01*
X148014092Y-103926775D01*
X147986000Y-104068003D01*
X141605000Y-104068003D01*
X141605000Y-103452079D01*
X141678888Y-103525967D01*
X141790426Y-103600494D01*
X141914360Y-103651829D01*
X142045927Y-103678000D01*
X142180073Y-103678000D01*
X142311640Y-103651829D01*
X142435574Y-103600494D01*
X142547112Y-103525967D01*
X142641967Y-103431112D01*
X142716494Y-103319574D01*
X142767829Y-103195640D01*
X142794000Y-103064073D01*
X142794000Y-102929927D01*
X142767829Y-102798360D01*
X142716494Y-102674426D01*
X142641967Y-102562888D01*
X142547112Y-102468033D01*
X142435574Y-102393506D01*
X142311640Y-102342171D01*
X142180073Y-102316000D01*
X142045927Y-102316000D01*
X141914360Y-102342171D01*
X141790426Y-102393506D01*
X141678888Y-102468033D01*
X141605000Y-102541921D01*
X141605000Y-101909003D01*
X144430000Y-101909003D01*
X144430000Y-102052997D01*
X144458092Y-102194225D01*
X144513196Y-102327258D01*
X144593195Y-102446985D01*
X144695015Y-102548805D01*
X144814742Y-102628804D01*
X144947775Y-102683908D01*
X145089003Y-102712000D01*
X145232997Y-102712000D01*
X145374225Y-102683908D01*
X145507258Y-102628804D01*
X145626802Y-102548927D01*
X148417000Y-102548927D01*
X148417000Y-102683073D01*
X148443171Y-102814640D01*
X148494506Y-102938574D01*
X148569033Y-103050112D01*
X148663888Y-103144967D01*
X148775426Y-103219494D01*
X148899360Y-103270829D01*
X149030927Y-103297000D01*
X149165073Y-103297000D01*
X149296640Y-103270829D01*
X149420574Y-103219494D01*
X149532112Y-103144967D01*
X149626967Y-103050112D01*
X149701494Y-102938574D01*
X149752829Y-102814640D01*
X149779000Y-102683073D01*
X149779000Y-102548927D01*
X149752829Y-102417360D01*
X149701494Y-102293426D01*
X149626967Y-102181888D01*
X149593308Y-102148229D01*
X154059000Y-102148229D01*
X154059000Y-102321771D01*
X154092856Y-102491978D01*
X154159268Y-102652310D01*
X154255682Y-102796605D01*
X154378395Y-102919318D01*
X154522690Y-103015732D01*
X154683022Y-103082144D01*
X154853229Y-103116000D01*
X155026771Y-103116000D01*
X155196978Y-103082144D01*
X155357310Y-103015732D01*
X155501605Y-102919318D01*
X155624318Y-102796605D01*
X155720732Y-102652310D01*
X155787144Y-102491978D01*
X155821000Y-102321771D01*
X155821000Y-102148229D01*
X155787144Y-101978022D01*
X155720732Y-101817690D01*
X155624318Y-101673395D01*
X155501605Y-101550682D01*
X155357310Y-101454268D01*
X155196978Y-101387856D01*
X155026771Y-101354000D01*
X154853229Y-101354000D01*
X154683022Y-101387856D01*
X154522690Y-101454268D01*
X154378395Y-101550682D01*
X154255682Y-101673395D01*
X154159268Y-101817690D01*
X154092856Y-101978022D01*
X154059000Y-102148229D01*
X149593308Y-102148229D01*
X149532112Y-102087033D01*
X149420574Y-102012506D01*
X149296640Y-101961171D01*
X149165073Y-101935000D01*
X149030927Y-101935000D01*
X148899360Y-101961171D01*
X148775426Y-102012506D01*
X148663888Y-102087033D01*
X148569033Y-102181888D01*
X148494506Y-102293426D01*
X148443171Y-102417360D01*
X148417000Y-102548927D01*
X145626802Y-102548927D01*
X145626985Y-102548805D01*
X145728805Y-102446985D01*
X145808804Y-102327258D01*
X145863908Y-102194225D01*
X145892000Y-102052997D01*
X145892000Y-101909003D01*
X145863908Y-101767775D01*
X145808804Y-101634742D01*
X145728805Y-101515015D01*
X145626985Y-101413195D01*
X145507258Y-101333196D01*
X145374225Y-101278092D01*
X145232997Y-101250000D01*
X145089003Y-101250000D01*
X144947775Y-101278092D01*
X144814742Y-101333196D01*
X144695015Y-101413195D01*
X144593195Y-101515015D01*
X144513196Y-101634742D01*
X144458092Y-101767775D01*
X144430000Y-101909003D01*
X141605000Y-101909003D01*
X141605000Y-100897927D01*
X148417000Y-100897927D01*
X148417000Y-101032073D01*
X148443171Y-101163640D01*
X148494506Y-101287574D01*
X148569033Y-101399112D01*
X148663888Y-101493967D01*
X148775426Y-101568494D01*
X148899360Y-101619829D01*
X149030927Y-101646000D01*
X149165073Y-101646000D01*
X149296640Y-101619829D01*
X149420574Y-101568494D01*
X149532112Y-101493967D01*
X149626967Y-101399112D01*
X149701494Y-101287574D01*
X149752829Y-101163640D01*
X149779000Y-101032073D01*
X149779000Y-101024927D01*
X157561000Y-101024927D01*
X157561000Y-101159073D01*
X157587171Y-101290640D01*
X157638506Y-101414574D01*
X157713033Y-101526112D01*
X157807888Y-101620967D01*
X157919426Y-101695494D01*
X158043360Y-101746829D01*
X158174927Y-101773000D01*
X158309073Y-101773000D01*
X158440640Y-101746829D01*
X158564574Y-101695494D01*
X158676112Y-101620967D01*
X158770967Y-101526112D01*
X158845494Y-101414574D01*
X158896829Y-101290640D01*
X158923000Y-101159073D01*
X158923000Y-101024927D01*
X158896829Y-100893360D01*
X158845494Y-100769426D01*
X158770967Y-100657888D01*
X158676112Y-100563033D01*
X158564574Y-100488506D01*
X158440640Y-100437171D01*
X158309073Y-100411000D01*
X158174927Y-100411000D01*
X158043360Y-100437171D01*
X157919426Y-100488506D01*
X157807888Y-100563033D01*
X157713033Y-100657888D01*
X157638506Y-100769426D01*
X157587171Y-100893360D01*
X157561000Y-101024927D01*
X149779000Y-101024927D01*
X149779000Y-100897927D01*
X149752829Y-100766360D01*
X149701494Y-100642426D01*
X149626967Y-100530888D01*
X149532112Y-100436033D01*
X149420574Y-100361506D01*
X149296640Y-100310171D01*
X149165073Y-100284000D01*
X149030927Y-100284000D01*
X148899360Y-100310171D01*
X148775426Y-100361506D01*
X148663888Y-100436033D01*
X148569033Y-100530888D01*
X148494506Y-100642426D01*
X148443171Y-100766360D01*
X148417000Y-100897927D01*
X141605000Y-100897927D01*
X141605000Y-100135927D01*
X155910000Y-100135927D01*
X155910000Y-100270073D01*
X155936171Y-100401640D01*
X155987506Y-100525574D01*
X156062033Y-100637112D01*
X156156888Y-100731967D01*
X156268426Y-100806494D01*
X156392360Y-100857829D01*
X156523927Y-100884000D01*
X156658073Y-100884000D01*
X156789640Y-100857829D01*
X156913574Y-100806494D01*
X157025112Y-100731967D01*
X157119967Y-100637112D01*
X157194494Y-100525574D01*
X157245829Y-100401640D01*
X157272000Y-100270073D01*
X157272000Y-100135927D01*
X157245829Y-100004360D01*
X157194494Y-99880426D01*
X157119967Y-99768888D01*
X157025112Y-99674033D01*
X156913574Y-99599506D01*
X156789640Y-99548171D01*
X156658073Y-99522000D01*
X156523927Y-99522000D01*
X156392360Y-99548171D01*
X156268426Y-99599506D01*
X156156888Y-99674033D01*
X156062033Y-99768888D01*
X155987506Y-99880426D01*
X155936171Y-100004360D01*
X155910000Y-100135927D01*
X141605000Y-100135927D01*
X141605000Y-99805998D01*
X141645229Y-99814000D01*
X141818771Y-99814000D01*
X141988978Y-99780144D01*
X142149310Y-99713732D01*
X142293605Y-99617318D01*
X142416318Y-99494605D01*
X142512732Y-99350310D01*
X142521085Y-99330144D01*
X142531259Y-99338494D01*
X142594760Y-99401995D01*
X142696209Y-99485252D01*
X142850649Y-99567802D01*
X143018226Y-99618636D01*
X143192500Y-99635801D01*
X143366775Y-99618636D01*
X143534352Y-99567802D01*
X143688791Y-99485252D01*
X143824159Y-99374159D01*
X143935252Y-99238791D01*
X144017802Y-99084352D01*
X144068636Y-98916775D01*
X144085801Y-98742500D01*
X144068636Y-98568226D01*
X144041874Y-98480003D01*
X144938000Y-98480003D01*
X144938000Y-98623997D01*
X144966092Y-98765225D01*
X145021196Y-98898258D01*
X145101195Y-99017985D01*
X145203015Y-99119805D01*
X145322742Y-99199804D01*
X145455775Y-99254908D01*
X145597003Y-99283000D01*
X145740997Y-99283000D01*
X145882225Y-99254908D01*
X146015258Y-99199804D01*
X146134985Y-99119805D01*
X146236805Y-99017985D01*
X146316804Y-98898258D01*
X146371908Y-98765225D01*
X146377138Y-98738927D01*
X149433000Y-98738927D01*
X149433000Y-98873073D01*
X149459171Y-99004640D01*
X149510506Y-99128574D01*
X149585033Y-99240112D01*
X149679888Y-99334967D01*
X149791426Y-99409494D01*
X149915360Y-99460829D01*
X150046927Y-99487000D01*
X150181073Y-99487000D01*
X150312640Y-99460829D01*
X150436574Y-99409494D01*
X150548112Y-99334967D01*
X150642967Y-99240112D01*
X150685500Y-99176457D01*
X150728033Y-99240112D01*
X150822888Y-99334967D01*
X150934426Y-99409494D01*
X151058360Y-99460829D01*
X151189927Y-99487000D01*
X151324073Y-99487000D01*
X151455640Y-99460829D01*
X151579574Y-99409494D01*
X151691112Y-99334967D01*
X151785967Y-99240112D01*
X151860494Y-99128574D01*
X151911829Y-99004640D01*
X151938000Y-98873073D01*
X151938000Y-98738927D01*
X151911829Y-98607360D01*
X151861116Y-98484927D01*
X157942000Y-98484927D01*
X157942000Y-98619073D01*
X157968171Y-98750640D01*
X158019506Y-98874574D01*
X158094033Y-98986112D01*
X158188888Y-99080967D01*
X158300426Y-99155494D01*
X158424360Y-99206829D01*
X158555927Y-99233000D01*
X158690073Y-99233000D01*
X158821640Y-99206829D01*
X158945574Y-99155494D01*
X159057112Y-99080967D01*
X159151967Y-98986112D01*
X159226494Y-98874574D01*
X159277829Y-98750640D01*
X159304000Y-98619073D01*
X159304000Y-98484927D01*
X159277829Y-98353360D01*
X159226494Y-98229426D01*
X159151967Y-98117888D01*
X159057112Y-98023033D01*
X158945574Y-97948506D01*
X158821640Y-97897171D01*
X158690073Y-97871000D01*
X158555927Y-97871000D01*
X158424360Y-97897171D01*
X158300426Y-97948506D01*
X158188888Y-98023033D01*
X158094033Y-98117888D01*
X158019506Y-98229426D01*
X157968171Y-98353360D01*
X157942000Y-98484927D01*
X151861116Y-98484927D01*
X151860494Y-98483426D01*
X151785967Y-98371888D01*
X151691112Y-98277033D01*
X151579574Y-98202506D01*
X151455640Y-98151171D01*
X151324073Y-98125000D01*
X151189927Y-98125000D01*
X151058360Y-98151171D01*
X150934426Y-98202506D01*
X150822888Y-98277033D01*
X150728033Y-98371888D01*
X150685500Y-98435543D01*
X150642967Y-98371888D01*
X150548112Y-98277033D01*
X150436574Y-98202506D01*
X150312640Y-98151171D01*
X150181073Y-98125000D01*
X150046927Y-98125000D01*
X149915360Y-98151171D01*
X149791426Y-98202506D01*
X149679888Y-98277033D01*
X149585033Y-98371888D01*
X149510506Y-98483426D01*
X149459171Y-98607360D01*
X149433000Y-98738927D01*
X146377138Y-98738927D01*
X146400000Y-98623997D01*
X146400000Y-98480003D01*
X146371908Y-98338775D01*
X146316804Y-98205742D01*
X146236805Y-98086015D01*
X146134985Y-97984195D01*
X146015258Y-97904196D01*
X145882225Y-97849092D01*
X145740997Y-97821000D01*
X145597003Y-97821000D01*
X145455775Y-97849092D01*
X145322742Y-97904196D01*
X145203015Y-97984195D01*
X145101195Y-98086015D01*
X145021196Y-98205742D01*
X144966092Y-98338775D01*
X144938000Y-98480003D01*
X144041874Y-98480003D01*
X144018000Y-98401302D01*
X144018000Y-97322229D01*
X156472000Y-97322229D01*
X156472000Y-97495771D01*
X156505856Y-97665978D01*
X156572268Y-97826310D01*
X156668682Y-97970605D01*
X156791395Y-98093318D01*
X156935690Y-98189732D01*
X157096022Y-98256144D01*
X157266229Y-98290000D01*
X157439771Y-98290000D01*
X157609978Y-98256144D01*
X157770310Y-98189732D01*
X157914605Y-98093318D01*
X158037318Y-97970605D01*
X158133732Y-97826310D01*
X158200144Y-97665978D01*
X158234000Y-97495771D01*
X158234000Y-97322229D01*
X158200144Y-97152022D01*
X158133732Y-96991690D01*
X158037318Y-96847395D01*
X157914605Y-96724682D01*
X157770310Y-96628268D01*
X157609978Y-96561856D01*
X157439771Y-96528000D01*
X157266229Y-96528000D01*
X157096022Y-96561856D01*
X156935690Y-96628268D01*
X156791395Y-96724682D01*
X156668682Y-96847395D01*
X156572268Y-96991690D01*
X156505856Y-97152022D01*
X156472000Y-97322229D01*
X144018000Y-97322229D01*
X144018000Y-93785927D01*
X145877000Y-93785927D01*
X145877000Y-93920073D01*
X145903171Y-94051640D01*
X145954506Y-94175574D01*
X146029033Y-94287112D01*
X146123888Y-94381967D01*
X146235426Y-94456494D01*
X146359360Y-94507829D01*
X146490927Y-94534000D01*
X146625073Y-94534000D01*
X146756640Y-94507829D01*
X146880574Y-94456494D01*
X146992112Y-94381967D01*
X147010960Y-94363119D01*
X147045033Y-94414112D01*
X147139888Y-94508967D01*
X147251426Y-94583494D01*
X147375360Y-94634829D01*
X147506927Y-94661000D01*
X147641073Y-94661000D01*
X147772640Y-94634829D01*
X147896574Y-94583494D01*
X148008112Y-94508967D01*
X148018500Y-94498579D01*
X148028888Y-94508967D01*
X148140426Y-94583494D01*
X148264360Y-94634829D01*
X148395927Y-94661000D01*
X148530073Y-94661000D01*
X148661640Y-94634829D01*
X148785574Y-94583494D01*
X148897112Y-94508967D01*
X148991967Y-94414112D01*
X149066494Y-94302574D01*
X149117829Y-94178640D01*
X149144000Y-94047073D01*
X149144000Y-94035003D01*
X150780000Y-94035003D01*
X150780000Y-94178997D01*
X150808092Y-94320225D01*
X150863196Y-94453258D01*
X150943195Y-94572985D01*
X151045015Y-94674805D01*
X151164742Y-94754804D01*
X151297775Y-94809908D01*
X151439003Y-94838000D01*
X151582997Y-94838000D01*
X151724225Y-94809908D01*
X151857258Y-94754804D01*
X151976985Y-94674805D01*
X152078805Y-94572985D01*
X152082500Y-94567455D01*
X152086195Y-94572985D01*
X152188015Y-94674805D01*
X152307742Y-94754804D01*
X152440775Y-94809908D01*
X152582003Y-94838000D01*
X152725997Y-94838000D01*
X152867225Y-94809908D01*
X153000258Y-94754804D01*
X153119985Y-94674805D01*
X153221805Y-94572985D01*
X153301804Y-94453258D01*
X153356908Y-94320225D01*
X153385000Y-94178997D01*
X153385000Y-94035003D01*
X153356908Y-93893775D01*
X153301804Y-93760742D01*
X153221805Y-93641015D01*
X153119985Y-93539195D01*
X153000258Y-93459196D01*
X152867225Y-93404092D01*
X152725997Y-93376000D01*
X152582003Y-93376000D01*
X152440775Y-93404092D01*
X152307742Y-93459196D01*
X152188015Y-93539195D01*
X152086195Y-93641015D01*
X152082500Y-93646545D01*
X152078805Y-93641015D01*
X151976985Y-93539195D01*
X151857258Y-93459196D01*
X151724225Y-93404092D01*
X151582997Y-93376000D01*
X151439003Y-93376000D01*
X151297775Y-93404092D01*
X151164742Y-93459196D01*
X151045015Y-93539195D01*
X150943195Y-93641015D01*
X150863196Y-93760742D01*
X150808092Y-93893775D01*
X150780000Y-94035003D01*
X149144000Y-94035003D01*
X149144000Y-93912927D01*
X149117829Y-93781360D01*
X149066494Y-93657426D01*
X148991967Y-93545888D01*
X148897112Y-93451033D01*
X148785574Y-93376506D01*
X148661640Y-93325171D01*
X148530073Y-93299000D01*
X148395927Y-93299000D01*
X148264360Y-93325171D01*
X148140426Y-93376506D01*
X148028888Y-93451033D01*
X148018500Y-93461421D01*
X148008112Y-93451033D01*
X147896574Y-93376506D01*
X147772640Y-93325171D01*
X147641073Y-93299000D01*
X147506927Y-93299000D01*
X147375360Y-93325171D01*
X147251426Y-93376506D01*
X147139888Y-93451033D01*
X147121040Y-93469881D01*
X147086967Y-93418888D01*
X146992112Y-93324033D01*
X146880574Y-93249506D01*
X146756640Y-93198171D01*
X146625073Y-93172000D01*
X146490927Y-93172000D01*
X146359360Y-93198171D01*
X146235426Y-93249506D01*
X146123888Y-93324033D01*
X146029033Y-93418888D01*
X145954506Y-93530426D01*
X145903171Y-93654360D01*
X145877000Y-93785927D01*
X144018000Y-93785927D01*
X144018000Y-91838790D01*
X144060015Y-91880805D01*
X144179742Y-91960804D01*
X144312775Y-92015908D01*
X144454003Y-92044000D01*
X144597997Y-92044000D01*
X144739225Y-92015908D01*
X144872258Y-91960804D01*
X144991985Y-91880805D01*
X145034000Y-91838790D01*
X145076015Y-91880805D01*
X145195742Y-91960804D01*
X145328775Y-92015908D01*
X145470003Y-92044000D01*
X145613997Y-92044000D01*
X145755225Y-92015908D01*
X145888258Y-91960804D01*
X146007985Y-91880805D01*
X146109805Y-91778985D01*
X146126548Y-91753927D01*
X155783000Y-91753927D01*
X155783000Y-91888073D01*
X155809171Y-92019640D01*
X155860506Y-92143574D01*
X155935033Y-92255112D01*
X156029888Y-92349967D01*
X156141426Y-92424494D01*
X156265360Y-92475829D01*
X156396927Y-92502000D01*
X156531073Y-92502000D01*
X156662640Y-92475829D01*
X156786574Y-92424494D01*
X156898112Y-92349967D01*
X156992967Y-92255112D01*
X157021160Y-92212918D01*
X157049682Y-92255605D01*
X157172395Y-92378318D01*
X157316690Y-92474732D01*
X157477022Y-92541144D01*
X157647229Y-92575000D01*
X157820771Y-92575000D01*
X157990978Y-92541144D01*
X158151310Y-92474732D01*
X158295605Y-92378318D01*
X158418318Y-92255605D01*
X158514732Y-92111310D01*
X158581144Y-91950978D01*
X158615000Y-91780771D01*
X158615000Y-91607229D01*
X158581144Y-91437022D01*
X158514732Y-91276690D01*
X158418318Y-91132395D01*
X158295605Y-91009682D01*
X158151310Y-90913268D01*
X157990978Y-90846856D01*
X157820771Y-90813000D01*
X157647229Y-90813000D01*
X157477022Y-90846856D01*
X157316690Y-90913268D01*
X157172395Y-91009682D01*
X157049682Y-91132395D01*
X156953268Y-91276690D01*
X156932619Y-91326540D01*
X156898112Y-91292033D01*
X156786574Y-91217506D01*
X156662640Y-91166171D01*
X156531073Y-91140000D01*
X156396927Y-91140000D01*
X156265360Y-91166171D01*
X156141426Y-91217506D01*
X156029888Y-91292033D01*
X155935033Y-91386888D01*
X155860506Y-91498426D01*
X155809171Y-91622360D01*
X155783000Y-91753927D01*
X146126548Y-91753927D01*
X146189804Y-91659258D01*
X146244908Y-91526225D01*
X146273000Y-91384997D01*
X146273000Y-91241003D01*
X146244908Y-91099775D01*
X146189804Y-90966742D01*
X146109805Y-90847015D01*
X146007985Y-90745195D01*
X145888258Y-90665196D01*
X145755225Y-90610092D01*
X145613997Y-90582000D01*
X145470003Y-90582000D01*
X145328775Y-90610092D01*
X145195742Y-90665196D01*
X145076015Y-90745195D01*
X145034000Y-90787210D01*
X144991985Y-90745195D01*
X144877882Y-90668954D01*
X145443909Y-90102927D01*
X146639000Y-90102927D01*
X146639000Y-90237073D01*
X146665171Y-90368640D01*
X146716506Y-90492574D01*
X146791033Y-90604112D01*
X146885888Y-90698967D01*
X146997426Y-90773494D01*
X147121360Y-90824829D01*
X147252927Y-90851000D01*
X147387073Y-90851000D01*
X147518640Y-90824829D01*
X147642574Y-90773494D01*
X147754112Y-90698967D01*
X147848967Y-90604112D01*
X147923494Y-90492574D01*
X147974829Y-90368640D01*
X148001000Y-90237073D01*
X148001000Y-90176189D01*
X148032682Y-90223605D01*
X148155395Y-90346318D01*
X148299690Y-90442732D01*
X148460022Y-90509144D01*
X148630229Y-90543000D01*
X148723415Y-90543000D01*
X148697171Y-90606360D01*
X148671000Y-90737927D01*
X148671000Y-90872073D01*
X148697171Y-91003640D01*
X148748506Y-91127574D01*
X148823033Y-91239112D01*
X148917888Y-91333967D01*
X149029426Y-91408494D01*
X149153360Y-91459829D01*
X149284927Y-91486000D01*
X149419073Y-91486000D01*
X149550640Y-91459829D01*
X149674574Y-91408494D01*
X149786112Y-91333967D01*
X149880967Y-91239112D01*
X149955494Y-91127574D01*
X150006829Y-91003640D01*
X150033000Y-90872073D01*
X150033000Y-90737927D01*
X150576000Y-90737927D01*
X150576000Y-90872073D01*
X150602171Y-91003640D01*
X150653506Y-91127574D01*
X150728033Y-91239112D01*
X150822888Y-91333967D01*
X150934426Y-91408494D01*
X151058360Y-91459829D01*
X151189927Y-91486000D01*
X151324073Y-91486000D01*
X151455640Y-91459829D01*
X151579574Y-91408494D01*
X151691112Y-91333967D01*
X151785967Y-91239112D01*
X151860494Y-91127574D01*
X151911829Y-91003640D01*
X151938000Y-90872073D01*
X151938000Y-90737927D01*
X151911829Y-90606360D01*
X151860494Y-90482426D01*
X151785967Y-90370888D01*
X151691112Y-90276033D01*
X151579574Y-90201506D01*
X151455640Y-90150171D01*
X151324073Y-90124000D01*
X151189927Y-90124000D01*
X151058360Y-90150171D01*
X150934426Y-90201506D01*
X150822888Y-90276033D01*
X150728033Y-90370888D01*
X150653506Y-90482426D01*
X150602171Y-90606360D01*
X150576000Y-90737927D01*
X150033000Y-90737927D01*
X150006829Y-90606360D01*
X149955494Y-90482426D01*
X149880967Y-90370888D01*
X149786112Y-90276033D01*
X149674574Y-90201506D01*
X149550640Y-90150171D01*
X149462146Y-90132568D01*
X149497732Y-90079310D01*
X149564144Y-89918978D01*
X149578077Y-89848927D01*
X153497000Y-89848927D01*
X153497000Y-89983073D01*
X153523171Y-90114640D01*
X153574506Y-90238574D01*
X153649033Y-90350112D01*
X153743888Y-90444967D01*
X153855426Y-90519494D01*
X153979360Y-90570829D01*
X154110927Y-90597000D01*
X154245073Y-90597000D01*
X154292997Y-90587467D01*
X154285171Y-90606360D01*
X154259000Y-90737927D01*
X154259000Y-90872073D01*
X154285171Y-91003640D01*
X154336506Y-91127574D01*
X154411033Y-91239112D01*
X154505888Y-91333967D01*
X154617426Y-91408494D01*
X154741360Y-91459829D01*
X154872927Y-91486000D01*
X155007073Y-91486000D01*
X155138640Y-91459829D01*
X155262574Y-91408494D01*
X155374112Y-91333967D01*
X155468967Y-91239112D01*
X155543494Y-91127574D01*
X155594829Y-91003640D01*
X155621000Y-90872073D01*
X155621000Y-90737927D01*
X155594829Y-90606360D01*
X155543494Y-90482426D01*
X155468967Y-90370888D01*
X155374112Y-90276033D01*
X155262574Y-90201506D01*
X155138640Y-90150171D01*
X155007073Y-90124000D01*
X154872927Y-90124000D01*
X154825003Y-90133533D01*
X154832829Y-90114640D01*
X154859000Y-89983073D01*
X154859000Y-89848927D01*
X154832829Y-89717360D01*
X154781494Y-89593426D01*
X154706967Y-89481888D01*
X154612112Y-89387033D01*
X154500574Y-89312506D01*
X154376640Y-89261171D01*
X154245073Y-89235000D01*
X154110927Y-89235000D01*
X153979360Y-89261171D01*
X153855426Y-89312506D01*
X153743888Y-89387033D01*
X153649033Y-89481888D01*
X153574506Y-89593426D01*
X153523171Y-89717360D01*
X153497000Y-89848927D01*
X149578077Y-89848927D01*
X149598000Y-89748771D01*
X149598000Y-89575229D01*
X149564144Y-89405022D01*
X149497732Y-89244690D01*
X149401318Y-89100395D01*
X149278605Y-88977682D01*
X149134310Y-88881268D01*
X148973978Y-88814856D01*
X148803771Y-88781000D01*
X148630229Y-88781000D01*
X148460022Y-88814856D01*
X148299690Y-88881268D01*
X148155395Y-88977682D01*
X148032682Y-89100395D01*
X147936268Y-89244690D01*
X147869856Y-89405022D01*
X147836000Y-89575229D01*
X147836000Y-89722921D01*
X147754112Y-89641033D01*
X147642574Y-89566506D01*
X147518640Y-89515171D01*
X147387073Y-89489000D01*
X147252927Y-89489000D01*
X147121360Y-89515171D01*
X146997426Y-89566506D01*
X146885888Y-89641033D01*
X146791033Y-89735888D01*
X146716506Y-89847426D01*
X146665171Y-89971360D01*
X146639000Y-90102927D01*
X145443909Y-90102927D01*
X145885742Y-89661094D01*
X145919659Y-89633259D01*
X146030753Y-89497891D01*
X146113303Y-89343451D01*
X146149040Y-89225640D01*
X146164136Y-89175876D01*
X146168186Y-89134752D01*
X146177000Y-89045267D01*
X146177000Y-89045261D01*
X146181300Y-89001601D01*
X146177000Y-88957941D01*
X146177000Y-88760235D01*
X146774741Y-88162495D01*
X146808659Y-88134659D01*
X146844964Y-88090422D01*
X146919752Y-87999292D01*
X146944724Y-87952574D01*
X147002303Y-87844851D01*
X147041321Y-87716225D01*
X147053136Y-87677275D01*
X147060895Y-87598494D01*
X147066000Y-87546667D01*
X147066000Y-87546660D01*
X147070300Y-87503000D01*
X147066000Y-87459340D01*
X147066000Y-87305455D01*
X147124426Y-87344494D01*
X147248360Y-87395829D01*
X147379927Y-87422000D01*
X147514073Y-87422000D01*
X147645640Y-87395829D01*
X147769574Y-87344494D01*
X147881112Y-87269967D01*
X147975967Y-87175112D01*
X148050494Y-87063574D01*
X148101829Y-86939640D01*
X148128000Y-86808073D01*
X148128000Y-86673927D01*
X148101829Y-86542360D01*
X148100449Y-86539027D01*
X152481000Y-86539027D01*
X152481000Y-86673173D01*
X152507171Y-86804740D01*
X152558506Y-86928674D01*
X152602823Y-86995000D01*
X152558506Y-87061326D01*
X152507171Y-87185260D01*
X152481000Y-87316827D01*
X152481000Y-87450973D01*
X152507171Y-87582540D01*
X152558506Y-87706474D01*
X152633033Y-87818012D01*
X152727888Y-87912867D01*
X152839426Y-87987394D01*
X152963360Y-88038729D01*
X153094927Y-88064900D01*
X153229073Y-88064900D01*
X153360640Y-88038729D01*
X153484574Y-87987394D01*
X153596112Y-87912867D01*
X153690967Y-87818012D01*
X153765494Y-87706474D01*
X153816829Y-87582540D01*
X153835516Y-87488595D01*
X153870888Y-87523967D01*
X153982426Y-87598494D01*
X154106360Y-87649829D01*
X154237927Y-87676000D01*
X154372073Y-87676000D01*
X154503640Y-87649829D01*
X154627574Y-87598494D01*
X154739112Y-87523967D01*
X154832076Y-87431003D01*
X155352000Y-87431003D01*
X155352000Y-87574997D01*
X155380092Y-87716225D01*
X155435196Y-87849258D01*
X155515195Y-87968985D01*
X155617015Y-88070805D01*
X155736742Y-88150804D01*
X155869775Y-88205908D01*
X156011003Y-88234000D01*
X156154997Y-88234000D01*
X156296225Y-88205908D01*
X156429258Y-88150804D01*
X156548985Y-88070805D01*
X156650805Y-87968985D01*
X156730804Y-87849258D01*
X156785908Y-87716225D01*
X156814000Y-87574997D01*
X156814000Y-87431003D01*
X156785908Y-87289775D01*
X156730804Y-87156742D01*
X156650805Y-87037015D01*
X156548985Y-86935195D01*
X156429258Y-86855196D01*
X156296225Y-86800092D01*
X156154997Y-86772000D01*
X156011003Y-86772000D01*
X155869775Y-86800092D01*
X155736742Y-86855196D01*
X155617015Y-86935195D01*
X155515195Y-87037015D01*
X155435196Y-87156742D01*
X155380092Y-87289775D01*
X155352000Y-87431003D01*
X154832076Y-87431003D01*
X154833967Y-87429112D01*
X154908494Y-87317574D01*
X154959829Y-87193640D01*
X154986000Y-87062073D01*
X154986000Y-86927927D01*
X154959829Y-86796360D01*
X154908494Y-86672426D01*
X154833967Y-86560888D01*
X154739112Y-86466033D01*
X154627574Y-86391506D01*
X154503640Y-86340171D01*
X154372073Y-86314000D01*
X154237927Y-86314000D01*
X154106360Y-86340171D01*
X153982426Y-86391506D01*
X153870888Y-86466033D01*
X153835516Y-86501405D01*
X153816829Y-86407460D01*
X153765494Y-86283526D01*
X153690967Y-86171988D01*
X153596112Y-86077133D01*
X153484574Y-86002606D01*
X153360640Y-85951271D01*
X153229073Y-85925100D01*
X153094927Y-85925100D01*
X152963360Y-85951271D01*
X152839426Y-86002606D01*
X152727888Y-86077133D01*
X152633033Y-86171988D01*
X152558506Y-86283526D01*
X152507171Y-86407460D01*
X152481000Y-86539027D01*
X148100449Y-86539027D01*
X148050494Y-86418426D01*
X147975967Y-86306888D01*
X147881112Y-86212033D01*
X147769574Y-86137506D01*
X147645640Y-86086171D01*
X147514073Y-86060000D01*
X147379927Y-86060000D01*
X147248360Y-86086171D01*
X147124426Y-86137506D01*
X147064818Y-86177334D01*
X147054689Y-86074494D01*
X147053136Y-86058724D01*
X147012602Y-85925100D01*
X147002303Y-85891149D01*
X146919753Y-85736709D01*
X146808659Y-85601341D01*
X146774743Y-85573507D01*
X145542000Y-84340765D01*
X145542000Y-83987229D01*
X146312000Y-83987229D01*
X146312000Y-84160771D01*
X146345856Y-84330978D01*
X146412268Y-84491310D01*
X146508682Y-84635605D01*
X146631395Y-84758318D01*
X146775690Y-84854732D01*
X146936022Y-84921144D01*
X147106229Y-84955000D01*
X147279771Y-84955000D01*
X147449978Y-84921144D01*
X147610310Y-84854732D01*
X147754605Y-84758318D01*
X147877318Y-84635605D01*
X147973732Y-84491310D01*
X148040144Y-84330978D01*
X148054077Y-84260927D01*
X150068000Y-84260927D01*
X150068000Y-84395073D01*
X150094171Y-84526640D01*
X150145506Y-84650574D01*
X150220033Y-84762112D01*
X150314888Y-84856967D01*
X150426426Y-84931494D01*
X150550360Y-84982829D01*
X150681927Y-85009000D01*
X150816073Y-85009000D01*
X150947640Y-84982829D01*
X151071574Y-84931494D01*
X151183112Y-84856967D01*
X151277967Y-84762112D01*
X151352494Y-84650574D01*
X151403829Y-84526640D01*
X151430000Y-84395073D01*
X151430000Y-84260927D01*
X151403829Y-84129360D01*
X151352494Y-84005426D01*
X151277967Y-83893888D01*
X151183112Y-83799033D01*
X151071574Y-83724506D01*
X150947640Y-83673171D01*
X150816073Y-83647000D01*
X150681927Y-83647000D01*
X150550360Y-83673171D01*
X150426426Y-83724506D01*
X150314888Y-83799033D01*
X150220033Y-83893888D01*
X150145506Y-84005426D01*
X150094171Y-84129360D01*
X150068000Y-84260927D01*
X148054077Y-84260927D01*
X148074000Y-84160771D01*
X148074000Y-83987229D01*
X148040144Y-83817022D01*
X147973732Y-83656690D01*
X147877318Y-83512395D01*
X147754605Y-83389682D01*
X147610310Y-83293268D01*
X147449978Y-83226856D01*
X147279771Y-83193000D01*
X147106229Y-83193000D01*
X146936022Y-83226856D01*
X146775690Y-83293268D01*
X146631395Y-83389682D01*
X146508682Y-83512395D01*
X146412268Y-83656690D01*
X146345856Y-83817022D01*
X146312000Y-83987229D01*
X145542000Y-83987229D01*
X145542000Y-83807235D01*
X147180236Y-82169000D01*
X147363667Y-82169000D01*
X147494274Y-82156136D01*
X147661851Y-82105303D01*
X147816291Y-82022753D01*
X147951659Y-81911659D01*
X148062753Y-81776291D01*
X148145303Y-81621851D01*
X148196136Y-81454274D01*
X148213301Y-81280000D01*
X148196136Y-81105726D01*
X148190131Y-81085927D01*
X149179000Y-81085927D01*
X149179000Y-81220073D01*
X149205171Y-81351640D01*
X149256506Y-81475574D01*
X149331033Y-81587112D01*
X149425888Y-81681967D01*
X149537426Y-81756494D01*
X149661360Y-81807829D01*
X149792927Y-81834000D01*
X149927073Y-81834000D01*
X150058640Y-81807829D01*
X150182574Y-81756494D01*
X150294112Y-81681967D01*
X150388967Y-81587112D01*
X150463494Y-81475574D01*
X150514829Y-81351640D01*
X150541000Y-81220073D01*
X150541000Y-81196230D01*
X150554927Y-81199000D01*
X150689073Y-81199000D01*
X150820640Y-81172829D01*
X150944574Y-81121494D01*
X151056112Y-81046967D01*
X151150967Y-80952112D01*
X151225494Y-80840574D01*
X151276829Y-80716640D01*
X151303000Y-80585073D01*
X151303000Y-80450927D01*
X151276829Y-80319360D01*
X151225494Y-80195426D01*
X151150967Y-80083888D01*
X151056112Y-79989033D01*
X150944574Y-79914506D01*
X150820640Y-79863171D01*
X150689073Y-79837000D01*
X150554927Y-79837000D01*
X150423360Y-79863171D01*
X150299426Y-79914506D01*
X150187888Y-79989033D01*
X150093033Y-80083888D01*
X150018506Y-80195426D01*
X149967171Y-80319360D01*
X149941000Y-80450927D01*
X149941000Y-80474770D01*
X149927073Y-80472000D01*
X149792927Y-80472000D01*
X149661360Y-80498171D01*
X149537426Y-80549506D01*
X149425888Y-80624033D01*
X149331033Y-80718888D01*
X149256506Y-80830426D01*
X149205171Y-80954360D01*
X149179000Y-81085927D01*
X148190131Y-81085927D01*
X148145303Y-80938149D01*
X148062753Y-80783709D01*
X147951659Y-80648341D01*
X147816291Y-80537247D01*
X147661851Y-80454697D01*
X147494274Y-80403864D01*
X147363667Y-80391000D01*
X146855659Y-80391000D01*
X146811999Y-80386700D01*
X146768339Y-80391000D01*
X146768333Y-80391000D01*
X146670924Y-80400594D01*
X146637724Y-80403864D01*
X146536058Y-80434704D01*
X146470149Y-80454697D01*
X146315709Y-80537247D01*
X146224207Y-80612341D01*
X146220474Y-80615405D01*
X146180341Y-80648341D01*
X146177000Y-80652412D01*
X146177000Y-78941079D01*
X146197967Y-78920112D01*
X146272494Y-78808574D01*
X146323829Y-78684640D01*
X146350000Y-78553073D01*
X146350000Y-78418927D01*
X146323829Y-78287360D01*
X146272494Y-78163426D01*
X146197967Y-78051888D01*
X146103112Y-77957033D01*
X145991574Y-77882506D01*
X145867640Y-77831171D01*
X145736073Y-77805000D01*
X145601927Y-77805000D01*
X145470360Y-77831171D01*
X145346426Y-77882506D01*
X145234888Y-77957033D01*
X145140033Y-78051888D01*
X145065506Y-78163426D01*
X145014171Y-78287360D01*
X144988000Y-78418927D01*
X144988000Y-78553073D01*
X145014171Y-78684640D01*
X145065506Y-78808574D01*
X145140033Y-78920112D01*
X145161001Y-78941080D01*
X145161000Y-80688579D01*
X143295430Y-82554150D01*
X143276053Y-82570052D01*
X143260151Y-82589429D01*
X143260150Y-82589430D01*
X143212571Y-82647405D01*
X143165400Y-82735657D01*
X143136352Y-82831416D01*
X143126543Y-82931000D01*
X143129001Y-82955954D01*
X143129000Y-85192056D01*
X143126543Y-85217000D01*
X143129000Y-85241944D01*
X143129000Y-85241946D01*
X143136351Y-85316584D01*
X143165399Y-85412342D01*
X143212571Y-85500595D01*
X143276052Y-85577948D01*
X143295435Y-85593855D01*
X143891001Y-86189421D01*
X143891000Y-88435579D01*
X143673072Y-88653508D01*
X143632567Y-88592888D01*
X143622179Y-88582500D01*
X143632567Y-88572112D01*
X143707094Y-88460574D01*
X143758429Y-88336640D01*
X143784600Y-88205073D01*
X143784600Y-88070927D01*
X143758429Y-87939360D01*
X143707094Y-87815426D01*
X143632567Y-87703888D01*
X143537712Y-87609033D01*
X143426174Y-87534506D01*
X143302240Y-87483171D01*
X143170673Y-87457000D01*
X143036527Y-87457000D01*
X142904960Y-87483171D01*
X142781026Y-87534506D01*
X142669488Y-87609033D01*
X142574633Y-87703888D01*
X142500106Y-87815426D01*
X142448771Y-87939360D01*
X142422600Y-88070927D01*
X142422600Y-88205073D01*
X142448771Y-88336640D01*
X142500106Y-88460574D01*
X142574633Y-88572112D01*
X142585021Y-88582500D01*
X142574633Y-88592888D01*
X142500106Y-88704426D01*
X142448771Y-88828360D01*
X142422600Y-88959927D01*
X142422600Y-89094073D01*
X142448771Y-89225640D01*
X142500106Y-89349574D01*
X142574633Y-89461112D01*
X142669488Y-89555967D01*
X142730108Y-89596472D01*
X141898430Y-90428150D01*
X141879053Y-90444052D01*
X141863151Y-90463429D01*
X141863150Y-90463430D01*
X141815571Y-90521405D01*
X141789154Y-90570829D01*
X141768400Y-90609657D01*
X141751553Y-90665196D01*
X141739352Y-90705416D01*
X141729543Y-90805000D01*
X141732001Y-90829954D01*
X141732000Y-96817579D01*
X140577630Y-97971950D01*
X140558253Y-97987852D01*
X140542351Y-98007229D01*
X140542350Y-98007230D01*
X140495604Y-98064190D01*
X140301571Y-97934541D01*
X140070445Y-97838805D01*
X139825084Y-97790000D01*
X140070445Y-97741195D01*
X140301571Y-97645459D01*
X140509578Y-97506473D01*
X140686473Y-97329578D01*
X140825459Y-97121571D01*
X140921195Y-96890445D01*
X140970000Y-96645084D01*
X140970000Y-96394916D01*
X140921195Y-96149555D01*
X140825459Y-95918429D01*
X140686473Y-95710422D01*
X140509578Y-95533527D01*
X140301571Y-95394541D01*
X140070445Y-95298805D01*
X139825084Y-95250000D01*
X140070445Y-95201195D01*
X140301571Y-95105459D01*
X140509578Y-94966473D01*
X140686473Y-94789578D01*
X140825459Y-94581571D01*
X140921195Y-94350445D01*
X140970000Y-94105084D01*
X140970000Y-93854916D01*
X140921195Y-93609555D01*
X140825459Y-93378429D01*
X140686473Y-93170422D01*
X140509578Y-92993527D01*
X140301571Y-92854541D01*
X140070445Y-92758805D01*
X139825084Y-92710000D01*
X140070445Y-92661195D01*
X140301571Y-92565459D01*
X140509578Y-92426473D01*
X140686473Y-92249578D01*
X140825459Y-92041571D01*
X140921195Y-91810445D01*
X140970000Y-91565084D01*
X140970000Y-91314916D01*
X140921195Y-91069555D01*
X140825459Y-90838429D01*
X140686473Y-90630422D01*
X140509578Y-90453527D01*
X140301571Y-90314541D01*
X140070445Y-90218805D01*
X139825084Y-90170000D01*
X140070445Y-90121195D01*
X140301571Y-90025459D01*
X140509578Y-89886473D01*
X140686473Y-89709578D01*
X140825459Y-89501571D01*
X140921195Y-89270445D01*
X140970000Y-89025084D01*
X140970000Y-88774916D01*
X140921195Y-88529555D01*
X140825459Y-88298429D01*
X140686473Y-88090422D01*
X140509578Y-87913527D01*
X140301571Y-87774541D01*
X140070445Y-87678805D01*
X139825084Y-87630000D01*
X140070445Y-87581195D01*
X140301571Y-87485459D01*
X140509578Y-87346473D01*
X140686473Y-87169578D01*
X140825459Y-86961571D01*
X140921195Y-86730445D01*
X140970000Y-86485084D01*
X140970000Y-86234916D01*
X140921195Y-85989555D01*
X140825459Y-85758429D01*
X140686473Y-85550422D01*
X140509578Y-85373527D01*
X140301571Y-85234541D01*
X140070445Y-85138805D01*
X139825084Y-85090000D01*
X140070445Y-85041195D01*
X140301571Y-84945459D01*
X140509578Y-84806473D01*
X140686473Y-84629578D01*
X140825459Y-84421571D01*
X140921195Y-84190445D01*
X140970000Y-83945084D01*
X140970000Y-83694916D01*
X140921195Y-83449555D01*
X140825459Y-83218429D01*
X140686473Y-83010422D01*
X140509578Y-82833527D01*
X140301571Y-82694541D01*
X140070445Y-82598805D01*
X139825084Y-82550000D01*
X140070445Y-82501195D01*
X140301571Y-82405459D01*
X140509578Y-82266473D01*
X140686473Y-82089578D01*
X140825459Y-81881571D01*
X140921195Y-81650445D01*
X140970000Y-81405084D01*
X140970000Y-81154916D01*
X140921195Y-80909555D01*
X140825459Y-80678429D01*
X140686473Y-80470422D01*
X140509578Y-80293527D01*
X140301571Y-80154541D01*
X140070445Y-80058805D01*
X139825084Y-80010000D01*
X140070445Y-79961195D01*
X140301571Y-79865459D01*
X140509578Y-79726473D01*
X140674124Y-79561927D01*
X141178000Y-79561927D01*
X141178000Y-79696073D01*
X141204171Y-79827640D01*
X141255506Y-79951574D01*
X141330033Y-80063112D01*
X141424888Y-80157967D01*
X141536426Y-80232494D01*
X141660360Y-80283829D01*
X141791927Y-80310000D01*
X141926073Y-80310000D01*
X142057640Y-80283829D01*
X142080945Y-80274176D01*
X142093171Y-80335640D01*
X142144506Y-80459574D01*
X142219033Y-80571112D01*
X142313888Y-80665967D01*
X142425426Y-80740494D01*
X142549360Y-80791829D01*
X142680927Y-80818000D01*
X142815073Y-80818000D01*
X142946640Y-80791829D01*
X143070574Y-80740494D01*
X143182112Y-80665967D01*
X143276967Y-80571112D01*
X143351494Y-80459574D01*
X143402829Y-80335640D01*
X143429000Y-80204073D01*
X143429000Y-80069927D01*
X143425542Y-80052542D01*
X143442927Y-80056000D01*
X143577073Y-80056000D01*
X143708640Y-80029829D01*
X143832574Y-79978494D01*
X143944112Y-79903967D01*
X144038967Y-79809112D01*
X144113494Y-79697574D01*
X144164829Y-79573640D01*
X144191000Y-79442073D01*
X144191000Y-79307927D01*
X144164829Y-79176360D01*
X144113494Y-79052426D01*
X144038967Y-78940888D01*
X143944112Y-78846033D01*
X143832574Y-78771506D01*
X143708640Y-78720171D01*
X143577073Y-78694000D01*
X143442927Y-78694000D01*
X143311360Y-78720171D01*
X143187426Y-78771506D01*
X143075888Y-78846033D01*
X142981033Y-78940888D01*
X142906506Y-79052426D01*
X142855171Y-79176360D01*
X142829000Y-79307927D01*
X142829000Y-79442073D01*
X142832458Y-79459458D01*
X142815073Y-79456000D01*
X142680927Y-79456000D01*
X142549360Y-79482171D01*
X142526055Y-79491824D01*
X142513829Y-79430360D01*
X142462494Y-79306426D01*
X142387967Y-79194888D01*
X142293112Y-79100033D01*
X142181574Y-79025506D01*
X142057640Y-78974171D01*
X141926073Y-78948000D01*
X141791927Y-78948000D01*
X141660360Y-78974171D01*
X141536426Y-79025506D01*
X141424888Y-79100033D01*
X141330033Y-79194888D01*
X141255506Y-79306426D01*
X141204171Y-79430360D01*
X141178000Y-79561927D01*
X140674124Y-79561927D01*
X140686473Y-79549578D01*
X140825459Y-79341571D01*
X140921195Y-79110445D01*
X140970000Y-78865084D01*
X140970000Y-78614916D01*
X140921195Y-78369555D01*
X140825459Y-78138429D01*
X140686473Y-77930422D01*
X140509578Y-77753527D01*
X140301571Y-77614541D01*
X140070445Y-77518805D01*
X139825084Y-77470000D01*
X140070445Y-77421195D01*
X140301571Y-77325459D01*
X140509578Y-77186473D01*
X140686473Y-77009578D01*
X140825459Y-76801571D01*
X140921195Y-76570445D01*
X140961616Y-76367229D01*
X146947000Y-76367229D01*
X146947000Y-76540771D01*
X146980856Y-76710978D01*
X147047268Y-76871310D01*
X147143682Y-77015605D01*
X147266395Y-77138318D01*
X147410690Y-77234732D01*
X147571022Y-77301144D01*
X147741229Y-77335000D01*
X147914771Y-77335000D01*
X148084978Y-77301144D01*
X148245310Y-77234732D01*
X148389605Y-77138318D01*
X148512318Y-77015605D01*
X148608732Y-76871310D01*
X148675144Y-76710978D01*
X148709000Y-76540771D01*
X148709000Y-76386927D01*
X150068000Y-76386927D01*
X150068000Y-76521073D01*
X150094171Y-76652640D01*
X150145506Y-76776574D01*
X150220033Y-76888112D01*
X150314888Y-76982967D01*
X150426426Y-77057494D01*
X150550360Y-77108829D01*
X150681927Y-77135000D01*
X150816073Y-77135000D01*
X150947640Y-77108829D01*
X151071574Y-77057494D01*
X151183112Y-76982967D01*
X151277967Y-76888112D01*
X151352494Y-76776574D01*
X151403829Y-76652640D01*
X151430000Y-76521073D01*
X151430000Y-76386927D01*
X151403829Y-76255360D01*
X151352494Y-76131426D01*
X151277967Y-76019888D01*
X151183112Y-75925033D01*
X151071574Y-75850506D01*
X150947640Y-75799171D01*
X150816073Y-75773000D01*
X150681927Y-75773000D01*
X150550360Y-75799171D01*
X150426426Y-75850506D01*
X150314888Y-75925033D01*
X150220033Y-76019888D01*
X150145506Y-76131426D01*
X150094171Y-76255360D01*
X150068000Y-76386927D01*
X148709000Y-76386927D01*
X148709000Y-76367229D01*
X148675144Y-76197022D01*
X148608732Y-76036690D01*
X148512318Y-75892395D01*
X148389605Y-75769682D01*
X148245310Y-75673268D01*
X148084978Y-75606856D01*
X147914771Y-75573000D01*
X147741229Y-75573000D01*
X147571022Y-75606856D01*
X147410690Y-75673268D01*
X147266395Y-75769682D01*
X147143682Y-75892395D01*
X147047268Y-76036690D01*
X146980856Y-76197022D01*
X146947000Y-76367229D01*
X140961616Y-76367229D01*
X140970000Y-76325084D01*
X140970000Y-76074916D01*
X140921195Y-75829555D01*
X140825459Y-75598429D01*
X140686473Y-75390422D01*
X140509578Y-75213527D01*
X140365007Y-75116927D01*
X142321000Y-75116927D01*
X142321000Y-75251073D01*
X142347171Y-75382640D01*
X142398506Y-75506574D01*
X142473033Y-75618112D01*
X142567888Y-75712967D01*
X142679426Y-75787494D01*
X142803360Y-75838829D01*
X142934927Y-75865000D01*
X143069073Y-75865000D01*
X143200640Y-75838829D01*
X143324574Y-75787494D01*
X143436112Y-75712967D01*
X143530967Y-75618112D01*
X143605494Y-75506574D01*
X143656829Y-75382640D01*
X143683000Y-75251073D01*
X143683000Y-75116927D01*
X143656829Y-74985360D01*
X143605494Y-74861426D01*
X143530967Y-74749888D01*
X143436112Y-74655033D01*
X143324574Y-74580506D01*
X143200640Y-74529171D01*
X143069073Y-74503000D01*
X142934927Y-74503000D01*
X142803360Y-74529171D01*
X142679426Y-74580506D01*
X142567888Y-74655033D01*
X142473033Y-74749888D01*
X142398506Y-74861426D01*
X142347171Y-74985360D01*
X142321000Y-75116927D01*
X140365007Y-75116927D01*
X140301571Y-75074541D01*
X140287712Y-75068800D01*
X140347359Y-75047816D01*
X140494273Y-74969289D01*
X140576626Y-74716231D01*
X139700000Y-73839605D01*
X139685858Y-73853748D01*
X139506253Y-73674143D01*
X139520395Y-73660000D01*
X139879605Y-73660000D01*
X140756231Y-74536626D01*
X141009289Y-74454273D01*
X141139086Y-74183582D01*
X141213580Y-73892770D01*
X141229908Y-73593012D01*
X141187443Y-73295829D01*
X141087816Y-73012641D01*
X141009289Y-72865727D01*
X140756231Y-72783374D01*
X139879605Y-73660000D01*
X139520395Y-73660000D01*
X139506253Y-73645858D01*
X139685858Y-73466253D01*
X139700000Y-73480395D01*
X140576626Y-72603769D01*
X140494273Y-72350711D01*
X140287192Y-72251415D01*
X140301571Y-72245459D01*
X140509578Y-72106473D01*
X140686473Y-71929578D01*
X140825459Y-71721571D01*
X140921195Y-71490445D01*
X140970000Y-71245084D01*
X140970000Y-70994916D01*
X140921195Y-70749555D01*
X140825459Y-70518429D01*
X140686473Y-70310422D01*
X140509578Y-70133527D01*
X140301571Y-69994541D01*
X140070445Y-69898805D01*
X139825084Y-69850000D01*
X140070445Y-69801195D01*
X140301571Y-69705459D01*
X140509578Y-69566473D01*
X140686473Y-69389578D01*
X140825459Y-69181571D01*
X140921195Y-68950445D01*
X140970000Y-68705084D01*
X140970000Y-68454916D01*
X140921195Y-68209555D01*
X140825459Y-67978429D01*
X140686473Y-67770422D01*
X140509578Y-67593527D01*
X140301571Y-67454541D01*
X140070445Y-67358805D01*
X139825084Y-67310000D01*
X140070445Y-67261195D01*
X140301571Y-67165459D01*
X140509578Y-67026473D01*
X140686473Y-66849578D01*
X140825459Y-66641571D01*
X140921195Y-66410445D01*
X140970000Y-66165084D01*
X140970000Y-65914916D01*
X140921195Y-65669555D01*
X140825459Y-65438429D01*
X140686473Y-65230422D01*
X140509578Y-65053527D01*
X140301571Y-64914541D01*
X140070445Y-64818805D01*
X139834349Y-64771843D01*
X140589000Y-64771843D01*
X140663689Y-64764487D01*
X140735508Y-64742701D01*
X140801696Y-64707322D01*
X140859711Y-64659711D01*
X140907322Y-64601696D01*
X140942701Y-64535508D01*
X140964487Y-64463689D01*
X140971843Y-64389000D01*
X141612412Y-64389000D01*
X141608341Y-64392341D01*
X141497247Y-64527709D01*
X141414697Y-64682149D01*
X141363864Y-64849726D01*
X141346699Y-65024000D01*
X141363864Y-65198274D01*
X141414697Y-65365851D01*
X141497247Y-65520291D01*
X141608341Y-65655659D01*
X141743709Y-65766753D01*
X141898149Y-65849303D01*
X142065726Y-65900136D01*
X142196333Y-65913000D01*
X143522765Y-65913000D01*
X144063064Y-66453300D01*
X144015022Y-66462856D01*
X143854690Y-66529268D01*
X143710395Y-66625682D01*
X143587682Y-66748395D01*
X143491268Y-66892690D01*
X143424856Y-67053022D01*
X143391000Y-67223229D01*
X143391000Y-67396771D01*
X143424856Y-67566978D01*
X143491268Y-67727310D01*
X143587682Y-67871605D01*
X143710395Y-67994318D01*
X143854690Y-68090732D01*
X144015022Y-68157144D01*
X144185229Y-68191000D01*
X144358771Y-68191000D01*
X144528978Y-68157144D01*
X144689310Y-68090732D01*
X144833605Y-67994318D01*
X144956318Y-67871605D01*
X145034001Y-67755344D01*
X145034000Y-69806340D01*
X145029700Y-69850000D01*
X145034000Y-69893660D01*
X145034000Y-69893666D01*
X145046864Y-70024273D01*
X145097697Y-70191850D01*
X145180247Y-70346290D01*
X145291341Y-70481659D01*
X145325264Y-70509499D01*
X147422510Y-72606746D01*
X147450342Y-72640659D01*
X147484254Y-72668490D01*
X147484259Y-72668495D01*
X147557882Y-72728915D01*
X147585710Y-72751753D01*
X147644869Y-72783374D01*
X147740147Y-72834302D01*
X147907724Y-72885136D01*
X147950745Y-72889373D01*
X148082000Y-72902301D01*
X148256274Y-72885136D01*
X148423851Y-72834303D01*
X148578291Y-72751753D01*
X148713659Y-72640659D01*
X148737347Y-72611796D01*
X148794682Y-72697605D01*
X148917395Y-72820318D01*
X149061690Y-72916732D01*
X149222022Y-72983144D01*
X149392229Y-73017000D01*
X149565771Y-73017000D01*
X149735978Y-72983144D01*
X149896310Y-72916732D01*
X150040605Y-72820318D01*
X150163318Y-72697605D01*
X150259732Y-72553310D01*
X150326144Y-72392978D01*
X150360000Y-72222771D01*
X150360000Y-72049229D01*
X150326144Y-71879022D01*
X150259732Y-71718690D01*
X150163318Y-71574395D01*
X150040605Y-71451682D01*
X149924345Y-71374000D01*
X154063765Y-71374000D01*
X155042506Y-72352741D01*
X155070341Y-72386659D01*
X155205709Y-72497753D01*
X155360149Y-72580303D01*
X155426058Y-72600296D01*
X155527724Y-72631136D01*
X155560924Y-72634406D01*
X155658333Y-72644000D01*
X155658339Y-72644000D01*
X155701999Y-72648300D01*
X155745659Y-72644000D01*
X156111857Y-72644000D01*
X156102247Y-72655710D01*
X156019697Y-72810150D01*
X155968864Y-72977727D01*
X155956000Y-73108334D01*
X155956000Y-73108340D01*
X155951700Y-73152000D01*
X155956000Y-73195660D01*
X155956001Y-75521330D01*
X155951700Y-75565000D01*
X155968864Y-75739274D01*
X156019698Y-75906852D01*
X156102248Y-76061291D01*
X156184126Y-76161059D01*
X156213342Y-76196659D01*
X156247259Y-76224494D01*
X157149800Y-77127036D01*
X157149800Y-79145144D01*
X157043640Y-79101171D01*
X156912073Y-79075000D01*
X156777927Y-79075000D01*
X156646360Y-79101171D01*
X156522426Y-79152506D01*
X156410888Y-79227033D01*
X156316033Y-79321888D01*
X156241506Y-79433426D01*
X156190171Y-79557360D01*
X156164000Y-79688927D01*
X156164000Y-79823073D01*
X156190171Y-79954640D01*
X156194048Y-79964000D01*
X156142927Y-79964000D01*
X156011360Y-79990171D01*
X155887426Y-80041506D01*
X155775888Y-80116033D01*
X155681033Y-80210888D01*
X155606506Y-80322426D01*
X155598519Y-80341708D01*
X155595967Y-80337888D01*
X155501112Y-80243033D01*
X155389574Y-80168506D01*
X155265640Y-80117171D01*
X155134073Y-80091000D01*
X154999927Y-80091000D01*
X154868360Y-80117171D01*
X154744426Y-80168506D01*
X154632888Y-80243033D01*
X154538033Y-80337888D01*
X154463506Y-80449426D01*
X154412171Y-80573360D01*
X154386000Y-80704927D01*
X154386000Y-80839073D01*
X154412171Y-80970640D01*
X154416048Y-80980000D01*
X154364927Y-80980000D01*
X154347542Y-80983458D01*
X154351000Y-80966073D01*
X154351000Y-80831927D01*
X154324829Y-80700360D01*
X154273494Y-80576426D01*
X154198967Y-80464888D01*
X154104112Y-80370033D01*
X153992574Y-80295506D01*
X153868640Y-80244171D01*
X153737073Y-80218000D01*
X153602927Y-80218000D01*
X153471360Y-80244171D01*
X153347426Y-80295506D01*
X153235888Y-80370033D01*
X153141033Y-80464888D01*
X153066506Y-80576426D01*
X153015171Y-80700360D01*
X152989000Y-80831927D01*
X152989000Y-80966073D01*
X153015171Y-81097640D01*
X153066506Y-81221574D01*
X153141033Y-81333112D01*
X153235888Y-81427967D01*
X153347426Y-81502494D01*
X153471360Y-81553829D01*
X153602927Y-81580000D01*
X153737073Y-81580000D01*
X153754458Y-81576542D01*
X153751000Y-81593927D01*
X153751000Y-81728073D01*
X153777171Y-81859640D01*
X153828506Y-81983574D01*
X153903033Y-82095112D01*
X153997888Y-82189967D01*
X154109426Y-82264494D01*
X154233360Y-82315829D01*
X154364927Y-82342000D01*
X154499073Y-82342000D01*
X154630640Y-82315829D01*
X154754574Y-82264494D01*
X154866112Y-82189967D01*
X154960967Y-82095112D01*
X155035494Y-81983574D01*
X155086829Y-81859640D01*
X155113000Y-81728073D01*
X155113000Y-81593927D01*
X155086829Y-81462360D01*
X155082952Y-81453000D01*
X155134073Y-81453000D01*
X155265640Y-81426829D01*
X155389574Y-81375494D01*
X155501112Y-81300967D01*
X155595967Y-81206112D01*
X155670494Y-81094574D01*
X155678481Y-81075292D01*
X155681033Y-81079112D01*
X155775888Y-81173967D01*
X155887426Y-81248494D01*
X156011360Y-81299829D01*
X156142927Y-81326000D01*
X156277073Y-81326000D01*
X156408640Y-81299829D01*
X156532574Y-81248494D01*
X156644112Y-81173967D01*
X156738967Y-81079112D01*
X156813494Y-80967574D01*
X156864829Y-80843640D01*
X156891000Y-80712073D01*
X156891000Y-80577927D01*
X156864829Y-80446360D01*
X156860952Y-80437000D01*
X156912073Y-80437000D01*
X157043640Y-80410829D01*
X157149801Y-80366856D01*
X157149801Y-81241964D01*
X154716543Y-83675222D01*
X154705829Y-83621360D01*
X154654494Y-83497426D01*
X154579967Y-83385888D01*
X154485112Y-83291033D01*
X154373574Y-83216506D01*
X154249640Y-83165171D01*
X154118073Y-83139000D01*
X153983927Y-83139000D01*
X153852360Y-83165171D01*
X153728426Y-83216506D01*
X153616888Y-83291033D01*
X153522033Y-83385888D01*
X153447506Y-83497426D01*
X153396171Y-83621360D01*
X153370000Y-83752927D01*
X153370000Y-83887073D01*
X153396171Y-84018640D01*
X153447506Y-84142574D01*
X153522033Y-84254112D01*
X153616888Y-84348967D01*
X153728426Y-84423494D01*
X153852360Y-84474829D01*
X153930590Y-84490390D01*
X153860698Y-84621148D01*
X153809864Y-84788726D01*
X153792700Y-84963000D01*
X153809864Y-85137274D01*
X153860698Y-85304852D01*
X153943248Y-85459291D01*
X154054341Y-85594659D01*
X154189709Y-85705752D01*
X154344148Y-85788302D01*
X154511726Y-85839136D01*
X154686000Y-85856300D01*
X154860274Y-85839136D01*
X155027852Y-85788302D01*
X155182291Y-85705752D01*
X155283740Y-85622495D01*
X155485176Y-85421059D01*
X155554033Y-85524112D01*
X155648888Y-85618967D01*
X155760426Y-85693494D01*
X155884360Y-85744829D01*
X156015927Y-85771000D01*
X156150073Y-85771000D01*
X156281640Y-85744829D01*
X156405574Y-85693494D01*
X156517112Y-85618967D01*
X156611967Y-85524112D01*
X156686494Y-85412574D01*
X156737829Y-85288640D01*
X156764000Y-85157073D01*
X156764000Y-85022927D01*
X156737829Y-84891360D01*
X156686494Y-84767426D01*
X156611967Y-84655888D01*
X156517112Y-84561033D01*
X156414059Y-84492176D01*
X158636536Y-82269699D01*
X158670459Y-82241859D01*
X158781553Y-82106491D01*
X158864103Y-81952051D01*
X158884096Y-81886142D01*
X158914936Y-81784476D01*
X158918787Y-81745376D01*
X158935426Y-81756494D01*
X159059360Y-81807829D01*
X159190927Y-81834000D01*
X159325073Y-81834000D01*
X159456640Y-81807829D01*
X159580574Y-81756494D01*
X159692112Y-81681967D01*
X159786967Y-81587112D01*
X159861494Y-81475574D01*
X159912829Y-81351640D01*
X159939000Y-81220073D01*
X159939000Y-81085927D01*
X159912829Y-80954360D01*
X159861494Y-80830426D01*
X159786967Y-80718888D01*
X159692112Y-80624033D01*
X159580574Y-80549506D01*
X159456640Y-80498171D01*
X159325073Y-80472000D01*
X159190927Y-80472000D01*
X159059360Y-80498171D01*
X158935426Y-80549506D01*
X158927800Y-80554602D01*
X158927800Y-78408554D01*
X159033603Y-78429600D01*
X159177597Y-78429600D01*
X159318825Y-78401508D01*
X159451858Y-78346404D01*
X159571585Y-78266405D01*
X159673405Y-78164585D01*
X159753404Y-78044858D01*
X159808508Y-77911825D01*
X159836600Y-77770597D01*
X159836600Y-77626603D01*
X159808508Y-77485375D01*
X159753404Y-77352342D01*
X159673405Y-77232615D01*
X159571585Y-77130795D01*
X159451858Y-77050796D01*
X159318825Y-76995692D01*
X159177597Y-76967600D01*
X159033603Y-76967600D01*
X158927800Y-76988646D01*
X158927800Y-76802459D01*
X158932100Y-76758799D01*
X158927800Y-76715134D01*
X158927800Y-76715133D01*
X158914936Y-76584526D01*
X158914936Y-76584524D01*
X158864102Y-76416947D01*
X158837527Y-76367229D01*
X158781553Y-76262509D01*
X158706459Y-76171007D01*
X158698295Y-76161059D01*
X158698294Y-76161058D01*
X158670459Y-76127141D01*
X158636543Y-76099307D01*
X157734000Y-75196765D01*
X157734000Y-73520235D01*
X158204742Y-73049493D01*
X158238659Y-73021659D01*
X158349753Y-72886291D01*
X158432303Y-72731851D01*
X158471156Y-72603769D01*
X158483136Y-72564275D01*
X158485947Y-72535732D01*
X158496000Y-72433667D01*
X158496000Y-72433660D01*
X158500300Y-72390000D01*
X158496000Y-72346340D01*
X158496000Y-68359772D01*
X158620022Y-68411144D01*
X158790229Y-68445000D01*
X158963771Y-68445000D01*
X159133978Y-68411144D01*
X159294310Y-68344732D01*
X159438605Y-68248318D01*
X159448500Y-68238423D01*
X159458395Y-68248318D01*
X159602690Y-68344732D01*
X159763022Y-68411144D01*
X159933229Y-68445000D01*
X160106771Y-68445000D01*
X160276978Y-68411144D01*
X160437310Y-68344732D01*
X160581605Y-68248318D01*
X160704318Y-68125605D01*
X160800732Y-67981310D01*
X160867144Y-67820978D01*
X160901000Y-67650771D01*
X160901000Y-67477229D01*
X160867144Y-67307022D01*
X160800732Y-67146690D01*
X160704318Y-67002395D01*
X160581605Y-66879682D01*
X160437310Y-66783268D01*
X160276978Y-66716856D01*
X160106771Y-66683000D01*
X159933229Y-66683000D01*
X159763022Y-66716856D01*
X159602690Y-66783268D01*
X159458395Y-66879682D01*
X159448500Y-66889577D01*
X159438605Y-66879682D01*
X159294310Y-66783268D01*
X159133978Y-66716856D01*
X158963771Y-66683000D01*
X158790229Y-66683000D01*
X158620022Y-66716856D01*
X158496000Y-66768228D01*
X158496000Y-63325279D01*
X158559302Y-63206852D01*
X158610136Y-63039275D01*
X158627300Y-62865001D01*
X158610136Y-62690726D01*
X158559302Y-62523148D01*
X158476751Y-62368709D01*
X158365659Y-62233341D01*
X158230291Y-62122249D01*
X158075852Y-62039698D01*
X157908274Y-61988864D01*
X157733999Y-61971700D01*
X157559725Y-61988864D01*
X157392148Y-62039698D01*
X157237709Y-62122249D01*
X157136260Y-62205505D01*
X157009259Y-62332506D01*
X156975342Y-62360341D01*
X156947507Y-62394258D01*
X156947505Y-62394260D01*
X156864248Y-62495709D01*
X156781698Y-62650148D01*
X156730864Y-62817726D01*
X156713700Y-62992000D01*
X156718001Y-63035670D01*
X156718001Y-66052765D01*
X156107499Y-65442263D01*
X156079659Y-65408341D01*
X155944291Y-65297247D01*
X155789851Y-65214697D01*
X155773573Y-65209759D01*
X155764790Y-65193328D01*
X155717408Y-65135592D01*
X155659672Y-65088210D01*
X155593802Y-65053002D01*
X155583677Y-65049931D01*
X155640711Y-64943229D01*
X155696805Y-64758310D01*
X155711000Y-64614187D01*
X155711000Y-63917814D01*
X155696805Y-63773691D01*
X155640711Y-63588771D01*
X155549618Y-63418349D01*
X155427028Y-63268972D01*
X155277651Y-63146382D01*
X155107229Y-63055289D01*
X154922310Y-62999195D01*
X154730000Y-62980254D01*
X154537691Y-62999195D01*
X154352772Y-63055289D01*
X154182350Y-63146382D01*
X154032973Y-63268972D01*
X153910383Y-63418349D01*
X153819290Y-63588771D01*
X153763195Y-63773690D01*
X153749000Y-63917813D01*
X153749000Y-64226765D01*
X153567499Y-64045264D01*
X153539659Y-64011341D01*
X153404291Y-63900247D01*
X153249851Y-63817697D01*
X153082274Y-63766864D01*
X152951667Y-63754000D01*
X152951660Y-63754000D01*
X152908000Y-63749700D01*
X152864340Y-63754000D01*
X149395659Y-63754000D01*
X149351999Y-63749700D01*
X149308339Y-63754000D01*
X149308333Y-63754000D01*
X149210924Y-63763594D01*
X149177724Y-63766864D01*
X149076058Y-63797704D01*
X149010149Y-63817697D01*
X148855709Y-63900247D01*
X148720341Y-64011341D01*
X148692501Y-64045264D01*
X148511000Y-64226765D01*
X148511000Y-63917814D01*
X148496805Y-63773691D01*
X148440711Y-63588771D01*
X148349618Y-63418349D01*
X148227028Y-63268972D01*
X148077651Y-63146382D01*
X147907229Y-63055289D01*
X147722310Y-62999195D01*
X147530000Y-62980254D01*
X147337691Y-62999195D01*
X147152772Y-63055289D01*
X147071236Y-63098871D01*
X147085829Y-63063640D01*
X147112000Y-62932073D01*
X147112000Y-62797927D01*
X147085829Y-62666360D01*
X147034494Y-62542426D01*
X146959967Y-62430888D01*
X146865112Y-62336033D01*
X146753574Y-62261506D01*
X146629640Y-62210171D01*
X146498073Y-62184000D01*
X146363927Y-62184000D01*
X146232360Y-62210171D01*
X146108426Y-62261506D01*
X145996888Y-62336033D01*
X145902033Y-62430888D01*
X145827506Y-62542426D01*
X145776171Y-62666360D01*
X145750000Y-62797927D01*
X145750000Y-62932073D01*
X145776171Y-63063640D01*
X145827506Y-63187574D01*
X145902033Y-63299112D01*
X145996888Y-63393967D01*
X146108426Y-63468494D01*
X146232360Y-63519829D01*
X146363927Y-63546000D01*
X146498073Y-63546000D01*
X146629640Y-63519829D01*
X146663676Y-63505731D01*
X146619290Y-63588771D01*
X146563195Y-63773690D01*
X146549000Y-63917813D01*
X146549000Y-64392764D01*
X145058499Y-62902264D01*
X145030659Y-62868341D01*
X144895291Y-62757247D01*
X144740851Y-62674697D01*
X144573274Y-62623864D01*
X144442667Y-62611000D01*
X144442660Y-62611000D01*
X144399000Y-62606700D01*
X144355340Y-62611000D01*
X140971843Y-62611000D01*
X140964487Y-62536311D01*
X140942701Y-62464492D01*
X140907322Y-62398304D01*
X140859711Y-62340289D01*
X140801696Y-62292678D01*
X140735508Y-62257299D01*
X140663689Y-62235513D01*
X140589000Y-62228157D01*
X139648922Y-62228157D01*
X139720967Y-62156112D01*
X139795494Y-62044574D01*
X139846829Y-61920640D01*
X139873000Y-61789073D01*
X139873000Y-61654927D01*
X139846829Y-61523360D01*
X139823898Y-61468000D01*
X146093580Y-61468000D01*
X147070150Y-62444571D01*
G36*
X151171856Y-65656022D02*
G01*
X151138000Y-65826229D01*
X151138000Y-65999771D01*
X151171856Y-66169978D01*
X151238268Y-66330310D01*
X151334682Y-66474605D01*
X151457395Y-66597318D01*
X151601690Y-66693732D01*
X151762022Y-66760144D01*
X151932229Y-66794000D01*
X152105771Y-66794000D01*
X152275978Y-66760144D01*
X152436310Y-66693732D01*
X152492406Y-66656250D01*
X152526506Y-66738574D01*
X152601033Y-66850112D01*
X152695888Y-66944967D01*
X152807426Y-67019494D01*
X152931360Y-67070829D01*
X153062927Y-67097000D01*
X153197073Y-67097000D01*
X153328640Y-67070829D01*
X153452574Y-67019494D01*
X153564112Y-66944967D01*
X153658967Y-66850112D01*
X153733494Y-66738574D01*
X153738919Y-66725477D01*
X153808709Y-66782753D01*
X153939618Y-66852726D01*
X153910383Y-66888349D01*
X153819290Y-67058771D01*
X153763195Y-67243690D01*
X153749000Y-67387813D01*
X153749000Y-68084186D01*
X153763195Y-68228309D01*
X153819289Y-68413228D01*
X153910382Y-68583651D01*
X154032972Y-68733028D01*
X154182349Y-68855618D01*
X154352771Y-68946711D01*
X154537690Y-69002805D01*
X154730000Y-69021746D01*
X154922309Y-69002805D01*
X155107228Y-68946711D01*
X155277651Y-68855618D01*
X155321000Y-68820043D01*
X155321000Y-70116765D01*
X155091499Y-69887264D01*
X155063659Y-69853341D01*
X154928291Y-69742247D01*
X154773851Y-69659697D01*
X154606274Y-69608864D01*
X154475667Y-69596000D01*
X154475660Y-69596000D01*
X154432000Y-69591700D01*
X154388340Y-69596000D01*
X152728079Y-69596000D01*
X152801967Y-69522112D01*
X152876494Y-69410574D01*
X152927829Y-69286640D01*
X152954000Y-69155073D01*
X152954000Y-69020927D01*
X152927829Y-68889360D01*
X152876494Y-68765426D01*
X152801967Y-68653888D01*
X152707112Y-68559033D01*
X152595574Y-68484506D01*
X152471640Y-68433171D01*
X152340073Y-68407000D01*
X152205927Y-68407000D01*
X152074360Y-68433171D01*
X151950426Y-68484506D01*
X151838888Y-68559033D01*
X151828500Y-68569421D01*
X151818112Y-68559033D01*
X151706574Y-68484506D01*
X151582640Y-68433171D01*
X151451073Y-68407000D01*
X151316927Y-68407000D01*
X151185360Y-68433171D01*
X151061426Y-68484506D01*
X150949888Y-68559033D01*
X150855033Y-68653888D01*
X150780506Y-68765426D01*
X150729171Y-68889360D01*
X150703000Y-69020927D01*
X150703000Y-69155073D01*
X150729171Y-69286640D01*
X150780506Y-69410574D01*
X150855033Y-69522112D01*
X150928921Y-69596000D01*
X149268659Y-69596000D01*
X149224999Y-69591700D01*
X149181339Y-69596000D01*
X149181333Y-69596000D01*
X149083924Y-69605594D01*
X149050724Y-69608864D01*
X148949058Y-69639704D01*
X148883149Y-69659697D01*
X148728709Y-69742247D01*
X148593341Y-69853341D01*
X148565505Y-69887259D01*
X147891500Y-70561264D01*
X146812000Y-69481765D01*
X146812000Y-68707473D01*
X146832972Y-68733028D01*
X146982349Y-68855618D01*
X147152771Y-68946711D01*
X147337690Y-69002805D01*
X147530000Y-69021746D01*
X147722309Y-69002805D01*
X147907228Y-68946711D01*
X148077651Y-68855618D01*
X148227028Y-68733028D01*
X148349618Y-68583651D01*
X148440711Y-68413229D01*
X148496805Y-68228310D01*
X148511000Y-68084187D01*
X148511000Y-67387814D01*
X148496805Y-67243691D01*
X148440711Y-67058771D01*
X148349618Y-66888349D01*
X148320382Y-66852725D01*
X148451291Y-66782753D01*
X148521081Y-66725477D01*
X148526506Y-66738574D01*
X148601033Y-66850112D01*
X148695888Y-66944967D01*
X148807426Y-67019494D01*
X148931360Y-67070829D01*
X149062927Y-67097000D01*
X149197073Y-67097000D01*
X149328640Y-67070829D01*
X149452574Y-67019494D01*
X149564112Y-66944967D01*
X149658967Y-66850112D01*
X149733494Y-66738574D01*
X149784829Y-66614640D01*
X149811000Y-66483073D01*
X149811000Y-66348927D01*
X149784829Y-66217360D01*
X149733494Y-66093426D01*
X149658967Y-65981888D01*
X149564112Y-65887033D01*
X149452574Y-65812506D01*
X149443491Y-65808744D01*
X149720235Y-65532000D01*
X151223228Y-65532000D01*
X151171856Y-65656022D01*
X151171856Y-65656022D01*
G37*
X151171856Y-65656022D02*
X151138000Y-65826229D01*
X151138000Y-65999771D01*
X151171856Y-66169978D01*
X151238268Y-66330310D01*
X151334682Y-66474605D01*
X151457395Y-66597318D01*
X151601690Y-66693732D01*
X151762022Y-66760144D01*
X151932229Y-66794000D01*
X152105771Y-66794000D01*
X152275978Y-66760144D01*
X152436310Y-66693732D01*
X152492406Y-66656250D01*
X152526506Y-66738574D01*
X152601033Y-66850112D01*
X152695888Y-66944967D01*
X152807426Y-67019494D01*
X152931360Y-67070829D01*
X153062927Y-67097000D01*
X153197073Y-67097000D01*
X153328640Y-67070829D01*
X153452574Y-67019494D01*
X153564112Y-66944967D01*
X153658967Y-66850112D01*
X153733494Y-66738574D01*
X153738919Y-66725477D01*
X153808709Y-66782753D01*
X153939618Y-66852726D01*
X153910383Y-66888349D01*
X153819290Y-67058771D01*
X153763195Y-67243690D01*
X153749000Y-67387813D01*
X153749000Y-68084186D01*
X153763195Y-68228309D01*
X153819289Y-68413228D01*
X153910382Y-68583651D01*
X154032972Y-68733028D01*
X154182349Y-68855618D01*
X154352771Y-68946711D01*
X154537690Y-69002805D01*
X154730000Y-69021746D01*
X154922309Y-69002805D01*
X155107228Y-68946711D01*
X155277651Y-68855618D01*
X155321000Y-68820043D01*
X155321000Y-70116765D01*
X155091499Y-69887264D01*
X155063659Y-69853341D01*
X154928291Y-69742247D01*
X154773851Y-69659697D01*
X154606274Y-69608864D01*
X154475667Y-69596000D01*
X154475660Y-69596000D01*
X154432000Y-69591700D01*
X154388340Y-69596000D01*
X152728079Y-69596000D01*
X152801967Y-69522112D01*
X152876494Y-69410574D01*
X152927829Y-69286640D01*
X152954000Y-69155073D01*
X152954000Y-69020927D01*
X152927829Y-68889360D01*
X152876494Y-68765426D01*
X152801967Y-68653888D01*
X152707112Y-68559033D01*
X152595574Y-68484506D01*
X152471640Y-68433171D01*
X152340073Y-68407000D01*
X152205927Y-68407000D01*
X152074360Y-68433171D01*
X151950426Y-68484506D01*
X151838888Y-68559033D01*
X151828500Y-68569421D01*
X151818112Y-68559033D01*
X151706574Y-68484506D01*
X151582640Y-68433171D01*
X151451073Y-68407000D01*
X151316927Y-68407000D01*
X151185360Y-68433171D01*
X151061426Y-68484506D01*
X150949888Y-68559033D01*
X150855033Y-68653888D01*
X150780506Y-68765426D01*
X150729171Y-68889360D01*
X150703000Y-69020927D01*
X150703000Y-69155073D01*
X150729171Y-69286640D01*
X150780506Y-69410574D01*
X150855033Y-69522112D01*
X150928921Y-69596000D01*
X149268659Y-69596000D01*
X149224999Y-69591700D01*
X149181339Y-69596000D01*
X149181333Y-69596000D01*
X149083924Y-69605594D01*
X149050724Y-69608864D01*
X148949058Y-69639704D01*
X148883149Y-69659697D01*
X148728709Y-69742247D01*
X148593341Y-69853341D01*
X148565505Y-69887259D01*
X147891500Y-70561264D01*
X146812000Y-69481765D01*
X146812000Y-68707473D01*
X146832972Y-68733028D01*
X146982349Y-68855618D01*
X147152771Y-68946711D01*
X147337690Y-69002805D01*
X147530000Y-69021746D01*
X147722309Y-69002805D01*
X147907228Y-68946711D01*
X148077651Y-68855618D01*
X148227028Y-68733028D01*
X148349618Y-68583651D01*
X148440711Y-68413229D01*
X148496805Y-68228310D01*
X148511000Y-68084187D01*
X148511000Y-67387814D01*
X148496805Y-67243691D01*
X148440711Y-67058771D01*
X148349618Y-66888349D01*
X148320382Y-66852725D01*
X148451291Y-66782753D01*
X148521081Y-66725477D01*
X148526506Y-66738574D01*
X148601033Y-66850112D01*
X148695888Y-66944967D01*
X148807426Y-67019494D01*
X148931360Y-67070829D01*
X149062927Y-67097000D01*
X149197073Y-67097000D01*
X149328640Y-67070829D01*
X149452574Y-67019494D01*
X149564112Y-66944967D01*
X149658967Y-66850112D01*
X149733494Y-66738574D01*
X149784829Y-66614640D01*
X149811000Y-66483073D01*
X149811000Y-66348927D01*
X149784829Y-66217360D01*
X149733494Y-66093426D01*
X149658967Y-65981888D01*
X149564112Y-65887033D01*
X149452574Y-65812506D01*
X149443491Y-65808744D01*
X149720235Y-65532000D01*
X151223228Y-65532000D01*
X151171856Y-65656022D01*
M02*
