G04 #@! TF.GenerationSoftware,KiCad,Pcbnew,5.1.0-rc2-unknown-036be7d~80~ubuntu16.04.1*
G04 #@! TF.CreationDate,2022-06-21T13:21:02+03:00*
G04 #@! TF.ProjectId,RT1010Py_Rev.C,52543130-3130-4507-995f-5265762e432e,C*
G04 #@! TF.SameCoordinates,Original*
G04 #@! TF.FileFunction,Legend,Top*
G04 #@! TF.FilePolarity,Positive*
%FSLAX46Y46*%
G04 Gerber Fmt 4.6, Leading zero omitted, Abs format (unit mm)*
G04 Created by KiCad (PCBNEW 5.1.0-rc2-unknown-036be7d~80~ubuntu16.04.1) date 2022-06-21 13:21:02*
%MOMM*%
%LPD*%
G04 APERTURE LIST*
%ADD10C,0.100000*%
%ADD11C,0.254000*%
%ADD12C,0.203200*%
%ADD13C,0.190500*%
%ADD14C,0.304800*%
%ADD15C,0.150000*%
%ADD16C,0.500000*%
%ADD17C,0.127000*%
%ADD18C,0.050000*%
%ADD19C,0.200000*%
%ADD20C,0.125000*%
%ADD21C,0.222250*%
%ADD22C,1.879600*%
%ADD23R,1.879600X1.879600*%
%ADD24R,1.751600X0.351600*%
%ADD25R,0.351600X1.751600*%
%ADD26R,0.601600X1.101600*%
%ADD27R,1.601600X1.301600*%
%ADD28R,0.751600X1.151600*%
%ADD29R,0.901600X0.901600*%
%ADD30R,1.117600X1.117600*%
%ADD31R,0.651600X0.601600*%
%ADD32R,0.601600X0.651600*%
%ADD33R,1.101600X1.901600*%
%ADD34R,2.101600X0.701600*%
%ADD35R,1.501600X1.301600*%
%ADD36C,1.101600*%
%ADD37R,3.101600X1.701600*%
%ADD38C,1.254000*%
%ADD39R,1.371600X1.625600*%
%ADD40O,1.301600X1.901600*%
%ADD41R,1.201600X1.101600*%
%ADD42C,0.701600*%
%ADD43R,0.601600X1.751600*%
%ADD44R,0.426600X1.751600*%
G04 APERTURE END LIST*
D10*
G36*
X163830000Y-62230000D02*
G01*
X161290000Y-62230000D01*
X161290000Y-60960000D01*
X163830000Y-60960000D01*
X163830000Y-62230000D01*
G37*
X163830000Y-62230000D02*
X161290000Y-62230000D01*
X161290000Y-60960000D01*
X163830000Y-60960000D01*
X163830000Y-62230000D01*
G36*
X140970000Y-62230000D02*
G01*
X138430000Y-62230000D01*
X138430000Y-60960000D01*
X140970000Y-60960000D01*
X140970000Y-62230000D01*
G37*
X140970000Y-62230000D02*
X138430000Y-62230000D01*
X138430000Y-60960000D01*
X140970000Y-60960000D01*
X140970000Y-62230000D01*
D11*
X158877000Y-98298000D02*
X158877000Y-107950000D01*
D12*
X141059746Y-99970166D02*
X141059746Y-99081166D01*
X141271413Y-99081166D01*
X141398413Y-99123500D01*
X141483080Y-99208166D01*
X141525413Y-99292833D01*
X141567746Y-99462166D01*
X141567746Y-99589166D01*
X141525413Y-99758500D01*
X141483080Y-99843166D01*
X141398413Y-99927833D01*
X141271413Y-99970166D01*
X141059746Y-99970166D01*
X142118080Y-99081166D02*
X142202746Y-99081166D01*
X142287413Y-99123500D01*
X142329746Y-99165833D01*
X142372080Y-99250500D01*
X142414413Y-99419833D01*
X142414413Y-99631500D01*
X142372080Y-99800833D01*
X142329746Y-99885500D01*
X142287413Y-99927833D01*
X142202746Y-99970166D01*
X142118080Y-99970166D01*
X142033413Y-99927833D01*
X141991080Y-99885500D01*
X141948746Y-99800833D01*
X141906413Y-99631500D01*
X141906413Y-99419833D01*
X141948746Y-99250500D01*
X141991080Y-99165833D01*
X142033413Y-99123500D01*
X142118080Y-99081166D01*
X141271413Y-100774500D02*
X141186746Y-100732166D01*
X141059746Y-100732166D01*
X140932746Y-100774500D01*
X140848080Y-100859166D01*
X140805746Y-100943833D01*
X140763413Y-101113166D01*
X140763413Y-101240166D01*
X140805746Y-101409500D01*
X140848080Y-101494166D01*
X140932746Y-101578833D01*
X141059746Y-101621166D01*
X141144413Y-101621166D01*
X141271413Y-101578833D01*
X141313746Y-101536500D01*
X141313746Y-101240166D01*
X141144413Y-101240166D01*
X141694746Y-101621166D02*
X141694746Y-100732166D01*
X142202746Y-101621166D01*
X142202746Y-100732166D01*
X142626080Y-101621166D02*
X142626080Y-100732166D01*
X142837746Y-100732166D01*
X142964746Y-100774500D01*
X143049413Y-100859166D01*
X143091746Y-100943833D01*
X143134080Y-101113166D01*
X143134080Y-101240166D01*
X143091746Y-101409500D01*
X143049413Y-101494166D01*
X142964746Y-101578833D01*
X142837746Y-101621166D01*
X142626080Y-101621166D01*
D13*
X159421285Y-95594714D02*
X159421285Y-94832714D01*
X159747857Y-94905285D02*
X159784142Y-94869000D01*
X159856714Y-94832714D01*
X160038142Y-94832714D01*
X160110714Y-94869000D01*
X160147000Y-94905285D01*
X160183285Y-94977857D01*
X160183285Y-95050428D01*
X160147000Y-95159285D01*
X159711571Y-95594714D01*
X160183285Y-95594714D01*
X160945285Y-95522142D02*
X160909000Y-95558428D01*
X160800142Y-95594714D01*
X160727571Y-95594714D01*
X160618714Y-95558428D01*
X160546142Y-95485857D01*
X160509857Y-95413285D01*
X160473571Y-95268142D01*
X160473571Y-95159285D01*
X160509857Y-95014142D01*
X160546142Y-94941571D01*
X160618714Y-94869000D01*
X160727571Y-94832714D01*
X160800142Y-94832714D01*
X160909000Y-94869000D01*
X160945285Y-94905285D01*
X161235571Y-94905285D02*
X161271857Y-94869000D01*
X161344428Y-94832714D01*
X161525857Y-94832714D01*
X161598428Y-94869000D01*
X161634714Y-94905285D01*
X161671000Y-94977857D01*
X161671000Y-95050428D01*
X161634714Y-95159285D01*
X161199285Y-95594714D01*
X161671000Y-95594714D01*
X159294285Y-109183714D02*
X159294285Y-108421714D01*
X159620857Y-108494285D02*
X159657142Y-108458000D01*
X159729714Y-108421714D01*
X159911142Y-108421714D01*
X159983714Y-108458000D01*
X160020000Y-108494285D01*
X160056285Y-108566857D01*
X160056285Y-108639428D01*
X160020000Y-108748285D01*
X159584571Y-109183714D01*
X160056285Y-109183714D01*
X160818285Y-109111142D02*
X160782000Y-109147428D01*
X160673142Y-109183714D01*
X160600571Y-109183714D01*
X160491714Y-109147428D01*
X160419142Y-109074857D01*
X160382857Y-109002285D01*
X160346571Y-108857142D01*
X160346571Y-108748285D01*
X160382857Y-108603142D01*
X160419142Y-108530571D01*
X160491714Y-108458000D01*
X160600571Y-108421714D01*
X160673142Y-108421714D01*
X160782000Y-108458000D01*
X160818285Y-108494285D01*
X161544000Y-109183714D02*
X161108571Y-109183714D01*
X161326285Y-109183714D02*
X161326285Y-108421714D01*
X161253714Y-108530571D01*
X161181142Y-108603142D01*
X161108571Y-108639428D01*
D14*
X147628428Y-70424523D02*
X147205095Y-69819761D01*
X146902714Y-70424523D02*
X146902714Y-69154523D01*
X147386523Y-69154523D01*
X147507476Y-69215000D01*
X147567952Y-69275476D01*
X147628428Y-69396428D01*
X147628428Y-69577857D01*
X147567952Y-69698809D01*
X147507476Y-69759285D01*
X147386523Y-69819761D01*
X146902714Y-69819761D01*
X147991285Y-69154523D02*
X148717000Y-69154523D01*
X148354142Y-70424523D02*
X148354142Y-69154523D01*
X149805571Y-70424523D02*
X149079857Y-70424523D01*
X149442714Y-70424523D02*
X149442714Y-69154523D01*
X149321761Y-69335952D01*
X149200809Y-69456904D01*
X149079857Y-69517380D01*
X150591761Y-69154523D02*
X150712714Y-69154523D01*
X150833666Y-69215000D01*
X150894142Y-69275476D01*
X150954619Y-69396428D01*
X151015095Y-69638333D01*
X151015095Y-69940714D01*
X150954619Y-70182619D01*
X150894142Y-70303571D01*
X150833666Y-70364047D01*
X150712714Y-70424523D01*
X150591761Y-70424523D01*
X150470809Y-70364047D01*
X150410333Y-70303571D01*
X150349857Y-70182619D01*
X150289380Y-69940714D01*
X150289380Y-69638333D01*
X150349857Y-69396428D01*
X150410333Y-69275476D01*
X150470809Y-69215000D01*
X150591761Y-69154523D01*
X152224619Y-70424523D02*
X151498904Y-70424523D01*
X151861761Y-70424523D02*
X151861761Y-69154523D01*
X151740809Y-69335952D01*
X151619857Y-69456904D01*
X151498904Y-69517380D01*
X153010809Y-69154523D02*
X153131761Y-69154523D01*
X153252714Y-69215000D01*
X153313190Y-69275476D01*
X153373666Y-69396428D01*
X153434142Y-69638333D01*
X153434142Y-69940714D01*
X153373666Y-70182619D01*
X153313190Y-70303571D01*
X153252714Y-70364047D01*
X153131761Y-70424523D01*
X153010809Y-70424523D01*
X152889857Y-70364047D01*
X152829380Y-70303571D01*
X152768904Y-70182619D01*
X152708428Y-69940714D01*
X152708428Y-69638333D01*
X152768904Y-69396428D01*
X152829380Y-69275476D01*
X152889857Y-69215000D01*
X153010809Y-69154523D01*
X153978428Y-70424523D02*
X153978428Y-69154523D01*
X154462238Y-69154523D01*
X154583190Y-69215000D01*
X154643666Y-69275476D01*
X154704142Y-69396428D01*
X154704142Y-69577857D01*
X154643666Y-69698809D01*
X154583190Y-69759285D01*
X154462238Y-69819761D01*
X153978428Y-69819761D01*
X155127476Y-69577857D02*
X155429857Y-70424523D01*
X155732238Y-69577857D02*
X155429857Y-70424523D01*
X155308904Y-70726904D01*
X155248428Y-70787380D01*
X155127476Y-70847857D01*
D11*
X153301095Y-73611619D02*
X152962428Y-73127809D01*
X152720523Y-73611619D02*
X152720523Y-72595619D01*
X153107571Y-72595619D01*
X153204333Y-72644000D01*
X153252714Y-72692380D01*
X153301095Y-72789142D01*
X153301095Y-72934285D01*
X153252714Y-73031047D01*
X153204333Y-73079428D01*
X153107571Y-73127809D01*
X152720523Y-73127809D01*
X154123571Y-73563238D02*
X154026809Y-73611619D01*
X153833285Y-73611619D01*
X153736523Y-73563238D01*
X153688142Y-73466476D01*
X153688142Y-73079428D01*
X153736523Y-72982666D01*
X153833285Y-72934285D01*
X154026809Y-72934285D01*
X154123571Y-72982666D01*
X154171952Y-73079428D01*
X154171952Y-73176190D01*
X153688142Y-73272952D01*
X154510619Y-72934285D02*
X154752523Y-73611619D01*
X154994428Y-72934285D01*
X155381476Y-73514857D02*
X155429857Y-73563238D01*
X155381476Y-73611619D01*
X155333095Y-73563238D01*
X155381476Y-73514857D01*
X155381476Y-73611619D01*
X156445857Y-73514857D02*
X156397476Y-73563238D01*
X156252333Y-73611619D01*
X156155571Y-73611619D01*
X156010428Y-73563238D01*
X155913666Y-73466476D01*
X155865285Y-73369714D01*
X155816904Y-73176190D01*
X155816904Y-73031047D01*
X155865285Y-72837523D01*
X155913666Y-72740761D01*
X156010428Y-72644000D01*
X156155571Y-72595619D01*
X156252333Y-72595619D01*
X156397476Y-72644000D01*
X156445857Y-72692380D01*
X142113000Y-112725200D02*
X140589000Y-112725200D01*
X143383000Y-107823000D02*
X143383000Y-111252000D01*
X143383000Y-107950000D02*
X138430000Y-107950000D01*
X143383000Y-104140000D02*
X143383000Y-107823000D01*
X140716000Y-102870000D02*
X138430000Y-102870000D01*
X143510000Y-100330000D02*
X143510000Y-101600000D01*
X143510000Y-100330000D02*
X138430000Y-100330000D01*
X143002000Y-76835000D02*
X143002000Y-92075000D01*
X158877000Y-107950000D02*
X158877000Y-113919000D01*
X143510000Y-98552000D02*
X143510000Y-100330000D01*
X143002000Y-72390000D02*
X138430000Y-72390000D01*
X143002000Y-74930000D02*
X138430000Y-74930000D01*
D12*
X144420166Y-70098920D02*
X144420166Y-70522253D01*
X143531166Y-70522253D01*
X144420166Y-69802586D02*
X143531166Y-69802586D01*
X143531166Y-69463920D01*
X143573500Y-69379253D01*
X143615833Y-69336920D01*
X143700500Y-69294586D01*
X143827500Y-69294586D01*
X143912166Y-69336920D01*
X143954500Y-69379253D01*
X143996833Y-69463920D01*
X143996833Y-69802586D01*
X143531166Y-68913586D02*
X144250833Y-68913586D01*
X144335500Y-68871253D01*
X144377833Y-68828920D01*
X144420166Y-68744253D01*
X144420166Y-68574920D01*
X144377833Y-68490253D01*
X144335500Y-68447920D01*
X144250833Y-68405586D01*
X143531166Y-68405586D01*
X144166166Y-68024586D02*
X144166166Y-67601253D01*
X144420166Y-68109253D02*
X143531166Y-67812920D01*
X144420166Y-67516586D01*
X144420166Y-66712253D02*
X143996833Y-67008586D01*
X144420166Y-67220253D02*
X143531166Y-67220253D01*
X143531166Y-66881586D01*
X143573500Y-66796920D01*
X143615833Y-66754586D01*
X143700500Y-66712253D01*
X143827500Y-66712253D01*
X143912166Y-66754586D01*
X143954500Y-66796920D01*
X143996833Y-66881586D01*
X143996833Y-67220253D01*
X143531166Y-66458253D02*
X143531166Y-65950253D01*
X144420166Y-66204253D02*
X143531166Y-66204253D01*
X144420166Y-65188253D02*
X144420166Y-65696253D01*
X144420166Y-65442253D02*
X143531166Y-65442253D01*
X143658166Y-65526920D01*
X143742833Y-65611586D01*
X143785166Y-65696253D01*
D11*
X140893800Y-62230000D02*
X138430000Y-62230000D01*
X144780000Y-69850000D02*
X144780000Y-62230000D01*
X138455400Y-64770000D02*
X144780000Y-64770000D01*
X161366200Y-62230000D02*
X163779200Y-62230000D01*
X158115000Y-75438000D02*
X158115000Y-62230000D01*
X158877000Y-107950000D02*
X163830000Y-107950000D01*
X159512000Y-97790000D02*
X163830000Y-97790000D01*
X159512000Y-92710000D02*
X163830000Y-92710000D01*
X159004000Y-90170000D02*
X163830000Y-90170000D01*
X159004000Y-77470000D02*
X163830000Y-77470000D01*
X159004000Y-90170000D02*
X159004000Y-77470000D01*
X163830000Y-113919000D02*
X158877000Y-113919000D01*
D12*
X159760920Y-65045166D02*
X159760920Y-64156166D01*
X159972586Y-64156166D01*
X160099586Y-64198500D01*
X160184253Y-64283166D01*
X160226586Y-64367833D01*
X160268920Y-64537166D01*
X160268920Y-64664166D01*
X160226586Y-64833500D01*
X160184253Y-64918166D01*
X160099586Y-65002833D01*
X159972586Y-65045166D01*
X159760920Y-65045166D01*
X160692253Y-65045166D02*
X160861586Y-65045166D01*
X160946253Y-65002833D01*
X160988586Y-64960500D01*
X161073253Y-64833500D01*
X161115586Y-64664166D01*
X161115586Y-64325500D01*
X161073253Y-64240833D01*
X161030920Y-64198500D01*
X160946253Y-64156166D01*
X160776920Y-64156166D01*
X160692253Y-64198500D01*
X160649920Y-64240833D01*
X160607586Y-64325500D01*
X160607586Y-64537166D01*
X160649920Y-64621833D01*
X160692253Y-64664166D01*
X160776920Y-64706500D01*
X160946253Y-64706500D01*
X161030920Y-64664166D01*
X161073253Y-64621833D01*
X161115586Y-64537166D01*
X158914253Y-66696166D02*
X158914253Y-65807166D01*
X159125920Y-65807166D01*
X159252920Y-65849500D01*
X159337586Y-65934166D01*
X159379920Y-66018833D01*
X159422253Y-66188166D01*
X159422253Y-66315166D01*
X159379920Y-66484500D01*
X159337586Y-66569166D01*
X159252920Y-66653833D01*
X159125920Y-66696166D01*
X158914253Y-66696166D01*
X160268920Y-66696166D02*
X159760920Y-66696166D01*
X160014920Y-66696166D02*
X160014920Y-65807166D01*
X159930253Y-65934166D01*
X159845586Y-66018833D01*
X159760920Y-66061166D01*
X160819253Y-65807166D02*
X160903920Y-65807166D01*
X160988586Y-65849500D01*
X161030920Y-65891833D01*
X161073253Y-65976500D01*
X161115586Y-66145833D01*
X161115586Y-66357500D01*
X161073253Y-66526833D01*
X161030920Y-66611500D01*
X160988586Y-66653833D01*
X160903920Y-66696166D01*
X160819253Y-66696166D01*
X160734586Y-66653833D01*
X160692253Y-66611500D01*
X160649920Y-66526833D01*
X160607586Y-66357500D01*
X160607586Y-66145833D01*
X160649920Y-65976500D01*
X160692253Y-65891833D01*
X160734586Y-65849500D01*
X160819253Y-65807166D01*
X158914253Y-68982166D02*
X158914253Y-68093166D01*
X159125920Y-68093166D01*
X159252920Y-68135500D01*
X159337586Y-68220166D01*
X159379920Y-68304833D01*
X159422253Y-68474166D01*
X159422253Y-68601166D01*
X159379920Y-68770500D01*
X159337586Y-68855166D01*
X159252920Y-68939833D01*
X159125920Y-68982166D01*
X158914253Y-68982166D01*
X160268920Y-68982166D02*
X159760920Y-68982166D01*
X160014920Y-68982166D02*
X160014920Y-68093166D01*
X159930253Y-68220166D01*
X159845586Y-68304833D01*
X159760920Y-68347166D01*
X161115586Y-68982166D02*
X160607586Y-68982166D01*
X160861586Y-68982166D02*
X160861586Y-68093166D01*
X160776920Y-68220166D01*
X160692253Y-68304833D01*
X160607586Y-68347166D01*
X158914253Y-71522166D02*
X158914253Y-70633166D01*
X159125920Y-70633166D01*
X159252920Y-70675500D01*
X159337586Y-70760166D01*
X159379920Y-70844833D01*
X159422253Y-71014166D01*
X159422253Y-71141166D01*
X159379920Y-71310500D01*
X159337586Y-71395166D01*
X159252920Y-71479833D01*
X159125920Y-71522166D01*
X158914253Y-71522166D01*
X160268920Y-71522166D02*
X159760920Y-71522166D01*
X160014920Y-71522166D02*
X160014920Y-70633166D01*
X159930253Y-70760166D01*
X159845586Y-70844833D01*
X159760920Y-70887166D01*
X160607586Y-70717833D02*
X160649920Y-70675500D01*
X160734586Y-70633166D01*
X160946253Y-70633166D01*
X161030920Y-70675500D01*
X161073253Y-70717833D01*
X161115586Y-70802500D01*
X161115586Y-70887166D01*
X161073253Y-71014166D01*
X160565253Y-71522166D01*
X161115586Y-71522166D01*
X158914253Y-74062166D02*
X158914253Y-73173166D01*
X159125920Y-73173166D01*
X159252920Y-73215500D01*
X159337586Y-73300166D01*
X159379920Y-73384833D01*
X159422253Y-73554166D01*
X159422253Y-73681166D01*
X159379920Y-73850500D01*
X159337586Y-73935166D01*
X159252920Y-74019833D01*
X159125920Y-74062166D01*
X158914253Y-74062166D01*
X160268920Y-74062166D02*
X159760920Y-74062166D01*
X160014920Y-74062166D02*
X160014920Y-73173166D01*
X159930253Y-73300166D01*
X159845586Y-73384833D01*
X159760920Y-73427166D01*
X160565253Y-73173166D02*
X161115586Y-73173166D01*
X160819253Y-73511833D01*
X160946253Y-73511833D01*
X161030920Y-73554166D01*
X161073253Y-73596500D01*
X161115586Y-73681166D01*
X161115586Y-73892833D01*
X161073253Y-73977500D01*
X161030920Y-74019833D01*
X160946253Y-74062166D01*
X160692253Y-74062166D01*
X160607586Y-74019833D01*
X160565253Y-73977500D01*
X158914253Y-75840166D02*
X158914253Y-74951166D01*
X159125920Y-74951166D01*
X159252920Y-74993500D01*
X159337586Y-75078166D01*
X159379920Y-75162833D01*
X159422253Y-75332166D01*
X159422253Y-75459166D01*
X159379920Y-75628500D01*
X159337586Y-75713166D01*
X159252920Y-75797833D01*
X159125920Y-75840166D01*
X158914253Y-75840166D01*
X160268920Y-75840166D02*
X159760920Y-75840166D01*
X160014920Y-75840166D02*
X160014920Y-74951166D01*
X159930253Y-75078166D01*
X159845586Y-75162833D01*
X159760920Y-75205166D01*
X161030920Y-75247500D02*
X161030920Y-75840166D01*
X160819253Y-74908833D02*
X160607586Y-75543833D01*
X161157920Y-75543833D01*
X159845586Y-78888166D02*
X160268920Y-78888166D01*
X159760920Y-79142166D02*
X160057253Y-78253166D01*
X160353586Y-79142166D01*
X160819253Y-78253166D02*
X160903920Y-78253166D01*
X160988586Y-78295500D01*
X161030920Y-78337833D01*
X161073253Y-78422500D01*
X161115586Y-78591833D01*
X161115586Y-78803500D01*
X161073253Y-78972833D01*
X161030920Y-79057500D01*
X160988586Y-79099833D01*
X160903920Y-79142166D01*
X160819253Y-79142166D01*
X160734586Y-79099833D01*
X160692253Y-79057500D01*
X160649920Y-78972833D01*
X160607586Y-78803500D01*
X160607586Y-78591833D01*
X160649920Y-78422500D01*
X160692253Y-78337833D01*
X160734586Y-78295500D01*
X160819253Y-78253166D01*
X160607586Y-82698166D02*
X161030920Y-82698166D01*
X160522920Y-82952166D02*
X160819253Y-82063166D01*
X161115586Y-82952166D01*
X161369586Y-82147833D02*
X161411920Y-82105500D01*
X161496586Y-82063166D01*
X161708253Y-82063166D01*
X161792920Y-82105500D01*
X161835253Y-82147833D01*
X161877586Y-82232500D01*
X161877586Y-82317166D01*
X161835253Y-82444166D01*
X161327253Y-82952166D01*
X161877586Y-82952166D01*
X159845586Y-80920166D02*
X160268920Y-80920166D01*
X159760920Y-81174166D02*
X160057253Y-80285166D01*
X160353586Y-81174166D01*
X161115586Y-81174166D02*
X160607586Y-81174166D01*
X160861586Y-81174166D02*
X160861586Y-80285166D01*
X160776920Y-80412166D01*
X160692253Y-80496833D01*
X160607586Y-80539166D01*
X159845586Y-86889166D02*
X160268920Y-86889166D01*
X159760920Y-87143166D02*
X160057253Y-86254166D01*
X160353586Y-87143166D01*
X160565253Y-86254166D02*
X161115586Y-86254166D01*
X160819253Y-86592833D01*
X160946253Y-86592833D01*
X161030920Y-86635166D01*
X161073253Y-86677500D01*
X161115586Y-86762166D01*
X161115586Y-86973833D01*
X161073253Y-87058500D01*
X161030920Y-87100833D01*
X160946253Y-87143166D01*
X160692253Y-87143166D01*
X160607586Y-87100833D01*
X160565253Y-87058500D01*
X159845586Y-89048166D02*
X160268920Y-89048166D01*
X159760920Y-89302166D02*
X160057253Y-88413166D01*
X160353586Y-89302166D01*
X161030920Y-88709500D02*
X161030920Y-89302166D01*
X160819253Y-88370833D02*
X160607586Y-89005833D01*
X161157920Y-89005833D01*
X158533253Y-96879833D02*
X158660253Y-96922166D01*
X158871920Y-96922166D01*
X158956586Y-96879833D01*
X158998920Y-96837500D01*
X159041253Y-96752833D01*
X159041253Y-96668166D01*
X158998920Y-96583500D01*
X158956586Y-96541166D01*
X158871920Y-96498833D01*
X158702586Y-96456500D01*
X158617920Y-96414166D01*
X158575586Y-96371833D01*
X158533253Y-96287166D01*
X158533253Y-96202500D01*
X158575586Y-96117833D01*
X158617920Y-96075500D01*
X158702586Y-96033166D01*
X158914253Y-96033166D01*
X159041253Y-96075500D01*
X159930253Y-96837500D02*
X159887920Y-96879833D01*
X159760920Y-96922166D01*
X159676253Y-96922166D01*
X159549253Y-96879833D01*
X159464586Y-96795166D01*
X159422253Y-96710500D01*
X159379920Y-96541166D01*
X159379920Y-96414166D01*
X159422253Y-96244833D01*
X159464586Y-96160166D01*
X159549253Y-96075500D01*
X159676253Y-96033166D01*
X159760920Y-96033166D01*
X159887920Y-96075500D01*
X159930253Y-96117833D01*
X160734586Y-96922166D02*
X160311253Y-96922166D01*
X160311253Y-96033166D01*
X160988586Y-96117833D02*
X161030920Y-96075500D01*
X161115586Y-96033166D01*
X161327253Y-96033166D01*
X161411920Y-96075500D01*
X161454253Y-96117833D01*
X161496586Y-96202500D01*
X161496586Y-96287166D01*
X161454253Y-96414166D01*
X160946253Y-96922166D01*
X161496586Y-96922166D01*
X158363920Y-94339833D02*
X158490920Y-94382166D01*
X158702586Y-94382166D01*
X158787253Y-94339833D01*
X158829586Y-94297500D01*
X158871920Y-94212833D01*
X158871920Y-94128166D01*
X158829586Y-94043500D01*
X158787253Y-94001166D01*
X158702586Y-93958833D01*
X158533253Y-93916500D01*
X158448586Y-93874166D01*
X158406253Y-93831833D01*
X158363920Y-93747166D01*
X158363920Y-93662500D01*
X158406253Y-93577833D01*
X158448586Y-93535500D01*
X158533253Y-93493166D01*
X158744920Y-93493166D01*
X158871920Y-93535500D01*
X159252920Y-94382166D02*
X159252920Y-93493166D01*
X159464586Y-93493166D01*
X159591586Y-93535500D01*
X159676253Y-93620166D01*
X159718586Y-93704833D01*
X159760920Y-93874166D01*
X159760920Y-94001166D01*
X159718586Y-94170500D01*
X159676253Y-94255166D01*
X159591586Y-94339833D01*
X159464586Y-94382166D01*
X159252920Y-94382166D01*
X160099586Y-94128166D02*
X160522920Y-94128166D01*
X160014920Y-94382166D02*
X160311253Y-93493166D01*
X160607586Y-94382166D01*
X160861586Y-93577833D02*
X160903920Y-93535500D01*
X160988586Y-93493166D01*
X161200253Y-93493166D01*
X161284920Y-93535500D01*
X161327253Y-93577833D01*
X161369586Y-93662500D01*
X161369586Y-93747166D01*
X161327253Y-93874166D01*
X160819253Y-94382166D01*
X161369586Y-94382166D01*
X159422253Y-99419833D02*
X159549253Y-99462166D01*
X159760920Y-99462166D01*
X159845586Y-99419833D01*
X159887920Y-99377500D01*
X159930253Y-99292833D01*
X159930253Y-99208166D01*
X159887920Y-99123500D01*
X159845586Y-99081166D01*
X159760920Y-99038833D01*
X159591586Y-98996500D01*
X159506920Y-98954166D01*
X159464586Y-98911833D01*
X159422253Y-98827166D01*
X159422253Y-98742500D01*
X159464586Y-98657833D01*
X159506920Y-98615500D01*
X159591586Y-98573166D01*
X159803253Y-98573166D01*
X159930253Y-98615500D01*
X160311253Y-99462166D02*
X160311253Y-98573166D01*
X160522920Y-98573166D01*
X160649920Y-98615500D01*
X160734586Y-98700166D01*
X160776920Y-98784833D01*
X160819253Y-98954166D01*
X160819253Y-99081166D01*
X160776920Y-99250500D01*
X160734586Y-99335166D01*
X160649920Y-99419833D01*
X160522920Y-99462166D01*
X160311253Y-99462166D01*
X161200253Y-99462166D02*
X161200253Y-98573166D01*
X159168253Y-101959833D02*
X159295253Y-102002166D01*
X159506920Y-102002166D01*
X159591586Y-101959833D01*
X159633920Y-101917500D01*
X159676253Y-101832833D01*
X159676253Y-101748166D01*
X159633920Y-101663500D01*
X159591586Y-101621166D01*
X159506920Y-101578833D01*
X159337586Y-101536500D01*
X159252920Y-101494166D01*
X159210586Y-101451833D01*
X159168253Y-101367166D01*
X159168253Y-101282500D01*
X159210586Y-101197833D01*
X159252920Y-101155500D01*
X159337586Y-101113166D01*
X159549253Y-101113166D01*
X159676253Y-101155500D01*
X160057253Y-102002166D02*
X160057253Y-101113166D01*
X160268920Y-101113166D01*
X160395920Y-101155500D01*
X160480586Y-101240166D01*
X160522920Y-101324833D01*
X160565253Y-101494166D01*
X160565253Y-101621166D01*
X160522920Y-101790500D01*
X160480586Y-101875166D01*
X160395920Y-101959833D01*
X160268920Y-102002166D01*
X160057253Y-102002166D01*
X161115586Y-101113166D02*
X161284920Y-101113166D01*
X161369586Y-101155500D01*
X161454253Y-101240166D01*
X161496586Y-101409500D01*
X161496586Y-101705833D01*
X161454253Y-101875166D01*
X161369586Y-101959833D01*
X161284920Y-102002166D01*
X161115586Y-102002166D01*
X161030920Y-101959833D01*
X160946253Y-101875166D01*
X160903920Y-101705833D01*
X160903920Y-101409500D01*
X160946253Y-101240166D01*
X161030920Y-101155500D01*
X161115586Y-101113166D01*
X159676253Y-104457500D02*
X159633920Y-104499833D01*
X159506920Y-104542166D01*
X159422253Y-104542166D01*
X159295253Y-104499833D01*
X159210586Y-104415166D01*
X159168253Y-104330500D01*
X159125920Y-104161166D01*
X159125920Y-104034166D01*
X159168253Y-103864833D01*
X159210586Y-103780166D01*
X159295253Y-103695500D01*
X159422253Y-103653166D01*
X159506920Y-103653166D01*
X159633920Y-103695500D01*
X159676253Y-103737833D01*
X160014920Y-104499833D02*
X160141920Y-104542166D01*
X160353586Y-104542166D01*
X160438253Y-104499833D01*
X160480586Y-104457500D01*
X160522920Y-104372833D01*
X160522920Y-104288166D01*
X160480586Y-104203500D01*
X160438253Y-104161166D01*
X160353586Y-104118833D01*
X160184253Y-104076500D01*
X160099586Y-104034166D01*
X160057253Y-103991833D01*
X160014920Y-103907166D01*
X160014920Y-103822500D01*
X160057253Y-103737833D01*
X160099586Y-103695500D01*
X160184253Y-103653166D01*
X160395920Y-103653166D01*
X160522920Y-103695500D01*
X161073253Y-103653166D02*
X161157920Y-103653166D01*
X161242586Y-103695500D01*
X161284920Y-103737833D01*
X161327253Y-103822500D01*
X161369586Y-103991833D01*
X161369586Y-104203500D01*
X161327253Y-104372833D01*
X161284920Y-104457500D01*
X161242586Y-104499833D01*
X161157920Y-104542166D01*
X161073253Y-104542166D01*
X160988586Y-104499833D01*
X160946253Y-104457500D01*
X160903920Y-104372833D01*
X160861586Y-104203500D01*
X160861586Y-103991833D01*
X160903920Y-103822500D01*
X160946253Y-103737833D01*
X160988586Y-103695500D01*
X161073253Y-103653166D01*
X159210586Y-107166833D02*
X159337586Y-107209166D01*
X159549253Y-107209166D01*
X159633920Y-107166833D01*
X159676253Y-107124500D01*
X159718586Y-107039833D01*
X159718586Y-106955166D01*
X159676253Y-106870500D01*
X159633920Y-106828166D01*
X159549253Y-106785833D01*
X159379920Y-106743500D01*
X159295253Y-106701166D01*
X159252920Y-106658833D01*
X159210586Y-106574166D01*
X159210586Y-106489500D01*
X159252920Y-106404833D01*
X159295253Y-106362500D01*
X159379920Y-106320166D01*
X159591586Y-106320166D01*
X159718586Y-106362500D01*
X160607586Y-107124500D02*
X160565253Y-107166833D01*
X160438253Y-107209166D01*
X160353586Y-107209166D01*
X160226586Y-107166833D01*
X160141920Y-107082166D01*
X160099586Y-106997500D01*
X160057253Y-106828166D01*
X160057253Y-106701166D01*
X160099586Y-106531833D01*
X160141920Y-106447166D01*
X160226586Y-106362500D01*
X160353586Y-106320166D01*
X160438253Y-106320166D01*
X160565253Y-106362500D01*
X160607586Y-106404833D01*
X160988586Y-107209166D02*
X160988586Y-106320166D01*
X161496586Y-107209166D02*
X161115586Y-106701166D01*
X161496586Y-106320166D02*
X160988586Y-106828166D01*
X159049720Y-110799033D02*
X159176720Y-110841366D01*
X159388386Y-110841366D01*
X159473053Y-110799033D01*
X159515386Y-110756700D01*
X159557720Y-110672033D01*
X159557720Y-110587366D01*
X159515386Y-110502700D01*
X159473053Y-110460366D01*
X159388386Y-110418033D01*
X159219053Y-110375700D01*
X159134386Y-110333366D01*
X159092053Y-110291033D01*
X159049720Y-110206366D01*
X159049720Y-110121700D01*
X159092053Y-110037033D01*
X159134386Y-109994700D01*
X159219053Y-109952366D01*
X159430720Y-109952366D01*
X159557720Y-109994700D01*
X159938720Y-110841366D02*
X159938720Y-109952366D01*
X160150386Y-109952366D01*
X160277386Y-109994700D01*
X160362053Y-110079366D01*
X160404386Y-110164033D01*
X160446720Y-110333366D01*
X160446720Y-110460366D01*
X160404386Y-110629700D01*
X160362053Y-110714366D01*
X160277386Y-110799033D01*
X160150386Y-110841366D01*
X159938720Y-110841366D01*
X160785386Y-110587366D02*
X161208720Y-110587366D01*
X160700720Y-110841366D02*
X160997053Y-109952366D01*
X161293386Y-110841366D01*
X162055386Y-110841366D02*
X161547386Y-110841366D01*
X161801386Y-110841366D02*
X161801386Y-109952366D01*
X161716720Y-110079366D01*
X161632053Y-110164033D01*
X161547386Y-110206366D01*
X159168253Y-113516833D02*
X159295253Y-113559166D01*
X159506920Y-113559166D01*
X159591586Y-113516833D01*
X159633920Y-113474500D01*
X159676253Y-113389833D01*
X159676253Y-113305166D01*
X159633920Y-113220500D01*
X159591586Y-113178166D01*
X159506920Y-113135833D01*
X159337586Y-113093500D01*
X159252920Y-113051166D01*
X159210586Y-113008833D01*
X159168253Y-112924166D01*
X159168253Y-112839500D01*
X159210586Y-112754833D01*
X159252920Y-112712500D01*
X159337586Y-112670166D01*
X159549253Y-112670166D01*
X159676253Y-112712500D01*
X160565253Y-113474500D02*
X160522920Y-113516833D01*
X160395920Y-113559166D01*
X160311253Y-113559166D01*
X160184253Y-113516833D01*
X160099586Y-113432166D01*
X160057253Y-113347500D01*
X160014920Y-113178166D01*
X160014920Y-113051166D01*
X160057253Y-112881833D01*
X160099586Y-112797166D01*
X160184253Y-112712500D01*
X160311253Y-112670166D01*
X160395920Y-112670166D01*
X160522920Y-112712500D01*
X160565253Y-112754833D01*
X161369586Y-113559166D02*
X160946253Y-113559166D01*
X160946253Y-112670166D01*
X162131586Y-113559166D02*
X161623586Y-113559166D01*
X161877586Y-113559166D02*
X161877586Y-112670166D01*
X161792920Y-112797166D01*
X161708253Y-112881833D01*
X161623586Y-112924166D01*
X141483080Y-76348166D02*
X141059746Y-76348166D01*
X141059746Y-75459166D01*
X141779413Y-75882500D02*
X142075746Y-75882500D01*
X142202746Y-76348166D02*
X141779413Y-76348166D01*
X141779413Y-75459166D01*
X142202746Y-75459166D01*
X142583746Y-76348166D02*
X142583746Y-75459166D01*
X142795413Y-75459166D01*
X142922413Y-75501500D01*
X143007080Y-75586166D01*
X143049413Y-75670833D01*
X143091746Y-75840166D01*
X143091746Y-75967166D01*
X143049413Y-76136500D01*
X143007080Y-76221166D01*
X142922413Y-76305833D01*
X142795413Y-76348166D01*
X142583746Y-76348166D01*
X141059746Y-79142166D02*
X141059746Y-78253166D01*
X141271413Y-78253166D01*
X141398413Y-78295500D01*
X141483080Y-78380166D01*
X141525413Y-78464833D01*
X141567746Y-78634166D01*
X141567746Y-78761166D01*
X141525413Y-78930500D01*
X141483080Y-79015166D01*
X141398413Y-79099833D01*
X141271413Y-79142166D01*
X141059746Y-79142166D01*
X142075746Y-78634166D02*
X141991080Y-78591833D01*
X141948746Y-78549500D01*
X141906413Y-78464833D01*
X141906413Y-78422500D01*
X141948746Y-78337833D01*
X141991080Y-78295500D01*
X142075746Y-78253166D01*
X142245080Y-78253166D01*
X142329746Y-78295500D01*
X142372080Y-78337833D01*
X142414413Y-78422500D01*
X142414413Y-78464833D01*
X142372080Y-78549500D01*
X142329746Y-78591833D01*
X142245080Y-78634166D01*
X142075746Y-78634166D01*
X141991080Y-78676500D01*
X141948746Y-78718833D01*
X141906413Y-78803500D01*
X141906413Y-78972833D01*
X141948746Y-79057500D01*
X141991080Y-79099833D01*
X142075746Y-79142166D01*
X142245080Y-79142166D01*
X142329746Y-79099833D01*
X142372080Y-79057500D01*
X142414413Y-78972833D01*
X142414413Y-78803500D01*
X142372080Y-78718833D01*
X142329746Y-78676500D01*
X142245080Y-78634166D01*
X141059746Y-81682166D02*
X141059746Y-80793166D01*
X141271413Y-80793166D01*
X141398413Y-80835500D01*
X141483080Y-80920166D01*
X141525413Y-81004833D01*
X141567746Y-81174166D01*
X141567746Y-81301166D01*
X141525413Y-81470500D01*
X141483080Y-81555166D01*
X141398413Y-81639833D01*
X141271413Y-81682166D01*
X141059746Y-81682166D01*
X141864080Y-80793166D02*
X142456746Y-80793166D01*
X142075746Y-81682166D01*
X141059746Y-84222166D02*
X141059746Y-83333166D01*
X141271413Y-83333166D01*
X141398413Y-83375500D01*
X141483080Y-83460166D01*
X141525413Y-83544833D01*
X141567746Y-83714166D01*
X141567746Y-83841166D01*
X141525413Y-84010500D01*
X141483080Y-84095166D01*
X141398413Y-84179833D01*
X141271413Y-84222166D01*
X141059746Y-84222166D01*
X142329746Y-83333166D02*
X142160413Y-83333166D01*
X142075746Y-83375500D01*
X142033413Y-83417833D01*
X141948746Y-83544833D01*
X141906413Y-83714166D01*
X141906413Y-84052833D01*
X141948746Y-84137500D01*
X141991080Y-84179833D01*
X142075746Y-84222166D01*
X142245080Y-84222166D01*
X142329746Y-84179833D01*
X142372080Y-84137500D01*
X142414413Y-84052833D01*
X142414413Y-83841166D01*
X142372080Y-83756500D01*
X142329746Y-83714166D01*
X142245080Y-83671833D01*
X142075746Y-83671833D01*
X141991080Y-83714166D01*
X141948746Y-83756500D01*
X141906413Y-83841166D01*
X141059746Y-89302166D02*
X141059746Y-88413166D01*
X141271413Y-88413166D01*
X141398413Y-88455500D01*
X141483080Y-88540166D01*
X141525413Y-88624833D01*
X141567746Y-88794166D01*
X141567746Y-88921166D01*
X141525413Y-89090500D01*
X141483080Y-89175166D01*
X141398413Y-89259833D01*
X141271413Y-89302166D01*
X141059746Y-89302166D01*
X142329746Y-88709500D02*
X142329746Y-89302166D01*
X142118080Y-88370833D02*
X141906413Y-89005833D01*
X142456746Y-89005833D01*
X141059746Y-91461166D02*
X141059746Y-90572166D01*
X141271413Y-90572166D01*
X141398413Y-90614500D01*
X141483080Y-90699166D01*
X141525413Y-90783833D01*
X141567746Y-90953166D01*
X141567746Y-91080166D01*
X141525413Y-91249500D01*
X141483080Y-91334166D01*
X141398413Y-91418833D01*
X141271413Y-91461166D01*
X141059746Y-91461166D01*
X141864080Y-90572166D02*
X142414413Y-90572166D01*
X142118080Y-90910833D01*
X142245080Y-90910833D01*
X142329746Y-90953166D01*
X142372080Y-90995500D01*
X142414413Y-91080166D01*
X142414413Y-91291833D01*
X142372080Y-91376500D01*
X142329746Y-91418833D01*
X142245080Y-91461166D01*
X141991080Y-91461166D01*
X141906413Y-91418833D01*
X141864080Y-91376500D01*
X140678746Y-93239166D02*
X140678746Y-92350166D01*
X140890413Y-92350166D01*
X141017413Y-92392500D01*
X141102080Y-92477166D01*
X141144413Y-92561833D01*
X141186746Y-92731166D01*
X141186746Y-92858166D01*
X141144413Y-93027500D01*
X141102080Y-93112166D01*
X141017413Y-93196833D01*
X140890413Y-93239166D01*
X140678746Y-93239166D01*
X141525413Y-92434833D02*
X141567746Y-92392500D01*
X141652413Y-92350166D01*
X141864080Y-92350166D01*
X141948746Y-92392500D01*
X141991080Y-92434833D01*
X142033413Y-92519500D01*
X142033413Y-92604166D01*
X141991080Y-92731166D01*
X141483080Y-93239166D01*
X142033413Y-93239166D01*
X140805746Y-96668166D02*
X140805746Y-95779166D01*
X141017413Y-95779166D01*
X141144413Y-95821500D01*
X141229080Y-95906166D01*
X141271413Y-95990833D01*
X141313746Y-96160166D01*
X141313746Y-96287166D01*
X141271413Y-96456500D01*
X141229080Y-96541166D01*
X141144413Y-96625833D01*
X141017413Y-96668166D01*
X140805746Y-96668166D01*
X142160413Y-96668166D02*
X141652413Y-96668166D01*
X141906413Y-96668166D02*
X141906413Y-95779166D01*
X141821746Y-95906166D01*
X141737080Y-95990833D01*
X141652413Y-96033166D01*
X141059746Y-86762166D02*
X141059746Y-85873166D01*
X141271413Y-85873166D01*
X141398413Y-85915500D01*
X141483080Y-86000166D01*
X141525413Y-86084833D01*
X141567746Y-86254166D01*
X141567746Y-86381166D01*
X141525413Y-86550500D01*
X141483080Y-86635166D01*
X141398413Y-86719833D01*
X141271413Y-86762166D01*
X141059746Y-86762166D01*
X142372080Y-85873166D02*
X141948746Y-85873166D01*
X141906413Y-86296500D01*
X141948746Y-86254166D01*
X142033413Y-86211833D01*
X142245080Y-86211833D01*
X142329746Y-86254166D01*
X142372080Y-86296500D01*
X142414413Y-86381166D01*
X142414413Y-86592833D01*
X142372080Y-86677500D01*
X142329746Y-86719833D01*
X142245080Y-86762166D01*
X142033413Y-86762166D01*
X141948746Y-86719833D01*
X141906413Y-86677500D01*
D13*
X159805460Y-91694000D02*
X159732889Y-91657714D01*
X159624032Y-91657714D01*
X159515175Y-91694000D01*
X159442603Y-91766571D01*
X159406317Y-91839142D01*
X159370032Y-91984285D01*
X159370032Y-92093142D01*
X159406317Y-92238285D01*
X159442603Y-92310857D01*
X159515175Y-92383428D01*
X159624032Y-92419714D01*
X159696603Y-92419714D01*
X159805460Y-92383428D01*
X159841746Y-92347142D01*
X159841746Y-92093142D01*
X159696603Y-92093142D01*
X160168317Y-92419714D02*
X160168317Y-91657714D01*
X160603746Y-92419714D01*
X160603746Y-91657714D01*
X160966603Y-92419714D02*
X160966603Y-91657714D01*
X161148032Y-91657714D01*
X161256889Y-91694000D01*
X161329460Y-91766571D01*
X161365746Y-91839142D01*
X161402032Y-91984285D01*
X161402032Y-92093142D01*
X161365746Y-92238285D01*
X161329460Y-92310857D01*
X161256889Y-92383428D01*
X161148032Y-92419714D01*
X160966603Y-92419714D01*
D12*
X141356080Y-106616500D02*
X141483080Y-106658833D01*
X141525413Y-106701166D01*
X141567746Y-106785833D01*
X141567746Y-106912833D01*
X141525413Y-106997500D01*
X141483080Y-107039833D01*
X141398413Y-107082166D01*
X141059746Y-107082166D01*
X141059746Y-106193166D01*
X141356080Y-106193166D01*
X141440746Y-106235500D01*
X141483080Y-106277833D01*
X141525413Y-106362500D01*
X141525413Y-106447166D01*
X141483080Y-106531833D01*
X141440746Y-106574166D01*
X141356080Y-106616500D01*
X141059746Y-106616500D01*
X141821746Y-106193166D02*
X142329746Y-106193166D01*
X142075746Y-107082166D02*
X142075746Y-106193166D01*
X142795413Y-106193166D02*
X142880080Y-106193166D01*
X142964746Y-106235500D01*
X143007080Y-106277833D01*
X143049413Y-106362500D01*
X143091746Y-106531833D01*
X143091746Y-106743500D01*
X143049413Y-106912833D01*
X143007080Y-106997500D01*
X142964746Y-107039833D01*
X142880080Y-107082166D01*
X142795413Y-107082166D01*
X142710746Y-107039833D01*
X142668413Y-106997500D01*
X142626080Y-106912833D01*
X142583746Y-106743500D01*
X142583746Y-106531833D01*
X142626080Y-106362500D01*
X142668413Y-106277833D01*
X142710746Y-106235500D01*
X142795413Y-106193166D01*
X141356080Y-104838500D02*
X141483080Y-104880833D01*
X141525413Y-104923166D01*
X141567746Y-105007833D01*
X141567746Y-105134833D01*
X141525413Y-105219500D01*
X141483080Y-105261833D01*
X141398413Y-105304166D01*
X141059746Y-105304166D01*
X141059746Y-104415166D01*
X141356080Y-104415166D01*
X141440746Y-104457500D01*
X141483080Y-104499833D01*
X141525413Y-104584500D01*
X141525413Y-104669166D01*
X141483080Y-104753833D01*
X141440746Y-104796166D01*
X141356080Y-104838500D01*
X141059746Y-104838500D01*
X141821746Y-104415166D02*
X142329746Y-104415166D01*
X142075746Y-105304166D02*
X142075746Y-104415166D01*
X143091746Y-105304166D02*
X142583746Y-105304166D01*
X142837746Y-105304166D02*
X142837746Y-104415166D01*
X142753080Y-104542166D01*
X142668413Y-104626833D01*
X142583746Y-104669166D01*
D13*
X141191796Y-110204250D02*
X141119225Y-110167964D01*
X141010367Y-110167964D01*
X140901510Y-110204250D01*
X140828939Y-110276821D01*
X140792653Y-110349392D01*
X140756367Y-110494535D01*
X140756367Y-110603392D01*
X140792653Y-110748535D01*
X140828939Y-110821107D01*
X140901510Y-110893678D01*
X141010367Y-110929964D01*
X141082939Y-110929964D01*
X141191796Y-110893678D01*
X141228082Y-110857392D01*
X141228082Y-110603392D01*
X141082939Y-110603392D01*
X141554653Y-110929964D02*
X141554653Y-110167964D01*
X141844939Y-110167964D01*
X141917510Y-110204250D01*
X141953796Y-110240535D01*
X141990082Y-110313107D01*
X141990082Y-110421964D01*
X141953796Y-110494535D01*
X141917510Y-110530821D01*
X141844939Y-110567107D01*
X141554653Y-110567107D01*
X142316653Y-110929964D02*
X142316653Y-110167964D01*
X142824653Y-110167964D02*
X142969796Y-110167964D01*
X143042367Y-110204250D01*
X143114939Y-110276821D01*
X143151225Y-110421964D01*
X143151225Y-110675964D01*
X143114939Y-110821107D01*
X143042367Y-110893678D01*
X142969796Y-110929964D01*
X142824653Y-110929964D01*
X142752082Y-110893678D01*
X142679510Y-110821107D01*
X142643225Y-110675964D01*
X142643225Y-110421964D01*
X142679510Y-110276821D01*
X142752082Y-110204250D01*
X142824653Y-110167964D01*
X141191796Y-112263464D02*
X140756367Y-112263464D01*
X140974082Y-112263464D02*
X140974082Y-111501464D01*
X140901510Y-111610321D01*
X140828939Y-111682892D01*
X140756367Y-111719178D01*
X141482082Y-111574035D02*
X141518367Y-111537750D01*
X141590939Y-111501464D01*
X141772367Y-111501464D01*
X141844939Y-111537750D01*
X141881225Y-111574035D01*
X141917510Y-111646607D01*
X141917510Y-111719178D01*
X141881225Y-111828035D01*
X141445796Y-112263464D01*
X141917510Y-112263464D01*
D12*
X141203680Y-108352166D02*
X141373013Y-108352166D01*
X141457680Y-108394500D01*
X141542346Y-108479166D01*
X141584680Y-108648500D01*
X141584680Y-108944833D01*
X141542346Y-109114166D01*
X141457680Y-109198833D01*
X141373013Y-109241166D01*
X141203680Y-109241166D01*
X141119013Y-109198833D01*
X141034346Y-109114166D01*
X140992013Y-108944833D01*
X140992013Y-108648500D01*
X141034346Y-108479166D01*
X141119013Y-108394500D01*
X141203680Y-108352166D01*
X141965680Y-109241166D02*
X141965680Y-108352166D01*
X142473680Y-109241166D01*
X142473680Y-108352166D01*
X140721080Y-73300166D02*
X141271413Y-73300166D01*
X140975080Y-73638833D01*
X141102080Y-73638833D01*
X141186746Y-73681166D01*
X141229080Y-73723500D01*
X141271413Y-73808166D01*
X141271413Y-74019833D01*
X141229080Y-74104500D01*
X141186746Y-74146833D01*
X141102080Y-74189166D01*
X140848080Y-74189166D01*
X140763413Y-74146833D01*
X140721080Y-74104500D01*
X141652413Y-74104500D02*
X141694746Y-74146833D01*
X141652413Y-74189166D01*
X141610080Y-74146833D01*
X141652413Y-74104500D01*
X141652413Y-74189166D01*
X141991080Y-73300166D02*
X142541413Y-73300166D01*
X142245080Y-73638833D01*
X142372080Y-73638833D01*
X142456746Y-73681166D01*
X142499080Y-73723500D01*
X142541413Y-73808166D01*
X142541413Y-74019833D01*
X142499080Y-74104500D01*
X142456746Y-74146833D01*
X142372080Y-74189166D01*
X142118080Y-74189166D01*
X142033413Y-74146833D01*
X141991080Y-74104500D01*
X142795413Y-73300166D02*
X143091746Y-74189166D01*
X143388080Y-73300166D01*
X141483080Y-63394166D02*
X141059746Y-63394166D01*
X141017413Y-63817500D01*
X141059746Y-63775166D01*
X141144413Y-63732833D01*
X141356080Y-63732833D01*
X141440746Y-63775166D01*
X141483080Y-63817500D01*
X141525413Y-63902166D01*
X141525413Y-64113833D01*
X141483080Y-64198500D01*
X141440746Y-64240833D01*
X141356080Y-64283166D01*
X141144413Y-64283166D01*
X141059746Y-64240833D01*
X141017413Y-64198500D01*
X141779413Y-63394166D02*
X142075746Y-64283166D01*
X142372080Y-63394166D01*
X142456746Y-64367833D02*
X143134080Y-64367833D01*
X143345746Y-64283166D02*
X143345746Y-63394166D01*
X143769080Y-64283166D02*
X143769080Y-63394166D01*
X144277080Y-64283166D01*
X144277080Y-63394166D01*
X141398413Y-65595500D02*
X141313746Y-65553166D01*
X141186746Y-65553166D01*
X141059746Y-65595500D01*
X140975080Y-65680166D01*
X140932746Y-65764833D01*
X140890413Y-65934166D01*
X140890413Y-66061166D01*
X140932746Y-66230500D01*
X140975080Y-66315166D01*
X141059746Y-66399833D01*
X141186746Y-66442166D01*
X141271413Y-66442166D01*
X141398413Y-66399833D01*
X141440746Y-66357500D01*
X141440746Y-66061166D01*
X141271413Y-66061166D01*
X141821746Y-66442166D02*
X141821746Y-65553166D01*
X142329746Y-66442166D01*
X142329746Y-65553166D01*
X142753080Y-66442166D02*
X142753080Y-65553166D01*
X142964746Y-65553166D01*
X143091746Y-65595500D01*
X143176413Y-65680166D01*
X143218746Y-65764833D01*
X143261080Y-65934166D01*
X143261080Y-66061166D01*
X143218746Y-66230500D01*
X143176413Y-66315166D01*
X143091746Y-66399833D01*
X142964746Y-66442166D01*
X142753080Y-66442166D01*
X141440746Y-69007566D02*
X141144413Y-68584233D01*
X140932746Y-69007566D02*
X140932746Y-68118566D01*
X141271413Y-68118566D01*
X141356080Y-68160900D01*
X141398413Y-68203233D01*
X141440746Y-68287900D01*
X141440746Y-68414900D01*
X141398413Y-68499566D01*
X141356080Y-68541900D01*
X141271413Y-68584233D01*
X140932746Y-68584233D01*
X141737080Y-68118566D02*
X142329746Y-69007566D01*
X142329746Y-68118566D02*
X141737080Y-69007566D01*
X142668413Y-69007566D02*
X142668413Y-68118566D01*
X142880080Y-68118566D01*
X143007080Y-68160900D01*
X143091746Y-68245566D01*
X143134080Y-68330233D01*
X143176413Y-68499566D01*
X143176413Y-68626566D01*
X143134080Y-68795900D01*
X143091746Y-68880566D01*
X143007080Y-68965233D01*
X142880080Y-69007566D01*
X142668413Y-69007566D01*
X140907346Y-70607766D02*
X141415346Y-70607766D01*
X141161346Y-71496766D02*
X141161346Y-70607766D01*
X141627013Y-70607766D02*
X142219680Y-71496766D01*
X142219680Y-70607766D02*
X141627013Y-71496766D01*
X142558346Y-71496766D02*
X142558346Y-70607766D01*
X142770013Y-70607766D01*
X142897013Y-70650100D01*
X142981680Y-70734766D01*
X143024013Y-70819433D01*
X143066346Y-70988766D01*
X143066346Y-71115766D01*
X143024013Y-71285100D01*
X142981680Y-71369766D01*
X142897013Y-71454433D01*
X142770013Y-71496766D01*
X142558346Y-71496766D01*
D15*
X145880000Y-90975000D02*
X145880000Y-80475000D01*
X145880000Y-80475000D02*
X156380000Y-80475000D01*
X156380000Y-80475000D02*
X156380000Y-90975000D01*
X156380000Y-90975000D02*
X145880000Y-90975000D01*
D11*
X144780000Y-80115518D02*
G75*
G03X144780000Y-80115518I-275482J0D01*
G01*
D16*
X146980000Y-81325000D02*
G75*
G03X146980000Y-81325000I-250000J0D01*
G01*
D11*
X145505000Y-110303000D02*
X145505000Y-107803000D01*
X156755000Y-110303000D02*
X156755000Y-107803000D01*
X147130000Y-106228000D02*
X155130000Y-106228000D01*
X145505000Y-112228000D02*
X156755000Y-112228000D01*
X151330000Y-111928000D02*
X151330000Y-111028000D01*
X151330000Y-111028000D02*
X149430000Y-111028000D01*
X149430000Y-111028000D02*
X149430000Y-109628000D01*
X149430000Y-109628000D02*
X151030000Y-109628000D01*
X151030000Y-109628000D02*
X152130000Y-109028000D01*
X152230000Y-109628000D02*
X153930000Y-109628000D01*
X153930000Y-109628000D02*
X153930000Y-111028000D01*
X153930000Y-111028000D02*
X152030000Y-111028000D01*
X152030000Y-111028000D02*
X152030000Y-111928000D01*
X152030000Y-111928000D02*
X152030000Y-111928000D01*
D17*
X151378528Y-108979472D02*
G75*
G02X151730000Y-109828000I-848528J-848528D01*
G01*
X151730000Y-109828000D02*
X151830000Y-109728000D01*
X151730000Y-109828000D02*
X151630000Y-109728000D01*
D11*
X144223000Y-103954000D02*
X144223000Y-99754000D01*
X144223000Y-99754000D02*
X144323000Y-99754000D01*
X144223000Y-103954000D02*
X144323000Y-103954000D01*
X147523000Y-103954000D02*
X147623000Y-103954000D01*
X147623000Y-103954000D02*
X147623000Y-99754000D01*
X147623000Y-99754000D02*
X147523000Y-99754000D01*
X146423000Y-99754000D02*
X145423000Y-99754000D01*
X146423000Y-103954000D02*
X145423000Y-103954000D01*
X149733000Y-100101400D02*
X149733000Y-101142800D01*
X149567900Y-101028500D02*
X149567900Y-100203000D01*
X149720300Y-100063300D02*
X149580600Y-100190300D01*
X149720300Y-101155500D02*
X149567900Y-101028500D01*
D18*
X151159200Y-100359400D02*
X151289200Y-100249400D01*
X151299200Y-100229400D02*
X151219200Y-100239400D01*
X151299200Y-100229400D02*
X151299200Y-100309400D01*
X151083800Y-100229400D02*
X151083800Y-100309400D01*
X151083800Y-100229400D02*
X151003800Y-100239400D01*
X150952200Y-100338400D02*
X151082200Y-100228400D01*
D10*
X151030000Y-100694000D02*
X151030000Y-100474000D01*
X151220000Y-100474000D02*
X151120000Y-100574000D01*
X151220000Y-100694000D02*
X151110000Y-100594000D01*
X151220000Y-100694000D02*
X151220000Y-100474000D01*
X151390000Y-100584000D02*
X150870000Y-100584000D01*
D17*
X150749000Y-101219000D02*
X149733000Y-101219000D01*
X149733000Y-99999800D02*
X150749000Y-99999800D01*
D11*
X143637000Y-96647000D02*
X142621000Y-96647000D01*
X143637000Y-98171000D02*
X142621000Y-98171000D01*
X157226000Y-77470000D02*
X158242000Y-77470000D01*
X157226000Y-75946000D02*
X158242000Y-75946000D01*
X158115000Y-94361000D02*
X157099000Y-94361000D01*
X158115000Y-95885000D02*
X157099000Y-95885000D01*
X155765500Y-96901000D02*
X155765500Y-97155000D01*
X155765500Y-96901000D02*
X155765500Y-96647000D01*
X156654500Y-96901000D02*
X156654500Y-96647000D01*
X156654500Y-96901000D02*
X156654500Y-97155000D01*
X152781000Y-97853500D02*
X152527000Y-97853500D01*
X152781000Y-97853500D02*
X153035000Y-97853500D01*
X152781000Y-98742500D02*
X153035000Y-98742500D01*
X152781000Y-98742500D02*
X152527000Y-98742500D01*
X150368000Y-94424500D02*
X150114000Y-94424500D01*
X150368000Y-94424500D02*
X150622000Y-94424500D01*
X150368000Y-95313500D02*
X150622000Y-95313500D01*
X150368000Y-95313500D02*
X150114000Y-95313500D01*
X148209000Y-95313500D02*
X148463000Y-95313500D01*
X148209000Y-95313500D02*
X147955000Y-95313500D01*
X148209000Y-94424500D02*
X147955000Y-94424500D01*
X148209000Y-94424500D02*
X148463000Y-94424500D01*
X159575500Y-84709000D02*
X159575500Y-84963000D01*
X159575500Y-84709000D02*
X159575500Y-84455000D01*
X160464500Y-84709000D02*
X160464500Y-84455000D01*
X160464500Y-84709000D02*
X160464500Y-84963000D01*
X149352000Y-77406500D02*
X149606000Y-77406500D01*
X149352000Y-77406500D02*
X149098000Y-77406500D01*
X149352000Y-76517500D02*
X149098000Y-76517500D01*
X149352000Y-76517500D02*
X149606000Y-76517500D01*
X156527500Y-93345000D02*
X156527500Y-93599000D01*
X156527500Y-93345000D02*
X156527500Y-93091000D01*
X157416500Y-93345000D02*
X157416500Y-93091000D01*
X157416500Y-93345000D02*
X157416500Y-93599000D01*
X158369000Y-93281500D02*
X158623000Y-93281500D01*
X158369000Y-93281500D02*
X158115000Y-93281500D01*
X158369000Y-92392500D02*
X158115000Y-92392500D01*
X158369000Y-92392500D02*
X158623000Y-92392500D01*
X145161000Y-76517500D02*
X144907000Y-76517500D01*
X145161000Y-76517500D02*
X145415000Y-76517500D01*
X145161000Y-77406500D02*
X145415000Y-77406500D01*
X145161000Y-77406500D02*
X144907000Y-77406500D01*
X154686000Y-97853500D02*
X154432000Y-97853500D01*
X154686000Y-97853500D02*
X154940000Y-97853500D01*
X154686000Y-98742500D02*
X154940000Y-98742500D01*
X154686000Y-98742500D02*
X154432000Y-98742500D01*
X142811500Y-102870000D02*
X142811500Y-103124000D01*
X142811500Y-102870000D02*
X142811500Y-102616000D01*
X143700500Y-102870000D02*
X143700500Y-102616000D01*
X143700500Y-102870000D02*
X143700500Y-103124000D01*
X153606500Y-74930000D02*
X153606500Y-74676000D01*
X153606500Y-74930000D02*
X153606500Y-75184000D01*
X152717500Y-74930000D02*
X152717500Y-75184000D01*
X152717500Y-74930000D02*
X152717500Y-74676000D01*
X149733000Y-101879400D02*
X149733000Y-102920800D01*
X149567900Y-102806500D02*
X149567900Y-101981000D01*
X149720300Y-101841300D02*
X149580600Y-101968300D01*
X149720300Y-102933500D02*
X149567900Y-102806500D01*
D18*
X151159200Y-102137400D02*
X151289200Y-102027400D01*
X151299200Y-102007400D02*
X151219200Y-102017400D01*
X151299200Y-102007400D02*
X151299200Y-102087400D01*
X151083800Y-102007400D02*
X151083800Y-102087400D01*
X151083800Y-102007400D02*
X151003800Y-102017400D01*
X150952200Y-102116400D02*
X151082200Y-102006400D01*
D10*
X151030000Y-102472000D02*
X151030000Y-102252000D01*
X151220000Y-102252000D02*
X151120000Y-102352000D01*
X151220000Y-102472000D02*
X151110000Y-102372000D01*
X151220000Y-102472000D02*
X151220000Y-102252000D01*
X151390000Y-102362000D02*
X150870000Y-102362000D01*
D17*
X150749000Y-102997000D02*
X149733000Y-102997000D01*
X149733000Y-101777800D02*
X150749000Y-101777800D01*
D11*
X156837000Y-103954000D02*
X155837000Y-103954000D01*
X156837000Y-99754000D02*
X155837000Y-99754000D01*
X158037000Y-99754000D02*
X157937000Y-99754000D01*
X158037000Y-103954000D02*
X158037000Y-99754000D01*
X157937000Y-103954000D02*
X158037000Y-103954000D01*
X154637000Y-103954000D02*
X154737000Y-103954000D01*
X154637000Y-99754000D02*
X154737000Y-99754000D01*
X154637000Y-103954000D02*
X154637000Y-99754000D01*
D17*
X148018500Y-96647000D02*
X148209000Y-96647000D01*
X148971000Y-96647000D02*
X149161500Y-96647000D01*
X148971000Y-96266000D02*
X148971000Y-97028000D01*
X148209000Y-97028000D02*
X148209000Y-96266000D01*
X148463000Y-97028000D02*
X148463000Y-96266000D01*
X148717000Y-97028000D02*
X148463000Y-97028000D01*
X148717000Y-96266000D02*
X148717000Y-97028000D01*
X148463000Y-96266000D02*
X148717000Y-96266000D01*
D11*
X149090000Y-97397000D02*
X148090000Y-97397000D01*
X149090000Y-95897000D02*
X148090000Y-95897000D01*
X151540981Y-76454000D02*
G75*
G03X151540981Y-76454000I-283981J0D01*
G01*
X146050000Y-71120000D02*
X149860000Y-71120000D01*
X146050000Y-75946000D02*
X149606000Y-75946000D01*
X149854920Y-71135240D02*
X149854920Y-75666600D01*
X149854920Y-75666600D02*
X149588220Y-75930760D01*
X146055080Y-75930760D02*
X146055080Y-71135240D01*
X153289000Y-94869000D02*
X153797000Y-94869000D01*
X153289000Y-97409000D02*
X153797000Y-97409000D01*
X142264000Y-94288000D02*
X142264000Y-94688000D01*
X145264000Y-94288000D02*
X145264000Y-94688000D01*
D19*
X144514000Y-94338000D02*
X144864000Y-94338000D01*
X143014000Y-94338000D02*
X142664000Y-94338000D01*
X143514000Y-94388000D02*
G75*
G02X143014000Y-94388000I-250000J0D01*
G01*
X144514000Y-94388000D02*
G75*
G02X144014000Y-94388000I-250000J0D01*
G01*
X144014000Y-94388000D02*
G75*
G02X143514000Y-94388000I-250000J0D01*
G01*
D17*
X144780000Y-65608200D02*
X144780000Y-66446400D01*
X146558000Y-65608200D02*
X146558000Y-66446400D01*
D11*
X147430000Y-62116000D02*
X154830000Y-62116000D01*
X154830000Y-66616000D02*
X154830000Y-65416000D01*
X152930000Y-68116000D02*
X153930000Y-68116000D01*
X148330000Y-68116000D02*
X149330000Y-68116000D01*
X147430000Y-63116000D02*
X147430000Y-62116000D01*
X147066000Y-61016000D02*
X155194000Y-61016000D01*
X154830000Y-62116000D02*
X154830000Y-63116000D01*
X147430000Y-66616000D02*
X147430000Y-65416000D01*
X147066000Y-61087000D02*
X147447000Y-62103000D01*
X155194000Y-61087000D02*
X154813000Y-62103000D01*
X144005904Y-78310619D02*
X144005904Y-79133095D01*
X144054285Y-79229857D01*
X144102666Y-79278238D01*
X144199428Y-79326619D01*
X144392952Y-79326619D01*
X144489714Y-79278238D01*
X144538095Y-79229857D01*
X144586476Y-79133095D01*
X144586476Y-78310619D01*
X145505714Y-78649285D02*
X145505714Y-79326619D01*
X145263809Y-78262238D02*
X145021904Y-78987952D01*
X145650857Y-78987952D01*
X147265571Y-105742619D02*
X147265571Y-104726619D01*
X147604238Y-105452333D01*
X147942904Y-104726619D01*
X147942904Y-105742619D01*
X148426714Y-105742619D02*
X148426714Y-104726619D01*
X149491095Y-105645857D02*
X149442714Y-105694238D01*
X149297571Y-105742619D01*
X149200809Y-105742619D01*
X149055666Y-105694238D01*
X148958904Y-105597476D01*
X148910523Y-105500714D01*
X148862142Y-105307190D01*
X148862142Y-105162047D01*
X148910523Y-104968523D01*
X148958904Y-104871761D01*
X149055666Y-104775000D01*
X149200809Y-104726619D01*
X149297571Y-104726619D01*
X149442714Y-104775000D01*
X149491095Y-104823380D01*
X150507095Y-105742619D02*
X150168428Y-105258809D01*
X149926523Y-105742619D02*
X149926523Y-104726619D01*
X150313571Y-104726619D01*
X150410333Y-104775000D01*
X150458714Y-104823380D01*
X150507095Y-104920142D01*
X150507095Y-105065285D01*
X150458714Y-105162047D01*
X150410333Y-105210428D01*
X150313571Y-105258809D01*
X149926523Y-105258809D01*
X151136047Y-104726619D02*
X151329571Y-104726619D01*
X151426333Y-104775000D01*
X151523095Y-104871761D01*
X151571476Y-105065285D01*
X151571476Y-105403952D01*
X151523095Y-105597476D01*
X151426333Y-105694238D01*
X151329571Y-105742619D01*
X151136047Y-105742619D01*
X151039285Y-105694238D01*
X150942523Y-105597476D01*
X150894142Y-105403952D01*
X150894142Y-105065285D01*
X150942523Y-104871761D01*
X151039285Y-104775000D01*
X151136047Y-104726619D01*
X151765000Y-105839380D02*
X152539095Y-105839380D01*
X152732619Y-105694238D02*
X152877761Y-105742619D01*
X153119666Y-105742619D01*
X153216428Y-105694238D01*
X153264809Y-105645857D01*
X153313190Y-105549095D01*
X153313190Y-105452333D01*
X153264809Y-105355571D01*
X153216428Y-105307190D01*
X153119666Y-105258809D01*
X152926142Y-105210428D01*
X152829380Y-105162047D01*
X152781000Y-105113666D01*
X152732619Y-105016904D01*
X152732619Y-104920142D01*
X152781000Y-104823380D01*
X152829380Y-104775000D01*
X152926142Y-104726619D01*
X153168047Y-104726619D01*
X153313190Y-104775000D01*
X153748619Y-105742619D02*
X153748619Y-104726619D01*
X153990523Y-104726619D01*
X154135666Y-104775000D01*
X154232428Y-104871761D01*
X154280809Y-104968523D01*
X154329190Y-105162047D01*
X154329190Y-105307190D01*
X154280809Y-105500714D01*
X154232428Y-105597476D01*
X154135666Y-105694238D01*
X153990523Y-105742619D01*
X153748619Y-105742619D01*
X155296809Y-105742619D02*
X154716238Y-105742619D01*
X155006523Y-105742619D02*
X155006523Y-104726619D01*
X154909761Y-104871761D01*
X154813000Y-104968523D01*
X154716238Y-105016904D01*
D20*
X149558571Y-107506571D02*
X149534761Y-107530380D01*
X149463333Y-107554190D01*
X149415714Y-107554190D01*
X149344285Y-107530380D01*
X149296666Y-107482761D01*
X149272857Y-107435142D01*
X149249047Y-107339904D01*
X149249047Y-107268476D01*
X149272857Y-107173238D01*
X149296666Y-107125619D01*
X149344285Y-107078000D01*
X149415714Y-107054190D01*
X149463333Y-107054190D01*
X149534761Y-107078000D01*
X149558571Y-107101809D01*
X149987142Y-107554190D02*
X149987142Y-107292285D01*
X149963333Y-107244666D01*
X149915714Y-107220857D01*
X149820476Y-107220857D01*
X149772857Y-107244666D01*
X149987142Y-107530380D02*
X149939523Y-107554190D01*
X149820476Y-107554190D01*
X149772857Y-107530380D01*
X149749047Y-107482761D01*
X149749047Y-107435142D01*
X149772857Y-107387523D01*
X149820476Y-107363714D01*
X149939523Y-107363714D01*
X149987142Y-107339904D01*
X150225238Y-107554190D02*
X150225238Y-107220857D01*
X150225238Y-107316095D02*
X150249047Y-107268476D01*
X150272857Y-107244666D01*
X150320476Y-107220857D01*
X150368095Y-107220857D01*
X150749047Y-107554190D02*
X150749047Y-107054190D01*
X150749047Y-107530380D02*
X150701428Y-107554190D01*
X150606190Y-107554190D01*
X150558571Y-107530380D01*
X150534761Y-107506571D01*
X150510952Y-107458952D01*
X150510952Y-107316095D01*
X150534761Y-107268476D01*
X150558571Y-107244666D01*
X150606190Y-107220857D01*
X150701428Y-107220857D01*
X150749047Y-107244666D01*
X151368095Y-107554190D02*
X151368095Y-107054190D01*
X151487142Y-107054190D01*
X151558571Y-107078000D01*
X151606190Y-107125619D01*
X151630000Y-107173238D01*
X151653809Y-107268476D01*
X151653809Y-107339904D01*
X151630000Y-107435142D01*
X151606190Y-107482761D01*
X151558571Y-107530380D01*
X151487142Y-107554190D01*
X151368095Y-107554190D01*
X152058571Y-107530380D02*
X152010952Y-107554190D01*
X151915714Y-107554190D01*
X151868095Y-107530380D01*
X151844285Y-107482761D01*
X151844285Y-107292285D01*
X151868095Y-107244666D01*
X151915714Y-107220857D01*
X152010952Y-107220857D01*
X152058571Y-107244666D01*
X152082380Y-107292285D01*
X152082380Y-107339904D01*
X151844285Y-107387523D01*
X152225238Y-107220857D02*
X152415714Y-107220857D01*
X152296666Y-107054190D02*
X152296666Y-107482761D01*
X152320476Y-107530380D01*
X152368095Y-107554190D01*
X152415714Y-107554190D01*
X152772857Y-107530380D02*
X152725238Y-107554190D01*
X152630000Y-107554190D01*
X152582380Y-107530380D01*
X152558571Y-107482761D01*
X152558571Y-107292285D01*
X152582380Y-107244666D01*
X152630000Y-107220857D01*
X152725238Y-107220857D01*
X152772857Y-107244666D01*
X152796666Y-107292285D01*
X152796666Y-107339904D01*
X152558571Y-107387523D01*
X153225238Y-107530380D02*
X153177619Y-107554190D01*
X153082380Y-107554190D01*
X153034761Y-107530380D01*
X153010952Y-107506571D01*
X152987142Y-107458952D01*
X152987142Y-107316095D01*
X153010952Y-107268476D01*
X153034761Y-107244666D01*
X153082380Y-107220857D01*
X153177619Y-107220857D01*
X153225238Y-107244666D01*
X153368095Y-107220857D02*
X153558571Y-107220857D01*
X153439523Y-107054190D02*
X153439523Y-107482761D01*
X153463333Y-107530380D01*
X153510952Y-107554190D01*
X153558571Y-107554190D01*
X147653809Y-108554190D02*
X147653809Y-108054190D01*
X147939523Y-108554190D01*
X147939523Y-108054190D01*
X148249047Y-108554190D02*
X148201428Y-108530380D01*
X148177619Y-108506571D01*
X148153809Y-108458952D01*
X148153809Y-108316095D01*
X148177619Y-108268476D01*
X148201428Y-108244666D01*
X148249047Y-108220857D01*
X148320476Y-108220857D01*
X148368095Y-108244666D01*
X148391904Y-108268476D01*
X148415714Y-108316095D01*
X148415714Y-108458952D01*
X148391904Y-108506571D01*
X148368095Y-108530380D01*
X148320476Y-108554190D01*
X148249047Y-108554190D01*
X148630000Y-108554190D02*
X148630000Y-108220857D01*
X148630000Y-108316095D02*
X148653809Y-108268476D01*
X148677619Y-108244666D01*
X148725238Y-108220857D01*
X148772857Y-108220857D01*
X148939523Y-108554190D02*
X148939523Y-108220857D01*
X148939523Y-108268476D02*
X148963333Y-108244666D01*
X149010952Y-108220857D01*
X149082380Y-108220857D01*
X149130000Y-108244666D01*
X149153809Y-108292285D01*
X149153809Y-108554190D01*
X149153809Y-108292285D02*
X149177619Y-108244666D01*
X149225238Y-108220857D01*
X149296666Y-108220857D01*
X149344285Y-108244666D01*
X149368095Y-108292285D01*
X149368095Y-108554190D01*
X149820476Y-108554190D02*
X149820476Y-108292285D01*
X149796666Y-108244666D01*
X149749047Y-108220857D01*
X149653809Y-108220857D01*
X149606190Y-108244666D01*
X149820476Y-108530380D02*
X149772857Y-108554190D01*
X149653809Y-108554190D01*
X149606190Y-108530380D01*
X149582380Y-108482761D01*
X149582380Y-108435142D01*
X149606190Y-108387523D01*
X149653809Y-108363714D01*
X149772857Y-108363714D01*
X149820476Y-108339904D01*
X150130000Y-108554190D02*
X150082380Y-108530380D01*
X150058571Y-108482761D01*
X150058571Y-108054190D01*
X150796666Y-108054190D02*
X150891904Y-108054190D01*
X150939523Y-108078000D01*
X150987142Y-108125619D01*
X151010952Y-108220857D01*
X151010952Y-108387523D01*
X150987142Y-108482761D01*
X150939523Y-108530380D01*
X150891904Y-108554190D01*
X150796666Y-108554190D01*
X150749047Y-108530380D01*
X150701428Y-108482761D01*
X150677619Y-108387523D01*
X150677619Y-108220857D01*
X150701428Y-108125619D01*
X150749047Y-108078000D01*
X150796666Y-108054190D01*
X151225238Y-108220857D02*
X151225238Y-108720857D01*
X151225238Y-108244666D02*
X151272857Y-108220857D01*
X151368095Y-108220857D01*
X151415714Y-108244666D01*
X151439523Y-108268476D01*
X151463333Y-108316095D01*
X151463333Y-108458952D01*
X151439523Y-108506571D01*
X151415714Y-108530380D01*
X151368095Y-108554190D01*
X151272857Y-108554190D01*
X151225238Y-108530380D01*
X151868095Y-108530380D02*
X151820476Y-108554190D01*
X151725238Y-108554190D01*
X151677619Y-108530380D01*
X151653809Y-108482761D01*
X151653809Y-108292285D01*
X151677619Y-108244666D01*
X151725238Y-108220857D01*
X151820476Y-108220857D01*
X151868095Y-108244666D01*
X151891904Y-108292285D01*
X151891904Y-108339904D01*
X151653809Y-108387523D01*
X152106190Y-108220857D02*
X152106190Y-108554190D01*
X152106190Y-108268476D02*
X152130000Y-108244666D01*
X152177619Y-108220857D01*
X152249047Y-108220857D01*
X152296666Y-108244666D01*
X152320476Y-108292285D01*
X152320476Y-108554190D01*
X152915714Y-108530380D02*
X152987142Y-108554190D01*
X153106190Y-108554190D01*
X153153809Y-108530380D01*
X153177619Y-108506571D01*
X153201428Y-108458952D01*
X153201428Y-108411333D01*
X153177619Y-108363714D01*
X153153809Y-108339904D01*
X153106190Y-108316095D01*
X153010952Y-108292285D01*
X152963333Y-108268476D01*
X152939523Y-108244666D01*
X152915714Y-108197047D01*
X152915714Y-108149428D01*
X152939523Y-108101809D01*
X152963333Y-108078000D01*
X153010952Y-108054190D01*
X153130000Y-108054190D01*
X153201428Y-108078000D01*
X153368095Y-108220857D02*
X153463333Y-108554190D01*
X153558571Y-108316095D01*
X153653809Y-108554190D01*
X153749047Y-108220857D01*
X153939523Y-108554190D02*
X153939523Y-108220857D01*
X153939523Y-108054190D02*
X153915714Y-108078000D01*
X153939523Y-108101809D01*
X153963333Y-108078000D01*
X153939523Y-108054190D01*
X153939523Y-108101809D01*
X154106190Y-108220857D02*
X154296666Y-108220857D01*
X154177619Y-108054190D02*
X154177619Y-108482761D01*
X154201428Y-108530380D01*
X154249047Y-108554190D01*
X154296666Y-108554190D01*
X154677619Y-108530380D02*
X154630000Y-108554190D01*
X154534761Y-108554190D01*
X154487142Y-108530380D01*
X154463333Y-108506571D01*
X154439523Y-108458952D01*
X154439523Y-108316095D01*
X154463333Y-108268476D01*
X154487142Y-108244666D01*
X154534761Y-108220857D01*
X154630000Y-108220857D01*
X154677619Y-108244666D01*
X154891904Y-108554190D02*
X154891904Y-108054190D01*
X155106190Y-108554190D02*
X155106190Y-108292285D01*
X155082380Y-108244666D01*
X155034761Y-108220857D01*
X154963333Y-108220857D01*
X154915714Y-108244666D01*
X154891904Y-108268476D01*
D11*
X144275628Y-108949066D02*
X144324009Y-108803923D01*
X144372390Y-108755542D01*
X144469152Y-108707161D01*
X144614295Y-108707161D01*
X144711057Y-108755542D01*
X144759438Y-108803923D01*
X144807819Y-108900685D01*
X144807819Y-109287733D01*
X143791819Y-109287733D01*
X143791819Y-108949066D01*
X143840200Y-108852304D01*
X143888580Y-108803923D01*
X143985342Y-108755542D01*
X144082104Y-108755542D01*
X144178866Y-108803923D01*
X144227247Y-108852304D01*
X144275628Y-108949066D01*
X144275628Y-109287733D01*
X143791819Y-108078209D02*
X143791819Y-107884685D01*
X143840200Y-107787923D01*
X143936961Y-107691161D01*
X144130485Y-107642780D01*
X144469152Y-107642780D01*
X144662676Y-107691161D01*
X144759438Y-107787923D01*
X144807819Y-107884685D01*
X144807819Y-108078209D01*
X144759438Y-108174971D01*
X144662676Y-108271733D01*
X144469152Y-108320114D01*
X144130485Y-108320114D01*
X143936961Y-108271733D01*
X143840200Y-108174971D01*
X143791819Y-108078209D01*
X143791819Y-107013828D02*
X143791819Y-106820304D01*
X143840200Y-106723542D01*
X143936961Y-106626780D01*
X144130485Y-106578400D01*
X144469152Y-106578400D01*
X144662676Y-106626780D01*
X144759438Y-106723542D01*
X144807819Y-106820304D01*
X144807819Y-107013828D01*
X144759438Y-107110590D01*
X144662676Y-107207352D01*
X144469152Y-107255733D01*
X144130485Y-107255733D01*
X143936961Y-107207352D01*
X143840200Y-107110590D01*
X143791819Y-107013828D01*
X143791819Y-106288114D02*
X143791819Y-105707542D01*
X144807819Y-105997828D02*
X143791819Y-105997828D01*
X144807819Y-104836685D02*
X144807819Y-105417257D01*
X144807819Y-105126971D02*
X143791819Y-105126971D01*
X143936961Y-105223733D01*
X144033723Y-105320495D01*
X144082104Y-105417257D01*
D13*
X149751142Y-99785714D02*
X149751142Y-99023714D01*
X150041428Y-99023714D01*
X150114000Y-99060000D01*
X150150285Y-99096285D01*
X150186571Y-99168857D01*
X150186571Y-99277714D01*
X150150285Y-99350285D01*
X150114000Y-99386571D01*
X150041428Y-99422857D01*
X149751142Y-99422857D01*
X150440571Y-99023714D02*
X150622000Y-99785714D01*
X150767142Y-99241428D01*
X150912285Y-99785714D01*
X151093714Y-99023714D01*
X151819428Y-99785714D02*
X151565428Y-99422857D01*
X151384000Y-99785714D02*
X151384000Y-99023714D01*
X151674285Y-99023714D01*
X151746857Y-99060000D01*
X151783142Y-99096285D01*
X151819428Y-99168857D01*
X151819428Y-99277714D01*
X151783142Y-99350285D01*
X151746857Y-99386571D01*
X151674285Y-99422857D01*
X151384000Y-99422857D01*
X152545142Y-99785714D02*
X152109714Y-99785714D01*
X152327428Y-99785714D02*
X152327428Y-99023714D01*
X152254857Y-99132571D01*
X152182285Y-99205142D01*
X152109714Y-99241428D01*
X145179142Y-98062142D02*
X145142857Y-98098428D01*
X145034000Y-98134714D01*
X144961428Y-98134714D01*
X144852571Y-98098428D01*
X144780000Y-98025857D01*
X144743714Y-97953285D01*
X144707428Y-97808142D01*
X144707428Y-97699285D01*
X144743714Y-97554142D01*
X144780000Y-97481571D01*
X144852571Y-97409000D01*
X144961428Y-97372714D01*
X145034000Y-97372714D01*
X145142857Y-97409000D01*
X145179142Y-97445285D01*
X145433142Y-97372714D02*
X145904857Y-97372714D01*
X145650857Y-97663000D01*
X145759714Y-97663000D01*
X145832285Y-97699285D01*
X145868571Y-97735571D01*
X145904857Y-97808142D01*
X145904857Y-97989571D01*
X145868571Y-98062142D01*
X145832285Y-98098428D01*
X145759714Y-98134714D01*
X145542000Y-98134714D01*
X145469428Y-98098428D01*
X145433142Y-98062142D01*
X146558000Y-97626714D02*
X146558000Y-98134714D01*
X146376571Y-97336428D02*
X146195142Y-97880714D01*
X146666857Y-97880714D01*
X155194000Y-76980142D02*
X155157714Y-77016428D01*
X155048857Y-77052714D01*
X154976285Y-77052714D01*
X154867428Y-77016428D01*
X154794857Y-76943857D01*
X154758571Y-76871285D01*
X154722285Y-76726142D01*
X154722285Y-76617285D01*
X154758571Y-76472142D01*
X154794857Y-76399571D01*
X154867428Y-76327000D01*
X154976285Y-76290714D01*
X155048857Y-76290714D01*
X155157714Y-76327000D01*
X155194000Y-76363285D01*
X155448000Y-76290714D02*
X155919714Y-76290714D01*
X155665714Y-76581000D01*
X155774571Y-76581000D01*
X155847142Y-76617285D01*
X155883428Y-76653571D01*
X155919714Y-76726142D01*
X155919714Y-76907571D01*
X155883428Y-76980142D01*
X155847142Y-77016428D01*
X155774571Y-77052714D01*
X155556857Y-77052714D01*
X155484285Y-77016428D01*
X155448000Y-76980142D01*
X155575000Y-94252142D02*
X155538714Y-94288428D01*
X155429857Y-94324714D01*
X155357285Y-94324714D01*
X155248428Y-94288428D01*
X155175857Y-94215857D01*
X155139571Y-94143285D01*
X155103285Y-93998142D01*
X155103285Y-93889285D01*
X155139571Y-93744142D01*
X155175857Y-93671571D01*
X155248428Y-93599000D01*
X155357285Y-93562714D01*
X155429857Y-93562714D01*
X155538714Y-93599000D01*
X155575000Y-93635285D01*
X155865285Y-93635285D02*
X155901571Y-93599000D01*
X155974142Y-93562714D01*
X156155571Y-93562714D01*
X156228142Y-93599000D01*
X156264428Y-93635285D01*
X156300714Y-93707857D01*
X156300714Y-93780428D01*
X156264428Y-93889285D01*
X155829000Y-94324714D01*
X156300714Y-94324714D01*
X157625142Y-97517857D02*
X157661428Y-97554142D01*
X157697714Y-97663000D01*
X157697714Y-97735571D01*
X157661428Y-97844428D01*
X157588857Y-97917000D01*
X157516285Y-97953285D01*
X157371142Y-97989571D01*
X157262285Y-97989571D01*
X157117142Y-97953285D01*
X157044571Y-97917000D01*
X156972000Y-97844428D01*
X156935714Y-97735571D01*
X156935714Y-97663000D01*
X156972000Y-97554142D01*
X157008285Y-97517857D01*
X156935714Y-97263857D02*
X156935714Y-96792142D01*
X157226000Y-97046142D01*
X157226000Y-96937285D01*
X157262285Y-96864714D01*
X157298571Y-96828428D01*
X157371142Y-96792142D01*
X157552571Y-96792142D01*
X157625142Y-96828428D01*
X157661428Y-96864714D01*
X157697714Y-96937285D01*
X157697714Y-97155000D01*
X157661428Y-97227571D01*
X157625142Y-97263857D01*
X157008285Y-96501857D02*
X156972000Y-96465571D01*
X156935714Y-96393000D01*
X156935714Y-96211571D01*
X156972000Y-96139000D01*
X157008285Y-96102714D01*
X157080857Y-96066428D01*
X157153428Y-96066428D01*
X157262285Y-96102714D01*
X157697714Y-96538142D01*
X157697714Y-96066428D01*
X150386142Y-98443142D02*
X150349857Y-98479428D01*
X150241000Y-98515714D01*
X150168428Y-98515714D01*
X150059571Y-98479428D01*
X149987000Y-98406857D01*
X149950714Y-98334285D01*
X149914428Y-98189142D01*
X149914428Y-98080285D01*
X149950714Y-97935142D01*
X149987000Y-97862571D01*
X150059571Y-97790000D01*
X150168428Y-97753714D01*
X150241000Y-97753714D01*
X150349857Y-97790000D01*
X150386142Y-97826285D01*
X150640142Y-97753714D02*
X151111857Y-97753714D01*
X150857857Y-98044000D01*
X150966714Y-98044000D01*
X151039285Y-98080285D01*
X151075571Y-98116571D01*
X151111857Y-98189142D01*
X151111857Y-98370571D01*
X151075571Y-98443142D01*
X151039285Y-98479428D01*
X150966714Y-98515714D01*
X150749000Y-98515714D01*
X150676428Y-98479428D01*
X150640142Y-98443142D01*
X151837571Y-98515714D02*
X151402142Y-98515714D01*
X151619857Y-98515714D02*
X151619857Y-97753714D01*
X151547285Y-97862571D01*
X151474714Y-97935142D01*
X151402142Y-97971428D01*
X149751142Y-94125142D02*
X149714857Y-94161428D01*
X149606000Y-94197714D01*
X149533428Y-94197714D01*
X149424571Y-94161428D01*
X149352000Y-94088857D01*
X149315714Y-94016285D01*
X149279428Y-93871142D01*
X149279428Y-93762285D01*
X149315714Y-93617142D01*
X149352000Y-93544571D01*
X149424571Y-93472000D01*
X149533428Y-93435714D01*
X149606000Y-93435714D01*
X149714857Y-93472000D01*
X149751142Y-93508285D01*
X150041428Y-93508285D02*
X150077714Y-93472000D01*
X150150285Y-93435714D01*
X150331714Y-93435714D01*
X150404285Y-93472000D01*
X150440571Y-93508285D01*
X150476857Y-93580857D01*
X150476857Y-93653428D01*
X150440571Y-93762285D01*
X150005142Y-94197714D01*
X150476857Y-94197714D01*
X150767142Y-93508285D02*
X150803428Y-93472000D01*
X150876000Y-93435714D01*
X151057428Y-93435714D01*
X151130000Y-93472000D01*
X151166285Y-93508285D01*
X151202571Y-93580857D01*
X151202571Y-93653428D01*
X151166285Y-93762285D01*
X150730857Y-94197714D01*
X151202571Y-94197714D01*
X147465142Y-94125142D02*
X147428857Y-94161428D01*
X147320000Y-94197714D01*
X147247428Y-94197714D01*
X147138571Y-94161428D01*
X147066000Y-94088857D01*
X147029714Y-94016285D01*
X146993428Y-93871142D01*
X146993428Y-93762285D01*
X147029714Y-93617142D01*
X147066000Y-93544571D01*
X147138571Y-93472000D01*
X147247428Y-93435714D01*
X147320000Y-93435714D01*
X147428857Y-93472000D01*
X147465142Y-93508285D01*
X147755428Y-93508285D02*
X147791714Y-93472000D01*
X147864285Y-93435714D01*
X148045714Y-93435714D01*
X148118285Y-93472000D01*
X148154571Y-93508285D01*
X148190857Y-93580857D01*
X148190857Y-93653428D01*
X148154571Y-93762285D01*
X147719142Y-94197714D01*
X148190857Y-94197714D01*
X148916571Y-94197714D02*
X148481142Y-94197714D01*
X148698857Y-94197714D02*
X148698857Y-93435714D01*
X148626285Y-93544571D01*
X148553714Y-93617142D01*
X148481142Y-93653428D01*
X160038142Y-83293857D02*
X160074428Y-83330142D01*
X160110714Y-83439000D01*
X160110714Y-83511571D01*
X160074428Y-83620428D01*
X160001857Y-83693000D01*
X159929285Y-83729285D01*
X159784142Y-83765571D01*
X159675285Y-83765571D01*
X159530142Y-83729285D01*
X159457571Y-83693000D01*
X159385000Y-83620428D01*
X159348714Y-83511571D01*
X159348714Y-83439000D01*
X159385000Y-83330142D01*
X159421285Y-83293857D01*
X160110714Y-82568142D02*
X160110714Y-83003571D01*
X160110714Y-82785857D02*
X159348714Y-82785857D01*
X159457571Y-82858428D01*
X159530142Y-82931000D01*
X159566428Y-83003571D01*
X159602714Y-81915000D02*
X160110714Y-81915000D01*
X159312428Y-82096428D02*
X159856714Y-82277857D01*
X159856714Y-81806142D01*
X151003000Y-77742142D02*
X150966714Y-77778428D01*
X150857857Y-77814714D01*
X150785285Y-77814714D01*
X150676428Y-77778428D01*
X150603857Y-77705857D01*
X150567571Y-77633285D01*
X150531285Y-77488142D01*
X150531285Y-77379285D01*
X150567571Y-77234142D01*
X150603857Y-77161571D01*
X150676428Y-77089000D01*
X150785285Y-77052714D01*
X150857857Y-77052714D01*
X150966714Y-77089000D01*
X151003000Y-77125285D01*
X151257000Y-77052714D02*
X151765000Y-77052714D01*
X151438428Y-77814714D01*
X158895142Y-91567000D02*
X158931428Y-91603285D01*
X158967714Y-91712142D01*
X158967714Y-91784714D01*
X158931428Y-91893571D01*
X158858857Y-91966142D01*
X158786285Y-92002428D01*
X158641142Y-92038714D01*
X158532285Y-92038714D01*
X158387142Y-92002428D01*
X158314571Y-91966142D01*
X158242000Y-91893571D01*
X158205714Y-91784714D01*
X158205714Y-91712142D01*
X158242000Y-91603285D01*
X158278285Y-91567000D01*
X158205714Y-90913857D02*
X158205714Y-91059000D01*
X158242000Y-91131571D01*
X158278285Y-91167857D01*
X158387142Y-91240428D01*
X158532285Y-91276714D01*
X158822571Y-91276714D01*
X158895142Y-91240428D01*
X158931428Y-91204142D01*
X158967714Y-91131571D01*
X158967714Y-90986428D01*
X158931428Y-90913857D01*
X158895142Y-90877571D01*
X158822571Y-90841285D01*
X158641142Y-90841285D01*
X158568571Y-90877571D01*
X158532285Y-90913857D01*
X158496000Y-90986428D01*
X158496000Y-91131571D01*
X158532285Y-91204142D01*
X158568571Y-91240428D01*
X158641142Y-91276714D01*
X160020000Y-91204142D02*
X159983714Y-91240428D01*
X159874857Y-91276714D01*
X159802285Y-91276714D01*
X159693428Y-91240428D01*
X159620857Y-91167857D01*
X159584571Y-91095285D01*
X159548285Y-90950142D01*
X159548285Y-90841285D01*
X159584571Y-90696142D01*
X159620857Y-90623571D01*
X159693428Y-90551000D01*
X159802285Y-90514714D01*
X159874857Y-90514714D01*
X159983714Y-90551000D01*
X160020000Y-90587285D01*
X160673142Y-90768714D02*
X160673142Y-91276714D01*
X160491714Y-90478428D02*
X160310285Y-91022714D01*
X160782000Y-91022714D01*
X146812000Y-77234142D02*
X146775714Y-77270428D01*
X146666857Y-77306714D01*
X146594285Y-77306714D01*
X146485428Y-77270428D01*
X146412857Y-77197857D01*
X146376571Y-77125285D01*
X146340285Y-76980142D01*
X146340285Y-76871285D01*
X146376571Y-76726142D01*
X146412857Y-76653571D01*
X146485428Y-76581000D01*
X146594285Y-76544714D01*
X146666857Y-76544714D01*
X146775714Y-76581000D01*
X146812000Y-76617285D01*
X147537714Y-77306714D02*
X147102285Y-77306714D01*
X147320000Y-77306714D02*
X147320000Y-76544714D01*
X147247428Y-76653571D01*
X147174857Y-76726142D01*
X147102285Y-76762428D01*
X154141714Y-100438857D02*
X153778857Y-100692857D01*
X154141714Y-100874285D02*
X153379714Y-100874285D01*
X153379714Y-100584000D01*
X153416000Y-100511428D01*
X153452285Y-100475142D01*
X153524857Y-100438857D01*
X153633714Y-100438857D01*
X153706285Y-100475142D01*
X153742571Y-100511428D01*
X153778857Y-100584000D01*
X153778857Y-100874285D01*
X154141714Y-99713142D02*
X154141714Y-100148571D01*
X154141714Y-99930857D02*
X153379714Y-99930857D01*
X153488571Y-100003428D01*
X153561142Y-100076000D01*
X153597428Y-100148571D01*
X153452285Y-99422857D02*
X153416000Y-99386571D01*
X153379714Y-99314000D01*
X153379714Y-99132571D01*
X153416000Y-99060000D01*
X153452285Y-99023714D01*
X153524857Y-98987428D01*
X153597428Y-98987428D01*
X153706285Y-99023714D01*
X154141714Y-99459142D01*
X154141714Y-98987428D01*
X141949714Y-103124000D02*
X141586857Y-103378000D01*
X141949714Y-103559428D02*
X141187714Y-103559428D01*
X141187714Y-103269142D01*
X141224000Y-103196571D01*
X141260285Y-103160285D01*
X141332857Y-103124000D01*
X141441714Y-103124000D01*
X141514285Y-103160285D01*
X141550571Y-103196571D01*
X141586857Y-103269142D01*
X141586857Y-103559428D01*
X141187714Y-102434571D02*
X141187714Y-102797428D01*
X141550571Y-102833714D01*
X141514285Y-102797428D01*
X141478000Y-102724857D01*
X141478000Y-102543428D01*
X141514285Y-102470857D01*
X141550571Y-102434571D01*
X141623142Y-102398285D01*
X141804571Y-102398285D01*
X141877142Y-102434571D01*
X141913428Y-102470857D01*
X141949714Y-102543428D01*
X141949714Y-102724857D01*
X141913428Y-102797428D01*
X141877142Y-102833714D01*
X154559000Y-75274714D02*
X154305000Y-74911857D01*
X154123571Y-75274714D02*
X154123571Y-74512714D01*
X154413857Y-74512714D01*
X154486428Y-74549000D01*
X154522714Y-74585285D01*
X154559000Y-74657857D01*
X154559000Y-74766714D01*
X154522714Y-74839285D01*
X154486428Y-74875571D01*
X154413857Y-74911857D01*
X154123571Y-74911857D01*
X155284714Y-75274714D02*
X154849285Y-75274714D01*
X155067000Y-75274714D02*
X155067000Y-74512714D01*
X154994428Y-74621571D01*
X154921857Y-74694142D01*
X154849285Y-74730428D01*
X149486257Y-103341714D02*
X149486257Y-103958571D01*
X149522542Y-104031142D01*
X149558828Y-104067428D01*
X149631400Y-104103714D01*
X149776542Y-104103714D01*
X149849114Y-104067428D01*
X149885400Y-104031142D01*
X149921685Y-103958571D01*
X149921685Y-103341714D01*
X150248257Y-104067428D02*
X150357114Y-104103714D01*
X150538542Y-104103714D01*
X150611114Y-104067428D01*
X150647400Y-104031142D01*
X150683685Y-103958571D01*
X150683685Y-103886000D01*
X150647400Y-103813428D01*
X150611114Y-103777142D01*
X150538542Y-103740857D01*
X150393400Y-103704571D01*
X150320828Y-103668285D01*
X150284542Y-103632000D01*
X150248257Y-103559428D01*
X150248257Y-103486857D01*
X150284542Y-103414285D01*
X150320828Y-103378000D01*
X150393400Y-103341714D01*
X150574828Y-103341714D01*
X150683685Y-103378000D01*
X151010257Y-103704571D02*
X151264257Y-103704571D01*
X151373114Y-104103714D02*
X151010257Y-104103714D01*
X151010257Y-103341714D01*
X151373114Y-103341714D01*
X152135114Y-104103714D02*
X151881114Y-103740857D01*
X151699685Y-104103714D02*
X151699685Y-103341714D01*
X151989971Y-103341714D01*
X152062542Y-103378000D01*
X152098828Y-103414285D01*
X152135114Y-103486857D01*
X152135114Y-103595714D01*
X152098828Y-103668285D01*
X152062542Y-103704571D01*
X151989971Y-103740857D01*
X151699685Y-103740857D01*
X152860828Y-104103714D02*
X152425400Y-104103714D01*
X152643114Y-104103714D02*
X152643114Y-103341714D01*
X152570542Y-103450571D01*
X152497971Y-103523142D01*
X152425400Y-103559428D01*
D11*
X158498419Y-109401428D02*
X158014609Y-109740095D01*
X158498419Y-109982000D02*
X157482419Y-109982000D01*
X157482419Y-109594952D01*
X157530800Y-109498190D01*
X157579180Y-109449809D01*
X157675942Y-109401428D01*
X157821085Y-109401428D01*
X157917847Y-109449809D01*
X157966228Y-109498190D01*
X158014609Y-109594952D01*
X158014609Y-109982000D01*
X157966228Y-108966000D02*
X157966228Y-108627333D01*
X158498419Y-108482190D02*
X158498419Y-108966000D01*
X157482419Y-108966000D01*
X157482419Y-108482190D01*
X158450038Y-108095142D02*
X158498419Y-107950000D01*
X158498419Y-107708095D01*
X158450038Y-107611333D01*
X158401657Y-107562952D01*
X158304895Y-107514571D01*
X158208133Y-107514571D01*
X158111371Y-107562952D01*
X158062990Y-107611333D01*
X158014609Y-107708095D01*
X157966228Y-107901619D01*
X157917847Y-107998380D01*
X157869466Y-108046761D01*
X157772704Y-108095142D01*
X157675942Y-108095142D01*
X157579180Y-108046761D01*
X157530800Y-107998380D01*
X157482419Y-107901619D01*
X157482419Y-107659714D01*
X157530800Y-107514571D01*
X157966228Y-107079142D02*
X157966228Y-106740476D01*
X158498419Y-106595333D02*
X158498419Y-107079142D01*
X157482419Y-107079142D01*
X157482419Y-106595333D01*
X157482419Y-106305047D02*
X157482419Y-105724476D01*
X158498419Y-106014761D02*
X157482419Y-106014761D01*
X158498419Y-104853619D02*
X158498419Y-105434190D01*
X158498419Y-105143904D02*
X157482419Y-105143904D01*
X157627561Y-105240666D01*
X157724323Y-105337428D01*
X157772704Y-105434190D01*
D13*
X148100142Y-98279857D02*
X148100142Y-98642714D01*
X147846142Y-97880714D02*
X148100142Y-98279857D01*
X148354142Y-97880714D01*
X149007285Y-98642714D02*
X148571857Y-98642714D01*
X148789571Y-98642714D02*
X148789571Y-97880714D01*
X148717000Y-97989571D01*
X148644428Y-98062142D01*
X148571857Y-98098428D01*
D11*
X152514904Y-76151619D02*
X152514904Y-76974095D01*
X152563285Y-77070857D01*
X152611666Y-77119238D01*
X152708428Y-77167619D01*
X152901952Y-77167619D01*
X152998714Y-77119238D01*
X153047095Y-77070857D01*
X153095476Y-76974095D01*
X153095476Y-76151619D01*
X154111476Y-77167619D02*
X153530904Y-77167619D01*
X153821190Y-77167619D02*
X153821190Y-76151619D01*
X153724428Y-76296761D01*
X153627666Y-76393523D01*
X153530904Y-76441904D01*
D13*
X153053142Y-93961857D02*
X153053142Y-94324714D01*
X152799142Y-93562714D02*
X153053142Y-93961857D01*
X153307142Y-93562714D01*
X153524857Y-93635285D02*
X153561142Y-93599000D01*
X153633714Y-93562714D01*
X153815142Y-93562714D01*
X153887714Y-93599000D01*
X153924000Y-93635285D01*
X153960285Y-93707857D01*
X153960285Y-93780428D01*
X153924000Y-93889285D01*
X153488571Y-94324714D01*
X153960285Y-94324714D01*
D19*
X154501857Y-94468904D02*
X154425666Y-94430809D01*
X154387571Y-94392714D01*
X154349476Y-94316523D01*
X154349476Y-94087952D01*
X154387571Y-94011761D01*
X154425666Y-93973666D01*
X154501857Y-93935571D01*
X154616142Y-93935571D01*
X154692333Y-93973666D01*
X154730428Y-94011761D01*
X154768523Y-94087952D01*
X154768523Y-94316523D01*
X154730428Y-94392714D01*
X154692333Y-94430809D01*
X154616142Y-94468904D01*
X154501857Y-94468904D01*
D13*
X156518428Y-98261714D02*
X156953857Y-98261714D01*
X156736142Y-99023714D02*
X156736142Y-98261714D01*
X157207857Y-99023714D02*
X157207857Y-98261714D01*
X157498142Y-98261714D01*
X157570714Y-98298000D01*
X157607000Y-98334285D01*
X157643285Y-98406857D01*
X157643285Y-98515714D01*
X157607000Y-98588285D01*
X157570714Y-98624571D01*
X157498142Y-98660857D01*
X157207857Y-98660857D01*
X158369000Y-99023714D02*
X157933571Y-99023714D01*
X158151285Y-99023714D02*
X158151285Y-98261714D01*
X158078714Y-98370571D01*
X158006142Y-98443142D01*
X157933571Y-98479428D01*
D21*
X146579166Y-95144166D02*
X146579166Y-95567500D01*
X145690166Y-95567500D01*
X145774833Y-94890166D02*
X145732500Y-94847833D01*
X145690166Y-94763166D01*
X145690166Y-94551500D01*
X145732500Y-94466833D01*
X145774833Y-94424500D01*
X145859500Y-94382166D01*
X145944166Y-94382166D01*
X146071166Y-94424500D01*
X146579166Y-94932500D01*
X146579166Y-94382166D01*
D13*
X145614571Y-63500000D02*
X145614571Y-63754000D01*
X146013714Y-63754000D02*
X145251714Y-63754000D01*
X145251714Y-63391142D01*
X145614571Y-62846857D02*
X145650857Y-62738000D01*
X145687142Y-62701714D01*
X145759714Y-62665428D01*
X145868571Y-62665428D01*
X145941142Y-62701714D01*
X145977428Y-62738000D01*
X146013714Y-62810571D01*
X146013714Y-63100857D01*
X145251714Y-63100857D01*
X145251714Y-62846857D01*
X145288000Y-62774285D01*
X145324285Y-62738000D01*
X145396857Y-62701714D01*
X145469428Y-62701714D01*
X145542000Y-62738000D01*
X145578285Y-62774285D01*
X145614571Y-62846857D01*
X145614571Y-63100857D01*
X145324285Y-62375142D02*
X145288000Y-62338857D01*
X145251714Y-62266285D01*
X145251714Y-62084857D01*
X145288000Y-62012285D01*
X145324285Y-61976000D01*
X145396857Y-61939714D01*
X145469428Y-61939714D01*
X145578285Y-61976000D01*
X146013714Y-62411428D01*
X146013714Y-61939714D01*
D11*
X156034619Y-67551904D02*
X156857095Y-67551904D01*
X156953857Y-67503523D01*
X157002238Y-67455142D01*
X157050619Y-67358380D01*
X157050619Y-67164857D01*
X157002238Y-67068095D01*
X156953857Y-67019714D01*
X156857095Y-66971333D01*
X156034619Y-66971333D01*
X157002238Y-66535904D02*
X157050619Y-66390761D01*
X157050619Y-66148857D01*
X157002238Y-66052095D01*
X156953857Y-66003714D01*
X156857095Y-65955333D01*
X156760333Y-65955333D01*
X156663571Y-66003714D01*
X156615190Y-66052095D01*
X156566809Y-66148857D01*
X156518428Y-66342380D01*
X156470047Y-66439142D01*
X156421666Y-66487523D01*
X156324904Y-66535904D01*
X156228142Y-66535904D01*
X156131380Y-66487523D01*
X156083000Y-66439142D01*
X156034619Y-66342380D01*
X156034619Y-66100476D01*
X156083000Y-65955333D01*
X156518428Y-65181238D02*
X156566809Y-65036095D01*
X156615190Y-64987714D01*
X156711952Y-64939333D01*
X156857095Y-64939333D01*
X156953857Y-64987714D01*
X157002238Y-65036095D01*
X157050619Y-65132857D01*
X157050619Y-65519904D01*
X156034619Y-65519904D01*
X156034619Y-65181238D01*
X156083000Y-65084476D01*
X156131380Y-65036095D01*
X156228142Y-64987714D01*
X156324904Y-64987714D01*
X156421666Y-65036095D01*
X156470047Y-65084476D01*
X156518428Y-65181238D01*
X156518428Y-65519904D01*
X157050619Y-63971714D02*
X157050619Y-64552285D01*
X157050619Y-64262000D02*
X156034619Y-64262000D01*
X156179761Y-64358761D01*
X156276523Y-64455523D01*
X156324904Y-64552285D01*
X125941666Y-56932285D02*
X126123095Y-56992761D01*
X126183571Y-57053238D01*
X126244047Y-57174190D01*
X126244047Y-57355619D01*
X126183571Y-57476571D01*
X126123095Y-57537047D01*
X126002142Y-57597523D01*
X125518333Y-57597523D01*
X125518333Y-56327523D01*
X125941666Y-56327523D01*
X126062619Y-56388000D01*
X126123095Y-56448476D01*
X126183571Y-56569428D01*
X126183571Y-56690380D01*
X126123095Y-56811333D01*
X126062619Y-56871809D01*
X125941666Y-56932285D01*
X125518333Y-56932285D01*
X126788333Y-57174190D02*
X127332619Y-57174190D01*
X126788333Y-56750857D02*
X126788333Y-57597523D01*
X127332619Y-56750857D02*
X127332619Y-57597523D01*
X127937380Y-56750857D02*
X127937380Y-57597523D01*
X128542142Y-56750857D01*
X128542142Y-57597523D01*
X129146904Y-57597523D02*
X129146904Y-56750857D01*
X129509761Y-57416095D01*
X129872619Y-56750857D01*
X129872619Y-57597523D01*
X131021666Y-57597523D02*
X131021666Y-56932285D01*
X130961190Y-56811333D01*
X130840238Y-56750857D01*
X130598333Y-56750857D01*
X130477380Y-56811333D01*
X131021666Y-57537047D02*
X130900714Y-57597523D01*
X130598333Y-57597523D01*
X130477380Y-57537047D01*
X130416904Y-57416095D01*
X130416904Y-57295142D01*
X130477380Y-57174190D01*
X130598333Y-57113714D01*
X130900714Y-57113714D01*
X131021666Y-57053238D01*
X131626428Y-57174190D02*
X132170714Y-57174190D01*
X131626428Y-56750857D02*
X131626428Y-57597523D01*
X132170714Y-56750857D02*
X132170714Y-57597523D01*
X132775476Y-56750857D02*
X132775476Y-57597523D01*
X133380238Y-56750857D01*
X133380238Y-57597523D01*
X134468809Y-57537047D02*
X134347857Y-57597523D01*
X134105952Y-57597523D01*
X133985000Y-57537047D01*
X133924523Y-57416095D01*
X133924523Y-56932285D01*
X133985000Y-56811333D01*
X134105952Y-56750857D01*
X134347857Y-56750857D01*
X134468809Y-56811333D01*
X134529285Y-56932285D01*
X134529285Y-57053238D01*
X133924523Y-57174190D01*
X135073571Y-57476571D02*
X135134047Y-57537047D01*
X135073571Y-57597523D01*
X135013095Y-57537047D01*
X135073571Y-57476571D01*
X135073571Y-57597523D01*
X135073571Y-57113714D02*
X135013095Y-56388000D01*
X135073571Y-56327523D01*
X135134047Y-56388000D01*
X135073571Y-57113714D01*
X135073571Y-56327523D01*
X136645952Y-56327523D02*
X136645952Y-57597523D01*
X137371666Y-56327523D01*
X137371666Y-57597523D01*
X137976428Y-57597523D02*
X137976428Y-56750857D01*
X138339285Y-57416095D01*
X138702142Y-56750857D01*
X138702142Y-57597523D01*
X139851190Y-57597523D02*
X139851190Y-56932285D01*
X139790714Y-56811333D01*
X139669761Y-56750857D01*
X139427857Y-56750857D01*
X139306904Y-56811333D01*
X139851190Y-57537047D02*
X139730238Y-57597523D01*
X139427857Y-57597523D01*
X139306904Y-57537047D01*
X139246428Y-57416095D01*
X139246428Y-57295142D01*
X139306904Y-57174190D01*
X139427857Y-57113714D01*
X139730238Y-57113714D01*
X139851190Y-57053238D01*
X141786428Y-56327523D02*
X141786428Y-58020857D01*
X141665476Y-56750857D02*
X141907380Y-56750857D01*
X142028333Y-56811333D01*
X142149285Y-56932285D01*
X142209761Y-57053238D01*
X142209761Y-57295142D01*
X142149285Y-57416095D01*
X142028333Y-57537047D01*
X141907380Y-57597523D01*
X141665476Y-57597523D01*
X141544523Y-57537047D01*
X141423571Y-57416095D01*
X141363095Y-57295142D01*
X141363095Y-57053238D01*
X141423571Y-56932285D01*
X141544523Y-56811333D01*
X141665476Y-56750857D01*
X142754047Y-56750857D02*
X142754047Y-58020857D01*
X142754047Y-56811333D02*
X142875000Y-56750857D01*
X143116904Y-56750857D01*
X143237857Y-56811333D01*
X143298333Y-56871809D01*
X143358809Y-56992761D01*
X143358809Y-57355619D01*
X143298333Y-57476571D01*
X143237857Y-57537047D01*
X143116904Y-57597523D01*
X142875000Y-57597523D01*
X142754047Y-57537047D01*
X144386904Y-57537047D02*
X144265952Y-57597523D01*
X144024047Y-57597523D01*
X143903095Y-57537047D01*
X143842619Y-57416095D01*
X143842619Y-56932285D01*
X143903095Y-56811333D01*
X144024047Y-56750857D01*
X144265952Y-56750857D01*
X144386904Y-56811333D01*
X144447380Y-56932285D01*
X144447380Y-57053238D01*
X143842619Y-57174190D01*
X145112619Y-57174190D02*
X145233571Y-57174190D01*
X144870714Y-56811333D02*
X144991666Y-56750857D01*
X145233571Y-56750857D01*
X145354523Y-56811333D01*
X145415000Y-56932285D01*
X145415000Y-56992761D01*
X145354523Y-57113714D01*
X145233571Y-57174190D01*
X145354523Y-57234666D01*
X145415000Y-57355619D01*
X145415000Y-57416095D01*
X145354523Y-57537047D01*
X145233571Y-57597523D01*
X144991666Y-57597523D01*
X144870714Y-57537047D01*
X146140714Y-57597523D02*
X146019761Y-57537047D01*
X145959285Y-57476571D01*
X145898809Y-57355619D01*
X145898809Y-56992761D01*
X145959285Y-56871809D01*
X146019761Y-56811333D01*
X146140714Y-56750857D01*
X146322142Y-56750857D01*
X146443095Y-56811333D01*
X146503571Y-56871809D01*
X146564047Y-56992761D01*
X146564047Y-57355619D01*
X146503571Y-57476571D01*
X146443095Y-57537047D01*
X146322142Y-57597523D01*
X146140714Y-57597523D01*
X147410714Y-57174190D02*
X147592142Y-57234666D01*
X147652619Y-57355619D01*
X147652619Y-57416095D01*
X147592142Y-57537047D01*
X147471190Y-57597523D01*
X147108333Y-57597523D01*
X147108333Y-56750857D01*
X147410714Y-56750857D01*
X147531666Y-56811333D01*
X147592142Y-56932285D01*
X147592142Y-56992761D01*
X147531666Y-57113714D01*
X147410714Y-57174190D01*
X147108333Y-57174190D01*
X148741190Y-57597523D02*
X148741190Y-56932285D01*
X148680714Y-56811333D01*
X148559761Y-56750857D01*
X148317857Y-56750857D01*
X148196904Y-56811333D01*
X148741190Y-57537047D02*
X148620238Y-57597523D01*
X148317857Y-57597523D01*
X148196904Y-57537047D01*
X148136428Y-57416095D01*
X148136428Y-57295142D01*
X148196904Y-57174190D01*
X148317857Y-57113714D01*
X148620238Y-57113714D01*
X148741190Y-57053238D01*
X149345952Y-57174190D02*
X149890238Y-57174190D01*
X149345952Y-56750857D02*
X149345952Y-57597523D01*
X149890238Y-56750857D02*
X149890238Y-57597523D01*
X150978809Y-57537047D02*
X150857857Y-57597523D01*
X150615952Y-57597523D01*
X150495000Y-57537047D01*
X150434523Y-57416095D01*
X150434523Y-56932285D01*
X150495000Y-56811333D01*
X150615952Y-56750857D01*
X150857857Y-56750857D01*
X150978809Y-56811333D01*
X151039285Y-56932285D01*
X151039285Y-57053238D01*
X150434523Y-57174190D01*
X152551190Y-57174190D02*
X153095476Y-57174190D01*
X152551190Y-56750857D02*
X152551190Y-57597523D01*
X153095476Y-56750857D02*
X153095476Y-57597523D01*
X154244523Y-57597523D02*
X154244523Y-56932285D01*
X154184047Y-56811333D01*
X154063095Y-56750857D01*
X153821190Y-56750857D01*
X153700238Y-56811333D01*
X154244523Y-57537047D02*
X154123571Y-57597523D01*
X153821190Y-57597523D01*
X153700238Y-57537047D01*
X153639761Y-57416095D01*
X153639761Y-57295142D01*
X153700238Y-57174190D01*
X153821190Y-57113714D01*
X154123571Y-57113714D01*
X154244523Y-57053238D01*
X154849285Y-57597523D02*
X154849285Y-56750857D01*
X155393571Y-56750857D01*
X155393571Y-57597523D01*
X155998333Y-56750857D02*
X155998333Y-58020857D01*
X155998333Y-56811333D02*
X156119285Y-56750857D01*
X156361190Y-56750857D01*
X156482142Y-56811333D01*
X156542619Y-56871809D01*
X156603095Y-56992761D01*
X156603095Y-57355619D01*
X156542619Y-57476571D01*
X156482142Y-57537047D01*
X156361190Y-57597523D01*
X156119285Y-57597523D01*
X155998333Y-57537047D01*
X157691666Y-57597523D02*
X157691666Y-56932285D01*
X157631190Y-56811333D01*
X157510238Y-56750857D01*
X157268333Y-56750857D01*
X157147380Y-56811333D01*
X157691666Y-57537047D02*
X157570714Y-57597523D01*
X157268333Y-57597523D01*
X157147380Y-57537047D01*
X157086904Y-57416095D01*
X157086904Y-57295142D01*
X157147380Y-57174190D01*
X157268333Y-57113714D01*
X157570714Y-57113714D01*
X157691666Y-57053238D01*
X158598809Y-57174190D02*
X158780238Y-57234666D01*
X158840714Y-57355619D01*
X158840714Y-57416095D01*
X158780238Y-57537047D01*
X158659285Y-57597523D01*
X158296428Y-57597523D01*
X158296428Y-56750857D01*
X158598809Y-56750857D01*
X158719761Y-56811333D01*
X158780238Y-56932285D01*
X158780238Y-56992761D01*
X158719761Y-57113714D01*
X158598809Y-57174190D01*
X158296428Y-57174190D01*
X159868809Y-57537047D02*
X159747857Y-57597523D01*
X159505952Y-57597523D01*
X159385000Y-57537047D01*
X159324523Y-57416095D01*
X159324523Y-56932285D01*
X159385000Y-56811333D01*
X159505952Y-56750857D01*
X159747857Y-56750857D01*
X159868809Y-56811333D01*
X159929285Y-56932285D01*
X159929285Y-57053238D01*
X159324523Y-57174190D01*
X160473571Y-57174190D02*
X161017857Y-57174190D01*
X160473571Y-56750857D02*
X160473571Y-57597523D01*
X161017857Y-56750857D02*
X161017857Y-57597523D01*
X161804047Y-57597523D02*
X161683095Y-57537047D01*
X161622619Y-57476571D01*
X161562142Y-57355619D01*
X161562142Y-56992761D01*
X161622619Y-56871809D01*
X161683095Y-56811333D01*
X161804047Y-56750857D01*
X161985476Y-56750857D01*
X162106428Y-56811333D01*
X162166904Y-56871809D01*
X162227380Y-56992761D01*
X162227380Y-57355619D01*
X162166904Y-57476571D01*
X162106428Y-57537047D01*
X161985476Y-57597523D01*
X161804047Y-57597523D01*
X164283571Y-57537047D02*
X164162619Y-57597523D01*
X163920714Y-57597523D01*
X163799761Y-57537047D01*
X163739285Y-57476571D01*
X163678809Y-57355619D01*
X163678809Y-56992761D01*
X163739285Y-56871809D01*
X163799761Y-56811333D01*
X163920714Y-56750857D01*
X164162619Y-56750857D01*
X164283571Y-56811333D01*
X165795476Y-57597523D02*
X165795476Y-56327523D01*
X166097857Y-56327523D01*
X166279285Y-56388000D01*
X166400238Y-56508952D01*
X166460714Y-56629904D01*
X166521190Y-56871809D01*
X166521190Y-57053238D01*
X166460714Y-57295142D01*
X166400238Y-57416095D01*
X166279285Y-57537047D01*
X166097857Y-57597523D01*
X165795476Y-57597523D01*
X167065476Y-57597523D02*
X167065476Y-56750857D01*
X167065476Y-56992761D02*
X167125952Y-56871809D01*
X167186428Y-56811333D01*
X167307380Y-56750857D01*
X167428333Y-56750857D01*
X167851666Y-57597523D02*
X167851666Y-56750857D01*
X167851666Y-56327523D02*
X167791190Y-56388000D01*
X167851666Y-56448476D01*
X167912142Y-56388000D01*
X167851666Y-56327523D01*
X167851666Y-56448476D01*
X168637857Y-57597523D02*
X168516904Y-57537047D01*
X168456428Y-57416095D01*
X168456428Y-56327523D01*
X169303095Y-57597523D02*
X169182142Y-57537047D01*
X169121666Y-57416095D01*
X169121666Y-56327523D01*
X170694047Y-57537047D02*
X170875476Y-57597523D01*
X171177857Y-57597523D01*
X171298809Y-57537047D01*
X171359285Y-57476571D01*
X171419761Y-57355619D01*
X171419761Y-57234666D01*
X171359285Y-57113714D01*
X171298809Y-57053238D01*
X171177857Y-56992761D01*
X170935952Y-56932285D01*
X170815000Y-56871809D01*
X170754523Y-56811333D01*
X170694047Y-56690380D01*
X170694047Y-56569428D01*
X170754523Y-56448476D01*
X170815000Y-56388000D01*
X170935952Y-56327523D01*
X171238333Y-56327523D01*
X171419761Y-56388000D01*
X172145476Y-57597523D02*
X172024523Y-57537047D01*
X171964047Y-57416095D01*
X171964047Y-56327523D01*
X172810714Y-57597523D02*
X172689761Y-57537047D01*
X172629285Y-57476571D01*
X172568809Y-57355619D01*
X172568809Y-56992761D01*
X172629285Y-56871809D01*
X172689761Y-56811333D01*
X172810714Y-56750857D01*
X172992142Y-56750857D01*
X173113095Y-56811333D01*
X173173571Y-56871809D01*
X173234047Y-56992761D01*
X173234047Y-57355619D01*
X173173571Y-57476571D01*
X173113095Y-57537047D01*
X172992142Y-57597523D01*
X172810714Y-57597523D01*
X173596904Y-56750857D02*
X174080714Y-56750857D01*
X173778333Y-56327523D02*
X173778333Y-57416095D01*
X173838809Y-57537047D01*
X173959761Y-57597523D01*
X174080714Y-57597523D01*
X174443571Y-57537047D02*
X174564523Y-57597523D01*
X174806428Y-57597523D01*
X174927380Y-57537047D01*
X174987857Y-57416095D01*
X174987857Y-57355619D01*
X174927380Y-57234666D01*
X174806428Y-57174190D01*
X174625000Y-57174190D01*
X174504047Y-57113714D01*
X174443571Y-56992761D01*
X174443571Y-56932285D01*
X174504047Y-56811333D01*
X174625000Y-56750857D01*
X174806428Y-56750857D01*
X174927380Y-56811333D01*
X175532142Y-57476571D02*
X175592619Y-57537047D01*
X175532142Y-57597523D01*
X175471666Y-57537047D01*
X175532142Y-57476571D01*
X175532142Y-57597523D01*
X175532142Y-57113714D02*
X175471666Y-56388000D01*
X175532142Y-56327523D01*
X175592619Y-56388000D01*
X175532142Y-57113714D01*
X175532142Y-56327523D01*
X176136904Y-57476571D02*
X176197380Y-57537047D01*
X176136904Y-57597523D01*
X176076428Y-57537047D01*
X176136904Y-57476571D01*
X176136904Y-57597523D01*
X176136904Y-57113714D02*
X176076428Y-56388000D01*
X176136904Y-56327523D01*
X176197380Y-56388000D01*
X176136904Y-57113714D01*
X176136904Y-56327523D01*
X176741666Y-57476571D02*
X176802142Y-57537047D01*
X176741666Y-57597523D01*
X176681190Y-57537047D01*
X176741666Y-57476571D01*
X176741666Y-57597523D01*
X176741666Y-57113714D02*
X176681190Y-56388000D01*
X176741666Y-56327523D01*
X176802142Y-56388000D01*
X176741666Y-57113714D01*
X176741666Y-56327523D01*
D17*
X149276000Y-65803047D02*
X149251809Y-65851428D01*
X149251809Y-65924000D01*
X149276000Y-65996571D01*
X149324380Y-66044952D01*
X149372761Y-66069142D01*
X149469523Y-66093333D01*
X149542095Y-66093333D01*
X149638857Y-66069142D01*
X149687238Y-66044952D01*
X149735619Y-65996571D01*
X149759809Y-65924000D01*
X149759809Y-65875619D01*
X149735619Y-65803047D01*
X149711428Y-65778857D01*
X149542095Y-65778857D01*
X149542095Y-65875619D01*
X149759809Y-65561142D02*
X149251809Y-65561142D01*
X149759809Y-65270857D01*
X149251809Y-65270857D01*
X149759809Y-65028952D02*
X149251809Y-65028952D01*
X149251809Y-64908000D01*
X149276000Y-64835428D01*
X149324380Y-64787047D01*
X149372761Y-64762857D01*
X149469523Y-64738666D01*
X149542095Y-64738666D01*
X149638857Y-64762857D01*
X149687238Y-64787047D01*
X149735619Y-64835428D01*
X149759809Y-64908000D01*
X149759809Y-65028952D01*
X150609809Y-66020000D02*
X150101809Y-66020000D01*
X150609809Y-65778095D02*
X150101809Y-65778095D01*
X150101809Y-65657142D01*
X150126000Y-65584571D01*
X150174380Y-65536190D01*
X150222761Y-65512000D01*
X150319523Y-65487809D01*
X150392095Y-65487809D01*
X150488857Y-65512000D01*
X150537238Y-65536190D01*
X150585619Y-65584571D01*
X150609809Y-65657142D01*
X150609809Y-65778095D01*
X151359809Y-65963523D02*
X150851809Y-65963523D01*
X150851809Y-65842571D01*
X150876000Y-65770000D01*
X150924380Y-65721619D01*
X150972761Y-65697428D01*
X151069523Y-65673238D01*
X151142095Y-65673238D01*
X151238857Y-65697428D01*
X151287238Y-65721619D01*
X151335619Y-65770000D01*
X151359809Y-65842571D01*
X151359809Y-65963523D01*
X151166285Y-65455523D02*
X151166285Y-65068476D01*
X151359809Y-65262000D02*
X150972761Y-65262000D01*
X152109809Y-65963523D02*
X151601809Y-65963523D01*
X151601809Y-65842571D01*
X151626000Y-65770000D01*
X151674380Y-65721619D01*
X151722761Y-65697428D01*
X151819523Y-65673238D01*
X151892095Y-65673238D01*
X151988857Y-65697428D01*
X152037238Y-65721619D01*
X152085619Y-65770000D01*
X152109809Y-65842571D01*
X152109809Y-65963523D01*
X151916285Y-65455523D02*
X151916285Y-65068476D01*
X152351809Y-65947333D02*
X152859809Y-65778000D01*
X152351809Y-65608666D01*
X152593714Y-65270000D02*
X152617904Y-65197428D01*
X152642095Y-65173238D01*
X152690476Y-65149047D01*
X152763047Y-65149047D01*
X152811428Y-65173238D01*
X152835619Y-65197428D01*
X152859809Y-65245809D01*
X152859809Y-65439333D01*
X152351809Y-65439333D01*
X152351809Y-65270000D01*
X152376000Y-65221619D01*
X152400190Y-65197428D01*
X152448571Y-65173238D01*
X152496952Y-65173238D01*
X152545333Y-65197428D01*
X152569523Y-65221619D01*
X152593714Y-65270000D01*
X152593714Y-65439333D01*
X152351809Y-64931333D02*
X152763047Y-64931333D01*
X152811428Y-64907142D01*
X152835619Y-64882952D01*
X152859809Y-64834571D01*
X152859809Y-64737809D01*
X152835619Y-64689428D01*
X152811428Y-64665238D01*
X152763047Y-64641047D01*
X152351809Y-64641047D01*
X152835619Y-64423333D02*
X152859809Y-64350761D01*
X152859809Y-64229809D01*
X152835619Y-64181428D01*
X152811428Y-64157238D01*
X152763047Y-64133047D01*
X152714666Y-64133047D01*
X152666285Y-64157238D01*
X152642095Y-64181428D01*
X152617904Y-64229809D01*
X152593714Y-64326571D01*
X152569523Y-64374952D01*
X152545333Y-64399142D01*
X152496952Y-64423333D01*
X152448571Y-64423333D01*
X152400190Y-64399142D01*
X152376000Y-64374952D01*
X152351809Y-64326571D01*
X152351809Y-64205619D01*
X152376000Y-64133047D01*
%LPC*%
D10*
G36*
X142748000Y-114300000D02*
G01*
X138430000Y-114300000D01*
X138430000Y-112903000D01*
X142748000Y-112903000D01*
X142748000Y-114300000D01*
G37*
X142748000Y-114300000D02*
X138430000Y-114300000D01*
X138430000Y-112903000D01*
X142748000Y-112903000D01*
X142748000Y-114300000D01*
D22*
X139700000Y-71120000D03*
X139700000Y-68580000D03*
X139700000Y-66040000D03*
D23*
X139700000Y-63500000D03*
D22*
X139700000Y-73660000D03*
X139700000Y-76200000D03*
X139700000Y-81280000D03*
X139700000Y-78740000D03*
X139700000Y-83820000D03*
X139700000Y-86360000D03*
X139700000Y-91440000D03*
X139700000Y-88900000D03*
X139700000Y-93980000D03*
X139700000Y-96520000D03*
X139700000Y-101600000D03*
X139700000Y-99060000D03*
X139700000Y-109220000D03*
X139700000Y-111760000D03*
X139700000Y-106680000D03*
X139700000Y-104140000D03*
D24*
X144504518Y-80975000D03*
X144504518Y-81475000D03*
X144504518Y-81975000D03*
X144504518Y-82475000D03*
X144504518Y-88475000D03*
X144504518Y-88975000D03*
X144504518Y-89475000D03*
X144504518Y-89975000D03*
X144504518Y-90475000D03*
X157755482Y-90475000D03*
X157755482Y-89975000D03*
X157755482Y-89475000D03*
X157755482Y-88975000D03*
X157755482Y-88475000D03*
X157755482Y-87975000D03*
X157755482Y-87475000D03*
X157755482Y-86975000D03*
X157755482Y-86475000D03*
X157755482Y-85975000D03*
X157755482Y-85475000D03*
X157755482Y-84975000D03*
X157755482Y-84475000D03*
X157755482Y-83975000D03*
X157755482Y-83475000D03*
X157755482Y-82975000D03*
X157755482Y-82475000D03*
X157755482Y-81975000D03*
X157755482Y-81475000D03*
X157755482Y-80975000D03*
D25*
X146380000Y-92350482D03*
X146880000Y-92350482D03*
X147380000Y-92350482D03*
X147880000Y-92350482D03*
X148380000Y-92350482D03*
X148880000Y-92350482D03*
X149380000Y-92350482D03*
X149880000Y-92350482D03*
X150380000Y-92350482D03*
X150880000Y-92350482D03*
X151380000Y-92350482D03*
X151880000Y-92350482D03*
X152380000Y-92350482D03*
X152880000Y-92350482D03*
X153380000Y-92350482D03*
X153880000Y-92350482D03*
X154380000Y-92350482D03*
X154880000Y-92350482D03*
X155380000Y-92350482D03*
X155880000Y-92350482D03*
X155880000Y-79099518D03*
X155380000Y-79099518D03*
X154880000Y-79099518D03*
X154380000Y-79099518D03*
X153880000Y-79099518D03*
X153380000Y-79099518D03*
X152880000Y-79099518D03*
X152380000Y-79099518D03*
X151880000Y-79099518D03*
X151380000Y-79099518D03*
X150880000Y-79099518D03*
X150380000Y-79099518D03*
X149880000Y-79099518D03*
X149380000Y-79099518D03*
X148880000Y-79099518D03*
X148380000Y-79099518D03*
X147880000Y-79099518D03*
X147380000Y-79099518D03*
X146880000Y-79099518D03*
X146380000Y-79099518D03*
D24*
X144504518Y-83475000D03*
X144504518Y-83975000D03*
X144504518Y-84475000D03*
X144504518Y-84975000D03*
X144504518Y-85475000D03*
X144504518Y-85975000D03*
X144504518Y-86475000D03*
X144504518Y-86975000D03*
X144504518Y-87475000D03*
X144504518Y-87975000D03*
X144504518Y-82975000D03*
D26*
X147280000Y-113028000D03*
X148380000Y-113028000D03*
X149480000Y-113028000D03*
X150580000Y-113028000D03*
X151330000Y-113028000D03*
X152030000Y-113028000D03*
X152780000Y-113028000D03*
X153880000Y-113028000D03*
X154980000Y-113028000D03*
D27*
X156430000Y-111278000D03*
X145830000Y-111278000D03*
X156430000Y-106828000D03*
X145830000Y-106828000D03*
D28*
X146998000Y-99779000D03*
X146998000Y-103929000D03*
X144848000Y-99779000D03*
X144848000Y-103929000D03*
D29*
X150368000Y-100584000D03*
X151892000Y-100584000D03*
D22*
X162560000Y-71120000D03*
X162560000Y-68580000D03*
X162560000Y-66040000D03*
D23*
X162560000Y-63500000D03*
D22*
X162560000Y-73660000D03*
X162560000Y-76200000D03*
X162560000Y-81280000D03*
X162560000Y-78740000D03*
X162560000Y-83820000D03*
X162560000Y-86360000D03*
X162560000Y-91440000D03*
X162560000Y-88900000D03*
X162560000Y-93980000D03*
X162560000Y-96520000D03*
X162560000Y-101600000D03*
X162560000Y-99060000D03*
X162560000Y-109220000D03*
X162560000Y-111760000D03*
X162560000Y-106680000D03*
X162560000Y-104140000D03*
D30*
X142240000Y-97409000D03*
X144018000Y-97409000D03*
X158623000Y-76708000D03*
X156845000Y-76708000D03*
X156718000Y-95123000D03*
X158496000Y-95123000D03*
D31*
X156210000Y-96393000D03*
X156210000Y-97409000D03*
D32*
X153289000Y-98298000D03*
X152273000Y-98298000D03*
X150876000Y-94869000D03*
X149860000Y-94869000D03*
X147701000Y-94869000D03*
X148717000Y-94869000D03*
D31*
X160020000Y-84201000D03*
X160020000Y-85217000D03*
D32*
X148844000Y-76962000D03*
X149860000Y-76962000D03*
D31*
X156972000Y-92837000D03*
X156972000Y-93853000D03*
D32*
X157861000Y-92837000D03*
X158877000Y-92837000D03*
X145669000Y-76962000D03*
X144653000Y-76962000D03*
X155194000Y-98298000D03*
X154178000Y-98298000D03*
D31*
X143256000Y-102362000D03*
X143256000Y-103378000D03*
X153162000Y-75438000D03*
X153162000Y-74422000D03*
D29*
X150368000Y-102362000D03*
X151892000Y-102362000D03*
D28*
X155262000Y-103929000D03*
X155262000Y-99779000D03*
X157412000Y-103929000D03*
X157412000Y-99779000D03*
D33*
X149840000Y-96647000D03*
X147340000Y-96647000D03*
D34*
X144720000Y-75438000D03*
X144720000Y-74168000D03*
X144720000Y-72898000D03*
X144720000Y-71628000D03*
X151190000Y-71628000D03*
X151190000Y-72898000D03*
X151190000Y-74168000D03*
X151190000Y-75438000D03*
D35*
X154643000Y-96939000D03*
X152443000Y-95339000D03*
X152443000Y-96939000D03*
X154643000Y-95339000D03*
D36*
X158623000Y-97536000D03*
D37*
X143764000Y-93288000D03*
X143764000Y-95688000D03*
D38*
X143764000Y-112903000D03*
X159766000Y-62484000D03*
D39*
X145669000Y-67056000D03*
X145669000Y-65024000D03*
D38*
X142748000Y-62357000D03*
D40*
X147530000Y-64266000D03*
X147530000Y-67736000D03*
X154730000Y-67736000D03*
X154730000Y-64266000D03*
D41*
X149630000Y-63116000D03*
X152630000Y-63116000D03*
D42*
X149130000Y-66416000D03*
X153130000Y-66416000D03*
D43*
X149742500Y-67666000D03*
D44*
X150480000Y-67666000D03*
X151130000Y-67666000D03*
X151780000Y-67666000D03*
D43*
X152517500Y-67666000D03*
M02*
