M48
; DRILL file {KiCad 5.1.0-rc2-unknown-036be7d~80~ubuntu16.04.1} date 21.06.2022 (вт) 13:21:05 EEST
; FORMAT={-:-/ absolute / inch / decimal}
; #@! TF.CreationDate,2022-06-21T13:21:05+03:00*
; #@! TF.GenerationSoftware,Kicad,Pcbnew,5.1.0-rc2-unknown-036be7d~80~ubuntu16.04.1
; #@! TF.FileFunction,Plated,1,4,PTH
FMAT,2
INCH
T1C0.0118
T2C0.0157
T3C0.0236
T4C0.0394
%
G90
G05
T1
X5.48Y-2.43
X5.55Y-2.56
X5.585Y-3.135
X5.595Y-4.055
X5.62Y-3.155
X5.63Y-2.96
X5.634Y-3.47
X5.634Y-3.505
X5.64Y-4.105
X5.65Y-3.125
X5.735Y-3.09
X5.75Y-4.46
X5.765Y-2.475
X5.77Y-3.695
X5.8Y-3.55
X5.805Y-3.415
X5.81Y-3.7
X5.842Y-4.408
X5.845Y-3.7
X5.87Y-3.975
X5.87Y-4.04
X5.88Y-3.575
X5.9Y-3.195
X5.91Y-3.89
X5.925Y-4.335
X5.93Y-3.17
X5.935Y-3.01
X5.935Y-3.32
X5.935Y-4.23
X5.955Y-3.575
X5.955Y-3.89
X5.96Y-2.72
X5.995Y-2.72
X6.015Y-4.36
X6.015Y-4.405
X6.03Y-3.4097
X6.03Y-3.4403
X6.035Y-4.2
X6.05Y-3.185
X6.055Y-4.405
X6.065Y-3.3
X6.07Y-3.54
X6.075Y-3.425
X6.08Y-3.215
X6.095Y-4.27
X6.1Y-3.575
X6.105Y-3.18
X6.145Y-3.35
X6.15Y-2.445
X6.15Y-3.175
X6.16Y-3.615
X6.165Y-3.945
X6.175Y-3.14
X6.185Y-4.465
X6.23Y-3.98
X6.245Y-3.88
X6.27Y-3.195
X6.32Y-3.415
X6.32Y-3.45
X6.33Y-3.325
X6.33Y-3.365
X6.33Y-4.315
X6.4Y-4.465
T2
X5.67Y-4.225
X5.67Y-4.32
X5.69Y-3.595
X5.715Y-4.015
X5.73Y-3.595
X5.735Y-3.88
X5.745Y-3.305
X5.785Y-4.275
X5.8Y-3.2
X5.8Y-4.195
X5.855Y-4.1
X5.895Y-4.4
X5.965Y-3.705
X5.965Y-4.4
X6.01Y-3.705
X6.01Y-3.995
X6.065Y-4.23
X6.085Y-4.09
X6.105Y-4.23
X6.145Y-3.395
X6.145Y-3.445
X6.18Y-3.06
X6.22Y-4.35
X6.245Y-4.14
X6.264Y-3.059
T3
X5.58Y-3.895
X5.6Y-2.56
X5.6375Y-3.8875
X5.66Y-3.04
X5.68Y-2.65
X5.755Y-3.425
X5.775Y-3.505
X5.795Y-3.31
X5.82Y-3.01
X5.83Y-2.835
X5.855Y-3.53
X5.865Y-2.69
X5.885Y-2.84
X5.915Y-2.595
X5.985Y-2.595
X6.09Y-3.345
X6.1Y-4.025
X6.155Y-2.77
X6.155Y-2.825
X6.175Y-2.88
X6.195Y-3.835
X6.21Y-2.475
X6.21Y-3.61
X6.23Y-3.79
X6.255Y-2.66
X6.3Y-2.66
T4
X5.5Y-2.5
X5.5Y-2.6
X5.5Y-2.7
X5.5Y-2.8
X5.5Y-2.9
X5.5Y-3.0
X5.5Y-3.1
X5.5Y-3.2
X5.5Y-3.3
X5.5Y-3.4
X5.5Y-3.5
X5.5Y-3.6
X5.5Y-3.7
X5.5Y-3.8
X5.5Y-3.9
X5.5Y-4.0
X5.5Y-4.1
X5.5Y-4.2
X5.5Y-4.3
X5.5Y-4.4
X6.4Y-2.5
X6.4Y-2.6
X6.4Y-2.7
X6.4Y-2.8
X6.4Y-2.9
X6.4Y-3.0
X6.4Y-3.1
X6.4Y-3.2
X6.4Y-3.3
X6.4Y-3.4
X6.4Y-3.5
X6.4Y-3.6
X6.4Y-3.7
X6.4Y-3.8
X6.4Y-3.9
X6.4Y-4.0
X6.4Y-4.1
X6.4Y-4.2
X6.4Y-4.3
X6.4Y-4.4
T3
G00X5.8083Y-2.542
M15
G01X5.8083Y-2.5183
M16
G05
G00X5.8083Y-2.6786
M15
G01X5.8083Y-2.655
M16
G05
G00X6.0917Y-2.542
M15
G01X6.0917Y-2.5183
M16
G05
G00X6.0917Y-2.6786
M15
G01X6.0917Y-2.655
M16
G05
T0
M30
