G04 #@! TF.GenerationSoftware,KiCad,Pcbnew,5.1.0-rc2-unknown-036be7d~80~ubuntu16.04.1*
G04 #@! TF.CreationDate,2022-06-21T13:21:02+03:00*
G04 #@! TF.ProjectId,RT1010Py_Rev.C,52543130-3130-4507-995f-5265762e432e,C*
G04 #@! TF.SameCoordinates,Original*
G04 #@! TF.FileFunction,Legend,Bot*
G04 #@! TF.FilePolarity,Positive*
%FSLAX46Y46*%
G04 Gerber Fmt 4.6, Leading zero omitted, Abs format (unit mm)*
G04 Created by KiCad (PCBNEW 5.1.0-rc2-unknown-036be7d~80~ubuntu16.04.1) date 2022-06-21 13:21:02*
%MOMM*%
%LPD*%
G04 APERTURE LIST*
%ADD10C,0.254000*%
%ADD11C,0.190500*%
%ADD12C,0.300000*%
%ADD13C,0.050000*%
%ADD14C,0.200000*%
%ADD15C,0.420000*%
%ADD16C,0.370000*%
%ADD17C,0.400000*%
%ADD18C,0.380000*%
%ADD19C,0.150000*%
%ADD20C,1.000000*%
%ADD21C,0.100000*%
%ADD22C,0.127000*%
%ADD23C,0.700000*%
%ADD24C,0.500000*%
%ADD25C,0.180000*%
%ADD26C,1.879600*%
%ADD27R,1.879600X1.879600*%
%ADD28R,1.501600X1.101600*%
%ADD29R,0.651600X0.601600*%
%ADD30R,2.101600X1.801600*%
%ADD31R,1.117600X1.117600*%
%ADD32R,0.651600X1.301600*%
%ADD33R,0.351600X1.401600*%
%ADD34R,2.601600X3.301600*%
%ADD35R,0.601600X0.651600*%
%ADD36R,1.101600X1.501600*%
%ADD37R,1.371600X1.625600*%
%ADD38R,3.101600X1.701600*%
%ADD39C,1.254000*%
%ADD40O,1.301600X1.901600*%
%ADD41C,0.701600*%
G04 APERTURE END LIST*
D10*
X160540095Y-110030380D02*
X160491714Y-109982000D01*
X160394952Y-109933619D01*
X160153047Y-109933619D01*
X160056285Y-109982000D01*
X160007904Y-110030380D01*
X159959523Y-110127142D01*
X159959523Y-110223904D01*
X160007904Y-110369047D01*
X160588476Y-110949619D01*
X159959523Y-110949619D01*
X159330571Y-109933619D02*
X159233809Y-109933619D01*
X159137047Y-109982000D01*
X159088666Y-110030380D01*
X159040285Y-110127142D01*
X158991904Y-110320666D01*
X158991904Y-110562571D01*
X159040285Y-110756095D01*
X159088666Y-110852857D01*
X159137047Y-110901238D01*
X159233809Y-110949619D01*
X159330571Y-110949619D01*
X159427333Y-110901238D01*
X159475714Y-110852857D01*
X159524095Y-110756095D01*
X159572476Y-110562571D01*
X159572476Y-110320666D01*
X159524095Y-110127142D01*
X159475714Y-110030380D01*
X159427333Y-109982000D01*
X159330571Y-109933619D01*
X143014095Y-110411380D02*
X142965714Y-110363000D01*
X142868952Y-110314619D01*
X142627047Y-110314619D01*
X142530285Y-110363000D01*
X142481904Y-110411380D01*
X142433523Y-110508142D01*
X142433523Y-110604904D01*
X142481904Y-110750047D01*
X143062476Y-111330619D01*
X142433523Y-111330619D01*
X141804571Y-110314619D02*
X141707809Y-110314619D01*
X141611047Y-110363000D01*
X141562666Y-110411380D01*
X141514285Y-110508142D01*
X141465904Y-110701666D01*
X141465904Y-110943571D01*
X141514285Y-111137095D01*
X141562666Y-111233857D01*
X141611047Y-111282238D01*
X141707809Y-111330619D01*
X141804571Y-111330619D01*
X141901333Y-111282238D01*
X141949714Y-111233857D01*
X141998095Y-111137095D01*
X142046476Y-110943571D01*
X142046476Y-110701666D01*
X141998095Y-110508142D01*
X141949714Y-110411380D01*
X141901333Y-110363000D01*
X141804571Y-110314619D01*
D11*
X162215285Y-62066714D02*
X162650714Y-62066714D01*
X162433000Y-62066714D02*
X162433000Y-61304714D01*
X162505571Y-61413571D01*
X162578142Y-61486142D01*
X162650714Y-61522428D01*
X139482285Y-62066714D02*
X139917714Y-62066714D01*
X139700000Y-62066714D02*
X139700000Y-61304714D01*
X139772571Y-61413571D01*
X139845142Y-61486142D01*
X139917714Y-61522428D01*
D10*
X158496000Y-63246000D02*
X158496000Y-62738000D01*
X148844000Y-68326000D02*
X148209000Y-68961000D01*
X150368000Y-68326000D02*
X148844000Y-68326000D01*
X154970238Y-96048285D02*
X154776714Y-96725619D01*
X154583190Y-96241809D01*
X154389666Y-96725619D01*
X154196142Y-96048285D01*
X153905857Y-96048285D02*
X153712333Y-96725619D01*
X153518809Y-96241809D01*
X153325285Y-96725619D01*
X153131761Y-96048285D01*
X152841476Y-96048285D02*
X152647952Y-96725619D01*
X152454428Y-96241809D01*
X152260904Y-96725619D01*
X152067380Y-96048285D01*
X151680333Y-96628857D02*
X151631952Y-96677238D01*
X151680333Y-96725619D01*
X151728714Y-96677238D01*
X151680333Y-96628857D01*
X151680333Y-96725619D01*
X151051380Y-96725619D02*
X151148142Y-96677238D01*
X151196523Y-96628857D01*
X151244904Y-96532095D01*
X151244904Y-96241809D01*
X151196523Y-96145047D01*
X151148142Y-96096666D01*
X151051380Y-96048285D01*
X150906238Y-96048285D01*
X150809476Y-96096666D01*
X150761095Y-96145047D01*
X150712714Y-96241809D01*
X150712714Y-96532095D01*
X150761095Y-96628857D01*
X150809476Y-96677238D01*
X150906238Y-96725619D01*
X151051380Y-96725619D01*
X150132142Y-96725619D02*
X150228904Y-96677238D01*
X150277285Y-96580476D01*
X150277285Y-95709619D01*
X149745095Y-96725619D02*
X149745095Y-96048285D01*
X149745095Y-95709619D02*
X149793476Y-95758000D01*
X149745095Y-95806380D01*
X149696714Y-95758000D01*
X149745095Y-95709619D01*
X149745095Y-95806380D01*
X149261285Y-96725619D02*
X149261285Y-96048285D01*
X149261285Y-96145047D02*
X149212904Y-96096666D01*
X149116142Y-96048285D01*
X148971000Y-96048285D01*
X148874238Y-96096666D01*
X148825857Y-96193428D01*
X148825857Y-96725619D01*
X148825857Y-96193428D02*
X148777476Y-96096666D01*
X148680714Y-96048285D01*
X148535571Y-96048285D01*
X148438809Y-96096666D01*
X148390428Y-96193428D01*
X148390428Y-96725619D01*
X147519571Y-96677238D02*
X147616333Y-96725619D01*
X147809857Y-96725619D01*
X147906619Y-96677238D01*
X147955000Y-96580476D01*
X147955000Y-96193428D01*
X147906619Y-96096666D01*
X147809857Y-96048285D01*
X147616333Y-96048285D01*
X147519571Y-96096666D01*
X147471190Y-96193428D01*
X147471190Y-96290190D01*
X147955000Y-96386952D01*
X147132523Y-96725619D02*
X146600333Y-96048285D01*
X147132523Y-96048285D02*
X146600333Y-96725619D01*
X146213285Y-96628857D02*
X146164904Y-96677238D01*
X146213285Y-96725619D01*
X146261666Y-96677238D01*
X146213285Y-96628857D01*
X146213285Y-96725619D01*
X145294047Y-96677238D02*
X145390809Y-96725619D01*
X145584333Y-96725619D01*
X145681095Y-96677238D01*
X145729476Y-96628857D01*
X145777857Y-96532095D01*
X145777857Y-96241809D01*
X145729476Y-96145047D01*
X145681095Y-96096666D01*
X145584333Y-96048285D01*
X145390809Y-96048285D01*
X145294047Y-96096666D01*
X144713476Y-96725619D02*
X144810238Y-96677238D01*
X144858619Y-96628857D01*
X144907000Y-96532095D01*
X144907000Y-96241809D01*
X144858619Y-96145047D01*
X144810238Y-96096666D01*
X144713476Y-96048285D01*
X144568333Y-96048285D01*
X144471571Y-96096666D01*
X144423190Y-96145047D01*
X144374809Y-96241809D01*
X144374809Y-96532095D01*
X144423190Y-96628857D01*
X144471571Y-96677238D01*
X144568333Y-96725619D01*
X144713476Y-96725619D01*
X143939380Y-96725619D02*
X143939380Y-96048285D01*
X143939380Y-96145047D02*
X143891000Y-96096666D01*
X143794238Y-96048285D01*
X143649095Y-96048285D01*
X143552333Y-96096666D01*
X143503952Y-96193428D01*
X143503952Y-96725619D01*
X143503952Y-96193428D02*
X143455571Y-96096666D01*
X143358809Y-96048285D01*
X143213666Y-96048285D01*
X143116904Y-96096666D01*
X143068523Y-96193428D01*
X143068523Y-96725619D01*
X144888857Y-76502380D02*
X144937238Y-76454000D01*
X144985619Y-76308857D01*
X144985619Y-76212095D01*
X144937238Y-76066952D01*
X144840476Y-75970190D01*
X144743714Y-75921809D01*
X144550190Y-75873428D01*
X144405047Y-75873428D01*
X144211523Y-75921809D01*
X144114761Y-75970190D01*
X144018000Y-76066952D01*
X143969619Y-76212095D01*
X143969619Y-76308857D01*
X144018000Y-76454000D01*
X144066380Y-76502380D01*
X144985619Y-77082952D02*
X144937238Y-76986190D01*
X144888857Y-76937809D01*
X144792095Y-76889428D01*
X144501809Y-76889428D01*
X144405047Y-76937809D01*
X144356666Y-76986190D01*
X144308285Y-77082952D01*
X144308285Y-77228095D01*
X144356666Y-77324857D01*
X144405047Y-77373238D01*
X144501809Y-77421619D01*
X144792095Y-77421619D01*
X144888857Y-77373238D01*
X144937238Y-77324857D01*
X144985619Y-77228095D01*
X144985619Y-77082952D01*
X144985619Y-77857047D02*
X144308285Y-77857047D01*
X144405047Y-77857047D02*
X144356666Y-77905428D01*
X144308285Y-78002190D01*
X144308285Y-78147333D01*
X144356666Y-78244095D01*
X144453428Y-78292476D01*
X144985619Y-78292476D01*
X144453428Y-78292476D02*
X144356666Y-78340857D01*
X144308285Y-78437619D01*
X144308285Y-78582761D01*
X144356666Y-78679523D01*
X144453428Y-78727904D01*
X144985619Y-78727904D01*
X144308285Y-79211714D02*
X145324285Y-79211714D01*
X144356666Y-79211714D02*
X144308285Y-79308476D01*
X144308285Y-79502000D01*
X144356666Y-79598761D01*
X144405047Y-79647142D01*
X144501809Y-79695523D01*
X144792095Y-79695523D01*
X144888857Y-79647142D01*
X144937238Y-79598761D01*
X144985619Y-79502000D01*
X144985619Y-79308476D01*
X144937238Y-79211714D01*
X144985619Y-80276095D02*
X144937238Y-80179333D01*
X144840476Y-80130952D01*
X143969619Y-80130952D01*
X144985619Y-80663142D02*
X144308285Y-80663142D01*
X143969619Y-80663142D02*
X144018000Y-80614761D01*
X144066380Y-80663142D01*
X144018000Y-80711523D01*
X143969619Y-80663142D01*
X144066380Y-80663142D01*
X144985619Y-81582380D02*
X144453428Y-81582380D01*
X144356666Y-81534000D01*
X144308285Y-81437238D01*
X144308285Y-81243714D01*
X144356666Y-81146952D01*
X144937238Y-81582380D02*
X144985619Y-81485619D01*
X144985619Y-81243714D01*
X144937238Y-81146952D01*
X144840476Y-81098571D01*
X144743714Y-81098571D01*
X144646952Y-81146952D01*
X144598571Y-81243714D01*
X144598571Y-81485619D01*
X144550190Y-81582380D01*
X144308285Y-82066190D02*
X144985619Y-82066190D01*
X144405047Y-82066190D02*
X144356666Y-82114571D01*
X144308285Y-82211333D01*
X144308285Y-82356476D01*
X144356666Y-82453238D01*
X144453428Y-82501619D01*
X144985619Y-82501619D01*
X144308285Y-82840285D02*
X144308285Y-83227333D01*
X143969619Y-82985428D02*
X144840476Y-82985428D01*
X144937238Y-83033809D01*
X144985619Y-83130571D01*
X144985619Y-83227333D01*
X147283714Y-108663619D02*
X147864285Y-108663619D01*
X147574000Y-108663619D02*
X147574000Y-107647619D01*
X147670761Y-107792761D01*
X147767523Y-107889523D01*
X147864285Y-107937904D01*
X154407809Y-95334666D02*
X154456190Y-95286285D01*
X154552952Y-95141142D01*
X154601333Y-95044380D01*
X154649714Y-94899238D01*
X154698095Y-94657333D01*
X154698095Y-94463809D01*
X154649714Y-94221904D01*
X154601333Y-94076761D01*
X154552952Y-93980000D01*
X154456190Y-93834857D01*
X154407809Y-93786476D01*
X153585333Y-94899238D02*
X153682095Y-94947619D01*
X153875619Y-94947619D01*
X153972380Y-94899238D01*
X154020761Y-94850857D01*
X154069142Y-94754095D01*
X154069142Y-94463809D01*
X154020761Y-94367047D01*
X153972380Y-94318666D01*
X153875619Y-94270285D01*
X153682095Y-94270285D01*
X153585333Y-94318666D01*
X153246666Y-95334666D02*
X153198285Y-95286285D01*
X153101523Y-95141142D01*
X153053142Y-95044380D01*
X153004761Y-94899238D01*
X152956380Y-94657333D01*
X152956380Y-94463809D01*
X153004761Y-94221904D01*
X153053142Y-94076761D01*
X153101523Y-93980000D01*
X153198285Y-93834857D01*
X153246666Y-93786476D01*
X152520952Y-94028380D02*
X152472571Y-93980000D01*
X152375809Y-93931619D01*
X152133904Y-93931619D01*
X152037142Y-93980000D01*
X151988761Y-94028380D01*
X151940380Y-94125142D01*
X151940380Y-94221904D01*
X151988761Y-94367047D01*
X152569333Y-94947619D01*
X151940380Y-94947619D01*
X151311428Y-93931619D02*
X151214666Y-93931619D01*
X151117904Y-93980000D01*
X151069523Y-94028380D01*
X151021142Y-94125142D01*
X150972761Y-94318666D01*
X150972761Y-94560571D01*
X151021142Y-94754095D01*
X151069523Y-94850857D01*
X151117904Y-94899238D01*
X151214666Y-94947619D01*
X151311428Y-94947619D01*
X151408190Y-94899238D01*
X151456571Y-94850857D01*
X151504952Y-94754095D01*
X151553333Y-94560571D01*
X151553333Y-94318666D01*
X151504952Y-94125142D01*
X151456571Y-94028380D01*
X151408190Y-93980000D01*
X151311428Y-93931619D01*
X150585714Y-94028380D02*
X150537333Y-93980000D01*
X150440571Y-93931619D01*
X150198666Y-93931619D01*
X150101904Y-93980000D01*
X150053523Y-94028380D01*
X150005142Y-94125142D01*
X150005142Y-94221904D01*
X150053523Y-94367047D01*
X150634095Y-94947619D01*
X150005142Y-94947619D01*
X149618095Y-94028380D02*
X149569714Y-93980000D01*
X149472952Y-93931619D01*
X149231047Y-93931619D01*
X149134285Y-93980000D01*
X149085904Y-94028380D01*
X149037523Y-94125142D01*
X149037523Y-94221904D01*
X149085904Y-94367047D01*
X149666476Y-94947619D01*
X149037523Y-94947619D01*
X143080619Y-76562857D02*
X142596809Y-76224190D01*
X143080619Y-75982285D02*
X142064619Y-75982285D01*
X142064619Y-76369333D01*
X142113000Y-76466095D01*
X142161380Y-76514476D01*
X142258142Y-76562857D01*
X142403285Y-76562857D01*
X142500047Y-76514476D01*
X142548428Y-76466095D01*
X142596809Y-76369333D01*
X142596809Y-75982285D01*
X143080619Y-77143428D02*
X143032238Y-77046666D01*
X142983857Y-76998285D01*
X142887095Y-76949904D01*
X142596809Y-76949904D01*
X142500047Y-76998285D01*
X142451666Y-77046666D01*
X142403285Y-77143428D01*
X142403285Y-77288571D01*
X142451666Y-77385333D01*
X142500047Y-77433714D01*
X142596809Y-77482095D01*
X142887095Y-77482095D01*
X142983857Y-77433714D01*
X143032238Y-77385333D01*
X143080619Y-77288571D01*
X143080619Y-77143428D01*
X143080619Y-77917523D02*
X142064619Y-77917523D01*
X142548428Y-77917523D02*
X142548428Y-78498095D01*
X143080619Y-78498095D02*
X142064619Y-78498095D01*
X143032238Y-78933523D02*
X143080619Y-79078666D01*
X143080619Y-79320571D01*
X143032238Y-79417333D01*
X142983857Y-79465714D01*
X142887095Y-79514095D01*
X142790333Y-79514095D01*
X142693571Y-79465714D01*
X142645190Y-79417333D01*
X142596809Y-79320571D01*
X142548428Y-79127047D01*
X142500047Y-79030285D01*
X142451666Y-78981904D01*
X142354904Y-78933523D01*
X142258142Y-78933523D01*
X142161380Y-78981904D01*
X142113000Y-79030285D01*
X142064619Y-79127047D01*
X142064619Y-79368952D01*
X142113000Y-79514095D01*
X140970000Y-103124000D02*
X140716000Y-102870000D01*
X138684000Y-102870000D02*
X138430000Y-103124000D01*
X138430000Y-103124000D02*
X138430000Y-105156000D01*
X138430000Y-107696000D02*
X138684000Y-107950000D01*
X140970000Y-105156000D02*
X140970000Y-103124000D01*
X140716000Y-107950000D02*
X140970000Y-107696000D01*
X138430000Y-105664000D02*
X138430000Y-107696000D01*
X138684000Y-105410000D02*
X138430000Y-105664000D01*
X140970000Y-107696000D02*
X140970000Y-105664000D01*
X140716000Y-105410000D02*
X140970000Y-105156000D01*
X140970000Y-105664000D02*
X140716000Y-105410000D01*
X138430000Y-105156000D02*
X138684000Y-105410000D01*
X138430000Y-107696000D02*
X138684000Y-107950000D01*
X140716000Y-107950000D02*
X140970000Y-107696000D01*
X140970000Y-107696000D02*
X140970000Y-105664000D01*
X138430000Y-105664000D02*
X138430000Y-107696000D01*
X138684000Y-105410000D02*
X138430000Y-105664000D01*
X140970000Y-105664000D02*
X140716000Y-105410000D01*
X140970000Y-110744000D02*
X140716000Y-110490000D01*
X138684000Y-110490000D02*
X138430000Y-110744000D01*
X138430000Y-110744000D02*
X138430000Y-112776000D01*
X140970000Y-112776000D02*
X140970000Y-110744000D01*
X138430000Y-110236000D02*
X138684000Y-110490000D01*
X140970000Y-110744000D02*
X140716000Y-110490000D01*
X140716000Y-110490000D02*
X140970000Y-110236000D01*
X140970000Y-112776000D02*
X140970000Y-110744000D01*
X138684000Y-110490000D02*
X138430000Y-110744000D01*
X138430000Y-110744000D02*
X138430000Y-112776000D01*
X140970000Y-110236000D02*
X140970000Y-108204000D01*
X138430000Y-108204000D02*
X138430000Y-110236000D01*
X138684000Y-107950000D02*
X138430000Y-108204000D01*
X140970000Y-108204000D02*
X140716000Y-107950000D01*
X140970000Y-98044000D02*
X140716000Y-97790000D01*
X138684000Y-97790000D02*
X138430000Y-98044000D01*
X138430000Y-98044000D02*
X138430000Y-100076000D01*
X138430000Y-102616000D02*
X138684000Y-102870000D01*
X140970000Y-100076000D02*
X140970000Y-98044000D01*
X140716000Y-102870000D02*
X140970000Y-102616000D01*
X138430000Y-100584000D02*
X138430000Y-102616000D01*
X138684000Y-100330000D02*
X138430000Y-100584000D01*
X140970000Y-102616000D02*
X140970000Y-100584000D01*
X140716000Y-100330000D02*
X140970000Y-100076000D01*
X140970000Y-100584000D02*
X140716000Y-100330000D01*
X138430000Y-100076000D02*
X138684000Y-100330000D01*
X138430000Y-102616000D02*
X138684000Y-102870000D01*
X140716000Y-102870000D02*
X140970000Y-102616000D01*
X140970000Y-102616000D02*
X140970000Y-100584000D01*
X138430000Y-100584000D02*
X138430000Y-102616000D01*
X138684000Y-100330000D02*
X138430000Y-100584000D01*
X140970000Y-100584000D02*
X140716000Y-100330000D01*
X140970000Y-95504000D02*
X140716000Y-95250000D01*
X138684000Y-95250000D02*
X138430000Y-95504000D01*
X138430000Y-95504000D02*
X138430000Y-97536000D01*
X140970000Y-97536000D02*
X140970000Y-95504000D01*
X140716000Y-97790000D02*
X140970000Y-97536000D01*
X138430000Y-97536000D02*
X138684000Y-97790000D01*
X138430000Y-94996000D02*
X138684000Y-95250000D01*
X140970000Y-95504000D02*
X140716000Y-95250000D01*
X140716000Y-95250000D02*
X140970000Y-94996000D01*
X140970000Y-97536000D02*
X140970000Y-95504000D01*
X138684000Y-95250000D02*
X138430000Y-95504000D01*
X138430000Y-95504000D02*
X138430000Y-97536000D01*
X140716000Y-97790000D02*
X140970000Y-97536000D01*
X140970000Y-94996000D02*
X140970000Y-92964000D01*
X138430000Y-97536000D02*
X138684000Y-97790000D01*
X138430000Y-92964000D02*
X138430000Y-94996000D01*
X138684000Y-92710000D02*
X138430000Y-92964000D01*
X140970000Y-92964000D02*
X140716000Y-92710000D01*
X140970000Y-87884000D02*
X140716000Y-87630000D01*
X138684000Y-87630000D02*
X138430000Y-87884000D01*
X138430000Y-87884000D02*
X138430000Y-89916000D01*
X138430000Y-92456000D02*
X138684000Y-92710000D01*
X140970000Y-89916000D02*
X140970000Y-87884000D01*
X140716000Y-92710000D02*
X140970000Y-92456000D01*
X138430000Y-90424000D02*
X138430000Y-92456000D01*
X138684000Y-90170000D02*
X138430000Y-90424000D01*
X140970000Y-92456000D02*
X140970000Y-90424000D01*
X140716000Y-90170000D02*
X140970000Y-89916000D01*
X140970000Y-90424000D02*
X140716000Y-90170000D01*
X138430000Y-89916000D02*
X138684000Y-90170000D01*
X138430000Y-92456000D02*
X138684000Y-92710000D01*
X140716000Y-92710000D02*
X140970000Y-92456000D01*
X140970000Y-92456000D02*
X140970000Y-90424000D01*
X138430000Y-90424000D02*
X138430000Y-92456000D01*
X138684000Y-90170000D02*
X138430000Y-90424000D01*
X140970000Y-90424000D02*
X140716000Y-90170000D01*
X140970000Y-85344000D02*
X140716000Y-85090000D01*
X138684000Y-85090000D02*
X138430000Y-85344000D01*
X138430000Y-85344000D02*
X138430000Y-87376000D01*
X140970000Y-87376000D02*
X140970000Y-85344000D01*
X140716000Y-87630000D02*
X140970000Y-87376000D01*
X138430000Y-87376000D02*
X138684000Y-87630000D01*
X138430000Y-84836000D02*
X138684000Y-85090000D01*
X140970000Y-85344000D02*
X140716000Y-85090000D01*
X140716000Y-85090000D02*
X140970000Y-84836000D01*
X140970000Y-87376000D02*
X140970000Y-85344000D01*
X138684000Y-85090000D02*
X138430000Y-85344000D01*
X138430000Y-85344000D02*
X138430000Y-87376000D01*
X140716000Y-87630000D02*
X140970000Y-87376000D01*
X140970000Y-84836000D02*
X140970000Y-82804000D01*
X138430000Y-87376000D02*
X138684000Y-87630000D01*
X138430000Y-82804000D02*
X138430000Y-84836000D01*
X138684000Y-82550000D02*
X138430000Y-82804000D01*
X140970000Y-82804000D02*
X140716000Y-82550000D01*
X140970000Y-77724000D02*
X140716000Y-77470000D01*
X138684000Y-77470000D02*
X138430000Y-77724000D01*
X138430000Y-77724000D02*
X138430000Y-79756000D01*
X138430000Y-82296000D02*
X138684000Y-82550000D01*
X140970000Y-79756000D02*
X140970000Y-77724000D01*
X140716000Y-82550000D02*
X140970000Y-82296000D01*
X138430000Y-80264000D02*
X138430000Y-82296000D01*
X138684000Y-80010000D02*
X138430000Y-80264000D01*
X140970000Y-82296000D02*
X140970000Y-80264000D01*
X140716000Y-80010000D02*
X140970000Y-79756000D01*
X140970000Y-80264000D02*
X140716000Y-80010000D01*
X138430000Y-79756000D02*
X138684000Y-80010000D01*
X138430000Y-82296000D02*
X138684000Y-82550000D01*
X140716000Y-82550000D02*
X140970000Y-82296000D01*
X140970000Y-82296000D02*
X140970000Y-80264000D01*
X138430000Y-80264000D02*
X138430000Y-82296000D01*
X138684000Y-80010000D02*
X138430000Y-80264000D01*
X140970000Y-80264000D02*
X140716000Y-80010000D01*
X140970000Y-75184000D02*
X140716000Y-74930000D01*
X138684000Y-74930000D02*
X138430000Y-75184000D01*
X138430000Y-75184000D02*
X138430000Y-77216000D01*
X140970000Y-77216000D02*
X140970000Y-75184000D01*
X140716000Y-77470000D02*
X140970000Y-77216000D01*
X138430000Y-77216000D02*
X138684000Y-77470000D01*
X138430000Y-74676000D02*
X138684000Y-74930000D01*
X140970000Y-75184000D02*
X140716000Y-74930000D01*
X140716000Y-74930000D02*
X140970000Y-74676000D01*
X140970000Y-77216000D02*
X140970000Y-75184000D01*
X138684000Y-74930000D02*
X138430000Y-75184000D01*
X138430000Y-75184000D02*
X138430000Y-77216000D01*
X140716000Y-77470000D02*
X140970000Y-77216000D01*
X140970000Y-70104000D02*
X140716000Y-69850000D01*
X140970000Y-74676000D02*
X140970000Y-72644000D01*
X138430000Y-77216000D02*
X138684000Y-77470000D01*
X138430000Y-72644000D02*
X138430000Y-74676000D01*
X138684000Y-72390000D02*
X138430000Y-72644000D01*
X138430000Y-62230000D02*
X138430000Y-62484000D01*
X138430000Y-62484000D02*
X138430000Y-64516000D01*
X138430000Y-64516000D02*
X138684000Y-64770000D01*
X138684000Y-64770000D02*
X138430000Y-65024000D01*
X138430000Y-65024000D02*
X138430000Y-67056000D01*
X138430000Y-67056000D02*
X138684000Y-67310000D01*
X138684000Y-67310000D02*
X138430000Y-67564000D01*
X138430000Y-67564000D02*
X138430000Y-69596000D01*
X138430000Y-69596000D02*
X138684000Y-69850000D01*
X138684000Y-69850000D02*
X138430000Y-70104000D01*
X138430000Y-70104000D02*
X138430000Y-72136000D01*
X138430000Y-72136000D02*
X138684000Y-72390000D01*
X140716000Y-72390000D02*
X140970000Y-72136000D01*
X140970000Y-72136000D02*
X140970000Y-70104000D01*
X140970000Y-72644000D02*
X140716000Y-72390000D01*
X140716000Y-69850000D02*
X140970000Y-69596000D01*
X140970000Y-69596000D02*
X140970000Y-67564000D01*
X138684000Y-62230000D02*
X138430000Y-62484000D01*
X140970000Y-62484000D02*
X140716000Y-62230000D01*
X140970000Y-62738000D02*
X140970000Y-62230000D01*
X140970000Y-67056000D02*
X140970000Y-65024000D01*
X140970000Y-65024000D02*
X140716000Y-64770000D01*
X140716000Y-64770000D02*
X140970000Y-64516000D01*
X140970000Y-64516000D02*
X140970000Y-62738000D01*
X140970000Y-67056000D02*
X140716000Y-67310000D01*
X140716000Y-67310000D02*
X140970000Y-67564000D01*
X138430000Y-62230000D02*
X140970000Y-62230000D01*
X144080000Y-101357000D02*
G75*
G03X144080000Y-99557000I0J900000D01*
G01*
D12*
X144101940Y-101225221D02*
G75*
G03X144180000Y-99695000I-21940J768221D01*
G01*
D10*
X144080000Y-101157000D02*
G75*
G03X144080000Y-99757000I0J700000D01*
G01*
D12*
X145543500Y-101219000D02*
G75*
G03X145543500Y-99695000I-63500J762000D01*
G01*
D10*
X145480000Y-101357000D02*
G75*
G03X145480000Y-99557000I0J900000D01*
G01*
X145480000Y-101157000D02*
G75*
G03X145480000Y-99757000I0J700000D01*
G01*
X144280000Y-100457000D02*
X144780000Y-100457000D01*
X144280000Y-100357000D02*
X144280000Y-100557000D01*
X145480000Y-99557000D02*
X145480000Y-99757000D01*
X145480000Y-101157000D02*
X145480000Y-101357000D01*
X144080000Y-101157000D02*
X144080000Y-101357000D01*
X144080000Y-99557000D02*
X144080000Y-99757000D01*
X144280000Y-100557000D02*
X144780000Y-100557000D01*
X144280000Y-100357000D02*
X144780000Y-100357000D01*
X151452580Y-86598760D02*
X149524720Y-89943940D01*
X153509980Y-90309700D02*
X149745700Y-90307160D01*
X153807160Y-90027760D02*
X151828500Y-86603840D01*
X151493220Y-86547960D02*
G75*
G02X151782780Y-86547960I144780J-144780D01*
G01*
X153809700Y-90063320D02*
G75*
G02X153588720Y-90304620I-231140J-10160D01*
G01*
X149738080Y-90307160D02*
G75*
G02X149514560Y-90012520I35560J259080D01*
G01*
D13*
X151452580Y-89275920D02*
X151574500Y-89364820D01*
X151574500Y-89364820D02*
X151630380Y-89413080D01*
X151630380Y-89413080D02*
X151714200Y-89507060D01*
X151790400Y-89623900D02*
X152036780Y-90040460D01*
X151714200Y-89507060D02*
X151790400Y-89623900D01*
X152036780Y-90040460D02*
X152115520Y-90027760D01*
X152118060Y-90027760D02*
X152151080Y-90007440D01*
X152156160Y-90002360D02*
X152173940Y-89980750D01*
X152173940Y-89979500D02*
X152191720Y-89931240D01*
X152191720Y-89931240D02*
X152201980Y-89857580D01*
X152201880Y-89857580D02*
X152204420Y-89730580D01*
X152204420Y-89730580D02*
X152189180Y-89595960D01*
X152189180Y-89595960D02*
X152156160Y-89474040D01*
X152156160Y-89468960D02*
X152112980Y-89380060D01*
X152112980Y-89380060D02*
X152059640Y-89301320D01*
X152059640Y-89301320D02*
X151813260Y-89077800D01*
X151815800Y-89080340D02*
X152311100Y-88775540D01*
X152311100Y-88775540D02*
X152389840Y-88915240D01*
X152389840Y-88915240D02*
X152473660Y-89039700D01*
X152473660Y-89039700D02*
X152476200Y-89098120D01*
X152478740Y-89098120D02*
X152463500Y-89166700D01*
X152463500Y-89166700D02*
X152476200Y-89453720D01*
X152476200Y-89453720D02*
X152445720Y-89512140D01*
X152445720Y-89512140D02*
X152415240Y-89595960D01*
X152415240Y-89595960D02*
X152392380Y-89720420D01*
X152392380Y-89720420D02*
X152384760Y-89832180D01*
X152384760Y-89832180D02*
X152400000Y-89946480D01*
X152400000Y-89946480D02*
X152430480Y-90015060D01*
X152430480Y-90015060D02*
X152471120Y-90048080D01*
X152471120Y-90048080D02*
X152511760Y-90058240D01*
X152511760Y-90058240D02*
X152552400Y-90043000D01*
X152557480Y-90040460D02*
X152585420Y-90009980D01*
X152585420Y-90009980D02*
X152872440Y-89194640D01*
X152874980Y-89197180D02*
X152887680Y-89136220D01*
X152887680Y-89133680D02*
X152887680Y-89019380D01*
X152887680Y-89016840D02*
X152872440Y-88925400D01*
X152872440Y-88922000D02*
X152803860Y-88782000D01*
X152803860Y-88785700D02*
X152671780Y-88582500D01*
X152473660Y-88262460D02*
X152379680Y-88143080D01*
X152379680Y-88143080D02*
X152336500Y-88097360D01*
X152333960Y-88094820D02*
X152300940Y-88071960D01*
X152300940Y-88071960D02*
X152229820Y-88051640D01*
X152229820Y-88051640D02*
X151566880Y-87962740D01*
X151566880Y-87962740D02*
X151295100Y-87914480D01*
X151292560Y-87917020D02*
X151178260Y-87868760D01*
X151178260Y-87868760D02*
X151005540Y-87759540D01*
X151000460Y-87759540D02*
X150596600Y-88458040D01*
X150596600Y-88458040D02*
X150728680Y-88579960D01*
X150731220Y-88582500D02*
X150830280Y-88724740D01*
X150936960Y-88833960D02*
X151147780Y-89032080D01*
X150825200Y-88722200D02*
X150939500Y-88836500D01*
D10*
X152323800Y-88239600D02*
X151180800Y-88905080D01*
X152118060Y-88173560D02*
X151094440Y-88811100D01*
X151846280Y-88104980D02*
X150957280Y-88679020D01*
X151544020Y-88069420D02*
X150845520Y-88529160D01*
X151279860Y-88026240D02*
X150743920Y-88412320D01*
X151124920Y-87960200D02*
X150898860Y-88150700D01*
X152227280Y-88171020D02*
X151249380Y-88026240D01*
X151041100Y-87909400D02*
X150860760Y-88206580D01*
X150865840Y-88531700D02*
X151043640Y-88752680D01*
X152557480Y-88615520D02*
X152758140Y-88991440D01*
X152402540Y-88666320D02*
X152689560Y-89105740D01*
X152786080Y-89070180D02*
X152514300Y-89903300D01*
X152590500Y-89027000D02*
X152608280Y-89428320D01*
X152608280Y-89435940D02*
X152516840Y-89761060D01*
X152062180Y-89664540D02*
X152082500Y-89913460D01*
X151988520Y-89420700D02*
X152062180Y-89664540D01*
X151632920Y-89095580D02*
X151988520Y-89420700D01*
X151884380Y-89522300D02*
X151577040Y-89197180D01*
X152082500Y-89913460D02*
X151884380Y-89522300D01*
X152758140Y-88214200D02*
X149545040Y-90154760D01*
X152544780Y-88496140D02*
X151439880Y-89161620D01*
X152221037Y-64449960D02*
G75*
G03X152221037Y-64449960I-1802237J0D01*
G01*
D14*
X149258020Y-65613280D02*
X151691340Y-63192660D01*
D15*
X156420820Y-82598260D02*
X155869640Y-81175860D01*
D16*
X156766260Y-82412840D02*
X156448760Y-82618580D01*
D17*
X157556200Y-82961480D02*
X156776420Y-82430620D01*
D18*
X158132780Y-82423000D02*
X157568900Y-82961480D01*
D16*
X158117540Y-82423000D02*
X157584140Y-81589880D01*
X157942280Y-80662780D02*
X157584140Y-81546700D01*
X158920180Y-80421480D02*
X157970220Y-80639920D01*
D18*
X158910020Y-79644240D02*
X158915100Y-80431640D01*
D16*
X158922720Y-79631540D02*
X157904180Y-79451200D01*
X157873700Y-79415640D02*
X157525720Y-78549500D01*
X158102300Y-77647800D02*
X157546040Y-78498700D01*
D18*
X158112460Y-77624940D02*
X157612080Y-77091540D01*
D16*
X157563820Y-77066140D02*
X156735780Y-77718920D01*
X156674820Y-77708760D02*
X155829000Y-77302360D01*
X155569920Y-76268580D02*
X155775660Y-77282040D01*
X155577540Y-76255880D02*
X154792680Y-76255880D01*
X154810460Y-76276200D02*
X154597100Y-77294740D01*
X154597100Y-77294740D02*
X153695400Y-77744320D01*
X153682700Y-77739240D02*
X152778460Y-77104800D01*
X152778460Y-77106780D02*
X152224740Y-77652880D01*
X152224740Y-77655420D02*
X152841960Y-78445360D01*
X152841960Y-78445360D02*
X152501600Y-79382620D01*
X152501600Y-79382620D02*
X151419560Y-79611220D01*
X151419560Y-79611220D02*
X151419560Y-80446880D01*
X151419560Y-80446880D02*
X152433020Y-80617060D01*
X152433020Y-80617060D02*
X152839420Y-81528920D01*
X152788620Y-82976720D02*
X153624280Y-82410300D01*
X153624280Y-82410300D02*
X153962100Y-82595720D01*
X153962100Y-82595720D02*
X154536140Y-81155540D01*
X154525980Y-81153000D02*
G75*
G02X154155140Y-79288640I746760J1117600D01*
G01*
X154144980Y-79303880D02*
G75*
G02X156070300Y-79105760I1061720J-863600D01*
G01*
X156095700Y-79131160D02*
G75*
G02X156019500Y-80985360I-965200J-889000D01*
G01*
X152839420Y-81528920D02*
X152219660Y-82415380D01*
X152773380Y-82969100D02*
X152219660Y-82423000D01*
D19*
X156339540Y-82778600D02*
X155689300Y-81109820D01*
X156723080Y-82575400D02*
X156377640Y-82796380D01*
X156735780Y-82565240D02*
X157561280Y-83129120D01*
X157568900Y-83136740D02*
X158290260Y-82443320D01*
X158297880Y-82440780D02*
X157700980Y-81577180D01*
X159059880Y-80533240D02*
X157988000Y-80728820D01*
X159059880Y-79540100D02*
X159059880Y-80525620D01*
X159062420Y-79537560D02*
X157891480Y-79334360D01*
X157993080Y-79339440D02*
X157657800Y-78506320D01*
X158254700Y-77655420D02*
X157660340Y-78508860D01*
X158275020Y-77619860D02*
X157601920Y-76906120D01*
X157589220Y-76903580D02*
X156618940Y-77619860D01*
X156654500Y-77551280D02*
X155750260Y-77172820D01*
X155666440Y-76156820D02*
X155867100Y-77182980D01*
X155656280Y-76149200D02*
X154691080Y-76149200D01*
X154691080Y-76149200D02*
X154465020Y-77320140D01*
X154475180Y-77238860D02*
X153670000Y-77576680D01*
X153789380Y-77624940D02*
X152778460Y-76951840D01*
X152773380Y-76949300D02*
X152079960Y-77640180D01*
X152074880Y-77647800D02*
X152778460Y-78638400D01*
X152689560Y-78529180D02*
X152323800Y-79397860D01*
X151386540Y-80299560D02*
X152493980Y-80523080D01*
X151302720Y-79557880D02*
X151305260Y-80515460D01*
X152440640Y-80746600D02*
X151317960Y-80535780D01*
X152336500Y-80713580D02*
X152717500Y-81694020D01*
X152369520Y-82349340D02*
X152854660Y-82880200D01*
X152765760Y-83124040D02*
X152082500Y-82433160D01*
X153652220Y-82509360D02*
X152775920Y-83129120D01*
X152788620Y-82814160D02*
X153609040Y-82285840D01*
X153471880Y-82481420D02*
X154000200Y-82809080D01*
X154000200Y-82809080D02*
X154386280Y-81828640D01*
X154391360Y-81130140D02*
X153863040Y-82511900D01*
X158767780Y-79728060D02*
X158767780Y-80378300D01*
X158910020Y-79783940D02*
X157794960Y-79537560D01*
X157380940Y-78516480D02*
X157767020Y-79514700D01*
X157375860Y-78521560D02*
X157977840Y-77612240D01*
X157619700Y-77167740D02*
X156735780Y-77889100D01*
X154348180Y-81188560D02*
X154170380Y-81066640D01*
X154170380Y-81066640D02*
X153794460Y-80355440D01*
X153794460Y-80355440D02*
X153794460Y-79837280D01*
X153789380Y-79849980D02*
X154023060Y-79176880D01*
X154023060Y-79176880D02*
X154533600Y-78747620D01*
X154533600Y-78747620D02*
X155348940Y-78587600D01*
X155348940Y-78579980D02*
X156220160Y-79009240D01*
X156220160Y-79009240D02*
X156639260Y-79740760D01*
X156644340Y-79745840D02*
X156512260Y-80568800D01*
X156507180Y-80599280D02*
X156413200Y-80769460D01*
X156507180Y-80599280D02*
X156413200Y-80769460D01*
X156283660Y-80820260D02*
X156024580Y-81158080D01*
X155915360Y-80934560D02*
X155689300Y-81109820D01*
X154414220Y-80937100D02*
X154668220Y-81102200D01*
X154551380Y-81391760D02*
X154673300Y-81107280D01*
X156730700Y-77886560D02*
X155747720Y-77393800D01*
X156400500Y-80799940D02*
X156093160Y-81066640D01*
D20*
X157416500Y-82229960D02*
X156563060Y-81208880D01*
X158452820Y-80025240D02*
X157035500Y-79964280D01*
X157467300Y-77739240D02*
X156405580Y-78846680D01*
X155206700Y-76763880D02*
X155201620Y-78277720D01*
X152941020Y-77820520D02*
X154053540Y-78887320D01*
X151950420Y-80004920D02*
X153418540Y-80091280D01*
X156740860Y-82057240D02*
X156375100Y-81295240D01*
X157406340Y-81158080D02*
X156842460Y-80678020D01*
X157655260Y-80512920D02*
X156949140Y-80385920D01*
X157330140Y-79268320D02*
X156888180Y-79428340D01*
X157154880Y-78788260D02*
X156697680Y-79077820D01*
X156156660Y-78011020D02*
X155981400Y-78369160D01*
X155722320Y-77751940D02*
X155554680Y-78361540D01*
X154457400Y-77767180D02*
X154678380Y-78452980D01*
X153870660Y-78018640D02*
X154289760Y-78605380D01*
X153001980Y-78887320D02*
X153657300Y-79253080D01*
X152760680Y-79580740D02*
X153482040Y-79728060D01*
X153596340Y-80738980D02*
X152986740Y-80845660D01*
X153916380Y-81158080D02*
X153299160Y-81485740D01*
X154030680Y-81295240D02*
X152849580Y-82308700D01*
X154030680Y-81203800D02*
X153697940Y-81935320D01*
D10*
X152527000Y-99110800D02*
X152527000Y-98399600D01*
X153365200Y-98399600D02*
X152527000Y-98399600D01*
X153365200Y-101244400D02*
X152527000Y-101244400D01*
X152527000Y-101244400D02*
X152527000Y-100533200D01*
X146875500Y-82677000D02*
X146875500Y-82423000D01*
X146875500Y-82677000D02*
X146875500Y-82931000D01*
X147764500Y-82677000D02*
X147764500Y-82931000D01*
X147764500Y-82677000D02*
X147764500Y-82423000D01*
X151456000Y-71708000D02*
X151456000Y-69008000D01*
X154646000Y-71708000D02*
X149646000Y-71708000D01*
X151016000Y-71708000D02*
X151016000Y-69008000D01*
X149646000Y-69008000D02*
X154646000Y-69008000D01*
X148082000Y-80391000D02*
X147066000Y-80391000D01*
X148082000Y-78867000D02*
X147066000Y-78867000D01*
X148463000Y-72517000D02*
X149479000Y-72517000D01*
X148463000Y-74041000D02*
X149479000Y-74041000D01*
X156718000Y-89789000D02*
X157734000Y-89789000D01*
X156718000Y-91313000D02*
X157734000Y-91313000D01*
X163830000Y-103124000D02*
X163576000Y-102870000D01*
X161544000Y-102870000D02*
X161290000Y-103124000D01*
X161290000Y-103124000D02*
X161290000Y-105156000D01*
X161290000Y-107696000D02*
X161544000Y-107950000D01*
X163830000Y-105156000D02*
X163830000Y-103124000D01*
X163576000Y-107950000D02*
X163830000Y-107696000D01*
X161290000Y-105664000D02*
X161290000Y-107696000D01*
X161544000Y-105410000D02*
X161290000Y-105664000D01*
X163830000Y-107696000D02*
X163830000Y-105664000D01*
X163576000Y-105410000D02*
X163830000Y-105156000D01*
X163830000Y-105664000D02*
X163576000Y-105410000D01*
X161290000Y-105156000D02*
X161544000Y-105410000D01*
X161290000Y-107696000D02*
X161544000Y-107950000D01*
X163576000Y-107950000D02*
X163830000Y-107696000D01*
X163830000Y-107696000D02*
X163830000Y-105664000D01*
X161290000Y-105664000D02*
X161290000Y-107696000D01*
X161544000Y-105410000D02*
X161290000Y-105664000D01*
X163830000Y-105664000D02*
X163576000Y-105410000D01*
X163830000Y-110744000D02*
X163576000Y-110490000D01*
X161544000Y-110490000D02*
X161290000Y-110744000D01*
X161290000Y-110744000D02*
X161290000Y-112776000D01*
X163830000Y-112776000D02*
X163830000Y-110744000D01*
X163576000Y-113030000D02*
X163830000Y-112776000D01*
X161290000Y-112776000D02*
X161544000Y-113030000D01*
X161290000Y-110236000D02*
X161544000Y-110490000D01*
X163830000Y-110744000D02*
X163576000Y-110490000D01*
X163576000Y-110490000D02*
X163830000Y-110236000D01*
X163830000Y-112776000D02*
X163830000Y-110744000D01*
X161544000Y-110490000D02*
X161290000Y-110744000D01*
X161290000Y-110744000D02*
X161290000Y-112776000D01*
X161544000Y-113030000D02*
X163576000Y-113030000D01*
X163576000Y-113030000D02*
X163830000Y-112776000D01*
X163830000Y-110236000D02*
X163830000Y-108204000D01*
X161290000Y-112776000D02*
X161544000Y-113030000D01*
X161290000Y-108204000D02*
X161290000Y-110236000D01*
X161544000Y-107950000D02*
X161290000Y-108204000D01*
X163830000Y-108204000D02*
X163576000Y-107950000D01*
X163830000Y-98044000D02*
X163576000Y-97790000D01*
X161544000Y-97790000D02*
X161290000Y-98044000D01*
X161290000Y-98044000D02*
X161290000Y-100076000D01*
X161290000Y-102616000D02*
X161544000Y-102870000D01*
X163830000Y-100076000D02*
X163830000Y-98044000D01*
X163576000Y-102870000D02*
X163830000Y-102616000D01*
X161290000Y-100584000D02*
X161290000Y-102616000D01*
X161544000Y-100330000D02*
X161290000Y-100584000D01*
X163830000Y-102616000D02*
X163830000Y-100584000D01*
X163576000Y-100330000D02*
X163830000Y-100076000D01*
X163830000Y-100584000D02*
X163576000Y-100330000D01*
X161290000Y-100076000D02*
X161544000Y-100330000D01*
X161290000Y-102616000D02*
X161544000Y-102870000D01*
X163576000Y-102870000D02*
X163830000Y-102616000D01*
X163830000Y-102616000D02*
X163830000Y-100584000D01*
X161290000Y-100584000D02*
X161290000Y-102616000D01*
X161544000Y-100330000D02*
X161290000Y-100584000D01*
X163830000Y-100584000D02*
X163576000Y-100330000D01*
X163830000Y-95504000D02*
X163576000Y-95250000D01*
X161544000Y-95250000D02*
X161290000Y-95504000D01*
X161290000Y-95504000D02*
X161290000Y-97536000D01*
X163830000Y-97536000D02*
X163830000Y-95504000D01*
X163576000Y-97790000D02*
X163830000Y-97536000D01*
X161290000Y-97536000D02*
X161544000Y-97790000D01*
X161290000Y-94996000D02*
X161544000Y-95250000D01*
X163830000Y-95504000D02*
X163576000Y-95250000D01*
X163576000Y-95250000D02*
X163830000Y-94996000D01*
X163830000Y-97536000D02*
X163830000Y-95504000D01*
X161544000Y-95250000D02*
X161290000Y-95504000D01*
X161290000Y-95504000D02*
X161290000Y-97536000D01*
X163576000Y-97790000D02*
X163830000Y-97536000D01*
X163830000Y-94996000D02*
X163830000Y-92964000D01*
X161290000Y-97536000D02*
X161544000Y-97790000D01*
X161290000Y-92964000D02*
X161290000Y-94996000D01*
X161544000Y-92710000D02*
X161290000Y-92964000D01*
X163830000Y-92964000D02*
X163576000Y-92710000D01*
X163830000Y-87884000D02*
X163576000Y-87630000D01*
X161544000Y-87630000D02*
X161290000Y-87884000D01*
X161290000Y-87884000D02*
X161290000Y-89916000D01*
X161290000Y-92456000D02*
X161544000Y-92710000D01*
X163830000Y-89916000D02*
X163830000Y-87884000D01*
X163576000Y-92710000D02*
X163830000Y-92456000D01*
X161290000Y-90424000D02*
X161290000Y-92456000D01*
X161544000Y-90170000D02*
X161290000Y-90424000D01*
X163830000Y-92456000D02*
X163830000Y-90424000D01*
X163576000Y-90170000D02*
X163830000Y-89916000D01*
X163830000Y-90424000D02*
X163576000Y-90170000D01*
X161290000Y-89916000D02*
X161544000Y-90170000D01*
X161290000Y-92456000D02*
X161544000Y-92710000D01*
X163576000Y-92710000D02*
X163830000Y-92456000D01*
X163830000Y-92456000D02*
X163830000Y-90424000D01*
X161290000Y-90424000D02*
X161290000Y-92456000D01*
X161544000Y-90170000D02*
X161290000Y-90424000D01*
X163830000Y-90424000D02*
X163576000Y-90170000D01*
X163830000Y-85344000D02*
X163576000Y-85090000D01*
X161544000Y-85090000D02*
X161290000Y-85344000D01*
X161290000Y-85344000D02*
X161290000Y-87376000D01*
X163830000Y-87376000D02*
X163830000Y-85344000D01*
X163576000Y-87630000D02*
X163830000Y-87376000D01*
X161290000Y-87376000D02*
X161544000Y-87630000D01*
X161290000Y-84836000D02*
X161544000Y-85090000D01*
X163830000Y-85344000D02*
X163576000Y-85090000D01*
X163576000Y-85090000D02*
X163830000Y-84836000D01*
X163830000Y-87376000D02*
X163830000Y-85344000D01*
X161544000Y-85090000D02*
X161290000Y-85344000D01*
X161290000Y-85344000D02*
X161290000Y-87376000D01*
X163576000Y-87630000D02*
X163830000Y-87376000D01*
X163830000Y-84836000D02*
X163830000Y-82804000D01*
X161290000Y-87376000D02*
X161544000Y-87630000D01*
X161290000Y-82804000D02*
X161290000Y-84836000D01*
X161544000Y-82550000D02*
X161290000Y-82804000D01*
X163830000Y-82804000D02*
X163576000Y-82550000D01*
X163830000Y-77724000D02*
X163576000Y-77470000D01*
X161544000Y-77470000D02*
X161290000Y-77724000D01*
X161290000Y-77724000D02*
X161290000Y-79756000D01*
X161290000Y-82296000D02*
X161544000Y-82550000D01*
X163830000Y-79756000D02*
X163830000Y-77724000D01*
X163576000Y-82550000D02*
X163830000Y-82296000D01*
X161290000Y-80264000D02*
X161290000Y-82296000D01*
X161544000Y-80010000D02*
X161290000Y-80264000D01*
X163830000Y-82296000D02*
X163830000Y-80264000D01*
X163576000Y-80010000D02*
X163830000Y-79756000D01*
X163830000Y-80264000D02*
X163576000Y-80010000D01*
X161290000Y-79756000D02*
X161544000Y-80010000D01*
X161290000Y-82296000D02*
X161544000Y-82550000D01*
X163576000Y-82550000D02*
X163830000Y-82296000D01*
X163830000Y-82296000D02*
X163830000Y-80264000D01*
X161290000Y-80264000D02*
X161290000Y-82296000D01*
X161544000Y-80010000D02*
X161290000Y-80264000D01*
X163830000Y-80264000D02*
X163576000Y-80010000D01*
X163830000Y-75184000D02*
X163576000Y-74930000D01*
X161544000Y-74930000D02*
X161290000Y-75184000D01*
X161290000Y-75184000D02*
X161290000Y-77216000D01*
X163830000Y-77216000D02*
X163830000Y-75184000D01*
X163576000Y-77470000D02*
X163830000Y-77216000D01*
X161290000Y-77216000D02*
X161544000Y-77470000D01*
X161290000Y-74676000D02*
X161544000Y-74930000D01*
X163830000Y-75184000D02*
X163576000Y-74930000D01*
X163576000Y-74930000D02*
X163830000Y-74676000D01*
X163830000Y-77216000D02*
X163830000Y-75184000D01*
X161544000Y-74930000D02*
X161290000Y-75184000D01*
X161290000Y-75184000D02*
X161290000Y-77216000D01*
X163576000Y-77470000D02*
X163830000Y-77216000D01*
X163830000Y-70104000D02*
X163576000Y-69850000D01*
X163830000Y-74676000D02*
X163830000Y-72644000D01*
X161290000Y-77216000D02*
X161544000Y-77470000D01*
X161290000Y-72644000D02*
X161290000Y-74676000D01*
X161544000Y-72390000D02*
X161290000Y-72644000D01*
X161290000Y-62230000D02*
X161290000Y-62484000D01*
X161290000Y-62484000D02*
X161290000Y-64516000D01*
X161290000Y-64516000D02*
X161544000Y-64770000D01*
X161544000Y-64770000D02*
X161290000Y-65024000D01*
X161290000Y-65024000D02*
X161290000Y-67056000D01*
X161290000Y-67056000D02*
X161544000Y-67310000D01*
X161544000Y-67310000D02*
X161290000Y-67564000D01*
X161290000Y-67564000D02*
X161290000Y-69596000D01*
X161290000Y-69596000D02*
X161544000Y-69850000D01*
X161544000Y-69850000D02*
X161290000Y-70104000D01*
X161290000Y-70104000D02*
X161290000Y-72136000D01*
X161290000Y-72136000D02*
X161544000Y-72390000D01*
X163576000Y-72390000D02*
X163830000Y-72136000D01*
X163830000Y-72136000D02*
X163830000Y-70104000D01*
X163830000Y-72644000D02*
X163576000Y-72390000D01*
X163576000Y-69850000D02*
X163830000Y-69596000D01*
X163830000Y-69596000D02*
X163830000Y-67564000D01*
X161544000Y-62230000D02*
X161290000Y-62484000D01*
X163830000Y-62484000D02*
X163576000Y-62230000D01*
X163830000Y-62738000D02*
X163830000Y-62230000D01*
X163830000Y-67056000D02*
X163830000Y-65024000D01*
X163830000Y-65024000D02*
X163576000Y-64770000D01*
X163576000Y-64770000D02*
X163830000Y-64516000D01*
X163830000Y-64516000D02*
X163830000Y-62738000D01*
X163830000Y-67056000D02*
X163576000Y-67310000D01*
X163576000Y-67310000D02*
X163830000Y-67564000D01*
X161290000Y-62230000D02*
X163830000Y-62230000D01*
X141605000Y-101473000D02*
X141605000Y-100457000D01*
X143129000Y-101473000D02*
X143129000Y-100457000D01*
X141224000Y-72644000D02*
X141224000Y-71628000D01*
X142748000Y-72644000D02*
X142748000Y-71628000D01*
X145669000Y-90932000D02*
X144653000Y-90932000D01*
X145669000Y-89408000D02*
X144653000Y-89408000D01*
X142748000Y-66548000D02*
X142748000Y-67564000D01*
X141224000Y-66548000D02*
X141224000Y-67564000D01*
X155702000Y-68707000D02*
X155702000Y-67691000D01*
X157226000Y-68707000D02*
X157226000Y-67691000D01*
X152908000Y-91567000D02*
X152908000Y-92583000D01*
X151384000Y-91567000D02*
X151384000Y-92583000D01*
X154686000Y-88138000D02*
X155702000Y-88138000D01*
X154686000Y-89662000D02*
X155702000Y-89662000D01*
X158496000Y-63500000D02*
X159512000Y-63500000D01*
X158496000Y-65024000D02*
X159512000Y-65024000D01*
X147688300Y-77012800D02*
X147688300Y-75882500D01*
X150495000Y-77012800D02*
X150495000Y-75882500D01*
X145935700Y-66751200D02*
X145935700Y-67881500D01*
X143129000Y-66751200D02*
X143129000Y-67881500D01*
X157721300Y-68122800D02*
X157721300Y-66992500D01*
X160528000Y-68122800D02*
X160528000Y-66992500D01*
D21*
X146130000Y-112990000D02*
X146130000Y-112740000D01*
X156130000Y-112990000D02*
X146130000Y-112990000D01*
X156130000Y-112740000D02*
X156130000Y-112990000D01*
X154130000Y-108990000D02*
X156130000Y-108990000D01*
X146130000Y-108990000D02*
X148130000Y-108990000D01*
D10*
X146431000Y-106997500D02*
X146685000Y-106997500D01*
X146431000Y-106997500D02*
X146177000Y-106997500D01*
X146431000Y-107886500D02*
X146177000Y-107886500D01*
X146431000Y-107886500D02*
X146685000Y-107886500D01*
X144780000Y-86296500D02*
X145034000Y-86296500D01*
X144780000Y-86296500D02*
X144526000Y-86296500D01*
X144780000Y-87185500D02*
X144526000Y-87185500D01*
X144780000Y-87185500D02*
X145034000Y-87185500D01*
X144208500Y-62865000D02*
X144208500Y-62611000D01*
X144208500Y-62865000D02*
X144208500Y-63119000D01*
X145097500Y-62865000D02*
X145097500Y-63119000D01*
X145097500Y-62865000D02*
X145097500Y-62611000D01*
X145288000Y-88328500D02*
X145542000Y-88328500D01*
X145288000Y-88328500D02*
X145034000Y-88328500D01*
X145288000Y-89217500D02*
X145034000Y-89217500D01*
X145288000Y-89217500D02*
X145542000Y-89217500D01*
X147891500Y-85471000D02*
X147891500Y-85725000D01*
X147891500Y-85471000D02*
X147891500Y-85217000D01*
X147002500Y-85471000D02*
X147002500Y-85217000D01*
X147002500Y-85471000D02*
X147002500Y-85725000D01*
X147320000Y-69913500D02*
X147066000Y-69913500D01*
X147320000Y-69913500D02*
X147574000Y-69913500D01*
X147320000Y-69024500D02*
X147574000Y-69024500D01*
X147320000Y-69024500D02*
X147066000Y-69024500D01*
X145288000Y-87312500D02*
X145542000Y-87312500D01*
X145288000Y-87312500D02*
X145034000Y-87312500D01*
X145288000Y-88201500D02*
X145034000Y-88201500D01*
X145288000Y-88201500D02*
X145542000Y-88201500D01*
X148526500Y-92075000D02*
X148526500Y-91821000D01*
X148526500Y-92075000D02*
X148526500Y-92329000D01*
X149415500Y-92075000D02*
X149415500Y-92329000D01*
X149415500Y-92075000D02*
X149415500Y-91821000D01*
X154876500Y-86741000D02*
X154876500Y-86487000D01*
X154876500Y-86741000D02*
X154876500Y-86995000D01*
X155765500Y-86741000D02*
X155765500Y-86995000D01*
X155765500Y-86741000D02*
X155765500Y-86487000D01*
X156400500Y-86741000D02*
X156400500Y-86487000D01*
X156400500Y-86741000D02*
X156400500Y-86995000D01*
X157289500Y-86741000D02*
X157289500Y-86995000D01*
X157289500Y-86741000D02*
X157289500Y-86487000D01*
X146494500Y-82677000D02*
X146494500Y-82931000D01*
X146494500Y-82677000D02*
X146494500Y-82423000D01*
X145605500Y-82677000D02*
X145605500Y-82423000D01*
X145605500Y-82677000D02*
X145605500Y-82931000D01*
X146875500Y-92075000D02*
X146875500Y-92329000D01*
X146875500Y-92075000D02*
X146875500Y-91821000D01*
X145986500Y-92075000D02*
X145986500Y-91821000D01*
X145986500Y-92075000D02*
X145986500Y-92329000D01*
X151955500Y-101473000D02*
X151955500Y-101727000D01*
X151955500Y-101473000D02*
X151955500Y-101219000D01*
X151066500Y-101473000D02*
X151066500Y-101219000D01*
X151066500Y-101473000D02*
X151066500Y-101727000D01*
X148082000Y-99885500D02*
X148336000Y-99885500D01*
X148082000Y-99885500D02*
X147828000Y-99885500D01*
X148082000Y-100774500D02*
X147828000Y-100774500D01*
X148082000Y-100774500D02*
X148336000Y-100774500D01*
X148082000Y-101409500D02*
X148336000Y-101409500D01*
X148082000Y-101409500D02*
X147828000Y-101409500D01*
X148082000Y-102298500D02*
X147828000Y-102298500D01*
X148082000Y-102298500D02*
X148336000Y-102298500D01*
X145986500Y-62865000D02*
X145986500Y-63119000D01*
X145986500Y-62865000D02*
X145986500Y-62611000D01*
X145097500Y-62865000D02*
X145097500Y-62611000D01*
X145097500Y-62865000D02*
X145097500Y-63119000D01*
X144399000Y-64833500D02*
X144145000Y-64833500D01*
X144399000Y-64833500D02*
X144653000Y-64833500D01*
X144399000Y-63944500D02*
X144653000Y-63944500D01*
X144399000Y-63944500D02*
X144145000Y-63944500D01*
X147002500Y-87884000D02*
X147002500Y-87630000D01*
X147002500Y-87884000D02*
X147002500Y-88138000D01*
X147891500Y-87884000D02*
X147891500Y-88138000D01*
X147891500Y-87884000D02*
X147891500Y-87630000D01*
X147320000Y-69913500D02*
X147574000Y-69913500D01*
X147320000Y-69913500D02*
X147066000Y-69913500D01*
X147320000Y-70802500D02*
X147066000Y-70802500D01*
X147320000Y-70802500D02*
X147574000Y-70802500D01*
X156527500Y-101473000D02*
X156527500Y-101727000D01*
X156527500Y-101473000D02*
X156527500Y-101219000D01*
X155638500Y-101473000D02*
X155638500Y-101219000D01*
X155638500Y-101473000D02*
X155638500Y-101727000D01*
X159575500Y-70739000D02*
X159575500Y-70993000D01*
X159575500Y-70739000D02*
X159575500Y-70485000D01*
X158686500Y-70739000D02*
X158686500Y-70485000D01*
X158686500Y-70739000D02*
X158686500Y-70993000D01*
X159639000Y-62293500D02*
X159893000Y-62293500D01*
X159639000Y-62293500D02*
X159385000Y-62293500D01*
X159639000Y-63182500D02*
X159385000Y-63182500D01*
X159639000Y-63182500D02*
X159893000Y-63182500D01*
X157416500Y-70739000D02*
X157416500Y-70485000D01*
X157416500Y-70739000D02*
X157416500Y-70993000D01*
X158305500Y-70739000D02*
X158305500Y-70993000D01*
X158305500Y-70739000D02*
X158305500Y-70485000D01*
X147129500Y-92583000D02*
X147129500Y-92329000D01*
X147129500Y-92583000D02*
X147129500Y-92837000D01*
X148018500Y-92583000D02*
X148018500Y-92837000D01*
X148018500Y-92583000D02*
X148018500Y-92329000D01*
X155143200Y-73279000D02*
X155854400Y-73279000D01*
X155854400Y-74117200D02*
X155854400Y-73279000D01*
X153009600Y-74117200D02*
X153009600Y-73279000D01*
X153009600Y-73279000D02*
X153720800Y-73279000D01*
X158699200Y-73279000D02*
X159410400Y-73279000D01*
X159410400Y-74117200D02*
X159410400Y-73279000D01*
X156565600Y-74117200D02*
X156565600Y-73279000D01*
X156565600Y-73279000D02*
X157276800Y-73279000D01*
D22*
X157607000Y-96139000D02*
G75*
G03X157607000Y-96139000I-127000J0D01*
G01*
D10*
X158623000Y-92075000D02*
X158623000Y-92202000D01*
X158623000Y-92202000D02*
X158242000Y-92202000D01*
X158242000Y-92202000D02*
X158242000Y-92075000D01*
X158242000Y-92075000D02*
X158623000Y-92075000D01*
X158496000Y-93599000D02*
X157861000Y-93599000D01*
X158623000Y-93472000D02*
X157734000Y-93472000D01*
X157734000Y-93472000D02*
X157734000Y-93853000D01*
X157734000Y-93853000D02*
X158623000Y-93853000D01*
X158623000Y-93853000D02*
X158623000Y-93472000D01*
X157226000Y-93472000D02*
X157226000Y-93091000D01*
X157226000Y-93091000D02*
X157099000Y-93091000D01*
X157099000Y-93091000D02*
X157099000Y-93472000D01*
X157226000Y-93091000D02*
X157226000Y-93218000D01*
X157226000Y-92964000D02*
X157099000Y-93345000D01*
X157226000Y-93091000D02*
X157226000Y-93218000D01*
X157353000Y-92964000D02*
X157353000Y-93472000D01*
X157353000Y-93472000D02*
X156972000Y-93472000D01*
X156972000Y-93472000D02*
X156972000Y-92964000D01*
X159385000Y-92837000D02*
X159385000Y-92329000D01*
X159385000Y-92329000D02*
X159258000Y-92329000D01*
X159258000Y-92329000D02*
X159258000Y-92837000D01*
X157881609Y-96139000D02*
G75*
G03X157881609Y-96139000I-401609J0D01*
G01*
X157480000Y-95631000D02*
X157353000Y-93599000D01*
X159385000Y-96139000D02*
X159385000Y-96520000D01*
X159385000Y-96520000D02*
X158877000Y-96520000D01*
X158877000Y-96520000D02*
X158877000Y-96266000D01*
X159893000Y-92964000D02*
X156972000Y-92964000D01*
X159385000Y-96139000D02*
X159639000Y-93091000D01*
X159385000Y-96139000D02*
X157988000Y-96139000D01*
X160401000Y-96520000D02*
X156337000Y-92583000D01*
X160528000Y-92456000D02*
X156337000Y-96647000D01*
D19*
X160683200Y-97892400D02*
X156263600Y-97892400D01*
X156263600Y-97790800D02*
X160632400Y-97790800D01*
X160683200Y-97587600D02*
X156212800Y-97587600D01*
X160683200Y-97435200D02*
X156263600Y-97435200D01*
X156212800Y-97689200D02*
X160632400Y-97689200D01*
X156212800Y-97536800D02*
X160632400Y-97536800D01*
X160683200Y-97384400D02*
X156212800Y-97384400D01*
X156212800Y-97282800D02*
X160632400Y-97282800D01*
X156162000Y-97994000D02*
X160734000Y-97994000D01*
X160734000Y-97994000D02*
X160734000Y-97232000D01*
X160734000Y-97232000D02*
X156162000Y-97232000D01*
X156162000Y-97232000D02*
X156162000Y-97994000D01*
D10*
X157353000Y-92837000D02*
G75*
G02X159639000Y-92837000I1143000J-1143000D01*
G01*
D21*
X147713700Y-102819200D02*
X146342100Y-102819200D01*
X146342100Y-102819200D02*
X146291300Y-102819200D01*
X146291300Y-102819200D02*
X145034000Y-104063800D01*
X149237700Y-102933500D02*
X149136100Y-102933500D01*
X149085300Y-102870000D02*
X149085300Y-102857300D01*
X149085300Y-102857300D02*
X150380700Y-102857300D01*
X150380700Y-102857300D02*
X150406100Y-102857300D01*
X150406100Y-102857300D02*
X151028400Y-103352600D01*
X149085300Y-105879900D02*
X149085300Y-102870000D01*
X152742900Y-102920800D02*
X152819100Y-102920800D01*
X152895300Y-102857300D02*
X151650700Y-102857300D01*
X151650700Y-102857300D02*
X151066500Y-103339900D01*
X152895300Y-105854500D02*
X152895300Y-102870000D01*
X153631900Y-105448100D02*
X153543000Y-105448100D01*
X153974800Y-105448100D02*
X154038300Y-105448100D01*
X154114500Y-105511600D02*
X153504900Y-105511600D01*
X153504900Y-105511600D02*
X153479500Y-105511600D01*
X153479500Y-105511600D02*
X153479500Y-103492300D01*
X154114500Y-103492300D02*
X154114500Y-105511600D01*
X155613100Y-102882700D02*
X155498800Y-102882700D01*
X155740100Y-102806500D02*
X155435300Y-102806500D01*
X155435300Y-102806500D02*
X155435300Y-105841800D01*
X155917900Y-102895400D02*
X155981400Y-102882700D01*
X156032200Y-102806500D02*
X156044900Y-102806500D01*
X156044900Y-102806500D02*
X156057600Y-102806500D01*
X156057600Y-102806500D02*
X156057600Y-105956100D01*
X155752800Y-102806500D02*
X156032200Y-102806500D01*
D23*
X155752800Y-105879900D02*
X155752800Y-103149400D01*
X149415500Y-103162100D02*
X149415500Y-105765600D01*
X157530800Y-103149400D02*
X158534100Y-103149400D01*
X156908500Y-103759000D02*
X156908500Y-105689400D01*
X159131000Y-103797100D02*
X159131000Y-104038400D01*
X159131000Y-105765600D02*
X158546800Y-106337100D01*
X159118300Y-105778300D02*
X159118300Y-105016300D01*
X158559500Y-106337100D02*
X157518100Y-106337100D01*
D17*
X146790659Y-104724200D02*
G75*
G03X146790659Y-104724200I-359659J0D01*
G01*
D23*
X146939000Y-104724200D02*
X148158200Y-104724200D01*
D17*
X143856735Y-102984300D02*
G75*
G03X143856735Y-102984300I-359435J0D01*
G01*
D23*
X143865600Y-103339900D02*
X144729200Y-104233600D01*
D24*
X145288000Y-104330500D02*
X144729200Y-104330500D01*
D23*
X146405600Y-103149400D02*
X145313400Y-104216200D01*
X147627500Y-103149400D02*
X146405600Y-103149400D01*
X148158200Y-103632000D02*
X147675600Y-103124000D01*
X148158200Y-103657400D02*
X148158200Y-105892600D01*
X148158200Y-105892600D02*
X147726400Y-106324400D01*
X147726400Y-106324400D02*
X146405600Y-106324400D01*
X146405600Y-106324400D02*
X145262600Y-105206800D01*
D24*
X145262600Y-105105200D02*
X144729200Y-105105200D01*
D23*
X143916400Y-106019600D02*
X144754600Y-105206800D01*
D17*
X143915666Y-106375200D02*
G75*
G03X143915666Y-106375200I-329466J0D01*
G01*
X149778729Y-106286300D02*
G75*
G03X149778729Y-106286300I-363229J0D01*
G01*
D23*
X150317200Y-103174800D02*
X149428200Y-103174800D01*
D17*
X151399318Y-105003600D02*
G75*
G03X151399318Y-105003600I-370918J0D01*
G01*
D23*
X150952200Y-103682800D02*
X150317200Y-103174800D01*
X151028400Y-104470200D02*
X151028400Y-103759000D01*
X151739600Y-103174800D02*
X151130000Y-103682800D01*
X152577800Y-103174800D02*
X151739600Y-103174800D01*
X152577800Y-105765600D02*
X152577800Y-103174800D01*
D17*
X152924759Y-106273600D02*
G75*
G03X152924759Y-106273600I-359659J0D01*
G01*
X154157818Y-103073200D02*
G75*
G03X154157818Y-103073200I-373518J0D01*
G01*
D23*
X153797000Y-103606600D02*
X153797000Y-105206800D01*
D17*
X154163324Y-106299000D02*
G75*
G03X154163324Y-106299000I-366324J0D01*
G01*
D23*
X154309800Y-106324400D02*
X155295600Y-106324400D01*
X155295600Y-106324400D02*
X155752800Y-105867200D01*
X156921200Y-105727500D02*
X157480000Y-106311700D01*
X157530800Y-103162100D02*
X156895800Y-103771700D01*
X159131000Y-103746300D02*
X158623000Y-103238300D01*
D17*
X159455747Y-104521000D02*
G75*
G03X159455747Y-104521000I-337447J0D01*
G01*
D22*
X155575000Y-64947800D02*
X155575000Y-64109600D01*
X157353000Y-64947800D02*
X157353000Y-64109600D01*
D10*
X145237200Y-94597400D02*
X144830800Y-94597400D01*
X143611600Y-93276600D02*
X143611600Y-94064000D01*
X144272000Y-93276600D02*
X143611600Y-93276600D01*
X146456400Y-93276600D02*
X145796000Y-93276600D01*
X146456400Y-94064000D02*
X146456400Y-93276600D01*
D14*
X145276000Y-71916000D02*
X145626000Y-71916000D01*
X143776000Y-71916000D02*
X143426000Y-71916000D01*
D10*
X143026000Y-71866000D02*
X143026000Y-72266000D01*
X146026000Y-71866000D02*
X146026000Y-72266000D01*
D14*
X144276000Y-71966000D02*
G75*
G03X144776000Y-71966000I250000J0D01*
G01*
X143776000Y-71966000D02*
G75*
G03X144276000Y-71966000I250000J0D01*
G01*
X144776000Y-71966000D02*
G75*
G03X145276000Y-71966000I250000J0D01*
G01*
D10*
X151607068Y-65239327D02*
X151607068Y-63539327D01*
X151035640Y-63539327D01*
X150892782Y-63620280D01*
X150821354Y-63701232D01*
X150749925Y-63863137D01*
X150749925Y-64105994D01*
X150821354Y-64267899D01*
X150892782Y-64348851D01*
X151035640Y-64429803D01*
X151607068Y-64429803D01*
X150107068Y-65239327D02*
X150107068Y-63539327D01*
X150107068Y-64186946D02*
X149964211Y-64105994D01*
X149678497Y-64105994D01*
X149535640Y-64186946D01*
X149464211Y-64267899D01*
X149392782Y-64429803D01*
X149392782Y-64915518D01*
X149464211Y-65077422D01*
X149535640Y-65158375D01*
X149678497Y-65239327D01*
X149964211Y-65239327D01*
X150107068Y-65158375D01*
X160140298Y-84810379D02*
X160245060Y-84757998D01*
X160297440Y-84705617D01*
X160349821Y-84600855D01*
X160349821Y-84286569D01*
X160297440Y-84181807D01*
X160245060Y-84129426D01*
X160140298Y-84077045D01*
X159983155Y-84077045D01*
X159878393Y-84129426D01*
X159826012Y-84181807D01*
X159773631Y-84286569D01*
X159773631Y-84600855D01*
X159826012Y-84705617D01*
X159878393Y-84757998D01*
X159983155Y-84810379D01*
X160140298Y-84810379D01*
X159302202Y-84077045D02*
X159302202Y-85177045D01*
X159302202Y-84129426D02*
X159197440Y-84077045D01*
X158987917Y-84077045D01*
X158883155Y-84129426D01*
X158830774Y-84181807D01*
X158778393Y-84286569D01*
X158778393Y-84600855D01*
X158830774Y-84705617D01*
X158883155Y-84757998D01*
X158987917Y-84810379D01*
X159197440Y-84810379D01*
X159302202Y-84757998D01*
X157887917Y-84757998D02*
X157992679Y-84810379D01*
X158202202Y-84810379D01*
X158306964Y-84757998D01*
X158359345Y-84653236D01*
X158359345Y-84234188D01*
X158306964Y-84129426D01*
X158202202Y-84077045D01*
X157992679Y-84077045D01*
X157887917Y-84129426D01*
X157835536Y-84234188D01*
X157835536Y-84338950D01*
X158359345Y-84443712D01*
X157364107Y-84077045D02*
X157364107Y-84810379D01*
X157364107Y-84181807D02*
X157311726Y-84129426D01*
X157206964Y-84077045D01*
X157049821Y-84077045D01*
X156945060Y-84129426D01*
X156892679Y-84234188D01*
X156892679Y-84810379D01*
D25*
X155824797Y-84856580D02*
X155824797Y-83856580D01*
X155396225Y-84856580D02*
X155396225Y-84332771D01*
X155443844Y-84237533D01*
X155539082Y-84189914D01*
X155681940Y-84189914D01*
X155777178Y-84237533D01*
X155824797Y-84285152D01*
X154491463Y-84856580D02*
X154491463Y-84332771D01*
X154539082Y-84237533D01*
X154634320Y-84189914D01*
X154824797Y-84189914D01*
X154920035Y-84237533D01*
X154491463Y-84808961D02*
X154586701Y-84856580D01*
X154824797Y-84856580D01*
X154920035Y-84808961D01*
X154967654Y-84713723D01*
X154967654Y-84618485D01*
X154920035Y-84523247D01*
X154824797Y-84475628D01*
X154586701Y-84475628D01*
X154491463Y-84428009D01*
X154015273Y-84856580D02*
X154015273Y-84189914D01*
X154015273Y-84380390D02*
X153967654Y-84285152D01*
X153920035Y-84237533D01*
X153824797Y-84189914D01*
X153729559Y-84189914D01*
X152967654Y-84856580D02*
X152967654Y-83856580D01*
X152967654Y-84808961D02*
X153062892Y-84856580D01*
X153253368Y-84856580D01*
X153348606Y-84808961D01*
X153396225Y-84761342D01*
X153443844Y-84666104D01*
X153443844Y-84380390D01*
X153396225Y-84285152D01*
X153348606Y-84237533D01*
X153253368Y-84189914D01*
X153062892Y-84189914D01*
X152967654Y-84237533D01*
X152586701Y-84189914D02*
X152396225Y-84856580D01*
X152205749Y-84380390D01*
X152015273Y-84856580D01*
X151824797Y-84189914D01*
X151015273Y-84856580D02*
X151015273Y-84332771D01*
X151062892Y-84237533D01*
X151158130Y-84189914D01*
X151348606Y-84189914D01*
X151443844Y-84237533D01*
X151015273Y-84808961D02*
X151110511Y-84856580D01*
X151348606Y-84856580D01*
X151443844Y-84808961D01*
X151491463Y-84713723D01*
X151491463Y-84618485D01*
X151443844Y-84523247D01*
X151348606Y-84475628D01*
X151110511Y-84475628D01*
X151015273Y-84428009D01*
X150539082Y-84856580D02*
X150539082Y-84189914D01*
X150539082Y-84380390D02*
X150491463Y-84285152D01*
X150443844Y-84237533D01*
X150348606Y-84189914D01*
X150253368Y-84189914D01*
X149539082Y-84808961D02*
X149634320Y-84856580D01*
X149824797Y-84856580D01*
X149920035Y-84808961D01*
X149967654Y-84713723D01*
X149967654Y-84332771D01*
X149920035Y-84237533D01*
X149824797Y-84189914D01*
X149634320Y-84189914D01*
X149539082Y-84237533D01*
X149491463Y-84332771D01*
X149491463Y-84428009D01*
X149967654Y-84523247D01*
D10*
X156560761Y-99743380D02*
X156657523Y-99695000D01*
X156754285Y-99598238D01*
X156899428Y-99453095D01*
X156996190Y-99404714D01*
X157092952Y-99404714D01*
X157044571Y-99646619D02*
X157141333Y-99598238D01*
X157238095Y-99501476D01*
X157286476Y-99307952D01*
X157286476Y-98969285D01*
X157238095Y-98775761D01*
X157141333Y-98679000D01*
X157044571Y-98630619D01*
X156851047Y-98630619D01*
X156754285Y-98679000D01*
X156657523Y-98775761D01*
X156609142Y-98969285D01*
X156609142Y-99307952D01*
X156657523Y-99501476D01*
X156754285Y-99598238D01*
X156851047Y-99646619D01*
X157044571Y-99646619D01*
X155641523Y-99646619D02*
X156222095Y-99646619D01*
X155931809Y-99646619D02*
X155931809Y-98630619D01*
X156028571Y-98775761D01*
X156125333Y-98872523D01*
X156222095Y-98920904D01*
D11*
X150132142Y-81806142D02*
X150168428Y-81769857D01*
X150204714Y-81661000D01*
X150204714Y-81588428D01*
X150168428Y-81479571D01*
X150095857Y-81407000D01*
X150023285Y-81370714D01*
X149878142Y-81334428D01*
X149769285Y-81334428D01*
X149624142Y-81370714D01*
X149551571Y-81407000D01*
X149479000Y-81479571D01*
X149442714Y-81588428D01*
X149442714Y-81661000D01*
X149479000Y-81769857D01*
X149515285Y-81806142D01*
X150204714Y-82531857D02*
X150204714Y-82096428D01*
X150204714Y-82314142D02*
X149442714Y-82314142D01*
X149551571Y-82241571D01*
X149624142Y-82169000D01*
X149660428Y-82096428D01*
X149515285Y-82822142D02*
X149479000Y-82858428D01*
X149442714Y-82931000D01*
X149442714Y-83112428D01*
X149479000Y-83185000D01*
X149515285Y-83221285D01*
X149587857Y-83257571D01*
X149660428Y-83257571D01*
X149769285Y-83221285D01*
X150204714Y-82785857D01*
X150204714Y-83257571D01*
X153089428Y-72861714D02*
X153089428Y-72099714D01*
X152908000Y-72099714D01*
X152799142Y-72136000D01*
X152726571Y-72208571D01*
X152690285Y-72281142D01*
X152654000Y-72426285D01*
X152654000Y-72535142D01*
X152690285Y-72680285D01*
X152726571Y-72752857D01*
X152799142Y-72825428D01*
X152908000Y-72861714D01*
X153089428Y-72861714D01*
X151928285Y-72861714D02*
X152363714Y-72861714D01*
X152146000Y-72861714D02*
X152146000Y-72099714D01*
X152218571Y-72208571D01*
X152291142Y-72281142D01*
X152363714Y-72317428D01*
X147174857Y-78377142D02*
X147211142Y-78413428D01*
X147320000Y-78449714D01*
X147392571Y-78449714D01*
X147501428Y-78413428D01*
X147574000Y-78340857D01*
X147610285Y-78268285D01*
X147646571Y-78123142D01*
X147646571Y-78014285D01*
X147610285Y-77869142D01*
X147574000Y-77796571D01*
X147501428Y-77724000D01*
X147392571Y-77687714D01*
X147320000Y-77687714D01*
X147211142Y-77724000D01*
X147174857Y-77760285D01*
X146884571Y-77760285D02*
X146848285Y-77724000D01*
X146775714Y-77687714D01*
X146594285Y-77687714D01*
X146521714Y-77724000D01*
X146485428Y-77760285D01*
X146449142Y-77832857D01*
X146449142Y-77905428D01*
X146485428Y-78014285D01*
X146920857Y-78449714D01*
X146449142Y-78449714D01*
X145759714Y-77687714D02*
X146122571Y-77687714D01*
X146158857Y-78050571D01*
X146122571Y-78014285D01*
X146050000Y-77978000D01*
X145868571Y-77978000D01*
X145796000Y-78014285D01*
X145759714Y-78050571D01*
X145723428Y-78123142D01*
X145723428Y-78304571D01*
X145759714Y-78377142D01*
X145796000Y-78413428D01*
X145868571Y-78449714D01*
X146050000Y-78449714D01*
X146122571Y-78413428D01*
X146158857Y-78377142D01*
X151402142Y-72535142D02*
X151438428Y-72498857D01*
X151474714Y-72390000D01*
X151474714Y-72317428D01*
X151438428Y-72208571D01*
X151365857Y-72136000D01*
X151293285Y-72099714D01*
X151148142Y-72063428D01*
X151039285Y-72063428D01*
X150894142Y-72099714D01*
X150821571Y-72136000D01*
X150749000Y-72208571D01*
X150712714Y-72317428D01*
X150712714Y-72390000D01*
X150749000Y-72498857D01*
X150785285Y-72535142D01*
X150785285Y-72825428D02*
X150749000Y-72861714D01*
X150712714Y-72934285D01*
X150712714Y-73115714D01*
X150749000Y-73188285D01*
X150785285Y-73224571D01*
X150857857Y-73260857D01*
X150930428Y-73260857D01*
X151039285Y-73224571D01*
X151474714Y-72789142D01*
X151474714Y-73260857D01*
X150966714Y-73914000D02*
X151474714Y-73914000D01*
X150676428Y-73732571D02*
X151220714Y-73551142D01*
X151220714Y-74022857D01*
X160382857Y-90823142D02*
X160419142Y-90859428D01*
X160528000Y-90895714D01*
X160600571Y-90895714D01*
X160709428Y-90859428D01*
X160782000Y-90786857D01*
X160818285Y-90714285D01*
X160854571Y-90569142D01*
X160854571Y-90460285D01*
X160818285Y-90315142D01*
X160782000Y-90242571D01*
X160709428Y-90170000D01*
X160600571Y-90133714D01*
X160528000Y-90133714D01*
X160419142Y-90170000D01*
X160382857Y-90206285D01*
X159657142Y-90895714D02*
X160092571Y-90895714D01*
X159874857Y-90895714D02*
X159874857Y-90133714D01*
X159947428Y-90242571D01*
X160020000Y-90315142D01*
X160092571Y-90351428D01*
X159403142Y-90133714D02*
X158895142Y-90133714D01*
X159221714Y-90895714D01*
X143110857Y-98189142D02*
X143147142Y-98225428D01*
X143256000Y-98261714D01*
X143328571Y-98261714D01*
X143437428Y-98225428D01*
X143510000Y-98152857D01*
X143546285Y-98080285D01*
X143582571Y-97935142D01*
X143582571Y-97826285D01*
X143546285Y-97681142D01*
X143510000Y-97608571D01*
X143437428Y-97536000D01*
X143328571Y-97499714D01*
X143256000Y-97499714D01*
X143147142Y-97536000D01*
X143110857Y-97572285D01*
X142856857Y-97499714D02*
X142385142Y-97499714D01*
X142639142Y-97790000D01*
X142530285Y-97790000D01*
X142457714Y-97826285D01*
X142421428Y-97862571D01*
X142385142Y-97935142D01*
X142385142Y-98116571D01*
X142421428Y-98189142D01*
X142457714Y-98225428D01*
X142530285Y-98261714D01*
X142748000Y-98261714D01*
X142820571Y-98225428D01*
X142856857Y-98189142D01*
X141732000Y-97499714D02*
X141877142Y-97499714D01*
X141949714Y-97536000D01*
X141986000Y-97572285D01*
X142058571Y-97681142D01*
X142094857Y-97826285D01*
X142094857Y-98116571D01*
X142058571Y-98189142D01*
X142022285Y-98225428D01*
X141949714Y-98261714D01*
X141804571Y-98261714D01*
X141732000Y-98225428D01*
X141695714Y-98189142D01*
X141659428Y-98116571D01*
X141659428Y-97935142D01*
X141695714Y-97862571D01*
X141732000Y-97826285D01*
X141804571Y-97790000D01*
X141949714Y-97790000D01*
X142022285Y-97826285D01*
X142058571Y-97862571D01*
X142094857Y-97935142D01*
X142856857Y-75075142D02*
X142893142Y-75111428D01*
X143002000Y-75147714D01*
X143074571Y-75147714D01*
X143183428Y-75111428D01*
X143256000Y-75038857D01*
X143292285Y-74966285D01*
X143328571Y-74821142D01*
X143328571Y-74712285D01*
X143292285Y-74567142D01*
X143256000Y-74494571D01*
X143183428Y-74422000D01*
X143074571Y-74385714D01*
X143002000Y-74385714D01*
X142893142Y-74422000D01*
X142856857Y-74458285D01*
X142602857Y-74385714D02*
X142131142Y-74385714D01*
X142385142Y-74676000D01*
X142276285Y-74676000D01*
X142203714Y-74712285D01*
X142167428Y-74748571D01*
X142131142Y-74821142D01*
X142131142Y-75002571D01*
X142167428Y-75075142D01*
X142203714Y-75111428D01*
X142276285Y-75147714D01*
X142494000Y-75147714D01*
X142566571Y-75111428D01*
X142602857Y-75075142D01*
X141877142Y-74385714D02*
X141405428Y-74385714D01*
X141659428Y-74676000D01*
X141550571Y-74676000D01*
X141478000Y-74712285D01*
X141441714Y-74748571D01*
X141405428Y-74821142D01*
X141405428Y-75002571D01*
X141441714Y-75075142D01*
X141478000Y-75111428D01*
X141550571Y-75147714D01*
X141768285Y-75147714D01*
X141840857Y-75111428D01*
X141877142Y-75075142D01*
X142983857Y-90950142D02*
X143020142Y-90986428D01*
X143129000Y-91022714D01*
X143201571Y-91022714D01*
X143310428Y-90986428D01*
X143383000Y-90913857D01*
X143419285Y-90841285D01*
X143455571Y-90696142D01*
X143455571Y-90587285D01*
X143419285Y-90442142D01*
X143383000Y-90369571D01*
X143310428Y-90297000D01*
X143201571Y-90260714D01*
X143129000Y-90260714D01*
X143020142Y-90297000D01*
X142983857Y-90333285D01*
X142693571Y-90333285D02*
X142657285Y-90297000D01*
X142584714Y-90260714D01*
X142403285Y-90260714D01*
X142330714Y-90297000D01*
X142294428Y-90333285D01*
X142258142Y-90405857D01*
X142258142Y-90478428D01*
X142294428Y-90587285D01*
X142729857Y-91022714D01*
X142258142Y-91022714D01*
X141822714Y-90587285D02*
X141895285Y-90551000D01*
X141931571Y-90514714D01*
X141967857Y-90442142D01*
X141967857Y-90405857D01*
X141931571Y-90333285D01*
X141895285Y-90297000D01*
X141822714Y-90260714D01*
X141677571Y-90260714D01*
X141605000Y-90297000D01*
X141568714Y-90333285D01*
X141532428Y-90405857D01*
X141532428Y-90442142D01*
X141568714Y-90514714D01*
X141605000Y-90551000D01*
X141677571Y-90587285D01*
X141822714Y-90587285D01*
X141895285Y-90623571D01*
X141931571Y-90659857D01*
X141967857Y-90732428D01*
X141967857Y-90877571D01*
X141931571Y-90950142D01*
X141895285Y-90986428D01*
X141822714Y-91022714D01*
X141677571Y-91022714D01*
X141605000Y-90986428D01*
X141568714Y-90950142D01*
X141532428Y-90877571D01*
X141532428Y-90732428D01*
X141568714Y-90659857D01*
X141605000Y-90623571D01*
X141677571Y-90587285D01*
X142258142Y-69106142D02*
X142294428Y-69069857D01*
X142330714Y-68961000D01*
X142330714Y-68888428D01*
X142294428Y-68779571D01*
X142221857Y-68707000D01*
X142149285Y-68670714D01*
X142004142Y-68634428D01*
X141895285Y-68634428D01*
X141750142Y-68670714D01*
X141677571Y-68707000D01*
X141605000Y-68779571D01*
X141568714Y-68888428D01*
X141568714Y-68961000D01*
X141605000Y-69069857D01*
X141641285Y-69106142D01*
X141641285Y-69396428D02*
X141605000Y-69432714D01*
X141568714Y-69505285D01*
X141568714Y-69686714D01*
X141605000Y-69759285D01*
X141641285Y-69795571D01*
X141713857Y-69831857D01*
X141786428Y-69831857D01*
X141895285Y-69795571D01*
X142330714Y-69360142D01*
X142330714Y-69831857D01*
X141568714Y-70085857D02*
X141568714Y-70557571D01*
X141859000Y-70303571D01*
X141859000Y-70412428D01*
X141895285Y-70485000D01*
X141931571Y-70521285D01*
X142004142Y-70557571D01*
X142185571Y-70557571D01*
X142258142Y-70521285D01*
X142294428Y-70485000D01*
X142330714Y-70412428D01*
X142330714Y-70194714D01*
X142294428Y-70122142D01*
X142258142Y-70085857D01*
X153688142Y-67201142D02*
X153724428Y-67164857D01*
X153760714Y-67056000D01*
X153760714Y-66983428D01*
X153724428Y-66874571D01*
X153651857Y-66802000D01*
X153579285Y-66765714D01*
X153434142Y-66729428D01*
X153325285Y-66729428D01*
X153180142Y-66765714D01*
X153107571Y-66802000D01*
X153035000Y-66874571D01*
X152998714Y-66983428D01*
X152998714Y-67056000D01*
X153035000Y-67164857D01*
X153071285Y-67201142D01*
X153071285Y-67491428D02*
X153035000Y-67527714D01*
X152998714Y-67600285D01*
X152998714Y-67781714D01*
X153035000Y-67854285D01*
X153071285Y-67890571D01*
X153143857Y-67926857D01*
X153216428Y-67926857D01*
X153325285Y-67890571D01*
X153760714Y-67455142D01*
X153760714Y-67926857D01*
X152998714Y-68398571D02*
X152998714Y-68471142D01*
X153035000Y-68543714D01*
X153071285Y-68580000D01*
X153143857Y-68616285D01*
X153289000Y-68652571D01*
X153470428Y-68652571D01*
X153615571Y-68616285D01*
X153688142Y-68580000D01*
X153724428Y-68543714D01*
X153760714Y-68471142D01*
X153760714Y-68398571D01*
X153724428Y-68326000D01*
X153688142Y-68289714D01*
X153615571Y-68253428D01*
X153470428Y-68217142D01*
X153289000Y-68217142D01*
X153143857Y-68253428D01*
X153071285Y-68289714D01*
X153035000Y-68326000D01*
X152998714Y-68398571D01*
X154069142Y-91585142D02*
X154105428Y-91548857D01*
X154141714Y-91440000D01*
X154141714Y-91367428D01*
X154105428Y-91258571D01*
X154032857Y-91186000D01*
X153960285Y-91149714D01*
X153815142Y-91113428D01*
X153706285Y-91113428D01*
X153561142Y-91149714D01*
X153488571Y-91186000D01*
X153416000Y-91258571D01*
X153379714Y-91367428D01*
X153379714Y-91440000D01*
X153416000Y-91548857D01*
X153452285Y-91585142D01*
X154141714Y-92310857D02*
X154141714Y-91875428D01*
X154141714Y-92093142D02*
X153379714Y-92093142D01*
X153488571Y-92020571D01*
X153561142Y-91948000D01*
X153597428Y-91875428D01*
X153706285Y-92746285D02*
X153670000Y-92673714D01*
X153633714Y-92637428D01*
X153561142Y-92601142D01*
X153524857Y-92601142D01*
X153452285Y-92637428D01*
X153416000Y-92673714D01*
X153379714Y-92746285D01*
X153379714Y-92891428D01*
X153416000Y-92964000D01*
X153452285Y-93000285D01*
X153524857Y-93036571D01*
X153561142Y-93036571D01*
X153633714Y-93000285D01*
X153670000Y-92964000D01*
X153706285Y-92891428D01*
X153706285Y-92746285D01*
X153742571Y-92673714D01*
X153778857Y-92637428D01*
X153851428Y-92601142D01*
X153996571Y-92601142D01*
X154069142Y-92637428D01*
X154105428Y-92673714D01*
X154141714Y-92746285D01*
X154141714Y-92891428D01*
X154105428Y-92964000D01*
X154069142Y-93000285D01*
X153996571Y-93036571D01*
X153851428Y-93036571D01*
X153778857Y-93000285D01*
X153742571Y-92964000D01*
X153706285Y-92891428D01*
X158477857Y-89172142D02*
X158514142Y-89208428D01*
X158623000Y-89244714D01*
X158695571Y-89244714D01*
X158804428Y-89208428D01*
X158877000Y-89135857D01*
X158913285Y-89063285D01*
X158949571Y-88918142D01*
X158949571Y-88809285D01*
X158913285Y-88664142D01*
X158877000Y-88591571D01*
X158804428Y-88519000D01*
X158695571Y-88482714D01*
X158623000Y-88482714D01*
X158514142Y-88519000D01*
X158477857Y-88555285D01*
X157752142Y-89244714D02*
X158187571Y-89244714D01*
X157969857Y-89244714D02*
X157969857Y-88482714D01*
X158042428Y-88591571D01*
X158115000Y-88664142D01*
X158187571Y-88700428D01*
X157062714Y-88482714D02*
X157425571Y-88482714D01*
X157461857Y-88845571D01*
X157425571Y-88809285D01*
X157353000Y-88773000D01*
X157171571Y-88773000D01*
X157099000Y-88809285D01*
X157062714Y-88845571D01*
X157026428Y-88918142D01*
X157026428Y-89099571D01*
X157062714Y-89172142D01*
X157099000Y-89208428D01*
X157171571Y-89244714D01*
X157353000Y-89244714D01*
X157425571Y-89208428D01*
X157461857Y-89172142D01*
X158096857Y-62248142D02*
X158133142Y-62284428D01*
X158242000Y-62320714D01*
X158314571Y-62320714D01*
X158423428Y-62284428D01*
X158496000Y-62211857D01*
X158532285Y-62139285D01*
X158568571Y-61994142D01*
X158568571Y-61885285D01*
X158532285Y-61740142D01*
X158496000Y-61667571D01*
X158423428Y-61595000D01*
X158314571Y-61558714D01*
X158242000Y-61558714D01*
X158133142Y-61595000D01*
X158096857Y-61631285D01*
X157371142Y-62320714D02*
X157806571Y-62320714D01*
X157588857Y-62320714D02*
X157588857Y-61558714D01*
X157661428Y-61667571D01*
X157734000Y-61740142D01*
X157806571Y-61776428D01*
X157117142Y-61558714D02*
X156645428Y-61558714D01*
X156899428Y-61849000D01*
X156790571Y-61849000D01*
X156718000Y-61885285D01*
X156681714Y-61921571D01*
X156645428Y-61994142D01*
X156645428Y-62175571D01*
X156681714Y-62248142D01*
X156718000Y-62284428D01*
X156790571Y-62320714D01*
X157008285Y-62320714D01*
X157080857Y-62284428D01*
X157117142Y-62248142D01*
D10*
X147332095Y-75008619D02*
X147332095Y-75831095D01*
X147283714Y-75927857D01*
X147235333Y-75976238D01*
X147138571Y-76024619D01*
X146945047Y-76024619D01*
X146848285Y-75976238D01*
X146799904Y-75927857D01*
X146751523Y-75831095D01*
X146751523Y-75008619D01*
X145783904Y-75008619D02*
X146267714Y-75008619D01*
X146316095Y-75492428D01*
X146267714Y-75444047D01*
X146170952Y-75395666D01*
X145929047Y-75395666D01*
X145832285Y-75444047D01*
X145783904Y-75492428D01*
X145735523Y-75589190D01*
X145735523Y-75831095D01*
X145783904Y-75927857D01*
X145832285Y-75976238D01*
X145929047Y-76024619D01*
X146170952Y-76024619D01*
X146267714Y-75976238D01*
X146316095Y-75927857D01*
D11*
X147392571Y-65749714D02*
X147392571Y-66366571D01*
X147356285Y-66439142D01*
X147320000Y-66475428D01*
X147247428Y-66511714D01*
X147102285Y-66511714D01*
X147029714Y-66475428D01*
X146993428Y-66439142D01*
X146957142Y-66366571D01*
X146957142Y-65749714D01*
X146267714Y-65749714D02*
X146412857Y-65749714D01*
X146485428Y-65786000D01*
X146521714Y-65822285D01*
X146594285Y-65931142D01*
X146630571Y-66076285D01*
X146630571Y-66366571D01*
X146594285Y-66439142D01*
X146558000Y-66475428D01*
X146485428Y-66511714D01*
X146340285Y-66511714D01*
X146267714Y-66475428D01*
X146231428Y-66439142D01*
X146195142Y-66366571D01*
X146195142Y-66185142D01*
X146231428Y-66112571D01*
X146267714Y-66076285D01*
X146340285Y-66040000D01*
X146485428Y-66040000D01*
X146558000Y-66076285D01*
X146594285Y-66112571D01*
X146630571Y-66185142D01*
X160110714Y-69777428D02*
X160727571Y-69777428D01*
X160800142Y-69813714D01*
X160836428Y-69850000D01*
X160872714Y-69922571D01*
X160872714Y-70067714D01*
X160836428Y-70140285D01*
X160800142Y-70176571D01*
X160727571Y-70212857D01*
X160110714Y-70212857D01*
X160110714Y-70503142D02*
X160110714Y-70974857D01*
X160401000Y-70720857D01*
X160401000Y-70829714D01*
X160437285Y-70902285D01*
X160473571Y-70938571D01*
X160546142Y-70974857D01*
X160727571Y-70974857D01*
X160800142Y-70938571D01*
X160836428Y-70902285D01*
X160872714Y-70829714D01*
X160872714Y-70612000D01*
X160836428Y-70539428D01*
X160800142Y-70503142D01*
D10*
X160219571Y-107520619D02*
X160219571Y-108343095D01*
X160171190Y-108439857D01*
X160122809Y-108488238D01*
X160026047Y-108536619D01*
X159832523Y-108536619D01*
X159735761Y-108488238D01*
X159687380Y-108439857D01*
X159639000Y-108343095D01*
X159639000Y-107520619D01*
X159155190Y-108004428D02*
X158816523Y-108004428D01*
X158671380Y-108536619D02*
X159155190Y-108536619D01*
X159155190Y-107520619D01*
X158671380Y-107520619D01*
X158332714Y-107520619D02*
X157655380Y-108536619D01*
X157655380Y-107520619D02*
X158332714Y-108536619D01*
X157413476Y-107520619D02*
X156832904Y-107520619D01*
X157123190Y-108536619D02*
X157123190Y-107520619D01*
X155962047Y-108536619D02*
X156542619Y-108536619D01*
X156252333Y-108536619D02*
X156252333Y-107520619D01*
X156349095Y-107665761D01*
X156445857Y-107762523D01*
X156542619Y-107810904D01*
X144671142Y-108693857D02*
X144719523Y-108742238D01*
X144864666Y-108790619D01*
X144961428Y-108790619D01*
X145106571Y-108742238D01*
X145203333Y-108645476D01*
X145251714Y-108548714D01*
X145300095Y-108355190D01*
X145300095Y-108210047D01*
X145251714Y-108016523D01*
X145203333Y-107919761D01*
X145106571Y-107823000D01*
X144961428Y-107774619D01*
X144864666Y-107774619D01*
X144719523Y-107823000D01*
X144671142Y-107871380D01*
X144332476Y-107774619D02*
X143703523Y-107774619D01*
X144042190Y-108161666D01*
X143897047Y-108161666D01*
X143800285Y-108210047D01*
X143751904Y-108258428D01*
X143703523Y-108355190D01*
X143703523Y-108597095D01*
X143751904Y-108693857D01*
X143800285Y-108742238D01*
X143897047Y-108790619D01*
X144187333Y-108790619D01*
X144284095Y-108742238D01*
X144332476Y-108693857D01*
X143364857Y-107774619D02*
X142687523Y-107774619D01*
X143122952Y-108790619D01*
D11*
X143110857Y-87013142D02*
X143147142Y-87049428D01*
X143256000Y-87085714D01*
X143328571Y-87085714D01*
X143437428Y-87049428D01*
X143510000Y-86976857D01*
X143546285Y-86904285D01*
X143582571Y-86759142D01*
X143582571Y-86650285D01*
X143546285Y-86505142D01*
X143510000Y-86432571D01*
X143437428Y-86360000D01*
X143328571Y-86323714D01*
X143256000Y-86323714D01*
X143147142Y-86360000D01*
X143110857Y-86396285D01*
X142856857Y-86323714D02*
X142385142Y-86323714D01*
X142639142Y-86614000D01*
X142530285Y-86614000D01*
X142457714Y-86650285D01*
X142421428Y-86686571D01*
X142385142Y-86759142D01*
X142385142Y-86940571D01*
X142421428Y-87013142D01*
X142457714Y-87049428D01*
X142530285Y-87085714D01*
X142748000Y-87085714D01*
X142820571Y-87049428D01*
X142856857Y-87013142D01*
X141695714Y-86323714D02*
X142058571Y-86323714D01*
X142094857Y-86686571D01*
X142058571Y-86650285D01*
X141986000Y-86614000D01*
X141804571Y-86614000D01*
X141732000Y-86650285D01*
X141695714Y-86686571D01*
X141659428Y-86759142D01*
X141659428Y-86940571D01*
X141695714Y-87013142D01*
X141732000Y-87049428D01*
X141804571Y-87085714D01*
X141986000Y-87085714D01*
X142058571Y-87049428D01*
X142094857Y-87013142D01*
X145396857Y-61867142D02*
X145433142Y-61903428D01*
X145542000Y-61939714D01*
X145614571Y-61939714D01*
X145723428Y-61903428D01*
X145796000Y-61830857D01*
X145832285Y-61758285D01*
X145868571Y-61613142D01*
X145868571Y-61504285D01*
X145832285Y-61359142D01*
X145796000Y-61286571D01*
X145723428Y-61214000D01*
X145614571Y-61177714D01*
X145542000Y-61177714D01*
X145433142Y-61214000D01*
X145396857Y-61250285D01*
X145142857Y-61177714D02*
X144671142Y-61177714D01*
X144925142Y-61468000D01*
X144816285Y-61468000D01*
X144743714Y-61504285D01*
X144707428Y-61540571D01*
X144671142Y-61613142D01*
X144671142Y-61794571D01*
X144707428Y-61867142D01*
X144743714Y-61903428D01*
X144816285Y-61939714D01*
X145034000Y-61939714D01*
X145106571Y-61903428D01*
X145142857Y-61867142D01*
X144199428Y-61177714D02*
X144126857Y-61177714D01*
X144054285Y-61214000D01*
X144018000Y-61250285D01*
X143981714Y-61322857D01*
X143945428Y-61468000D01*
X143945428Y-61649428D01*
X143981714Y-61794571D01*
X144018000Y-61867142D01*
X144054285Y-61903428D01*
X144126857Y-61939714D01*
X144199428Y-61939714D01*
X144272000Y-61903428D01*
X144308285Y-61867142D01*
X144344571Y-61794571D01*
X144380857Y-61649428D01*
X144380857Y-61468000D01*
X144344571Y-61322857D01*
X144308285Y-61250285D01*
X144272000Y-61214000D01*
X144199428Y-61177714D01*
X142983857Y-89553142D02*
X143020142Y-89589428D01*
X143129000Y-89625714D01*
X143201571Y-89625714D01*
X143310428Y-89589428D01*
X143383000Y-89516857D01*
X143419285Y-89444285D01*
X143455571Y-89299142D01*
X143455571Y-89190285D01*
X143419285Y-89045142D01*
X143383000Y-88972571D01*
X143310428Y-88900000D01*
X143201571Y-88863714D01*
X143129000Y-88863714D01*
X143020142Y-88900000D01*
X142983857Y-88936285D01*
X142693571Y-88936285D02*
X142657285Y-88900000D01*
X142584714Y-88863714D01*
X142403285Y-88863714D01*
X142330714Y-88900000D01*
X142294428Y-88936285D01*
X142258142Y-89008857D01*
X142258142Y-89081428D01*
X142294428Y-89190285D01*
X142729857Y-89625714D01*
X142258142Y-89625714D01*
X141895285Y-89625714D02*
X141750142Y-89625714D01*
X141677571Y-89589428D01*
X141641285Y-89553142D01*
X141568714Y-89444285D01*
X141532428Y-89299142D01*
X141532428Y-89008857D01*
X141568714Y-88936285D01*
X141605000Y-88900000D01*
X141677571Y-88863714D01*
X141822714Y-88863714D01*
X141895285Y-88900000D01*
X141931571Y-88936285D01*
X141967857Y-89008857D01*
X141967857Y-89190285D01*
X141931571Y-89262857D01*
X141895285Y-89299142D01*
X141822714Y-89335428D01*
X141677571Y-89335428D01*
X141605000Y-89299142D01*
X141568714Y-89262857D01*
X141532428Y-89190285D01*
X148862142Y-85235142D02*
X148898428Y-85198857D01*
X148934714Y-85090000D01*
X148934714Y-85017428D01*
X148898428Y-84908571D01*
X148825857Y-84836000D01*
X148753285Y-84799714D01*
X148608142Y-84763428D01*
X148499285Y-84763428D01*
X148354142Y-84799714D01*
X148281571Y-84836000D01*
X148209000Y-84908571D01*
X148172714Y-85017428D01*
X148172714Y-85090000D01*
X148209000Y-85198857D01*
X148245285Y-85235142D01*
X148245285Y-85525428D02*
X148209000Y-85561714D01*
X148172714Y-85634285D01*
X148172714Y-85815714D01*
X148209000Y-85888285D01*
X148245285Y-85924571D01*
X148317857Y-85960857D01*
X148390428Y-85960857D01*
X148499285Y-85924571D01*
X148934714Y-85489142D01*
X148934714Y-85960857D01*
X148172714Y-86214857D02*
X148172714Y-86722857D01*
X148934714Y-86396285D01*
X150095857Y-67709142D02*
X150132142Y-67745428D01*
X150241000Y-67781714D01*
X150313571Y-67781714D01*
X150422428Y-67745428D01*
X150495000Y-67672857D01*
X150531285Y-67600285D01*
X150567571Y-67455142D01*
X150567571Y-67346285D01*
X150531285Y-67201142D01*
X150495000Y-67128571D01*
X150422428Y-67056000D01*
X150313571Y-67019714D01*
X150241000Y-67019714D01*
X150132142Y-67056000D01*
X150095857Y-67092285D01*
X149805571Y-67092285D02*
X149769285Y-67056000D01*
X149696714Y-67019714D01*
X149515285Y-67019714D01*
X149442714Y-67056000D01*
X149406428Y-67092285D01*
X149370142Y-67164857D01*
X149370142Y-67237428D01*
X149406428Y-67346285D01*
X149841857Y-67781714D01*
X149370142Y-67781714D01*
X148717000Y-67019714D02*
X148862142Y-67019714D01*
X148934714Y-67056000D01*
X148971000Y-67092285D01*
X149043571Y-67201142D01*
X149079857Y-67346285D01*
X149079857Y-67636571D01*
X149043571Y-67709142D01*
X149007285Y-67745428D01*
X148934714Y-67781714D01*
X148789571Y-67781714D01*
X148717000Y-67745428D01*
X148680714Y-67709142D01*
X148644428Y-67636571D01*
X148644428Y-67455142D01*
X148680714Y-67382571D01*
X148717000Y-67346285D01*
X148789571Y-67310000D01*
X148934714Y-67310000D01*
X149007285Y-67346285D01*
X149043571Y-67382571D01*
X149079857Y-67455142D01*
X143110857Y-88283142D02*
X143147142Y-88319428D01*
X143256000Y-88355714D01*
X143328571Y-88355714D01*
X143437428Y-88319428D01*
X143510000Y-88246857D01*
X143546285Y-88174285D01*
X143582571Y-88029142D01*
X143582571Y-87920285D01*
X143546285Y-87775142D01*
X143510000Y-87702571D01*
X143437428Y-87630000D01*
X143328571Y-87593714D01*
X143256000Y-87593714D01*
X143147142Y-87630000D01*
X143110857Y-87666285D01*
X142385142Y-88355714D02*
X142820571Y-88355714D01*
X142602857Y-88355714D02*
X142602857Y-87593714D01*
X142675428Y-87702571D01*
X142748000Y-87775142D01*
X142820571Y-87811428D01*
X142022285Y-88355714D02*
X141877142Y-88355714D01*
X141804571Y-88319428D01*
X141768285Y-88283142D01*
X141695714Y-88174285D01*
X141659428Y-88029142D01*
X141659428Y-87738857D01*
X141695714Y-87666285D01*
X141732000Y-87630000D01*
X141804571Y-87593714D01*
X141949714Y-87593714D01*
X142022285Y-87630000D01*
X142058571Y-87666285D01*
X142094857Y-87738857D01*
X142094857Y-87920285D01*
X142058571Y-87992857D01*
X142022285Y-88029142D01*
X141949714Y-88065428D01*
X141804571Y-88065428D01*
X141732000Y-88029142D01*
X141695714Y-87992857D01*
X141659428Y-87920285D01*
X150640142Y-91585142D02*
X150676428Y-91548857D01*
X150712714Y-91440000D01*
X150712714Y-91367428D01*
X150676428Y-91258571D01*
X150603857Y-91186000D01*
X150531285Y-91149714D01*
X150386142Y-91113428D01*
X150277285Y-91113428D01*
X150132142Y-91149714D01*
X150059571Y-91186000D01*
X149987000Y-91258571D01*
X149950714Y-91367428D01*
X149950714Y-91440000D01*
X149987000Y-91548857D01*
X150023285Y-91585142D01*
X150712714Y-92310857D02*
X150712714Y-91875428D01*
X150712714Y-92093142D02*
X149950714Y-92093142D01*
X150059571Y-92020571D01*
X150132142Y-91948000D01*
X150168428Y-91875428D01*
X149950714Y-92964000D02*
X149950714Y-92818857D01*
X149987000Y-92746285D01*
X150023285Y-92710000D01*
X150132142Y-92637428D01*
X150277285Y-92601142D01*
X150567571Y-92601142D01*
X150640142Y-92637428D01*
X150676428Y-92673714D01*
X150712714Y-92746285D01*
X150712714Y-92891428D01*
X150676428Y-92964000D01*
X150640142Y-93000285D01*
X150567571Y-93036571D01*
X150386142Y-93036571D01*
X150313571Y-93000285D01*
X150277285Y-92964000D01*
X150241000Y-92891428D01*
X150241000Y-92746285D01*
X150277285Y-92673714D01*
X150313571Y-92637428D01*
X150386142Y-92601142D01*
X154196142Y-86251142D02*
X154232428Y-86214857D01*
X154268714Y-86106000D01*
X154268714Y-86033428D01*
X154232428Y-85924571D01*
X154159857Y-85852000D01*
X154087285Y-85815714D01*
X153942142Y-85779428D01*
X153833285Y-85779428D01*
X153688142Y-85815714D01*
X153615571Y-85852000D01*
X153543000Y-85924571D01*
X153506714Y-86033428D01*
X153506714Y-86106000D01*
X153543000Y-86214857D01*
X153579285Y-86251142D01*
X154268714Y-86976857D02*
X154268714Y-86541428D01*
X154268714Y-86759142D02*
X153506714Y-86759142D01*
X153615571Y-86686571D01*
X153688142Y-86614000D01*
X153724428Y-86541428D01*
X153506714Y-87448571D02*
X153506714Y-87521142D01*
X153543000Y-87593714D01*
X153579285Y-87630000D01*
X153651857Y-87666285D01*
X153797000Y-87702571D01*
X153978428Y-87702571D01*
X154123571Y-87666285D01*
X154196142Y-87630000D01*
X154232428Y-87593714D01*
X154268714Y-87521142D01*
X154268714Y-87448571D01*
X154232428Y-87376000D01*
X154196142Y-87339714D01*
X154123571Y-87303428D01*
X153978428Y-87267142D01*
X153797000Y-87267142D01*
X153651857Y-87303428D01*
X153579285Y-87339714D01*
X153543000Y-87376000D01*
X153506714Y-87448571D01*
X158514142Y-86614000D02*
X158550428Y-86577714D01*
X158586714Y-86468857D01*
X158586714Y-86396285D01*
X158550428Y-86287428D01*
X158477857Y-86214857D01*
X158405285Y-86178571D01*
X158260142Y-86142285D01*
X158151285Y-86142285D01*
X158006142Y-86178571D01*
X157933571Y-86214857D01*
X157861000Y-86287428D01*
X157824714Y-86396285D01*
X157824714Y-86468857D01*
X157861000Y-86577714D01*
X157897285Y-86614000D01*
X158586714Y-86976857D02*
X158586714Y-87122000D01*
X158550428Y-87194571D01*
X158514142Y-87230857D01*
X158405285Y-87303428D01*
X158260142Y-87339714D01*
X157969857Y-87339714D01*
X157897285Y-87303428D01*
X157861000Y-87267142D01*
X157824714Y-87194571D01*
X157824714Y-87049428D01*
X157861000Y-86976857D01*
X157897285Y-86940571D01*
X157969857Y-86904285D01*
X158151285Y-86904285D01*
X158223857Y-86940571D01*
X158260142Y-86976857D01*
X158296428Y-87049428D01*
X158296428Y-87194571D01*
X158260142Y-87267142D01*
X158223857Y-87303428D01*
X158151285Y-87339714D01*
X148862142Y-82169000D02*
X148898428Y-82132714D01*
X148934714Y-82023857D01*
X148934714Y-81951285D01*
X148898428Y-81842428D01*
X148825857Y-81769857D01*
X148753285Y-81733571D01*
X148608142Y-81697285D01*
X148499285Y-81697285D01*
X148354142Y-81733571D01*
X148281571Y-81769857D01*
X148209000Y-81842428D01*
X148172714Y-81951285D01*
X148172714Y-82023857D01*
X148209000Y-82132714D01*
X148245285Y-82169000D01*
X148172714Y-82858428D02*
X148172714Y-82495571D01*
X148535571Y-82459285D01*
X148499285Y-82495571D01*
X148463000Y-82568142D01*
X148463000Y-82749571D01*
X148499285Y-82822142D01*
X148535571Y-82858428D01*
X148608142Y-82894714D01*
X148789571Y-82894714D01*
X148862142Y-82858428D01*
X148898428Y-82822142D01*
X148934714Y-82749571D01*
X148934714Y-82568142D01*
X148898428Y-82495571D01*
X148862142Y-82459285D01*
X147592142Y-90297000D02*
X147628428Y-90260714D01*
X147664714Y-90151857D01*
X147664714Y-90079285D01*
X147628428Y-89970428D01*
X147555857Y-89897857D01*
X147483285Y-89861571D01*
X147338142Y-89825285D01*
X147229285Y-89825285D01*
X147084142Y-89861571D01*
X147011571Y-89897857D01*
X146939000Y-89970428D01*
X146902714Y-90079285D01*
X146902714Y-90151857D01*
X146939000Y-90260714D01*
X146975285Y-90297000D01*
X147229285Y-90732428D02*
X147193000Y-90659857D01*
X147156714Y-90623571D01*
X147084142Y-90587285D01*
X147047857Y-90587285D01*
X146975285Y-90623571D01*
X146939000Y-90659857D01*
X146902714Y-90732428D01*
X146902714Y-90877571D01*
X146939000Y-90950142D01*
X146975285Y-90986428D01*
X147047857Y-91022714D01*
X147084142Y-91022714D01*
X147156714Y-90986428D01*
X147193000Y-90950142D01*
X147229285Y-90877571D01*
X147229285Y-90732428D01*
X147265571Y-90659857D01*
X147301857Y-90623571D01*
X147374428Y-90587285D01*
X147519571Y-90587285D01*
X147592142Y-90623571D01*
X147628428Y-90659857D01*
X147664714Y-90732428D01*
X147664714Y-90877571D01*
X147628428Y-90950142D01*
X147592142Y-90986428D01*
X147519571Y-91022714D01*
X147374428Y-91022714D01*
X147301857Y-90986428D01*
X147265571Y-90950142D01*
X147229285Y-90877571D01*
X150585714Y-100602142D02*
X150222857Y-100348142D01*
X150585714Y-100166714D02*
X149823714Y-100166714D01*
X149823714Y-100457000D01*
X149860000Y-100529571D01*
X149896285Y-100565857D01*
X149968857Y-100602142D01*
X150077714Y-100602142D01*
X150150285Y-100565857D01*
X150186571Y-100529571D01*
X150222857Y-100457000D01*
X150222857Y-100166714D01*
X150585714Y-101327857D02*
X150585714Y-100892428D01*
X150585714Y-101110142D02*
X149823714Y-101110142D01*
X149932571Y-101037571D01*
X150005142Y-100965000D01*
X150041428Y-100892428D01*
X150077714Y-101981000D02*
X150585714Y-101981000D01*
X149787428Y-101799571D02*
X150331714Y-101618142D01*
X150331714Y-102089857D01*
X148952857Y-98134714D02*
X149206857Y-97771857D01*
X149388285Y-98134714D02*
X149388285Y-97372714D01*
X149098000Y-97372714D01*
X149025428Y-97409000D01*
X148989142Y-97445285D01*
X148952857Y-97517857D01*
X148952857Y-97626714D01*
X148989142Y-97699285D01*
X149025428Y-97735571D01*
X149098000Y-97771857D01*
X149388285Y-97771857D01*
X148227142Y-98134714D02*
X148662571Y-98134714D01*
X148444857Y-98134714D02*
X148444857Y-97372714D01*
X148517428Y-97481571D01*
X148590000Y-97554142D01*
X148662571Y-97590428D01*
X147973142Y-97372714D02*
X147501428Y-97372714D01*
X147755428Y-97663000D01*
X147646571Y-97663000D01*
X147574000Y-97699285D01*
X147537714Y-97735571D01*
X147501428Y-97808142D01*
X147501428Y-97989571D01*
X147537714Y-98062142D01*
X147574000Y-98098428D01*
X147646571Y-98134714D01*
X147864285Y-98134714D01*
X147936857Y-98098428D01*
X147973142Y-98062142D01*
X148952857Y-99404714D02*
X149206857Y-99041857D01*
X149388285Y-99404714D02*
X149388285Y-98642714D01*
X149098000Y-98642714D01*
X149025428Y-98679000D01*
X148989142Y-98715285D01*
X148952857Y-98787857D01*
X148952857Y-98896714D01*
X148989142Y-98969285D01*
X149025428Y-99005571D01*
X149098000Y-99041857D01*
X149388285Y-99041857D01*
X148227142Y-99404714D02*
X148662571Y-99404714D01*
X148444857Y-99404714D02*
X148444857Y-98642714D01*
X148517428Y-98751571D01*
X148590000Y-98824142D01*
X148662571Y-98860428D01*
X147501428Y-99404714D02*
X147936857Y-99404714D01*
X147719142Y-99404714D02*
X147719142Y-98642714D01*
X147791714Y-98751571D01*
X147864285Y-98824142D01*
X147936857Y-98860428D01*
X146775714Y-63772142D02*
X146412857Y-63518142D01*
X146775714Y-63336714D02*
X146013714Y-63336714D01*
X146013714Y-63627000D01*
X146050000Y-63699571D01*
X146086285Y-63735857D01*
X146158857Y-63772142D01*
X146267714Y-63772142D01*
X146340285Y-63735857D01*
X146376571Y-63699571D01*
X146412857Y-63627000D01*
X146412857Y-63336714D01*
X146775714Y-64497857D02*
X146775714Y-64062428D01*
X146775714Y-64280142D02*
X146013714Y-64280142D01*
X146122571Y-64207571D01*
X146195142Y-64135000D01*
X146231428Y-64062428D01*
X146013714Y-64969571D02*
X146013714Y-65042142D01*
X146050000Y-65114714D01*
X146086285Y-65151000D01*
X146158857Y-65187285D01*
X146304000Y-65223571D01*
X146485428Y-65223571D01*
X146630571Y-65187285D01*
X146703142Y-65151000D01*
X146739428Y-65114714D01*
X146775714Y-65042142D01*
X146775714Y-64969571D01*
X146739428Y-64897000D01*
X146703142Y-64860714D01*
X146630571Y-64824428D01*
X146485428Y-64788142D01*
X146304000Y-64788142D01*
X146158857Y-64824428D01*
X146086285Y-64860714D01*
X146050000Y-64897000D01*
X146013714Y-64969571D01*
X143346714Y-64262000D02*
X142983857Y-64008000D01*
X143346714Y-63826571D02*
X142584714Y-63826571D01*
X142584714Y-64116857D01*
X142621000Y-64189428D01*
X142657285Y-64225714D01*
X142729857Y-64262000D01*
X142838714Y-64262000D01*
X142911285Y-64225714D01*
X142947571Y-64189428D01*
X142983857Y-64116857D01*
X142983857Y-63826571D01*
X143346714Y-64624857D02*
X143346714Y-64770000D01*
X143310428Y-64842571D01*
X143274142Y-64878857D01*
X143165285Y-64951428D01*
X143020142Y-64987714D01*
X142729857Y-64987714D01*
X142657285Y-64951428D01*
X142621000Y-64915142D01*
X142584714Y-64842571D01*
X142584714Y-64697428D01*
X142621000Y-64624857D01*
X142657285Y-64588571D01*
X142729857Y-64552285D01*
X142911285Y-64552285D01*
X142983857Y-64588571D01*
X143020142Y-64624857D01*
X143056428Y-64697428D01*
X143056428Y-64842571D01*
X143020142Y-64915142D01*
X142983857Y-64951428D01*
X142911285Y-64987714D01*
X149061714Y-87757000D02*
X148698857Y-87503000D01*
X149061714Y-87321571D02*
X148299714Y-87321571D01*
X148299714Y-87611857D01*
X148336000Y-87684428D01*
X148372285Y-87720714D01*
X148444857Y-87757000D01*
X148553714Y-87757000D01*
X148626285Y-87720714D01*
X148662571Y-87684428D01*
X148698857Y-87611857D01*
X148698857Y-87321571D01*
X148626285Y-88192428D02*
X148590000Y-88119857D01*
X148553714Y-88083571D01*
X148481142Y-88047285D01*
X148444857Y-88047285D01*
X148372285Y-88083571D01*
X148336000Y-88119857D01*
X148299714Y-88192428D01*
X148299714Y-88337571D01*
X148336000Y-88410142D01*
X148372285Y-88446428D01*
X148444857Y-88482714D01*
X148481142Y-88482714D01*
X148553714Y-88446428D01*
X148590000Y-88410142D01*
X148626285Y-88337571D01*
X148626285Y-88192428D01*
X148662571Y-88119857D01*
X148698857Y-88083571D01*
X148771428Y-88047285D01*
X148916571Y-88047285D01*
X148989142Y-88083571D01*
X149025428Y-88119857D01*
X149061714Y-88192428D01*
X149061714Y-88337571D01*
X149025428Y-88410142D01*
X148989142Y-88446428D01*
X148916571Y-88482714D01*
X148771428Y-88482714D01*
X148698857Y-88446428D01*
X148662571Y-88410142D01*
X148626285Y-88337571D01*
X147066000Y-71972714D02*
X147320000Y-71609857D01*
X147501428Y-71972714D02*
X147501428Y-71210714D01*
X147211142Y-71210714D01*
X147138571Y-71247000D01*
X147102285Y-71283285D01*
X147066000Y-71355857D01*
X147066000Y-71464714D01*
X147102285Y-71537285D01*
X147138571Y-71573571D01*
X147211142Y-71609857D01*
X147501428Y-71609857D01*
X146812000Y-71210714D02*
X146304000Y-71210714D01*
X146630571Y-71972714D01*
D10*
X158066619Y-101176666D02*
X157582809Y-100838000D01*
X158066619Y-100596095D02*
X157050619Y-100596095D01*
X157050619Y-100983142D01*
X157099000Y-101079904D01*
X157147380Y-101128285D01*
X157244142Y-101176666D01*
X157389285Y-101176666D01*
X157486047Y-101128285D01*
X157534428Y-101079904D01*
X157582809Y-100983142D01*
X157582809Y-100596095D01*
X157050619Y-102047523D02*
X157050619Y-101854000D01*
X157099000Y-101757238D01*
X157147380Y-101708857D01*
X157292523Y-101612095D01*
X157486047Y-101563714D01*
X157873095Y-101563714D01*
X157969857Y-101612095D01*
X158018238Y-101660476D01*
X158066619Y-101757238D01*
X158066619Y-101950761D01*
X158018238Y-102047523D01*
X157969857Y-102095904D01*
X157873095Y-102144285D01*
X157631190Y-102144285D01*
X157534428Y-102095904D01*
X157486047Y-102047523D01*
X157437666Y-101950761D01*
X157437666Y-101757238D01*
X157486047Y-101660476D01*
X157534428Y-101612095D01*
X157631190Y-101563714D01*
D11*
X160872714Y-72136000D02*
X160509857Y-71882000D01*
X160872714Y-71700571D02*
X160110714Y-71700571D01*
X160110714Y-71990857D01*
X160147000Y-72063428D01*
X160183285Y-72099714D01*
X160255857Y-72136000D01*
X160364714Y-72136000D01*
X160437285Y-72099714D01*
X160473571Y-72063428D01*
X160509857Y-71990857D01*
X160509857Y-71700571D01*
X160364714Y-72789142D02*
X160872714Y-72789142D01*
X160074428Y-72607714D02*
X160618714Y-72426285D01*
X160618714Y-72898000D01*
X160528000Y-62066714D02*
X160782000Y-61703857D01*
X160963428Y-62066714D02*
X160963428Y-61304714D01*
X160673142Y-61304714D01*
X160600571Y-61341000D01*
X160564285Y-61377285D01*
X160528000Y-61449857D01*
X160528000Y-61558714D01*
X160564285Y-61631285D01*
X160600571Y-61667571D01*
X160673142Y-61703857D01*
X160963428Y-61703857D01*
X160274000Y-61304714D02*
X159802285Y-61304714D01*
X160056285Y-61595000D01*
X159947428Y-61595000D01*
X159874857Y-61631285D01*
X159838571Y-61667571D01*
X159802285Y-61740142D01*
X159802285Y-61921571D01*
X159838571Y-61994142D01*
X159874857Y-62030428D01*
X159947428Y-62066714D01*
X160165142Y-62066714D01*
X160237714Y-62030428D01*
X160274000Y-61994142D01*
X159602714Y-72136000D02*
X159239857Y-71882000D01*
X159602714Y-71700571D02*
X158840714Y-71700571D01*
X158840714Y-71990857D01*
X158877000Y-72063428D01*
X158913285Y-72099714D01*
X158985857Y-72136000D01*
X159094714Y-72136000D01*
X159167285Y-72099714D01*
X159203571Y-72063428D01*
X159239857Y-71990857D01*
X159239857Y-71700571D01*
X158913285Y-72426285D02*
X158877000Y-72462571D01*
X158840714Y-72535142D01*
X158840714Y-72716571D01*
X158877000Y-72789142D01*
X158913285Y-72825428D01*
X158985857Y-72861714D01*
X159058428Y-72861714D01*
X159167285Y-72825428D01*
X159602714Y-72390000D01*
X159602714Y-72861714D01*
X148934714Y-89553142D02*
X148571857Y-89299142D01*
X148934714Y-89117714D02*
X148172714Y-89117714D01*
X148172714Y-89408000D01*
X148209000Y-89480571D01*
X148245285Y-89516857D01*
X148317857Y-89553142D01*
X148426714Y-89553142D01*
X148499285Y-89516857D01*
X148535571Y-89480571D01*
X148571857Y-89408000D01*
X148571857Y-89117714D01*
X148934714Y-90278857D02*
X148934714Y-89843428D01*
X148934714Y-90061142D02*
X148172714Y-90061142D01*
X148281571Y-89988571D01*
X148354142Y-89916000D01*
X148390428Y-89843428D01*
X148172714Y-90968285D02*
X148172714Y-90605428D01*
X148535571Y-90569142D01*
X148499285Y-90605428D01*
X148463000Y-90678000D01*
X148463000Y-90859428D01*
X148499285Y-90932000D01*
X148535571Y-90968285D01*
X148608142Y-91004571D01*
X148789571Y-91004571D01*
X148862142Y-90968285D01*
X148898428Y-90932000D01*
X148934714Y-90859428D01*
X148934714Y-90678000D01*
X148898428Y-90605428D01*
X148862142Y-90569142D01*
X152218571Y-73914000D02*
X152218571Y-73660000D01*
X152617714Y-73660000D02*
X151855714Y-73660000D01*
X151855714Y-74022857D01*
X152218571Y-74313142D02*
X152218571Y-74567142D01*
X152617714Y-74676000D02*
X152617714Y-74313142D01*
X151855714Y-74313142D01*
X151855714Y-74676000D01*
X151855714Y-74893714D02*
X151855714Y-75329142D01*
X152617714Y-75111428D02*
X151855714Y-75111428D01*
X151928285Y-75546857D02*
X151892000Y-75583142D01*
X151855714Y-75655714D01*
X151855714Y-75837142D01*
X151892000Y-75909714D01*
X151928285Y-75946000D01*
X152000857Y-75982285D01*
X152073428Y-75982285D01*
X152182285Y-75946000D01*
X152617714Y-75510571D01*
X152617714Y-75982285D01*
X160346571Y-73660000D02*
X160346571Y-73406000D01*
X160745714Y-73406000D02*
X159983714Y-73406000D01*
X159983714Y-73768857D01*
X160346571Y-74059142D02*
X160346571Y-74313142D01*
X160745714Y-74422000D02*
X160745714Y-74059142D01*
X159983714Y-74059142D01*
X159983714Y-74422000D01*
X159983714Y-74639714D02*
X159983714Y-75075142D01*
X160745714Y-74857428D02*
X159983714Y-74857428D01*
X160745714Y-75728285D02*
X160745714Y-75292857D01*
X160745714Y-75510571D02*
X159983714Y-75510571D01*
X160092571Y-75438000D01*
X160165142Y-75365428D01*
X160201428Y-75292857D01*
X153361571Y-63754000D02*
X153361571Y-63500000D01*
X153760714Y-63500000D02*
X152998714Y-63500000D01*
X152998714Y-63862857D01*
X153361571Y-64407142D02*
X153397857Y-64516000D01*
X153434142Y-64552285D01*
X153506714Y-64588571D01*
X153615571Y-64588571D01*
X153688142Y-64552285D01*
X153724428Y-64516000D01*
X153760714Y-64443428D01*
X153760714Y-64153142D01*
X152998714Y-64153142D01*
X152998714Y-64407142D01*
X153035000Y-64479714D01*
X153071285Y-64516000D01*
X153143857Y-64552285D01*
X153216428Y-64552285D01*
X153289000Y-64516000D01*
X153325285Y-64479714D01*
X153361571Y-64407142D01*
X153361571Y-64153142D01*
X153760714Y-65314285D02*
X153760714Y-64878857D01*
X153760714Y-65096571D02*
X152998714Y-65096571D01*
X153107571Y-65024000D01*
X153180142Y-64951428D01*
X153216428Y-64878857D01*
D10*
X141937619Y-93162904D02*
X142760095Y-93162904D01*
X142856857Y-93211285D01*
X142905238Y-93259666D01*
X142953619Y-93356428D01*
X142953619Y-93549952D01*
X142905238Y-93646714D01*
X142856857Y-93695095D01*
X142760095Y-93743476D01*
X141937619Y-93743476D01*
X142034380Y-94178904D02*
X141986000Y-94227285D01*
X141937619Y-94324047D01*
X141937619Y-94565952D01*
X141986000Y-94662714D01*
X142034380Y-94711095D01*
X142131142Y-94759476D01*
X142227904Y-94759476D01*
X142373047Y-94711095D01*
X142953619Y-94130523D01*
X142953619Y-94759476D01*
D11*
X146939000Y-74258714D02*
X147301857Y-74258714D01*
X147301857Y-73496714D01*
X146285857Y-74258714D02*
X146721285Y-74258714D01*
X146503571Y-74258714D02*
X146503571Y-73496714D01*
X146576142Y-73605571D01*
X146648714Y-73678142D01*
X146721285Y-73714428D01*
%LPC*%
D21*
G36*
X142748000Y-114300000D02*
G01*
X138430000Y-114300000D01*
X138430000Y-112903000D01*
X142748000Y-112903000D01*
X142748000Y-114300000D01*
G37*
X142748000Y-114300000D02*
X138430000Y-114300000D01*
X138430000Y-112903000D01*
X142748000Y-112903000D01*
X142748000Y-114300000D01*
D26*
X139700000Y-71120000D03*
X139700000Y-68580000D03*
X139700000Y-66040000D03*
D27*
X139700000Y-63500000D03*
D26*
X139700000Y-73660000D03*
X139700000Y-76200000D03*
X139700000Y-81280000D03*
X139700000Y-78740000D03*
X139700000Y-83820000D03*
X139700000Y-86360000D03*
X139700000Y-91440000D03*
X139700000Y-88900000D03*
X139700000Y-93980000D03*
X139700000Y-96520000D03*
X139700000Y-101600000D03*
X139700000Y-99060000D03*
X139700000Y-109220000D03*
X139700000Y-111760000D03*
X139700000Y-106680000D03*
X139700000Y-104140000D03*
D28*
X154269440Y-98872040D03*
X154269440Y-100774500D03*
X152059640Y-99819460D03*
D29*
X147320000Y-83185000D03*
X147320000Y-82169000D03*
D30*
X149646000Y-70358000D03*
X154646000Y-70358000D03*
D31*
X146685000Y-79629000D03*
X148463000Y-79629000D03*
X149860000Y-73279000D03*
X148082000Y-73279000D03*
X158115000Y-90551000D03*
X156337000Y-90551000D03*
D26*
X162560000Y-71120000D03*
X162560000Y-68580000D03*
X162560000Y-66040000D03*
D27*
X162560000Y-63500000D03*
D26*
X162560000Y-73660000D03*
X162560000Y-76200000D03*
X162560000Y-81280000D03*
X162560000Y-78740000D03*
X162560000Y-83820000D03*
X162560000Y-86360000D03*
X162560000Y-91440000D03*
X162560000Y-88900000D03*
X162560000Y-93980000D03*
X162560000Y-96520000D03*
X162560000Y-101600000D03*
X162560000Y-99060000D03*
X162560000Y-109220000D03*
X162560000Y-111760000D03*
X162560000Y-106680000D03*
X162560000Y-104140000D03*
D31*
X142367000Y-100076000D03*
X142367000Y-101854000D03*
X141986000Y-71247000D03*
X141986000Y-73025000D03*
X144272000Y-90170000D03*
X146050000Y-90170000D03*
X141986000Y-67945000D03*
X141986000Y-66167000D03*
X156464000Y-67310000D03*
X156464000Y-69088000D03*
X152146000Y-92964000D03*
X152146000Y-91186000D03*
X156083000Y-88900000D03*
X154305000Y-88900000D03*
X159893000Y-64262000D03*
X158115000Y-64262000D03*
D32*
X148148000Y-75154000D03*
X149098000Y-75154000D03*
X150048000Y-75154000D03*
X148148000Y-77754000D03*
X150048000Y-77754000D03*
X145476000Y-68610000D03*
X144526000Y-68610000D03*
X143576000Y-68610000D03*
X145476000Y-66010000D03*
X143576000Y-66010000D03*
X158181000Y-66264000D03*
X159131000Y-66264000D03*
X160081000Y-66264000D03*
X158181000Y-68864000D03*
X160081000Y-68864000D03*
D33*
X153880000Y-108740000D03*
X153380000Y-108740000D03*
X152880000Y-108740000D03*
X152380000Y-108740000D03*
X151880000Y-108740000D03*
X151380000Y-108740000D03*
D34*
X156030000Y-110840000D03*
X146230000Y-110840000D03*
D33*
X150880000Y-108740000D03*
X150380000Y-108740000D03*
X149880000Y-108740000D03*
X149380000Y-108740000D03*
X148880000Y-108740000D03*
X148380000Y-108740000D03*
D35*
X145923000Y-107442000D03*
X146939000Y-107442000D03*
X144272000Y-86741000D03*
X145288000Y-86741000D03*
D29*
X144653000Y-63373000D03*
X144653000Y-62357000D03*
D35*
X144780000Y-88773000D03*
X145796000Y-88773000D03*
D29*
X147447000Y-84963000D03*
X147447000Y-85979000D03*
D35*
X147828000Y-69469000D03*
X146812000Y-69469000D03*
X144780000Y-87757000D03*
X145796000Y-87757000D03*
D29*
X148971000Y-92583000D03*
X148971000Y-91567000D03*
X155321000Y-87249000D03*
X155321000Y-86233000D03*
X156845000Y-87249000D03*
X156845000Y-86233000D03*
X146050000Y-82169000D03*
X146050000Y-83185000D03*
X146431000Y-91567000D03*
X146431000Y-92583000D03*
X151511000Y-100965000D03*
X151511000Y-101981000D03*
D35*
X147574000Y-100330000D03*
X148590000Y-100330000D03*
X147574000Y-101854000D03*
X148590000Y-101854000D03*
D29*
X145542000Y-62357000D03*
X145542000Y-63373000D03*
D35*
X144907000Y-64389000D03*
X143891000Y-64389000D03*
D29*
X147447000Y-88392000D03*
X147447000Y-87376000D03*
D35*
X146812000Y-70358000D03*
X147828000Y-70358000D03*
D29*
X156083000Y-100965000D03*
X156083000Y-101981000D03*
X159131000Y-70231000D03*
X159131000Y-71247000D03*
D35*
X159131000Y-62738000D03*
X160147000Y-62738000D03*
D29*
X157861000Y-71247000D03*
X157861000Y-70231000D03*
X147574000Y-93091000D03*
X147574000Y-92075000D03*
D36*
X155381960Y-75021440D03*
X153479500Y-75021440D03*
X154434540Y-72811640D03*
X158937960Y-75021440D03*
X157035500Y-75021440D03*
X157990540Y-72811640D03*
D37*
X156464000Y-65532000D03*
X156464000Y-63500000D03*
D36*
X145984000Y-95037000D03*
X144084000Y-95037000D03*
X145034000Y-92837000D03*
D38*
X144526000Y-73266000D03*
X144526000Y-70866000D03*
D39*
X159512000Y-112649000D03*
X142494000Y-62357000D03*
X143764000Y-112903000D03*
D40*
X147530000Y-64266000D03*
X147530000Y-67736000D03*
X154730000Y-67736000D03*
X154730000Y-64266000D03*
D41*
X149130000Y-66416000D03*
X153130000Y-66416000D03*
M02*
