G04 #@! TF.GenerationSoftware,KiCad,Pcbnew,5.1.0-rc2-unknown-036be7d~80~ubuntu16.04.1*
G04 #@! TF.CreationDate,2022-06-21T13:21:02+03:00*
G04 #@! TF.ProjectId,RT1010Py_Rev.C,52543130-3130-4507-995f-5265762e432e,C*
G04 #@! TF.SameCoordinates,Original*
G04 #@! TF.FileFunction,Paste,Bot*
G04 #@! TF.FilePolarity,Positive*
%FSLAX46Y46*%
G04 Gerber Fmt 4.6, Leading zero omitted, Abs format (unit mm)*
G04 Created by KiCad (PCBNEW 5.1.0-rc2-unknown-036be7d~80~ubuntu16.04.1) date 2022-06-21 13:21:02*
%MOMM*%
%LPD*%
G04 APERTURE LIST*
%ADD10R,1.400000X1.000000*%
%ADD11R,0.550000X0.500000*%
%ADD12R,2.000000X1.700000*%
%ADD13R,1.016000X1.016000*%
%ADD14R,0.550000X1.200000*%
%ADD15R,0.230000X1.280000*%
%ADD16R,2.500000X3.200000*%
%ADD17R,0.500000X0.550000*%
%ADD18R,1.000000X1.400000*%
%ADD19R,1.270000X1.524000*%
%ADD20R,3.000000X1.600000*%
G04 APERTURE END LIST*
D10*
X154269440Y-98872040D03*
X154269440Y-100774500D03*
X152059640Y-99819460D03*
D11*
X147320000Y-83185000D03*
X147320000Y-82169000D03*
D12*
X149646000Y-70358000D03*
X154646000Y-70358000D03*
D13*
X146685000Y-79629000D03*
X148463000Y-79629000D03*
X149860000Y-73279000D03*
X148082000Y-73279000D03*
X158115000Y-90551000D03*
X156337000Y-90551000D03*
X142367000Y-100076000D03*
X142367000Y-101854000D03*
X141986000Y-71247000D03*
X141986000Y-73025000D03*
X144272000Y-90170000D03*
X146050000Y-90170000D03*
X141986000Y-67945000D03*
X141986000Y-66167000D03*
X156464000Y-67310000D03*
X156464000Y-69088000D03*
X152146000Y-92964000D03*
X152146000Y-91186000D03*
X156083000Y-88900000D03*
X154305000Y-88900000D03*
X159893000Y-64262000D03*
X158115000Y-64262000D03*
D14*
X148148000Y-75154000D03*
X149098000Y-75154000D03*
X150048000Y-75154000D03*
X148148000Y-77754000D03*
X150048000Y-77754000D03*
X145476000Y-68610000D03*
X144526000Y-68610000D03*
X143576000Y-68610000D03*
X145476000Y-66010000D03*
X143576000Y-66010000D03*
X158181000Y-66264000D03*
X159131000Y-66264000D03*
X160081000Y-66264000D03*
X158181000Y-68864000D03*
X160081000Y-68864000D03*
D15*
X153880000Y-108740000D03*
X153380000Y-108740000D03*
X152880000Y-108740000D03*
X152380000Y-108740000D03*
X151880000Y-108740000D03*
X151380000Y-108740000D03*
D16*
X156030000Y-110840000D03*
X146230000Y-110840000D03*
D15*
X150880000Y-108740000D03*
X150380000Y-108740000D03*
X149880000Y-108740000D03*
X149380000Y-108740000D03*
X148880000Y-108740000D03*
X148380000Y-108740000D03*
D17*
X145923000Y-107442000D03*
X146939000Y-107442000D03*
X144272000Y-86741000D03*
X145288000Y-86741000D03*
D11*
X144653000Y-63373000D03*
X144653000Y-62357000D03*
D17*
X144780000Y-88773000D03*
X145796000Y-88773000D03*
D11*
X147447000Y-84963000D03*
X147447000Y-85979000D03*
D17*
X147828000Y-69469000D03*
X146812000Y-69469000D03*
X144780000Y-87757000D03*
X145796000Y-87757000D03*
D11*
X148971000Y-92583000D03*
X148971000Y-91567000D03*
X155321000Y-87249000D03*
X155321000Y-86233000D03*
X156845000Y-87249000D03*
X156845000Y-86233000D03*
X146050000Y-82169000D03*
X146050000Y-83185000D03*
X146431000Y-91567000D03*
X146431000Y-92583000D03*
X151511000Y-100965000D03*
X151511000Y-101981000D03*
D17*
X147574000Y-100330000D03*
X148590000Y-100330000D03*
X147574000Y-101854000D03*
X148590000Y-101854000D03*
D11*
X145542000Y-62357000D03*
X145542000Y-63373000D03*
D17*
X144907000Y-64389000D03*
X143891000Y-64389000D03*
D11*
X147447000Y-88392000D03*
X147447000Y-87376000D03*
D17*
X146812000Y-70358000D03*
X147828000Y-70358000D03*
D11*
X156083000Y-100965000D03*
X156083000Y-101981000D03*
X159131000Y-70231000D03*
X159131000Y-71247000D03*
D17*
X159131000Y-62738000D03*
X160147000Y-62738000D03*
D11*
X157861000Y-71247000D03*
X157861000Y-70231000D03*
X147574000Y-93091000D03*
X147574000Y-92075000D03*
D18*
X155381960Y-75021440D03*
X153479500Y-75021440D03*
X154434540Y-72811640D03*
X158937960Y-75021440D03*
X157035500Y-75021440D03*
X157990540Y-72811640D03*
D19*
X156464000Y-65532000D03*
X156464000Y-63500000D03*
D18*
X145984000Y-95037000D03*
X144084000Y-95037000D03*
X145034000Y-92837000D03*
D20*
X144526000Y-73266000D03*
X144526000Y-70866000D03*
M02*
