G04 #@! TF.GenerationSoftware,KiCad,Pcbnew,5.1.0-rc2-unknown-036be7d~80~ubuntu16.04.1*
G04 #@! TF.CreationDate,2022-06-21T13:21:02+03:00*
G04 #@! TF.ProjectId,RT1010Py_Rev.C,52543130-3130-4507-995f-5265762e432e,C*
G04 #@! TF.SameCoordinates,Original*
G04 #@! TF.FileFunction,Paste,Top*
G04 #@! TF.FilePolarity,Positive*
%FSLAX46Y46*%
G04 Gerber Fmt 4.6, Leading zero omitted, Abs format (unit mm)*
G04 Created by KiCad (PCBNEW 5.1.0-rc2-unknown-036be7d~80~ubuntu16.04.1) date 2022-06-21 13:21:02*
%MOMM*%
%LPD*%
G04 APERTURE LIST*
%ADD10R,1.630000X0.230000*%
%ADD11R,0.230000X1.630000*%
%ADD12R,0.500000X1.000000*%
%ADD13R,1.754000X1.454000*%
%ADD14R,0.904000X1.304000*%
%ADD15R,0.800000X0.800000*%
%ADD16R,1.016000X1.016000*%
%ADD17R,0.550000X0.500000*%
%ADD18R,0.500000X0.550000*%
%ADD19R,1.000000X1.800000*%
%ADD20R,2.000000X0.600000*%
%ADD21R,1.400000X1.200000*%
%ADD22R,3.000000X1.600000*%
%ADD23R,1.270000X1.524000*%
%ADD24R,1.354000X1.254000*%
%ADD25R,0.500000X1.650000*%
%ADD26R,0.396120X1.721120*%
G04 APERTURE END LIST*
D10*
X144504518Y-80975000D03*
X144504518Y-81475000D03*
X144504518Y-81975000D03*
X144504518Y-82475000D03*
X144504518Y-88475000D03*
X144504518Y-88975000D03*
X144504518Y-89475000D03*
X144504518Y-89975000D03*
X144504518Y-90475000D03*
X157755482Y-90475000D03*
X157755482Y-89975000D03*
X157755482Y-89475000D03*
X157755482Y-88975000D03*
X157755482Y-88475000D03*
X157755482Y-87975000D03*
X157755482Y-87475000D03*
X157755482Y-86975000D03*
X157755482Y-86475000D03*
X157755482Y-85975000D03*
X157755482Y-85475000D03*
X157755482Y-84975000D03*
X157755482Y-84475000D03*
X157755482Y-83975000D03*
X157755482Y-83475000D03*
X157755482Y-82975000D03*
X157755482Y-82475000D03*
X157755482Y-81975000D03*
X157755482Y-81475000D03*
X157755482Y-80975000D03*
D11*
X146380000Y-92350482D03*
X146880000Y-92350482D03*
X147380000Y-92350482D03*
X147880000Y-92350482D03*
X148380000Y-92350482D03*
X148880000Y-92350482D03*
X149380000Y-92350482D03*
X149880000Y-92350482D03*
X150380000Y-92350482D03*
X150880000Y-92350482D03*
X151380000Y-92350482D03*
X151880000Y-92350482D03*
X152380000Y-92350482D03*
X152880000Y-92350482D03*
X153380000Y-92350482D03*
X153880000Y-92350482D03*
X154380000Y-92350482D03*
X154880000Y-92350482D03*
X155380000Y-92350482D03*
X155880000Y-92350482D03*
X155880000Y-79099518D03*
X155380000Y-79099518D03*
X154880000Y-79099518D03*
X154380000Y-79099518D03*
X153880000Y-79099518D03*
X153380000Y-79099518D03*
X152880000Y-79099518D03*
X152380000Y-79099518D03*
X151880000Y-79099518D03*
X151380000Y-79099518D03*
X150880000Y-79099518D03*
X150380000Y-79099518D03*
X149880000Y-79099518D03*
X149380000Y-79099518D03*
X148880000Y-79099518D03*
X148380000Y-79099518D03*
X147880000Y-79099518D03*
X147380000Y-79099518D03*
X146880000Y-79099518D03*
X146380000Y-79099518D03*
D10*
X144504518Y-83475000D03*
X144504518Y-83975000D03*
X144504518Y-84475000D03*
X144504518Y-84975000D03*
X144504518Y-85475000D03*
X144504518Y-85975000D03*
X144504518Y-86475000D03*
X144504518Y-86975000D03*
X144504518Y-87475000D03*
X144504518Y-87975000D03*
X144504518Y-82975000D03*
D12*
X147280000Y-113028000D03*
X148380000Y-113028000D03*
X149480000Y-113028000D03*
X150580000Y-113028000D03*
X151330000Y-113028000D03*
X152030000Y-113028000D03*
X152780000Y-113028000D03*
X153880000Y-113028000D03*
X154980000Y-113028000D03*
D13*
X156430000Y-111278000D03*
X145830000Y-111278000D03*
X156430000Y-106828000D03*
X145830000Y-106828000D03*
D14*
X146998000Y-99779000D03*
X146998000Y-103929000D03*
X144848000Y-99779000D03*
X144848000Y-103929000D03*
D15*
X150368000Y-100584000D03*
X151892000Y-100584000D03*
D16*
X142240000Y-97409000D03*
X144018000Y-97409000D03*
X158623000Y-76708000D03*
X156845000Y-76708000D03*
X156718000Y-95123000D03*
X158496000Y-95123000D03*
D17*
X156210000Y-96393000D03*
X156210000Y-97409000D03*
D18*
X153289000Y-98298000D03*
X152273000Y-98298000D03*
X150876000Y-94869000D03*
X149860000Y-94869000D03*
X147701000Y-94869000D03*
X148717000Y-94869000D03*
D17*
X160020000Y-84201000D03*
X160020000Y-85217000D03*
D18*
X148844000Y-76962000D03*
X149860000Y-76962000D03*
D17*
X156972000Y-92837000D03*
X156972000Y-93853000D03*
D18*
X157861000Y-92837000D03*
X158877000Y-92837000D03*
X145669000Y-76962000D03*
X144653000Y-76962000D03*
X155194000Y-98298000D03*
X154178000Y-98298000D03*
D17*
X143256000Y-102362000D03*
X143256000Y-103378000D03*
X153162000Y-75438000D03*
X153162000Y-74422000D03*
D15*
X150368000Y-102362000D03*
X151892000Y-102362000D03*
D14*
X155262000Y-103929000D03*
X155262000Y-99779000D03*
X157412000Y-103929000D03*
X157412000Y-99779000D03*
D19*
X149840000Y-96647000D03*
X147340000Y-96647000D03*
D20*
X144720000Y-75438000D03*
X144720000Y-74168000D03*
X144720000Y-72898000D03*
X144720000Y-71628000D03*
X151190000Y-71628000D03*
X151190000Y-72898000D03*
X151190000Y-74168000D03*
X151190000Y-75438000D03*
D21*
X154643000Y-96939000D03*
X152443000Y-95339000D03*
X152443000Y-96939000D03*
X154643000Y-95339000D03*
D22*
X143764000Y-93288000D03*
X143764000Y-95688000D03*
D23*
X145669000Y-67056000D03*
X145669000Y-65024000D03*
D24*
X149630000Y-63116000D03*
X152630000Y-63116000D03*
D25*
X149742500Y-67666000D03*
D26*
X150480000Y-67666000D03*
X151130000Y-67666000D03*
X151780000Y-67666000D03*
D25*
X152517500Y-67666000D03*
M02*
